<svg width="258" height="258" viewBox="0 0 258 258" fill="none" xmlns="http://www.w3.org/2000/svg">
<path d="M112.004 111.563L173.552 199.816L104.813 247.755C80.4416 264.751 46.9081 258.773 29.9121 234.403C12.915 210.032 18.8937 176.498 43.2636 159.502L112.004 111.563Z" fill="#0DA84C"/>
<path d="M145.28 146.224L83.7321 57.971L152.471 10.0312C176.842 -6.96457 210.376 -0.986675 227.372 23.3838C244.369 47.7544 238.39 81.2884 214.021 98.2846L145.28 146.224Z" fill="#75DC66"/>
<path d="M83.7327 57.9646L152.472 10.0249C136.501 35.1034 139.09 51.4246 147.108 63.81L200.504 146.295C212.851 165.369 207.598 179.631 173.553 199.814L104.813 247.753C120.784 222.675 118.195 206.354 110.177 193.968L56.7813 111.483C44.4344 92.4094 49.6876 78.1474 83.7327 57.9646Z" fill="#5BCC5A"/>
</svg>
