<svg width="258" height="258" viewBox="0 0 258 258" fill="none" xmlns="http://www.w3.org/2000/svg">
<path d="M0 102.886V134.934H48.375V158.9L3.63262 171.604L12.4924 202.417L52.1142 191.168C62.435 223.594 92.9553 247.099 129 247.099C165.044 247.099 195.566 223.594 205.886 191.168L245.508 202.417L254.367 171.604L209.625 158.9V134.934H258V102.886L145.188 103.034H144.655L112.875 102.684V102.886H0Z" fill="#5BCC5A"/>
<path d="M113.212 10.1914V36.154C118.431 35.0897 123.834 34.531 129.366 34.531C134.899 34.531 140.301 35.0897 145.521 36.154V10.1914H177.83V50.7514C191.182 60.8245 201.324 74.9565 206.442 91.3235H52.2908C57.4086 74.9565 67.5511 60.8245 80.9023 50.7514V10.1914H113.212Z" fill="#75DC66"/>
<path d="M130.002 161.748C162.044 161.748 188.019 135.773 188.019 103.73H71.9846C71.9846 135.773 97.9599 161.748 130.002 161.748Z" fill="#0DA84C"/>
</svg>
