<svg width="258" height="258" viewBox="0 0 258 258" fill="none" xmlns="http://www.w3.org/2000/svg">
<g clip-path="url(#clip0_3099_598)">
<path d="M77.5519 55.5978C78.878 49.1417 84.5605 44.5078 91.1514 44.5078H235.3C247.021 44.5078 255.791 55.2626 253.433 66.7436L217.073 243.757C215.305 252.365 207.729 258.544 198.941 258.544H35.8657L77.5519 55.5978Z" fill="#5BCC5A"/>
<path d="M73.6512 74.5898H122.262C154.383 74.5898 178.284 104.273 171.43 135.655C166.383 158.768 145.919 175.245 122.262 175.245H52.9878L73.6512 74.5898Z" fill="#0DA84C"/>
<path d="M35.8655 258.545L73.6517 74.5898H49.1034C42.5125 74.5898 36.8299 79.2239 35.5039 85.6801L2.28341 247.427C1.10441 253.168 5.48951 258.545 11.3498 258.545H35.8655Z" fill="#75DC66"/>
</g>
<defs>
<clipPath id="clip0_3099_598">
<rect width="258" height="258" fill="white"/>
</clipPath>
</defs>
</svg>
