<svg width="100" height="100" viewBox="0 0 100 100" fill="none" xmlns="http://www.w3.org/2000/svg">
<path d="M90.8055 74.8565L86.4573 70.0067L81.942 74.8565H73.0785H54.0137V52.2797H45.1502L56.1877 27.0272H66.8908L70.7372 35.7234V27.0272H84.116L86.4573 33.5494L88.7986 27.0272H99V23.1808C99 20.8395 97.1604 18.9999 94.8191 18.9999H5.18089C2.83959 18.9999 1 20.8395 1 23.1808V77.5323C1 79.8736 2.83959 81.7132 5.18089 81.7132H94.8191C97.1604 81.7132 99 79.8736 99 77.5323V74.8565H90.8055Z" fill="#0071CE"/>
<path d="M91.9761 72.181H99L89.802 62.3142L99 52.6145H92.1433L86.2901 58.9694L80.6041 52.6145H73.5802L82.9454 62.4814L73.5802 72.181H80.4369L86.2901 65.8261L91.9761 72.181Z" fill="#0071CE"/>
<path d="M62.3753 67.6657V64.6555H73.4129V60.1401H62.3753V57.1299H73.5801V52.6145H57.0238V72.181H73.5801V67.6657H62.3753Z" fill="#0071CE"/>
<path d="M93.8157 49.7715H98.8328V30.0377L90.8055 30.205L86.4573 42.4131L81.942 30.205H73.5802V49.7715H78.9317V36.0582L83.9488 49.7715H88.6314L93.8157 36.0582V49.7715Z" fill="#0071CE"/>
<path d="M65.0513 30.2052H58.1947L49.4984 49.7718H55.3517L57.024 45.9253H66.0547L67.7271 49.7718H73.7476L65.0513 30.2052ZM58.8636 41.41L61.5394 35.055L64.2151 41.41H58.8636Z" fill="#0071CE"/>
<path d="M94.1502 61.8121L99 67.1636V56.4606L94.1502 61.8121Z" fill="#0071CE"/>
</svg>
