<svg width="100" height="100" viewBox="0 0 100 100" fill="none" xmlns="http://www.w3.org/2000/svg">
<path d="M46.3662 81.0948C46.3662 78.6602 44.9237 76.4561 42.6904 75.4786C39.388 74.0361 36.5396 72.0737 34.1488 69.5987C31.7544 67.1237 29.8762 64.1948 28.5179 60.8081C27.1559 57.4252 26.475 53.753 26.475 49.7916C26.475 46.1597 27.0717 42.6962 28.2689 39.3938C29.4625 36.0951 31.1796 33.2027 33.4056 30.7277C35.6353 28.2528 38.3153 26.294 41.4529 24.8479C41.8007 24.6868 42.1559 24.5367 42.511 24.3939C44.8395 23.4712 46.3626 21.2123 46.3626 18.708V7.65121C46.3626 6.64071 45.4583 5.85721 44.4588 6.02197C41.0465 6.58213 37.7734 7.49011 34.6431 8.75688C29.0305 11.0268 24.1391 14.1645 19.9727 18.1662C15.8026 22.1715 12.5441 26.8945 10.1936 32.3423C7.84312 37.7902 6.66422 43.6481 6.66422 49.9197C6.66422 56.1914 7.81749 61.9285 10.1314 67.3763C12.4416 72.8242 15.6195 77.5471 19.6651 81.5525C23.7071 85.5579 28.4557 88.7138 33.8999 91.024C37.2682 92.4519 40.7976 93.4368 44.4807 93.9823C45.4729 94.1287 46.3626 93.3489 46.3626 92.3457V81.1022L46.3662 81.0948Z" fill="#ED3349"/>
<path d="M49.7382 10.1589V10.1882C49.7382 12.0591 51.1661 13.6151 53.0296 13.7835C71.559 15.4494 86.0793 31.0204 86.0793 49.9818C86.0793 68.9431 71.559 84.5142 53.0296 86.1801C51.1661 86.3485 49.7382 87.9045 49.7382 89.7754V89.8047C49.7382 91.9245 51.5578 93.594 53.6703 93.4073C75.9048 91.4192 93.3358 72.7361 93.3358 49.9855C93.3358 27.2348 75.9048 8.55167 53.6703 6.56364C51.5578 6.37326 49.7382 8.04276 49.7382 10.1663V10.1589Z" fill="#231F20"/>
<path d="M78.8008 49.9773C78.8008 35.3106 67.938 23.181 53.8168 21.1966C51.6567 20.8928 49.7345 22.5989 49.7345 24.781C49.7345 26.564 51.0343 28.1017 52.8026 28.3506C63.4128 29.8407 71.5772 38.9571 71.5772 49.9773C71.5772 60.9975 63.4128 70.1139 52.8026 71.604C51.0343 71.853 49.7345 73.387 49.7345 75.1737C49.7345 77.3558 51.6567 79.0582 53.8168 78.758C67.9343 76.7737 78.8008 64.6441 78.8008 49.9773Z" fill="#231F20"/>
<path d="M64.2695 49.9778C64.2695 42.4979 58.6166 36.3361 51.3528 35.5343C50.4888 35.4391 49.7382 36.1274 49.7382 36.9951V62.9604C49.7382 63.8281 50.4888 64.5164 51.3528 64.4212C58.6203 63.6194 64.2695 57.4576 64.2695 49.9778Z" fill="#231F20"/>
</svg>
