<svg width="100" height="100" viewBox="0 0 100 100" fill="none" xmlns="http://www.w3.org/2000/svg">
<path d="M50.0009 6.00779C50.0009 6.00779 75.9393 4.84798 89.6911 30.8268H47.7938C47.7938 30.8268 39.887 30.5729 33.1329 40.1309C31.1926 44.1426 29.1071 48.275 31.4475 56.4193C28.076 50.7279 13.5486 25.5224 13.5486 25.5224C13.5486 25.5224 23.7957 7.03484 50.0009 6.00779Z" fill="#EF3F36"/>
<path d="M88.3446 71.9587C88.3446 71.9587 76.3756 94.9287 46.9328 93.793C50.5708 87.5217 67.8873 57.6399 67.8873 57.6399C67.8873 57.6399 72.0709 50.9458 67.1355 40.3368C64.625 36.6514 62.0664 32.7969 53.8205 30.7426C60.454 30.6826 89.6179 30.7426 89.6179 30.7426C89.6179 30.7426 100.544 48.8313 88.3446 71.9587Z" fill="#FCD900"/>
<path d="M11.8387 72.1389C11.8387 72.1389 -2.14327 50.3285 13.5726 25.4855C17.1985 31.7569 34.515 61.6387 34.515 61.6387C34.515 61.6387 38.25 68.5987 49.9277 69.6375C54.3785 69.3113 59.0106 69.0334 64.9286 62.9557C61.666 68.7074 47.0293 93.8405 47.0293 93.8405C47.0293 93.8405 25.8326 94.2271 11.8387 72.1389Z" fill="#61BC5B"/>
<path d="M46.9206 94.0091L52.8141 69.5047C52.8141 69.5047 59.2897 68.9968 64.7227 63.064C61.351 68.9732 46.9206 94.0091 46.9206 94.0091Z" fill="#5AB055"/>
<path d="M30.2592 50.28C30.2592 39.4777 39.0509 30.7174 49.8918 30.7174C60.7328 30.7174 69.5246 39.4777 69.5246 50.28C69.5246 61.0823 60.7328 69.8424 49.8918 69.8424C39.0509 69.8304 30.2592 61.0823 30.2592 50.28Z" fill="white"/>
<path d="M33.5465 50.2803C33.5465 41.2907 40.8592 33.9922 49.8934 33.9922C58.9154 33.9922 66.24 41.2788 66.24 50.2803C66.24 59.2705 58.9279 66.569 49.8934 66.569C40.8712 66.569 33.5465 59.2705 33.5465 50.2803Z" fill="url(#paint0_linear_188_283)"/>
<path d="M89.6059 30.7532L65.3407 37.8461C65.3407 37.8461 61.6786 32.4929 53.8086 30.7532C60.636 30.7168 89.6059 30.7532 89.6059 30.7532Z" fill="#EACA05"/>
<path d="M30.9746 55.5251C27.5667 49.6404 13.5486 25.5222 13.5486 25.5222L31.5201 43.2364C31.5201 43.2364 29.6767 47.0186 30.3682 52.4315L30.9746 55.5251Z" fill="#DF3A32"/>
<defs>
<linearGradient id="paint0_linear_188_283" x1="49.8928" y1="34.2223" x2="49.8928" y2="65.5883" gradientUnits="userSpaceOnUse">
<stop stop-color="#86BBE5"/>
<stop offset="1" stop-color="#1072BA"/>
</linearGradient>
</defs>
</svg>
