<svg width="100" height="100" viewBox="0 0 100 100" fill="none" xmlns="http://www.w3.org/2000/svg">
<mask id="mask0_790_5049" style="mask-type:luminance" maskUnits="userSpaceOnUse" x="3" y="19" width="94" height="61">
<path d="M6.09577 19.6801C4.38691 19.6801 3 21.066 3 22.7759V76.7012C3 78.409 4.38691 79.7959 6.09577 79.7959H93.9042C95.6141 79.7959 97 78.409 97 76.7012V22.7759C97 21.066 95.6141 19.6801 93.9042 19.6801H6.09577ZM4.03192 76.7012V22.7759C4.03192 21.6377 4.95756 20.7121 6.09577 20.7121H63.349C79.3799 20.7121 92.3749 33.7081 92.3749 49.738C92.3749 65.7679 79.3799 78.764 63.349 78.764H6.09577C4.95756 78.764 4.03192 77.8383 4.03192 76.7012Z" fill="white"/>
</mask>
<g mask="url(#mask0_790_5049)">
<path d="M29.592 125.91L-26.169 29.3278L70.4118 -26.4332L126.174 70.1486L29.592 125.91Z" fill="#E0541F"/>
</g>
<mask id="mask1_790_5049" style="mask-type:luminance" maskUnits="userSpaceOnUse" x="3" y="19" width="94" height="61">
<path d="M6.09577 19.6801C4.38691 19.6801 3 21.066 3 22.7759V76.7012C3 78.409 4.38691 79.7959 6.09577 79.7959H93.9042C95.6141 79.7959 97 78.409 97 76.7012V22.7759C97 21.066 95.6141 19.6801 93.9042 19.6801H6.09577ZM4.03192 76.7012V22.7759C4.03192 21.6377 4.95756 20.7121 6.09577 20.7121H63.349C79.3799 20.7121 92.3749 33.7081 92.3749 49.738C92.3749 65.7679 79.3799 78.764 63.349 78.764H6.09577C4.95756 78.764 4.03192 77.8383 4.03192 76.7012Z" fill="white"/>
</mask>
<g mask="url(#mask1_790_5049)">
<path d="M30.6025 127.66L-25.1585 31.0778L71.4223 -24.6832L127.184 71.8986L30.6025 127.66Z" fill="#E1561F"/>
</g>
<mask id="mask2_790_5049" style="mask-type:luminance" maskUnits="userSpaceOnUse" x="3" y="19" width="94" height="61">
<path d="M6.09577 19.6801C4.38691 19.6801 3 21.066 3 22.7759V76.7012C3 78.409 4.38691 79.7959 6.09577 79.7959H93.9042C95.6141 79.7959 97 78.409 97 76.7012V22.7759C97 21.066 95.6141 19.6801 93.9042 19.6801H6.09577ZM4.03192 76.7012V22.7759C4.03192 21.6377 4.95756 20.7121 6.09577 20.7121H63.349C79.3799 20.7121 92.3749 33.7081 92.3749 49.738C92.3749 65.7679 79.3799 78.764 63.349 78.764H6.09577C4.95756 78.764 4.03192 77.8383 4.03192 76.7012Z" fill="white"/>
</mask>
<g mask="url(#mask2_790_5049)">
<path d="M31.6131 129.41L-24.1479 32.8283L72.433 -22.9328L128.195 73.6491L31.6131 129.41Z" fill="#E1561F"/>
</g>
<mask id="mask3_790_5049" style="mask-type:luminance" maskUnits="userSpaceOnUse" x="3" y="19" width="94" height="61">
<path d="M6.09577 19.6801C4.38691 19.6801 3 21.066 3 22.7759V76.7012C3 78.409 4.38691 79.7959 6.09577 79.7959H93.9042C95.6141 79.7959 97 78.409 97 76.7012V22.7759C97 21.066 95.6141 19.6801 93.9042 19.6801H6.09577ZM4.03192 76.7012V22.7759C4.03192 21.6377 4.95756 20.7121 6.09577 20.7121H63.349C79.3799 20.7121 92.3749 33.7081 92.3749 49.738C92.3749 65.7679 79.3799 78.764 63.349 78.764H6.09577C4.95756 78.764 4.03192 77.8383 4.03192 76.7012Z" fill="white"/>
</mask>
<g mask="url(#mask3_790_5049)">
<path d="M32.6237 131.16L-23.1374 34.5785L73.4435 -21.1825L129.206 75.3994L32.6237 131.16Z" fill="#E1571F"/>
</g>
<mask id="mask4_790_5049" style="mask-type:luminance" maskUnits="userSpaceOnUse" x="3" y="19" width="94" height="61">
<path d="M6.09577 19.6801C4.38691 19.6801 3 21.066 3 22.7759V76.7012C3 78.409 4.38691 79.7959 6.09577 79.7959H93.9042C95.6141 79.7959 97 78.409 97 76.7012V22.7759C97 21.066 95.6141 19.6801 93.9042 19.6801H6.09577ZM4.03192 76.7012V22.7759C4.03192 21.6377 4.95756 20.7121 6.09577 20.7121H63.349C79.3799 20.7121 92.3749 33.7081 92.3749 49.738C92.3749 65.7679 79.3799 78.764 63.349 78.764H6.09577C4.95756 78.764 4.03192 77.8383 4.03192 76.7012Z" fill="white"/>
</mask>
<g mask="url(#mask4_790_5049)">
<path d="M33.6341 132.91L-22.1269 36.3285L74.4539 -19.4325L130.216 77.1494L33.6341 132.91Z" fill="#E2581F"/>
</g>
<mask id="mask5_790_5049" style="mask-type:luminance" maskUnits="userSpaceOnUse" x="3" y="19" width="94" height="61">
<path d="M6.09577 19.6801C4.38691 19.6801 3 21.066 3 22.7759V76.7012C3 78.409 4.38691 79.7959 6.09577 79.7959H93.9042C95.6141 79.7959 97 78.409 97 76.7012V22.7759C97 21.066 95.6141 19.6801 93.9042 19.6801H6.09577ZM4.03192 76.7012V22.7759C4.03192 21.6377 4.95756 20.7121 6.09577 20.7121H63.349C79.3799 20.7121 92.3749 33.7081 92.3749 49.738C92.3749 65.7679 79.3799 78.764 63.349 78.764H6.09577C4.95756 78.764 4.03192 77.8383 4.03192 76.7012Z" fill="white"/>
</mask>
<g mask="url(#mask5_790_5049)">
<path d="M34.6447 134.662L-21.1164 38.0797L75.4645 -17.6813L131.227 78.9006L34.6447 134.662Z" fill="#E2591F"/>
</g>
<mask id="mask6_790_5049" style="mask-type:luminance" maskUnits="userSpaceOnUse" x="3" y="19" width="94" height="61">
<path d="M6.09577 19.6801C4.38691 19.6801 3 21.066 3 22.7759V76.7012C3 78.409 4.38691 79.7959 6.09577 79.7959H93.9042C95.6141 79.7959 97 78.409 97 76.7012V22.7759C97 21.066 95.6141 19.6801 93.9042 19.6801H6.09577ZM4.03192 76.7012V22.7759C4.03192 21.6377 4.95756 20.7121 6.09577 20.7121H63.349C79.3799 20.7121 92.3749 33.7081 92.3749 49.738C92.3749 65.7679 79.3799 78.764 63.349 78.764H6.09577C4.95756 78.764 4.03192 77.8383 4.03192 76.7012Z" fill="white"/>
</mask>
<g mask="url(#mask6_790_5049)">
<path d="M35.6552 136.412L-20.1058 39.8297L76.475 -15.9313L132.237 80.6506L35.6552 136.412Z" fill="#E35A1F"/>
</g>
<mask id="mask7_790_5049" style="mask-type:luminance" maskUnits="userSpaceOnUse" x="3" y="19" width="94" height="61">
<path d="M6.09577 19.6801C4.38691 19.6801 3 21.066 3 22.7759V76.7012C3 78.409 4.38691 79.7959 6.09577 79.7959H93.9042C95.6141 79.7959 97 78.409 97 76.7012V22.7759C97 21.066 95.6141 19.6801 93.9042 19.6801H6.09577ZM4.03192 76.7012V22.7759C4.03192 21.6377 4.95756 20.7121 6.09577 20.7121H63.349C79.3799 20.7121 92.3749 33.7081 92.3749 49.738C92.3749 65.7679 79.3799 78.764 63.349 78.764H6.09577C4.95756 78.764 4.03192 77.8383 4.03192 76.7012Z" fill="white"/>
</mask>
<g mask="url(#mask7_790_5049)">
<path d="M36.6658 138.162L-19.0952 41.5797L77.4856 -14.1813L133.248 82.4006L36.6658 138.162Z" fill="#E35B1F"/>
</g>
<mask id="mask8_790_5049" style="mask-type:luminance" maskUnits="userSpaceOnUse" x="3" y="19" width="94" height="61">
<path d="M6.09577 19.6801C4.38691 19.6801 3 21.066 3 22.7759V76.7012C3 78.409 4.38691 79.7959 6.09577 79.7959H93.9042C95.6141 79.7959 97 78.409 97 76.7012V22.7759C97 21.066 95.6141 19.6801 93.9042 19.6801H6.09577ZM4.03192 76.7012V22.7759C4.03192 21.6377 4.95756 20.7121 6.09577 20.7121H63.349C79.3799 20.7121 92.3749 33.7081 92.3749 49.738C92.3749 65.7679 79.3799 78.764 63.349 78.764H6.09577C4.95756 78.764 4.03192 77.8383 4.03192 76.7012Z" fill="white"/>
</mask>
<g mask="url(#mask8_790_5049)">
<path d="M37.6764 139.912L-18.0847 43.3302L78.4962 -12.4308L134.258 84.1511L37.6764 139.912Z" fill="#E35C1F"/>
</g>
<mask id="mask9_790_5049" style="mask-type:luminance" maskUnits="userSpaceOnUse" x="3" y="19" width="94" height="61">
<path d="M6.09577 19.6801C4.38691 19.6801 3 21.066 3 22.7759V76.7012C3 78.409 4.38691 79.7959 6.09577 79.7959H93.9042C95.6141 79.7959 97 78.409 97 76.7012V22.7759C97 21.066 95.6141 19.6801 93.9042 19.6801H6.09577ZM4.03192 76.7012V22.7759C4.03192 21.6377 4.95756 20.7121 6.09577 20.7121H63.349C79.3799 20.7121 92.3749 33.7081 92.3749 49.738C92.3749 65.7679 79.3799 78.764 63.349 78.764H6.09577C4.95756 78.764 4.03192 77.8383 4.03192 76.7012Z" fill="white"/>
</mask>
<g mask="url(#mask9_790_5049)">
<path d="M38.6869 141.662L-17.0742 45.0805L79.5067 -10.6806L135.269 85.9013L38.6869 141.662Z" fill="#E45D1F"/>
</g>
<mask id="mask10_790_5049" style="mask-type:luminance" maskUnits="userSpaceOnUse" x="3" y="19" width="94" height="61">
<path d="M6.09577 19.6801C4.38691 19.6801 3 21.066 3 22.7759V76.7012C3 78.409 4.38691 79.7959 6.09577 79.7959H93.9042C95.6141 79.7959 97 78.409 97 76.7012V22.7759C97 21.066 95.6141 19.6801 93.9042 19.6801H6.09577ZM4.03192 76.7012V22.7759C4.03192 21.6377 4.95756 20.7121 6.09577 20.7121H63.349C79.3799 20.7121 92.3749 33.7081 92.3749 49.738C92.3749 65.7679 79.3799 78.764 63.349 78.764H6.09577C4.95756 78.764 4.03192 77.8383 4.03192 76.7012Z" fill="white"/>
</mask>
<g mask="url(#mask10_790_5049)">
<path d="M39.6975 143.413L-16.0635 46.8307L80.5173 -8.93031L136.279 87.6516L39.6975 143.413Z" fill="#E45D1F"/>
</g>
<mask id="mask11_790_5049" style="mask-type:luminance" maskUnits="userSpaceOnUse" x="3" y="19" width="94" height="61">
<path d="M6.09577 19.6801C4.38691 19.6801 3 21.066 3 22.7759V76.7012C3 78.409 4.38691 79.7959 6.09577 79.7959H93.9042C95.6141 79.7959 97 78.409 97 76.7012V22.7759C97 21.066 95.6141 19.6801 93.9042 19.6801H6.09577ZM4.03192 76.7012V22.7759C4.03192 21.6377 4.95756 20.7121 6.09577 20.7121H63.349C79.3799 20.7121 92.3749 33.7081 92.3749 49.738C92.3749 65.7679 79.3799 78.764 63.349 78.764H6.09577C4.95756 78.764 4.03192 77.8383 4.03192 76.7012Z" fill="white"/>
</mask>
<g mask="url(#mask11_790_5049)">
<path d="M40.7081 145.163L-15.0529 48.5812L81.5279 -7.17982L137.29 89.4021L40.7081 145.163Z" fill="#E55E1F"/>
</g>
<mask id="mask12_790_5049" style="mask-type:luminance" maskUnits="userSpaceOnUse" x="3" y="19" width="94" height="61">
<path d="M6.09577 19.6801C4.38691 19.6801 3 21.066 3 22.7759V76.7012C3 78.409 4.38691 79.7959 6.09577 79.7959H93.9042C95.6141 79.7959 97 78.409 97 76.7012V22.7759C97 21.066 95.6141 19.6801 93.9042 19.6801H6.09577ZM4.03192 76.7012V22.7759C4.03192 21.6377 4.95756 20.7121 6.09577 20.7121H63.349C79.3799 20.7121 92.3749 33.7081 92.3749 49.738C92.3749 65.7679 79.3799 78.764 63.349 78.764H6.09577C4.95756 78.764 4.03192 77.8383 4.03192 76.7012Z" fill="white"/>
</mask>
<g mask="url(#mask12_790_5049)">
<path d="M41.7186 146.913L-14.0424 50.3315L82.5385 -5.42958L138.301 91.1523L41.7186 146.913Z" fill="#E55E1F"/>
</g>
<mask id="mask13_790_5049" style="mask-type:luminance" maskUnits="userSpaceOnUse" x="3" y="19" width="94" height="61">
<path d="M6.09577 19.6801C4.38691 19.6801 3 21.066 3 22.7759V76.7012C3 78.409 4.38691 79.7959 6.09577 79.7959H93.9042C95.6141 79.7959 97 78.409 97 76.7012V22.7759C97 21.066 95.6141 19.6801 93.9042 19.6801H6.09577ZM4.03192 76.7012V22.7759C4.03192 21.6377 4.95756 20.7121 6.09577 20.7121H63.349C79.3799 20.7121 92.3749 33.7081 92.3749 49.738C92.3749 65.7679 79.3799 78.764 63.349 78.764H6.09577C4.95756 78.764 4.03192 77.8383 4.03192 76.7012Z" fill="white"/>
</mask>
<g mask="url(#mask13_790_5049)">
<path d="M42.7292 148.664L-13.0318 52.0822L83.549 -3.67885L139.311 92.903L42.7292 148.664Z" fill="#E6601F"/>
</g>
<mask id="mask14_790_5049" style="mask-type:luminance" maskUnits="userSpaceOnUse" x="3" y="19" width="94" height="61">
<path d="M6.09577 19.6801C4.38691 19.6801 3 21.066 3 22.7759V76.7012C3 78.409 4.38691 79.7959 6.09577 79.7959H93.9042C95.6141 79.7959 97 78.409 97 76.7012V22.7759C97 21.066 95.6141 19.6801 93.9042 19.6801H6.09577ZM4.03192 76.7012V22.7759C4.03192 21.6377 4.95756 20.7121 6.09577 20.7121H63.349C79.3799 20.7121 92.3749 33.7081 92.3749 49.738C92.3749 65.7679 79.3799 78.764 63.349 78.764H6.09577C4.95756 78.764 4.03192 77.8383 4.03192 76.7012Z" fill="white"/>
</mask>
<g mask="url(#mask14_790_5049)">
<path d="M43.7397 150.414L-12.0213 53.8322L84.5595 -1.92885L140.322 94.653L43.7397 150.414Z" fill="#E6611F"/>
</g>
<mask id="mask15_790_5049" style="mask-type:luminance" maskUnits="userSpaceOnUse" x="3" y="19" width="94" height="61">
<path d="M6.09577 19.6801C4.38691 19.6801 3 21.066 3 22.7759V76.7012C3 78.409 4.38691 79.7959 6.09577 79.7959H93.9042C95.6141 79.7959 97 78.409 97 76.7012V22.7759C97 21.066 95.6141 19.6801 93.9042 19.6801H6.09577ZM4.03192 76.7012V22.7759C4.03192 21.6377 4.95756 20.7121 6.09577 20.7121H63.349C79.3799 20.7121 92.3749 33.7081 92.3749 49.738C92.3749 65.7679 79.3799 78.764 63.349 78.764H6.09577C4.95756 78.764 4.03192 77.8383 4.03192 76.7012Z" fill="white"/>
</mask>
<g mask="url(#mask15_790_5049)">
<path d="M44.7502 152.164L-11.0108 55.5824L85.57 -0.178604L141.332 96.4033L44.7502 152.164Z" fill="#E76220"/>
</g>
<mask id="mask16_790_5049" style="mask-type:luminance" maskUnits="userSpaceOnUse" x="3" y="19" width="94" height="61">
<path d="M6.09577 19.6801C4.38691 19.6801 3 21.066 3 22.7759V76.7012C3 78.409 4.38691 79.7959 6.09577 79.7959H93.9042C95.6141 79.7959 97 78.409 97 76.7012V22.7759C97 21.066 95.6141 19.6801 93.9042 19.6801H6.09577ZM4.03192 76.7012V22.7759C4.03192 21.6377 4.95756 20.7121 6.09577 20.7121H63.349C79.3799 20.7121 92.3749 33.7081 92.3749 49.738C92.3749 65.7679 79.3799 78.764 63.349 78.764H6.09577C4.95756 78.764 4.03192 77.8383 4.03192 76.7012Z" fill="white"/>
</mask>
<g mask="url(#mask16_790_5049)">
<path d="M45.7607 153.915L-10.0004 57.3329L86.5805 1.57188L142.343 98.1538L45.7607 153.915Z" fill="#E76220"/>
</g>
<mask id="mask17_790_5049" style="mask-type:luminance" maskUnits="userSpaceOnUse" x="3" y="19" width="94" height="61">
<path d="M6.09577 19.6801C4.38691 19.6801 3 21.066 3 22.7759V76.7012C3 78.409 4.38691 79.7959 6.09577 79.7959H93.9042C95.6141 79.7959 97 78.409 97 76.7012V22.7759C97 21.066 95.6141 19.6801 93.9042 19.6801H6.09577ZM4.03192 76.7012V22.7759C4.03192 21.6377 4.95756 20.7121 6.09577 20.7121H63.349C79.3799 20.7121 92.3749 33.7081 92.3749 49.738C92.3749 65.7679 79.3799 78.764 63.349 78.764H6.09577C4.95756 78.764 4.03192 77.8383 4.03192 76.7012Z" fill="white"/>
</mask>
<g mask="url(#mask17_790_5049)">
<path d="M46.7714 155.665L-8.98967 59.0832L87.5912 3.32213L143.353 99.904L46.7714 155.665Z" fill="#E7631F"/>
</g>
<mask id="mask18_790_5049" style="mask-type:luminance" maskUnits="userSpaceOnUse" x="3" y="19" width="94" height="61">
<path d="M6.09577 19.6801C4.38691 19.6801 3 21.066 3 22.7759V76.7012C3 78.409 4.38691 79.7959 6.09577 79.7959H93.9042C95.6141 79.7959 97 78.409 97 76.7012V22.7759C97 21.066 95.6141 19.6801 93.9042 19.6801H6.09577ZM4.03192 76.7012V22.7759C4.03192 21.6377 4.95756 20.7121 6.09577 20.7121H63.349C79.3799 20.7121 92.3749 33.7081 92.3749 49.738C92.3749 65.7679 79.3799 78.764 63.349 78.764H6.09577C4.95756 78.764 4.03192 77.8383 4.03192 76.7012Z" fill="white"/>
</mask>
<g mask="url(#mask18_790_5049)">
<path d="M47.782 157.416L-7.97905 60.8336L88.6018 5.07262L144.364 101.654L47.782 157.416Z" fill="#E86420"/>
</g>
<mask id="mask19_790_5049" style="mask-type:luminance" maskUnits="userSpaceOnUse" x="3" y="19" width="94" height="61">
<path d="M6.09577 19.6801C4.38691 19.6801 3 21.066 3 22.7759V76.7012C3 78.409 4.38691 79.7959 6.09577 79.7959H93.9042C95.6141 79.7959 97 78.409 97 76.7012V22.7759C97 21.066 95.6141 19.6801 93.9042 19.6801H6.09577ZM4.03192 76.7012V22.7759C4.03192 21.6377 4.95756 20.7121 6.09577 20.7121H63.349C79.3799 20.7121 92.3749 33.7081 92.3749 49.738C92.3749 65.7679 79.3799 78.764 63.349 78.764H6.09577C4.95756 78.764 4.03192 77.8383 4.03192 76.7012Z" fill="white"/>
</mask>
<g mask="url(#mask19_790_5049)">
<path d="M48.7925 159.166L-6.96854 62.5839L89.6123 6.82286L145.374 103.405L48.7925 159.166Z" fill="#E86520"/>
</g>
<mask id="mask20_790_5049" style="mask-type:luminance" maskUnits="userSpaceOnUse" x="3" y="19" width="94" height="61">
<path d="M6.09577 19.6801C4.38691 19.6801 3 21.066 3 22.7759V76.7012C3 78.409 4.38691 79.7959 6.09577 79.7959H93.9042C95.6141 79.7959 97 78.409 97 76.7012V22.7759C97 21.066 95.6141 19.6801 93.9042 19.6801H6.09577ZM4.03192 76.7012V22.7759C4.03192 21.6377 4.95756 20.7121 6.09577 20.7121H63.349C79.3799 20.7121 92.3749 33.7081 92.3749 49.738C92.3749 65.7679 79.3799 78.764 63.349 78.764H6.09577C4.95756 78.764 4.03192 77.8383 4.03192 76.7012Z" fill="white"/>
</mask>
<g mask="url(#mask20_790_5049)">
<path d="M49.803 160.916L-5.95804 64.3344L90.6228 8.57335L146.385 105.155L49.803 160.916Z" fill="#E96620"/>
</g>
<mask id="mask21_790_5049" style="mask-type:luminance" maskUnits="userSpaceOnUse" x="3" y="19" width="94" height="61">
<path d="M6.09577 19.6801C4.38691 19.6801 3 21.066 3 22.7759V76.7012C3 78.409 4.38691 79.7959 6.09577 79.7959H93.9042C95.6141 79.7959 97 78.409 97 76.7012V22.7759C97 21.066 95.6141 19.6801 93.9042 19.6801H6.09577ZM4.03192 76.7012V22.7759C4.03192 21.6377 4.95756 20.7121 6.09577 20.7121H63.349C79.3799 20.7121 92.3749 33.7081 92.3749 49.738C92.3749 65.7679 79.3799 78.764 63.349 78.764H6.09577C4.95756 78.764 4.03192 77.8383 4.03192 76.7012Z" fill="white"/>
</mask>
<g mask="url(#mask21_790_5049)">
<path d="M50.8136 162.667L-4.94746 66.0846L91.6334 10.3236L147.395 106.905L50.8136 162.667Z" fill="#E96720"/>
</g>
<mask id="mask22_790_5049" style="mask-type:luminance" maskUnits="userSpaceOnUse" x="3" y="19" width="94" height="61">
<path d="M6.09577 19.6801C4.38691 19.6801 3 21.066 3 22.7759V76.7012C3 78.409 4.38691 79.7959 6.09577 79.7959H93.9042C95.6141 79.7959 97 78.409 97 76.7012V22.7759C97 21.066 95.6141 19.6801 93.9042 19.6801H6.09577ZM4.03192 76.7012V22.7759C4.03192 21.6377 4.95756 20.7121 6.09577 20.7121H63.349C79.3799 20.7121 92.3749 33.7081 92.3749 49.738C92.3749 65.7679 79.3799 78.764 63.349 78.764H6.09577C4.95756 78.764 4.03192 77.8383 4.03192 76.7012Z" fill="white"/>
</mask>
<g mask="url(#mask22_790_5049)">
<path d="M51.8241 164.417L-3.93689 67.8349L92.644 12.0738L148.406 108.656L51.8241 164.417Z" fill="#EA6820"/>
</g>
<mask id="mask23_790_5049" style="mask-type:luminance" maskUnits="userSpaceOnUse" x="3" y="19" width="94" height="61">
<path d="M6.09577 19.6801C4.38691 19.6801 3 21.066 3 22.7759V76.7012C3 78.409 4.38691 79.7959 6.09577 79.7959H93.9042C95.6141 79.7959 97 78.409 97 76.7012V22.7759C97 21.066 95.6141 19.6801 93.9042 19.6801H6.09577ZM4.03192 76.7012V22.7759C4.03192 21.6377 4.95756 20.7121 6.09577 20.7121H63.349C79.3799 20.7121 92.3749 33.7081 92.3749 49.738C92.3749 65.7679 79.3799 78.764 63.349 78.764H6.09577C4.95756 78.764 4.03192 77.8383 4.03192 76.7012Z" fill="white"/>
</mask>
<g mask="url(#mask23_790_5049)">
<path d="M52.8347 166.167L-2.92633 69.5851L93.6545 13.8241L149.417 110.406L52.8347 166.167Z" fill="#EA6920"/>
</g>
<mask id="mask24_790_5049" style="mask-type:luminance" maskUnits="userSpaceOnUse" x="3" y="19" width="94" height="61">
<path d="M6.09577 19.6801C4.38691 19.6801 3 21.066 3 22.7759V76.7012C3 78.409 4.38691 79.7959 6.09577 79.7959H93.9042C95.6141 79.7959 97 78.409 97 76.7012V22.7759C97 21.066 95.6141 19.6801 93.9042 19.6801H6.09577ZM4.03192 76.7012V22.7759C4.03192 21.6377 4.95756 20.7121 6.09577 20.7121H63.349C79.3799 20.7121 92.3749 33.7081 92.3749 49.738C92.3749 65.7679 79.3799 78.764 63.349 78.764H6.09577C4.95756 78.764 4.03192 77.8383 4.03192 76.7012Z" fill="white"/>
</mask>
<g mask="url(#mask24_790_5049)">
<path d="M53.8453 167.917L-1.9157 71.3354L94.6651 15.5743L150.427 112.156L53.8453 167.917Z" fill="#EA6A20"/>
</g>
<mask id="mask25_790_5049" style="mask-type:luminance" maskUnits="userSpaceOnUse" x="3" y="19" width="94" height="61">
<path d="M6.09577 19.6801C4.38691 19.6801 3 21.066 3 22.7759V76.7012C3 78.409 4.38691 79.7959 6.09577 79.7959H93.9042C95.6141 79.7959 97 78.409 97 76.7012V22.7759C97 21.066 95.6141 19.6801 93.9042 19.6801H6.09577ZM4.03192 76.7012V22.7759C4.03192 21.6377 4.95756 20.7121 6.09577 20.7121H63.349C79.3799 20.7121 92.3749 33.7081 92.3749 49.738C92.3749 65.7679 79.3799 78.764 63.349 78.764H6.09577C4.95756 78.764 4.03192 77.8383 4.03192 76.7012Z" fill="white"/>
</mask>
<g mask="url(#mask25_790_5049)">
<path d="M54.2198 168.566L-1.54123 71.9843L95.0396 16.2233L150.802 112.805L54.2198 168.566Z" fill="#EA6B20"/>
</g>
<mask id="mask26_790_5049" style="mask-type:luminance" maskUnits="userSpaceOnUse" x="3" y="19" width="94" height="61">
<path d="M6.09577 19.6801C4.38691 19.6801 3 21.066 3 22.7759V76.7012C3 78.409 4.38691 79.7959 6.09577 79.7959H93.9042C95.6141 79.7959 97 78.409 97 76.7012V22.7759C97 21.066 95.6141 19.6801 93.9042 19.6801H6.09577ZM4.03192 76.7012V22.7759C4.03192 21.6377 4.95756 20.7121 6.09577 20.7121H63.349C79.3799 20.7121 92.3749 33.7081 92.3749 49.738C92.3749 65.7679 79.3799 78.764 63.349 78.764H6.09577C4.95756 78.764 4.03192 77.8383 4.03192 76.7012Z" fill="white"/>
</mask>
<g mask="url(#mask26_790_5049)">
<path d="M54.5945 169.215L-1.16652 72.6332L95.4143 16.8722L151.176 113.454L54.5945 169.215Z" fill="#EB6C20"/>
</g>
<mask id="mask27_790_5049" style="mask-type:luminance" maskUnits="userSpaceOnUse" x="3" y="19" width="94" height="61">
<path d="M6.09577 19.6801C4.38691 19.6801 3 21.066 3 22.7759V76.7012C3 78.409 4.38691 79.7959 6.09577 79.7959H93.9042C95.6141 79.7959 97 78.409 97 76.7012V22.7759C97 21.066 95.6141 19.6801 93.9042 19.6801H6.09577ZM4.03192 76.7012V22.7759C4.03192 21.6377 4.95756 20.7121 6.09577 20.7121H63.349C79.3799 20.7121 92.3749 33.7081 92.3749 49.738C92.3749 65.7679 79.3799 78.764 63.349 78.764H6.09577C4.95756 78.764 4.03192 77.8383 4.03192 76.7012Z" fill="white"/>
</mask>
<g mask="url(#mask27_790_5049)">
<path d="M54.969 169.864L-0.791992 73.2816L95.7888 17.5206L151.551 114.102L54.969 169.864Z" fill="#EB6D20"/>
</g>
<mask id="mask28_790_5049" style="mask-type:luminance" maskUnits="userSpaceOnUse" x="3" y="19" width="94" height="61">
<path d="M6.09577 19.6801C4.38691 19.6801 3 21.066 3 22.7759V76.7012C3 78.409 4.38691 79.7959 6.09577 79.7959H93.9042C95.6141 79.7959 97 78.409 97 76.7012V22.7759C97 21.066 95.6141 19.6801 93.9042 19.6801H6.09577ZM4.03192 76.7012V22.7759C4.03192 21.6377 4.95756 20.7121 6.09577 20.7121H63.349C79.3799 20.7121 92.3749 33.7081 92.3749 49.738C92.3749 65.7679 79.3799 78.764 63.349 78.764H6.09577C4.95756 78.764 4.03192 77.8383 4.03192 76.7012Z" fill="white"/>
</mask>
<g mask="url(#mask28_790_5049)">
<path d="M55.3438 170.513L-0.417282 73.9308L96.1636 18.1698L151.926 114.752L55.3438 170.513Z" fill="#EB6D1F"/>
</g>
<mask id="mask29_790_5049" style="mask-type:luminance" maskUnits="userSpaceOnUse" x="3" y="19" width="94" height="61">
<path d="M6.09577 19.6801C4.38691 19.6801 3 21.066 3 22.7759V76.7012C3 78.409 4.38691 79.7959 6.09577 79.7959H93.9042C95.6141 79.7959 97 78.409 97 76.7012V22.7759C97 21.066 95.6141 19.6801 93.9042 19.6801H6.09577ZM4.03192 76.7012V22.7759C4.03192 21.6377 4.95756 20.7121 6.09577 20.7121H63.349C79.3799 20.7121 92.3749 33.7081 92.3749 49.738C92.3749 65.7679 79.3799 78.764 63.349 78.764H6.09577C4.95756 78.764 4.03192 77.8383 4.03192 76.7012Z" fill="white"/>
</mask>
<g mask="url(#mask29_790_5049)">
<path d="M55.7184 171.162L-0.0426788 74.58L96.5382 18.819L152.3 115.401L55.7184 171.162Z" fill="#EB6E1F"/>
</g>
<mask id="mask30_790_5049" style="mask-type:luminance" maskUnits="userSpaceOnUse" x="3" y="19" width="94" height="61">
<path d="M6.09577 19.6801C4.38691 19.6801 3 21.066 3 22.7759V76.7012C3 78.409 4.38691 79.7959 6.09577 79.7959H93.9042C95.6141 79.7959 97 78.409 97 76.7012V22.7759C97 21.066 95.6141 19.6801 93.9042 19.6801H6.09577ZM4.03192 76.7012V22.7759C4.03192 21.6377 4.95756 20.7121 6.09577 20.7121H63.349C79.3799 20.7121 92.3749 33.7081 92.3749 49.738C92.3749 65.7679 79.3799 78.764 63.349 78.764H6.09577C4.95756 78.764 4.03192 77.8383 4.03192 76.7012Z" fill="white"/>
</mask>
<g mask="url(#mask30_790_5049)">
<path d="M56.0929 171.81L0.331909 75.2284L96.9128 19.4674L152.675 116.049L56.0929 171.81Z" fill="#EB6F20"/>
</g>
<mask id="mask31_790_5049" style="mask-type:luminance" maskUnits="userSpaceOnUse" x="3" y="19" width="94" height="61">
<path d="M6.09577 19.6801C4.38691 19.6801 3 21.066 3 22.7759V76.7012C3 78.409 4.38691 79.7959 6.09577 79.7959H93.9042C95.6141 79.7959 97 78.409 97 76.7012V22.7759C97 21.066 95.6141 19.6801 93.9042 19.6801H6.09577ZM4.03192 76.7012V22.7759C4.03192 21.6377 4.95756 20.7121 6.09577 20.7121H63.349C79.3799 20.7121 92.3749 33.7081 92.3749 49.738C92.3749 65.7679 79.3799 78.764 63.349 78.764H6.09577C4.95756 78.764 4.03192 77.8383 4.03192 76.7012Z" fill="white"/>
</mask>
<g mask="url(#mask31_790_5049)">
<path d="M56.4675 172.459L0.706497 75.8776L97.2873 20.1166L153.049 116.698L56.4675 172.459Z" fill="#EB7020"/>
</g>
<mask id="mask32_790_5049" style="mask-type:luminance" maskUnits="userSpaceOnUse" x="3" y="19" width="94" height="61">
<path d="M6.09577 19.6801C4.38691 19.6801 3 21.066 3 22.7759V76.7012C3 78.409 4.38691 79.7959 6.09577 79.7959H93.9042C95.6141 79.7959 97 78.409 97 76.7012V22.7759C97 21.066 95.6141 19.6801 93.9042 19.6801H6.09577ZM4.03192 76.7012V22.7759C4.03192 21.6377 4.95756 20.7121 6.09577 20.7121H63.349C79.3799 20.7121 92.3749 33.7081 92.3749 49.738C92.3749 65.7679 79.3799 78.764 63.349 78.764H6.09577C4.95756 78.764 4.03192 77.8383 4.03192 76.7012Z" fill="white"/>
</mask>
<g mask="url(#mask32_790_5049)">
<path d="M56.8422 173.108L1.08121 76.5265L97.662 20.7655L153.424 117.347L56.8422 173.108Z" fill="#EB7020"/>
</g>
<mask id="mask33_790_5049" style="mask-type:luminance" maskUnits="userSpaceOnUse" x="3" y="19" width="94" height="61">
<path d="M6.09577 19.6801C4.38691 19.6801 3 21.066 3 22.7759V76.7012C3 78.409 4.38691 79.7959 6.09577 79.7959H93.9042C95.6141 79.7959 97 78.409 97 76.7012V22.7759C97 21.066 95.6141 19.6801 93.9042 19.6801H6.09577ZM4.03192 76.7012V22.7759C4.03192 21.6377 4.95756 20.7121 6.09577 20.7121H63.349C79.3799 20.7121 92.3749 33.7081 92.3749 49.738C92.3749 65.7679 79.3799 78.764 63.349 78.764H6.09577C4.95756 78.764 4.03192 77.8383 4.03192 76.7012Z" fill="white"/>
</mask>
<g mask="url(#mask33_790_5049)">
<path d="M57.2168 173.757L1.45573 77.175L98.0366 21.4139L153.799 117.996L57.2168 173.757Z" fill="#EB7120"/>
</g>
<mask id="mask34_790_5049" style="mask-type:luminance" maskUnits="userSpaceOnUse" x="3" y="19" width="94" height="61">
<path d="M6.09577 19.6801C4.38691 19.6801 3 21.066 3 22.7759V76.7012C3 78.409 4.38691 79.7959 6.09577 79.7959H93.9042C95.6141 79.7959 97 78.409 97 76.7012V22.7759C97 21.066 95.6141 19.6801 93.9042 19.6801H6.09577ZM4.03192 76.7012V22.7759C4.03192 21.6377 4.95756 20.7121 6.09577 20.7121H63.349C79.3799 20.7121 92.3749 33.7081 92.3749 49.738C92.3749 65.7679 79.3799 78.764 63.349 78.764H6.09577C4.95756 78.764 4.03192 77.8383 4.03192 76.7012Z" fill="white"/>
</mask>
<g mask="url(#mask34_790_5049)">
<path d="M57.5913 174.406L1.83026 77.8239L98.4111 22.0629L154.173 118.645L57.5913 174.406Z" fill="#EB7220"/>
</g>
<mask id="mask35_790_5049" style="mask-type:luminance" maskUnits="userSpaceOnUse" x="3" y="19" width="94" height="61">
<path d="M6.09577 19.6801C4.38691 19.6801 3 21.066 3 22.7759V76.7012C3 78.409 4.38691 79.7959 6.09577 79.7959H93.9042C95.6141 79.7959 97 78.409 97 76.7012V22.7759C97 21.066 95.6141 19.6801 93.9042 19.6801H6.09577ZM4.03192 76.7012V22.7759C4.03192 21.6377 4.95756 20.7121 6.09577 20.7121H63.349C79.3799 20.7121 92.3749 33.7081 92.3749 49.738C92.3749 65.7679 79.3799 78.764 63.349 78.764H6.09577C4.95756 78.764 4.03192 77.8383 4.03192 76.7012Z" fill="white"/>
</mask>
<g mask="url(#mask35_790_5049)">
<path d="M57.9661 175.055L2.20505 78.4731L98.7859 22.712L154.548 119.294L57.9661 175.055Z" fill="#EC7320"/>
</g>
<mask id="mask36_790_5049" style="mask-type:luminance" maskUnits="userSpaceOnUse" x="3" y="19" width="94" height="61">
<path d="M6.09577 19.6801C4.38691 19.6801 3 21.066 3 22.7759V76.7012C3 78.409 4.38691 79.7959 6.09577 79.7959H93.9042C95.6141 79.7959 97 78.409 97 76.7012V22.7759C97 21.066 95.6141 19.6801 93.9042 19.6801H6.09577ZM4.03192 76.7012V22.7759C4.03192 21.6377 4.95756 20.7121 6.09577 20.7121H63.349C79.3799 20.7121 92.3749 33.7081 92.3749 49.738C92.3749 65.7679 79.3799 78.764 63.349 78.764H6.09577C4.95756 78.764 4.03192 77.8383 4.03192 76.7012Z" fill="white"/>
</mask>
<g mask="url(#mask36_790_5049)">
<path d="M58.3406 175.704L2.57957 79.122L99.1604 23.3609L154.922 119.943L58.3406 175.704Z" fill="#ED7420"/>
</g>
<mask id="mask37_790_5049" style="mask-type:luminance" maskUnits="userSpaceOnUse" x="3" y="19" width="94" height="61">
<path d="M6.09577 19.6801C4.38691 19.6801 3 21.066 3 22.7759V76.7012C3 78.409 4.38691 79.7959 6.09577 79.7959H93.9042C95.6141 79.7959 97 78.409 97 76.7012V22.7759C97 21.066 95.6141 19.6801 93.9042 19.6801H6.09577ZM4.03192 76.7012V22.7759C4.03192 21.6377 4.95756 20.7121 6.09577 20.7121H63.349C79.3799 20.7121 92.3749 33.7081 92.3749 49.738C92.3749 65.7679 79.3799 78.764 63.349 78.764H6.09577C4.95756 78.764 4.03192 77.8383 4.03192 76.7012Z" fill="white"/>
</mask>
<g mask="url(#mask37_790_5049)">
<path d="M58.7152 176.353L2.95416 79.7707L99.535 24.0096L155.297 120.592L58.7152 176.353Z" fill="#ED7420"/>
</g>
<mask id="mask38_790_5049" style="mask-type:luminance" maskUnits="userSpaceOnUse" x="3" y="19" width="94" height="61">
<path d="M6.09577 19.6801C4.38691 19.6801 3 21.066 3 22.7759V76.7012C3 78.409 4.38691 79.7959 6.09577 79.7959H93.9042C95.6141 79.7959 97 78.409 97 76.7012V22.7759C97 21.066 95.6141 19.6801 93.9042 19.6801H6.09577ZM4.03192 76.7012V22.7759C4.03192 21.6377 4.95756 20.7121 6.09577 20.7121H63.349C79.3799 20.7121 92.3749 33.7081 92.3749 49.738C92.3749 65.7679 79.3799 78.764 63.349 78.764H6.09577C4.95756 78.764 4.03192 77.8383 4.03192 76.7012Z" fill="white"/>
</mask>
<g mask="url(#mask38_790_5049)">
<path d="M59.0898 177.001L3.32875 80.4193L99.9096 24.6583L155.672 121.24L59.0898 177.001Z" fill="#ED7520"/>
</g>
<mask id="mask39_790_5049" style="mask-type:luminance" maskUnits="userSpaceOnUse" x="3" y="19" width="94" height="61">
<path d="M6.09577 19.6801C4.38691 19.6801 3 21.066 3 22.7759V76.7012C3 78.409 4.38691 79.7959 6.09577 79.7959H93.9042C95.6141 79.7959 97 78.409 97 76.7012V22.7759C97 21.066 95.6141 19.6801 93.9042 19.6801H6.09577ZM4.03192 76.7012V22.7759C4.03192 21.6377 4.95756 20.7121 6.09577 20.7121H63.349C79.3799 20.7121 92.3749 33.7081 92.3749 49.738C92.3749 65.7679 79.3799 78.764 63.349 78.764H6.09577C4.95756 78.764 4.03192 77.8383 4.03192 76.7012Z" fill="white"/>
</mask>
<g mask="url(#mask39_790_5049)">
<path d="M59.4644 177.65L3.7034 81.0685L100.284 25.3075L156.046 121.889L59.4644 177.65Z" fill="#ED7620"/>
</g>
<mask id="mask40_790_5049" style="mask-type:luminance" maskUnits="userSpaceOnUse" x="3" y="19" width="94" height="61">
<path d="M6.09577 19.6801C4.38691 19.6801 3 21.066 3 22.7759V76.7012C3 78.409 4.38691 79.7959 6.09577 79.7959H93.9042C95.6141 79.7959 97 78.409 97 76.7012V22.7759C97 21.066 95.6141 19.6801 93.9042 19.6801H6.09577ZM4.03192 76.7012V22.7759C4.03192 21.6377 4.95756 20.7121 6.09577 20.7121H63.349C79.3799 20.7121 92.3749 33.7081 92.3749 49.738C92.3749 65.7679 79.3799 78.764 63.349 78.764H6.09577C4.95756 78.764 4.03192 77.8383 4.03192 76.7012Z" fill="white"/>
</mask>
<g mask="url(#mask40_790_5049)">
<path d="M59.8391 178.299L4.07806 81.7169L100.659 25.9559L156.421 122.538L59.8391 178.299Z" fill="#ED761F"/>
</g>
<mask id="mask41_790_5049" style="mask-type:luminance" maskUnits="userSpaceOnUse" x="3" y="19" width="94" height="61">
<path d="M6.09577 19.6801C4.38691 19.6801 3 21.066 3 22.7759V76.7012C3 78.409 4.38691 79.7959 6.09577 79.7959H93.9042C95.6141 79.7959 97 78.409 97 76.7012V22.7759C97 21.066 95.6141 19.6801 93.9042 19.6801H6.09577ZM4.03192 76.7012V22.7759C4.03192 21.6377 4.95756 20.7121 6.09577 20.7121H63.349C79.3799 20.7121 92.3749 33.7081 92.3749 49.738C92.3749 65.7679 79.3799 78.764 63.349 78.764H6.09577C4.95756 78.764 4.03192 77.8383 4.03192 76.7012Z" fill="white"/>
</mask>
<g mask="url(#mask41_790_5049)">
<path d="M60.2136 178.948L4.45259 82.3659L101.033 26.6048L156.796 123.187L60.2136 178.948Z" fill="#ED771F"/>
</g>
<mask id="mask42_790_5049" style="mask-type:luminance" maskUnits="userSpaceOnUse" x="3" y="19" width="94" height="61">
<path d="M6.09577 19.6801C4.38691 19.6801 3 21.066 3 22.7759V76.7012C3 78.409 4.38691 79.7959 6.09577 79.7959H93.9042C95.6141 79.7959 97 78.409 97 76.7012V22.7759C97 21.066 95.6141 19.6801 93.9042 19.6801H6.09577ZM4.03192 76.7012V22.7759C4.03192 21.6377 4.95756 20.7121 6.09577 20.7121H63.349C79.3799 20.7121 92.3749 33.7081 92.3749 49.738C92.3749 65.7679 79.3799 78.764 63.349 78.764H6.09577C4.95756 78.764 4.03192 77.8383 4.03192 76.7012Z" fill="white"/>
</mask>
<g mask="url(#mask42_790_5049)">
<path d="M60.5882 179.597L4.82718 83.015L101.408 27.254L157.17 123.836L60.5882 179.597Z" fill="#ED781F"/>
</g>
<mask id="mask43_790_5049" style="mask-type:luminance" maskUnits="userSpaceOnUse" x="3" y="19" width="94" height="61">
<path d="M6.09577 19.6801C4.38691 19.6801 3 21.066 3 22.7759V76.7012C3 78.409 4.38691 79.7959 6.09577 79.7959H93.9042C95.6141 79.7959 97 78.409 97 76.7012V22.7759C97 21.066 95.6141 19.6801 93.9042 19.6801H6.09577ZM4.03192 76.7012V22.7759C4.03192 21.6377 4.95756 20.7121 6.09577 20.7121H63.349C79.3799 20.7121 92.3749 33.7081 92.3749 49.738C92.3749 65.7679 79.3799 78.764 63.349 78.764H6.09577C4.95756 78.764 4.03192 77.8383 4.03192 76.7012Z" fill="white"/>
</mask>
<g mask="url(#mask43_790_5049)">
<path d="M60.963 180.246L5.20195 83.664L101.783 27.9029L157.545 124.485L60.963 180.246Z" fill="#ED781F"/>
</g>
<mask id="mask44_790_5049" style="mask-type:luminance" maskUnits="userSpaceOnUse" x="3" y="19" width="94" height="61">
<path d="M6.09577 19.6801C4.38691 19.6801 3 21.066 3 22.7759V76.7012C3 78.409 4.38691 79.7959 6.09577 79.7959H93.9042C95.6141 79.7959 97 78.409 97 76.7012V22.7759C97 21.066 95.6141 19.6801 93.9042 19.6801H6.09577ZM4.03192 76.7012V22.7759C4.03192 21.6377 4.95756 20.7121 6.09577 20.7121H63.349C79.3799 20.7121 92.3749 33.7081 92.3749 49.738C92.3749 65.7679 79.3799 78.764 63.349 78.764H6.09577C4.95756 78.764 4.03192 77.8383 4.03192 76.7012Z" fill="white"/>
</mask>
<g mask="url(#mask44_790_5049)">
<path d="M61.3375 180.895L5.57648 84.3129L102.157 28.5519L157.919 125.134L61.3375 180.895Z" fill="#ED7920"/>
</g>
<mask id="mask45_790_5049" style="mask-type:luminance" maskUnits="userSpaceOnUse" x="3" y="19" width="94" height="61">
<path d="M6.09577 19.6801C4.38691 19.6801 3 21.066 3 22.7759V76.7012C3 78.409 4.38691 79.7959 6.09577 79.7959H93.9042C95.6141 79.7959 97 78.409 97 76.7012V22.7759C97 21.066 95.6141 19.6801 93.9042 19.6801H6.09577ZM4.03192 76.7012V22.7759C4.03192 21.6377 4.95756 20.7121 6.09577 20.7121H63.349C79.3799 20.7121 92.3749 33.7081 92.3749 49.738C92.3749 65.7679 79.3799 78.764 63.349 78.764H6.09577C4.95756 78.764 4.03192 77.8383 4.03192 76.7012Z" fill="white"/>
</mask>
<g mask="url(#mask45_790_5049)">
<path d="M61.7121 181.543L5.95107 84.9616L102.532 29.2005L158.294 125.782L61.7121 181.543Z" fill="#EE7A20"/>
</g>
<mask id="mask46_790_5049" style="mask-type:luminance" maskUnits="userSpaceOnUse" x="3" y="19" width="94" height="61">
<path d="M6.09577 19.6801C4.38691 19.6801 3 21.066 3 22.7759V76.7012C3 78.409 4.38691 79.7959 6.09577 79.7959H93.9042C95.6141 79.7959 97 78.409 97 76.7012V22.7759C97 21.066 95.6141 19.6801 93.9042 19.6801H6.09577ZM4.03192 76.7012V22.7759C4.03192 21.6377 4.95756 20.7121 6.09577 20.7121H63.349C79.3799 20.7121 92.3749 33.7081 92.3749 49.738C92.3749 65.7679 79.3799 78.764 63.349 78.764H6.09577C4.95756 78.764 4.03192 77.8383 4.03192 76.7012Z" fill="white"/>
</mask>
<g mask="url(#mask46_790_5049)">
<path d="M62.0868 182.192L6.32573 85.6105L102.907 29.8495L158.669 126.431L62.0868 182.192Z" fill="#EE7B20"/>
</g>
<mask id="mask47_790_5049" style="mask-type:luminance" maskUnits="userSpaceOnUse" x="3" y="19" width="94" height="61">
<path d="M6.09577 19.6801C4.38691 19.6801 3 21.066 3 22.7759V76.7012C3 78.409 4.38691 79.7959 6.09577 79.7959H93.9042C95.6141 79.7959 97 78.409 97 76.7012V22.7759C97 21.066 95.6141 19.6801 93.9042 19.6801H6.09577ZM4.03192 76.7012V22.7759C4.03192 21.6377 4.95756 20.7121 6.09577 20.7121H63.349C79.3799 20.7121 92.3749 33.7081 92.3749 49.738C92.3749 65.7679 79.3799 78.764 63.349 78.764H6.09577C4.95756 78.764 4.03192 77.8383 4.03192 76.7012Z" fill="white"/>
</mask>
<g mask="url(#mask47_790_5049)">
<path d="M62.4614 182.841L6.70038 86.2592L103.281 30.4982L159.043 127.08L62.4614 182.841Z" fill="#EE7B20"/>
</g>
<mask id="mask48_790_5049" style="mask-type:luminance" maskUnits="userSpaceOnUse" x="3" y="19" width="94" height="61">
<path d="M6.09577 19.6801C4.38691 19.6801 3 21.066 3 22.7759V76.7012C3 78.409 4.38691 79.7959 6.09577 79.7959H93.9042C95.6141 79.7959 97 78.409 97 76.7012V22.7759C97 21.066 95.6141 19.6801 93.9042 19.6801H6.09577ZM4.03192 76.7012V22.7759C4.03192 21.6377 4.95756 20.7121 6.09577 20.7121H63.349C79.3799 20.7121 92.3749 33.7081 92.3749 49.738C92.3749 65.7679 79.3799 78.764 63.349 78.764H6.09577C4.95756 78.764 4.03192 77.8383 4.03192 76.7012Z" fill="white"/>
</mask>
<g mask="url(#mask48_790_5049)">
<path d="M62.8361 183.49L7.07503 86.9081L103.656 31.1471L159.418 127.729L62.8361 183.49Z" fill="#EE7C20"/>
</g>
<mask id="mask49_790_5049" style="mask-type:luminance" maskUnits="userSpaceOnUse" x="3" y="19" width="94" height="61">
<path d="M6.09577 19.6801C4.38691 19.6801 3 21.066 3 22.7759V76.7012C3 78.409 4.38691 79.7959 6.09577 79.7959H93.9042C95.6141 79.7959 97 78.409 97 76.7012V22.7759C97 21.066 95.6141 19.6801 93.9042 19.6801H6.09577ZM4.03192 76.7012V22.7759C4.03192 21.6377 4.95756 20.7121 6.09577 20.7121H63.349C79.3799 20.7121 92.3749 33.7081 92.3749 49.738C92.3749 65.7679 79.3799 78.764 63.349 78.764H6.09577C4.95756 78.764 4.03192 77.8383 4.03192 76.7012Z" fill="white"/>
</mask>
<g mask="url(#mask49_790_5049)">
<path d="M63.2106 184.138L7.44962 87.5565L104.03 31.7955L159.793 128.377L63.2106 184.138Z" fill="#EE7D20"/>
</g>
<mask id="mask50_790_5049" style="mask-type:luminance" maskUnits="userSpaceOnUse" x="3" y="19" width="94" height="61">
<path d="M6.09577 19.6801C4.38691 19.6801 3 21.066 3 22.7759V76.7012C3 78.409 4.38691 79.7959 6.09577 79.7959H93.9042C95.6141 79.7959 97 78.409 97 76.7012V22.7759C97 21.066 95.6141 19.6801 93.9042 19.6801H6.09577ZM4.03192 76.7012V22.7759C4.03192 21.6377 4.95756 20.7121 6.09577 20.7121H63.349C79.3799 20.7121 92.3749 33.7081 92.3749 49.738C92.3749 65.7679 79.3799 78.764 63.349 78.764H6.09577C4.95756 78.764 4.03192 77.8383 4.03192 76.7012Z" fill="white"/>
</mask>
<g mask="url(#mask50_790_5049)">
<path d="M63.5853 184.788L7.82426 88.206L104.405 32.4449L160.167 129.027L63.5853 184.788Z" fill="#EF7D20"/>
</g>
<mask id="mask51_790_5049" style="mask-type:luminance" maskUnits="userSpaceOnUse" x="3" y="19" width="94" height="61">
<path d="M6.09577 19.6801C4.38691 19.6801 3 21.066 3 22.7759V76.7012C3 78.409 4.38691 79.7959 6.09577 79.7959H93.9042C95.6141 79.7959 97 78.409 97 76.7012V22.7759C97 21.066 95.6141 19.6801 93.9042 19.6801H6.09577ZM4.03192 76.7012V22.7759C4.03192 21.6377 4.95756 20.7121 6.09577 20.7121H63.349C79.3799 20.7121 92.3749 33.7081 92.3749 49.738C92.3749 65.7679 79.3799 78.764 63.349 78.764H6.09577C4.95756 78.764 4.03192 77.8383 4.03192 76.7012Z" fill="white"/>
</mask>
<g mask="url(#mask51_790_5049)">
<path d="M63.9599 185.437L8.19887 88.8546L104.78 33.0936L160.542 129.675L63.9599 185.437Z" fill="#EF7E20"/>
</g>
<mask id="mask52_790_5049" style="mask-type:luminance" maskUnits="userSpaceOnUse" x="3" y="19" width="94" height="61">
<path d="M6.09577 19.6801C4.38691 19.6801 3 21.066 3 22.7759V76.7012C3 78.409 4.38691 79.7959 6.09577 79.7959H93.9042C95.6141 79.7959 97 78.409 97 76.7012V22.7759C97 21.066 95.6141 19.6801 93.9042 19.6801H6.09577ZM4.03192 76.7012V22.7759C4.03192 21.6377 4.95756 20.7121 6.09577 20.7121H63.349C79.3799 20.7121 92.3749 33.7081 92.3749 49.738C92.3749 65.7679 79.3799 78.764 63.349 78.764H6.09577C4.95756 78.764 4.03192 77.8383 4.03192 76.7012Z" fill="white"/>
</mask>
<g mask="url(#mask52_790_5049)">
<path d="M64.3345 186.085L8.57352 89.5033L105.154 33.7423L160.916 130.324L64.3345 186.085Z" fill="#EF7F20"/>
</g>
<mask id="mask53_790_5049" style="mask-type:luminance" maskUnits="userSpaceOnUse" x="3" y="19" width="94" height="61">
<path d="M6.09577 19.6801C4.38691 19.6801 3 21.066 3 22.7759V76.7012C3 78.409 4.38691 79.7959 6.09577 79.7959H93.9042C95.6141 79.7959 97 78.409 97 76.7012V22.7759C97 21.066 95.6141 19.6801 93.9042 19.6801H6.09577ZM4.03192 76.7012V22.7759C4.03192 21.6377 4.95756 20.7121 6.09577 20.7121H63.349C79.3799 20.7121 92.3749 33.7081 92.3749 49.738C92.3749 65.7679 79.3799 78.764 63.349 78.764H6.09577C4.95756 78.764 4.03192 77.8383 4.03192 76.7012Z" fill="white"/>
</mask>
<g mask="url(#mask53_790_5049)">
<path d="M64.7092 186.734L8.94817 90.1525L105.529 34.3915L161.291 130.973L64.7092 186.734Z" fill="#EF8020"/>
</g>
<mask id="mask54_790_5049" style="mask-type:luminance" maskUnits="userSpaceOnUse" x="3" y="19" width="94" height="61">
<path d="M6.09577 19.6801C4.38691 19.6801 3 21.066 3 22.7759V76.7012C3 78.409 4.38691 79.7959 6.09577 79.7959H93.9042C95.6141 79.7959 97 78.409 97 76.7012V22.7759C97 21.066 95.6141 19.6801 93.9042 19.6801H6.09577ZM4.03192 76.7012V22.7759C4.03192 21.6377 4.95756 20.7121 6.09577 20.7121H63.349C79.3799 20.7121 92.3749 33.7081 92.3749 49.738C92.3749 65.7679 79.3799 78.764 63.349 78.764H6.09577C4.95756 78.764 4.03192 77.8383 4.03192 76.7012Z" fill="white"/>
</mask>
<g mask="url(#mask54_790_5049)">
<path d="M65.0838 187.383L9.32275 90.8014L105.904 35.0404L161.666 131.622L65.0838 187.383Z" fill="#EF801F"/>
</g>
<mask id="mask55_790_5049" style="mask-type:luminance" maskUnits="userSpaceOnUse" x="3" y="19" width="94" height="61">
<path d="M6.09577 19.6801C4.38691 19.6801 3 21.066 3 22.7759V76.7012C3 78.409 4.38691 79.7959 6.09577 79.7959H93.9042C95.6141 79.7959 97 78.409 97 76.7012V22.7759C97 21.066 95.6141 19.6801 93.9042 19.6801H6.09577ZM4.03192 76.7012V22.7759C4.03192 21.6377 4.95756 20.7121 6.09577 20.7121H63.349C79.3799 20.7121 92.3749 33.7081 92.3749 49.738C92.3749 65.7679 79.3799 78.764 63.349 78.764H6.09577C4.95756 78.764 4.03192 77.8383 4.03192 76.7012Z" fill="white"/>
</mask>
<g mask="url(#mask55_790_5049)">
<path d="M65.4584 188.032L9.69734 91.4499L106.278 35.6888L162.04 132.271L65.4584 188.032Z" fill="#F08120"/>
</g>
<mask id="mask56_790_5049" style="mask-type:luminance" maskUnits="userSpaceOnUse" x="3" y="19" width="94" height="61">
<path d="M6.09577 19.6801C4.38691 19.6801 3 21.066 3 22.7759V76.7012C3 78.409 4.38691 79.7959 6.09577 79.7959H93.9042C95.6141 79.7959 97 78.409 97 76.7012V22.7759C97 21.066 95.6141 19.6801 93.9042 19.6801H6.09577ZM4.03192 76.7012V22.7759C4.03192 21.6377 4.95756 20.7121 6.09577 20.7121H63.349C79.3799 20.7121 92.3749 33.7081 92.3749 49.738C92.3749 65.7679 79.3799 78.764 63.349 78.764H6.09577C4.95756 78.764 4.03192 77.8383 4.03192 76.7012Z" fill="white"/>
</mask>
<g mask="url(#mask56_790_5049)">
<path d="M65.8328 188.681L10.0718 92.0988L106.653 36.3378L162.415 132.92L65.8328 188.681Z" fill="#F0821F"/>
</g>
<mask id="mask57_790_5049" style="mask-type:luminance" maskUnits="userSpaceOnUse" x="3" y="19" width="94" height="61">
<path d="M6.09577 19.6801C4.38691 19.6801 3 21.066 3 22.7759V76.7012C3 78.409 4.38691 79.7959 6.09577 79.7959H93.9042C95.6141 79.7959 97 78.409 97 76.7012V22.7759C97 21.066 95.6141 19.6801 93.9042 19.6801H6.09577ZM4.03192 76.7012V22.7759C4.03192 21.6377 4.95756 20.7121 6.09577 20.7121H63.349C79.3799 20.7121 92.3749 33.7081 92.3749 49.738C92.3749 65.7679 79.3799 78.764 63.349 78.764H6.09577C4.95756 78.764 4.03192 77.8383 4.03192 76.7012Z" fill="white"/>
</mask>
<g mask="url(#mask57_790_5049)">
<path d="M66.2076 189.33L10.4466 92.748L107.027 36.9869L162.79 133.569L66.2076 189.33Z" fill="#F0831F"/>
</g>
<mask id="mask58_790_5049" style="mask-type:luminance" maskUnits="userSpaceOnUse" x="3" y="19" width="94" height="61">
<path d="M6.09577 19.6801C4.38691 19.6801 3 21.066 3 22.7759V76.7012C3 78.409 4.38691 79.7959 6.09577 79.7959H93.9042C95.6141 79.7959 97 78.409 97 76.7012V22.7759C97 21.066 95.6141 19.6801 93.9042 19.6801H6.09577ZM4.03192 76.7012V22.7759C4.03192 21.6377 4.95756 20.7121 6.09577 20.7121H63.349C79.3799 20.7121 92.3749 33.7081 92.3749 49.738C92.3749 65.7679 79.3799 78.764 63.349 78.764H6.09577C4.95756 78.764 4.03192 77.8383 4.03192 76.7012Z" fill="white"/>
</mask>
<g mask="url(#mask58_790_5049)">
<path d="M66.5823 189.979L10.8212 93.3966L107.402 37.6356L163.164 134.217L66.5823 189.979Z" fill="#F0841F"/>
</g>
<mask id="mask59_790_5049" style="mask-type:luminance" maskUnits="userSpaceOnUse" x="3" y="19" width="94" height="61">
<path d="M6.09577 19.6801C4.38691 19.6801 3 21.066 3 22.7759V76.7012C3 78.409 4.38691 79.7959 6.09577 79.7959H93.9042C95.6141 79.7959 97 78.409 97 76.7012V22.7759C97 21.066 95.6141 19.6801 93.9042 19.6801H6.09577ZM4.03192 76.7012V22.7759C4.03192 21.6377 4.95756 20.7121 6.09577 20.7121H63.349C79.3799 20.7121 92.3749 33.7081 92.3749 49.738C92.3749 65.7679 79.3799 78.764 63.349 78.764H6.09577C4.95756 78.764 4.03192 77.8383 4.03192 76.7012Z" fill="white"/>
</mask>
<g mask="url(#mask59_790_5049)">
<path d="M66.9567 190.627L11.1957 94.0453L107.777 38.2843L163.539 134.866L66.9567 190.627Z" fill="#F08420"/>
</g>
<mask id="mask60_790_5049" style="mask-type:luminance" maskUnits="userSpaceOnUse" x="3" y="19" width="94" height="61">
<path d="M6.09577 19.6801C4.38691 19.6801 3 21.066 3 22.7759V76.7012C3 78.409 4.38691 79.7959 6.09577 79.7959H93.9042C95.6141 79.7959 97 78.409 97 76.7012V22.7759C97 21.066 95.6141 19.6801 93.9042 19.6801H6.09577ZM4.03192 76.7012V22.7759C4.03192 21.6377 4.95756 20.7121 6.09577 20.7121H63.349C79.3799 20.7121 92.3749 33.7081 92.3749 49.738C92.3749 65.7679 79.3799 78.764 63.349 78.764H6.09577C4.95756 78.764 4.03192 77.8383 4.03192 76.7012Z" fill="white"/>
</mask>
<g mask="url(#mask60_790_5049)">
<path d="M67.3314 191.276L11.5704 94.6945L108.151 38.9335L163.913 135.515L67.3314 191.276Z" fill="#F08520"/>
</g>
<mask id="mask61_790_5049" style="mask-type:luminance" maskUnits="userSpaceOnUse" x="3" y="19" width="94" height="61">
<path d="M6.09577 19.6801C4.38691 19.6801 3 21.066 3 22.7759V76.7012C3 78.409 4.38691 79.7959 6.09577 79.7959H93.9042C95.6141 79.7959 97 78.409 97 76.7012V22.7759C97 21.066 95.6141 19.6801 93.9042 19.6801H6.09577ZM4.03192 76.7012V22.7759C4.03192 21.6377 4.95756 20.7121 6.09577 20.7121H63.349C79.3799 20.7121 92.3749 33.7081 92.3749 49.738C92.3749 65.7679 79.3799 78.764 63.349 78.764H6.09577C4.95756 78.764 4.03192 77.8383 4.03192 76.7012Z" fill="white"/>
</mask>
<g mask="url(#mask61_790_5049)">
<path d="M67.7061 191.925L11.9451 95.3429L108.526 39.5819L164.288 136.164L67.7061 191.925Z" fill="#F18620"/>
</g>
<mask id="mask62_790_5049" style="mask-type:luminance" maskUnits="userSpaceOnUse" x="3" y="19" width="94" height="61">
<path d="M6.09577 19.6801C4.38691 19.6801 3 21.066 3 22.7759V76.7012C3 78.409 4.38691 79.7959 6.09577 79.7959H93.9042C95.6141 79.7959 97 78.409 97 76.7012V22.7759C97 21.066 95.6141 19.6801 93.9042 19.6801H6.09577ZM4.03192 76.7012V22.7759C4.03192 21.6377 4.95756 20.7121 6.09577 20.7121H63.349C79.3799 20.7121 92.3749 33.7081 92.3749 49.738C92.3749 65.7679 79.3799 78.764 63.349 78.764H6.09577C4.95756 78.764 4.03192 77.8383 4.03192 76.7012Z" fill="white"/>
</mask>
<g mask="url(#mask62_790_5049)">
<path d="M68.0806 192.574L12.3196 95.9921L108.9 40.2311L164.663 136.813L68.0806 192.574Z" fill="#F18620"/>
</g>
<mask id="mask63_790_5049" style="mask-type:luminance" maskUnits="userSpaceOnUse" x="3" y="19" width="94" height="61">
<path d="M6.09577 19.6801C4.38691 19.6801 3 21.066 3 22.7759V76.7012C3 78.409 4.38691 79.7959 6.09577 79.7959H93.9042C95.6141 79.7959 97 78.409 97 76.7012V22.7759C97 21.066 95.6141 19.6801 93.9042 19.6801H6.09577ZM4.03192 76.7012V22.7759C4.03192 21.6377 4.95756 20.7121 6.09577 20.7121H63.349C79.3799 20.7121 92.3749 33.7081 92.3749 49.738C92.3749 65.7679 79.3799 78.764 63.349 78.764H6.09577C4.95756 78.764 4.03192 77.8383 4.03192 76.7012Z" fill="white"/>
</mask>
<g mask="url(#mask63_790_5049)">
<path d="M68.4552 193.223L12.6942 96.6408L109.275 40.8797L165.037 137.462L68.4552 193.223Z" fill="#F18720"/>
</g>
<mask id="mask64_790_5049" style="mask-type:luminance" maskUnits="userSpaceOnUse" x="3" y="19" width="94" height="61">
<path d="M6.09577 19.6801C4.38691 19.6801 3 21.066 3 22.7759V76.7012C3 78.409 4.38691 79.7959 6.09577 79.7959H93.9042C95.6141 79.7959 97 78.409 97 76.7012V22.7759C97 21.066 95.6141 19.6801 93.9042 19.6801H6.09577ZM4.03192 76.7012V22.7759C4.03192 21.6377 4.95756 20.7121 6.09577 20.7121H63.349C79.3799 20.7121 92.3749 33.7081 92.3749 49.738C92.3749 65.7679 79.3799 78.764 63.349 78.764H6.09577C4.95756 78.764 4.03192 77.8383 4.03192 76.7012Z" fill="white"/>
</mask>
<g mask="url(#mask64_790_5049)">
<path d="M68.83 193.872L13.069 97.2897L109.65 41.5287L165.412 138.111L68.83 193.872Z" fill="#F28820"/>
</g>
<mask id="mask65_790_5049" style="mask-type:luminance" maskUnits="userSpaceOnUse" x="3" y="19" width="94" height="61">
<path d="M6.09577 19.6801C4.38691 19.6801 3 21.066 3 22.7759V76.7012C3 78.409 4.38691 79.7959 6.09577 79.7959H93.9042C95.6141 79.7959 97 78.409 97 76.7012V22.7759C97 21.066 95.6141 19.6801 93.9042 19.6801H6.09577ZM4.03192 76.7012V22.7759C4.03192 21.6377 4.95756 20.7121 6.09577 20.7121H63.349C79.3799 20.7121 92.3749 33.7081 92.3749 49.738C92.3749 65.7679 79.3799 78.764 63.349 78.764H6.09577C4.95756 78.764 4.03192 77.8383 4.03192 76.7012Z" fill="white"/>
</mask>
<g mask="url(#mask65_790_5049)">
<path d="M69.2045 194.521L13.4434 97.9389L110.024 42.1778L165.786 138.76L69.2045 194.521Z" fill="#F28820"/>
</g>
<mask id="mask66_790_5049" style="mask-type:luminance" maskUnits="userSpaceOnUse" x="3" y="19" width="94" height="61">
<path d="M6.09577 19.6801C4.38691 19.6801 3 21.066 3 22.7759V76.7012C3 78.409 4.38691 79.7959 6.09577 79.7959H93.9042C95.6141 79.7959 97 78.409 97 76.7012V22.7759C97 21.066 95.6141 19.6801 93.9042 19.6801H6.09577ZM4.03192 76.7012V22.7759C4.03192 21.6377 4.95756 20.7121 6.09577 20.7121H63.349C79.3799 20.7121 92.3749 33.7081 92.3749 49.738C92.3749 65.7679 79.3799 78.764 63.349 78.764H6.09577C4.95756 78.764 4.03192 77.8383 4.03192 76.7012Z" fill="white"/>
</mask>
<g mask="url(#mask66_790_5049)">
<path d="M69.5791 195.169L13.8181 98.5873L110.399 42.8263L166.161 139.408L69.5791 195.169Z" fill="#F28A20"/>
</g>
<mask id="mask67_790_5049" style="mask-type:luminance" maskUnits="userSpaceOnUse" x="3" y="19" width="94" height="61">
<path d="M6.09577 19.6801C4.38691 19.6801 3 21.066 3 22.7759V76.7012C3 78.409 4.38691 79.7959 6.09577 79.7959H93.9042C95.6141 79.7959 97 78.409 97 76.7012V22.7759C97 21.066 95.6141 19.6801 93.9042 19.6801H6.09577ZM4.03192 76.7012V22.7759C4.03192 21.6377 4.95756 20.7121 6.09577 20.7121H63.349C79.3799 20.7121 92.3749 33.7081 92.3749 49.738C92.3749 65.7679 79.3799 78.764 63.349 78.764H6.09577C4.95756 78.764 4.03192 77.8383 4.03192 76.7012Z" fill="white"/>
</mask>
<g mask="url(#mask67_790_5049)">
<path d="M69.9537 195.818L14.1927 99.2362L110.774 43.4752L166.536 140.057L69.9537 195.818Z" fill="#F28A20"/>
</g>
<mask id="mask68_790_5049" style="mask-type:luminance" maskUnits="userSpaceOnUse" x="3" y="19" width="94" height="61">
<path d="M6.09577 19.6801C4.38691 19.6801 3 21.066 3 22.7759V76.7012C3 78.409 4.38691 79.7959 6.09577 79.7959H93.9042C95.6141 79.7959 97 78.409 97 76.7012V22.7759C97 21.066 95.6141 19.6801 93.9042 19.6801H6.09577ZM4.03192 76.7012V22.7759C4.03192 21.6377 4.95756 20.7121 6.09577 20.7121H63.349C79.3799 20.7121 92.3749 33.7081 92.3749 49.738C92.3749 65.7679 79.3799 78.764 63.349 78.764H6.09577C4.95756 78.764 4.03192 77.8383 4.03192 76.7012Z" fill="white"/>
</mask>
<g mask="url(#mask68_790_5049)">
<path d="M70.3284 196.467L14.5673 99.8852L111.148 44.1241L166.91 140.706L70.3284 196.467Z" fill="#F28B1F"/>
</g>
<mask id="mask69_790_5049" style="mask-type:luminance" maskUnits="userSpaceOnUse" x="3" y="19" width="94" height="61">
<path d="M6.09577 19.6801C4.38691 19.6801 3 21.066 3 22.7759V76.7012C3 78.409 4.38691 79.7959 6.09577 79.7959H93.9042C95.6141 79.7959 97 78.409 97 76.7012V22.7759C97 21.066 95.6141 19.6801 93.9042 19.6801H6.09577ZM4.03192 76.7012V22.7759C4.03192 21.6377 4.95756 20.7121 6.09577 20.7121H63.349C79.3799 20.7121 92.3749 33.7081 92.3749 49.738C92.3749 65.7679 79.3799 78.764 63.349 78.764H6.09577C4.95756 78.764 4.03192 77.8383 4.03192 76.7012Z" fill="white"/>
</mask>
<g mask="url(#mask69_790_5049)">
<path d="M70.703 197.116L14.942 100.534L111.523 44.7731L167.285 141.355L70.703 197.116Z" fill="#F28C1F"/>
</g>
<mask id="mask70_790_5049" style="mask-type:luminance" maskUnits="userSpaceOnUse" x="3" y="19" width="94" height="61">
<path d="M6.09577 19.6801C4.38691 19.6801 3 21.066 3 22.7759V76.7012C3 78.409 4.38691 79.7959 6.09577 79.7959H93.9042C95.6141 79.7959 97 78.409 97 76.7012V22.7759C97 21.066 95.6141 19.6801 93.9042 19.6801H6.09577ZM4.03192 76.7012V22.7759C4.03192 21.6377 4.95756 20.7121 6.09577 20.7121H63.349C79.3799 20.7121 92.3749 33.7081 92.3749 49.738C92.3749 65.7679 79.3799 78.764 63.349 78.764H6.09577C4.95756 78.764 4.03192 77.8383 4.03192 76.7012Z" fill="white"/>
</mask>
<g mask="url(#mask70_790_5049)">
<path d="M71.0776 197.764L15.3166 101.183L111.897 45.4215L167.659 142.003L71.0776 197.764Z" fill="#F28C1F"/>
</g>
<mask id="mask71_790_5049" style="mask-type:luminance" maskUnits="userSpaceOnUse" x="3" y="19" width="94" height="61">
<path d="M6.09577 19.6801C4.38691 19.6801 3 21.066 3 22.7759V76.7012C3 78.409 4.38691 79.7959 6.09577 79.7959H93.9042C95.6141 79.7959 97 78.409 97 76.7012V22.7759C97 21.066 95.6141 19.6801 93.9042 19.6801H6.09577ZM4.03192 76.7012V22.7759C4.03192 21.6377 4.95756 20.7121 6.09577 20.7121H63.349C79.3799 20.7121 92.3749 33.7081 92.3749 49.738C92.3749 65.7679 79.3799 78.764 63.349 78.764H6.09577C4.95756 78.764 4.03192 77.8383 4.03192 76.7012Z" fill="white"/>
</mask>
<g mask="url(#mask71_790_5049)">
<path d="M71.4522 198.414L15.6912 101.832L112.272 46.0707L168.034 142.653L71.4522 198.414Z" fill="#F38D1F"/>
</g>
<mask id="mask72_790_5049" style="mask-type:luminance" maskUnits="userSpaceOnUse" x="3" y="19" width="94" height="61">
<path d="M6.09577 19.6801C4.38691 19.6801 3 21.066 3 22.7759V76.7012C3 78.409 4.38691 79.7959 6.09577 79.7959H93.9042C95.6141 79.7959 97 78.409 97 76.7012V22.7759C97 21.066 95.6141 19.6801 93.9042 19.6801H6.09577ZM4.03192 76.7012V22.7759C4.03192 21.6377 4.95756 20.7121 6.09577 20.7121H63.349C79.3799 20.7121 92.3749 33.7081 92.3749 49.738C92.3749 65.7679 79.3799 78.764 63.349 78.764H6.09577C4.95756 78.764 4.03192 77.8383 4.03192 76.7012Z" fill="white"/>
</mask>
<g mask="url(#mask72_790_5049)">
<path d="M71.8269 199.062L16.0659 102.48L112.647 46.7193L168.409 143.301L71.8269 199.062Z" fill="#F38E1F"/>
</g>
<mask id="mask73_790_5049" style="mask-type:luminance" maskUnits="userSpaceOnUse" x="3" y="19" width="94" height="61">
<path d="M6.09577 19.6801C4.38691 19.6801 3 21.066 3 22.7759V76.7012C3 78.409 4.38691 79.7959 6.09577 79.7959H93.9042C95.6141 79.7959 97 78.409 97 76.7012V22.7759C97 21.066 95.6141 19.6801 93.9042 19.6801H6.09577ZM4.03192 76.7012V22.7759C4.03192 21.6377 4.95756 20.7121 6.09577 20.7121H63.349C79.3799 20.7121 92.3749 33.7081 92.3749 49.738C92.3749 65.7679 79.3799 78.764 63.349 78.764H6.09577C4.95756 78.764 4.03192 77.8383 4.03192 76.7012Z" fill="white"/>
</mask>
<g mask="url(#mask73_790_5049)">
<path d="M72.2014 199.712L16.4404 103.13L113.021 47.3688L168.783 143.951L72.2014 199.712Z" fill="#F38E20"/>
</g>
<mask id="mask74_790_5049" style="mask-type:luminance" maskUnits="userSpaceOnUse" x="3" y="19" width="94" height="61">
<path d="M6.09577 19.6801C4.38691 19.6801 3 21.066 3 22.7759V76.7012C3 78.409 4.38691 79.7959 6.09577 79.7959H93.9042C95.6141 79.7959 97 78.409 97 76.7012V22.7759C97 21.066 95.6141 19.6801 93.9042 19.6801H6.09577ZM4.03192 76.7012V22.7759C4.03192 21.6377 4.95756 20.7121 6.09577 20.7121H63.349C79.3799 20.7121 92.3749 33.7081 92.3749 49.738C92.3749 65.7679 79.3799 78.764 63.349 78.764H6.09577C4.95756 78.764 4.03192 77.8383 4.03192 76.7012Z" fill="white"/>
</mask>
<g mask="url(#mask74_790_5049)">
<path d="M72.576 200.36L16.815 103.778L113.396 48.017L169.158 144.599L72.576 200.36Z" fill="#F48F20"/>
</g>
<mask id="mask75_790_5049" style="mask-type:luminance" maskUnits="userSpaceOnUse" x="3" y="19" width="94" height="61">
<path d="M6.09577 19.6801C4.38691 19.6801 3 21.066 3 22.7759V76.7012C3 78.409 4.38691 79.7959 6.09577 79.7959H93.9042C95.6141 79.7959 97 78.409 97 76.7012V22.7759C97 21.066 95.6141 19.6801 93.9042 19.6801H6.09577ZM4.03192 76.7012V22.7759C4.03192 21.6377 4.95756 20.7121 6.09577 20.7121H63.349C79.3799 20.7121 92.3749 33.7081 92.3749 49.738C92.3749 65.7679 79.3799 78.764 63.349 78.764H6.09577C4.95756 78.764 4.03192 77.8383 4.03192 76.7012Z" fill="white"/>
</mask>
<g mask="url(#mask75_790_5049)">
<path d="M72.9508 201.009L17.1898 104.427L113.771 48.6664L169.533 145.248L72.9508 201.009Z" fill="#F49020"/>
</g>
<mask id="mask76_790_5049" style="mask-type:luminance" maskUnits="userSpaceOnUse" x="3" y="19" width="94" height="61">
<path d="M6.09577 19.6801C4.38691 19.6801 3 21.066 3 22.7759V76.7012C3 78.409 4.38691 79.7959 6.09577 79.7959H93.9042C95.6141 79.7959 97 78.409 97 76.7012V22.7759C97 21.066 95.6141 19.6801 93.9042 19.6801H6.09577ZM4.03192 76.7012V22.7759C4.03192 21.6377 4.95756 20.7121 6.09577 20.7121H63.349C79.3799 20.7121 92.3749 33.7081 92.3749 49.738C92.3749 65.7679 79.3799 78.764 63.349 78.764H6.09577C4.95756 78.764 4.03192 77.8383 4.03192 76.7012Z" fill="white"/>
</mask>
<g mask="url(#mask76_790_5049)">
<path d="M73.3253 201.658L17.5642 105.076L114.145 49.3148L169.907 145.897L73.3253 201.658Z" fill="#F49020"/>
</g>
<mask id="mask77_790_5049" style="mask-type:luminance" maskUnits="userSpaceOnUse" x="3" y="19" width="94" height="61">
<path d="M6.09577 19.6801C4.38691 19.6801 3 21.066 3 22.7759V76.7012C3 78.409 4.38691 79.7959 6.09577 79.7959H93.9042C95.6141 79.7959 97 78.409 97 76.7012V22.7759C97 21.066 95.6141 19.6801 93.9042 19.6801H6.09577ZM4.03192 76.7012V22.7759C4.03192 21.6377 4.95756 20.7121 6.09577 20.7121H63.349C79.3799 20.7121 92.3749 33.7081 92.3749 49.738C92.3749 65.7679 79.3799 78.764 63.349 78.764H6.09577C4.95756 78.764 4.03192 77.8383 4.03192 76.7012Z" fill="white"/>
</mask>
<g mask="url(#mask77_790_5049)">
<path d="M73.6999 202.307L17.9389 105.725L114.52 49.9637L170.282 146.546L73.6999 202.307Z" fill="#F49120"/>
</g>
<mask id="mask78_790_5049" style="mask-type:luminance" maskUnits="userSpaceOnUse" x="3" y="19" width="94" height="61">
<path d="M6.09577 19.6801C4.38691 19.6801 3 21.066 3 22.7759V76.7012C3 78.409 4.38691 79.7959 6.09577 79.7959H93.9042C95.6141 79.7959 97 78.409 97 76.7012V22.7759C97 21.066 95.6141 19.6801 93.9042 19.6801H6.09577ZM4.03192 76.7012V22.7759C4.03192 21.6377 4.95756 20.7121 6.09577 20.7121H63.349C79.3799 20.7121 92.3749 33.7081 92.3749 49.738C92.3749 65.7679 79.3799 78.764 63.349 78.764H6.09577C4.95756 78.764 4.03192 77.8383 4.03192 76.7012Z" fill="white"/>
</mask>
<g mask="url(#mask78_790_5049)">
<path d="M74.0744 202.956L18.3134 106.374L114.894 50.6129L170.656 147.195L74.0744 202.956Z" fill="#F49220"/>
</g>
<mask id="mask79_790_5049" style="mask-type:luminance" maskUnits="userSpaceOnUse" x="3" y="19" width="94" height="61">
<path d="M6.09577 19.6801C4.38691 19.6801 3 21.066 3 22.7759V76.7012C3 78.409 4.38691 79.7959 6.09577 79.7959H93.9042C95.6141 79.7959 97 78.409 97 76.7012V22.7759C97 21.066 95.6141 19.6801 93.9042 19.6801H6.09577ZM4.03192 76.7012V22.7759C4.03192 21.6377 4.95756 20.7121 6.09577 20.7121H63.349C79.3799 20.7121 92.3749 33.7081 92.3749 49.738C92.3749 65.7679 79.3799 78.764 63.349 78.764H6.09577C4.95756 78.764 4.03192 77.8383 4.03192 76.7012Z" fill="white"/>
</mask>
<g mask="url(#mask79_790_5049)">
<path d="M74.4491 203.605L18.6881 107.023L115.269 51.2618L171.031 147.844L74.4491 203.605Z" fill="#F4931F"/>
</g>
<mask id="mask80_790_5049" style="mask-type:luminance" maskUnits="userSpaceOnUse" x="3" y="19" width="94" height="61">
<path d="M6.09577 19.6801C4.38691 19.6801 3 21.066 3 22.7759V76.7012C3 78.409 4.38691 79.7959 6.09577 79.7959H93.9042C95.6141 79.7959 97 78.409 97 76.7012V22.7759C97 21.066 95.6141 19.6801 93.9042 19.6801H6.09577ZM4.03192 76.7012V22.7759C4.03192 21.6377 4.95756 20.7121 6.09577 20.7121H63.349C79.3799 20.7121 92.3749 33.7081 92.3749 49.738C92.3749 65.7679 79.3799 78.764 63.349 78.764H6.09577C4.95756 78.764 4.03192 77.8383 4.03192 76.7012Z" fill="white"/>
</mask>
<g mask="url(#mask80_790_5049)">
<path d="M74.8238 204.254L19.0627 107.672L115.644 51.9108L171.406 148.493L74.8238 204.254Z" fill="#F5941F"/>
</g>
<mask id="mask81_790_5049" style="mask-type:luminance" maskUnits="userSpaceOnUse" x="3" y="19" width="94" height="61">
<path d="M6.09577 19.6801C4.38691 19.6801 3 21.066 3 22.7759V76.7012C3 78.409 4.38691 79.7959 6.09577 79.7959H93.9042C95.6141 79.7959 97 78.409 97 76.7012V22.7759C97 21.066 95.6141 19.6801 93.9042 19.6801H6.09577ZM4.03192 76.7012V22.7759C4.03192 21.6377 4.95756 20.7121 6.09577 20.7121H63.349C79.3799 20.7121 92.3749 33.7081 92.3749 49.738C92.3749 65.7679 79.3799 78.764 63.349 78.764H6.09577C4.95756 78.764 4.03192 77.8383 4.03192 76.7012Z" fill="white"/>
</mask>
<g mask="url(#mask81_790_5049)">
<path d="M75.1983 204.902L19.4373 108.32L116.018 52.5592L171.78 149.141L75.1983 204.902Z" fill="#F5941F"/>
</g>
<mask id="mask82_790_5049" style="mask-type:luminance" maskUnits="userSpaceOnUse" x="3" y="19" width="94" height="61">
<path d="M6.09577 19.6801C4.38691 19.6801 3 21.066 3 22.7759V76.7012C3 78.409 4.38691 79.7959 6.09577 79.7959H93.9042C95.6141 79.7959 97 78.409 97 76.7012V22.7759C97 21.066 95.6141 19.6801 93.9042 19.6801H6.09577ZM4.03192 76.7012V22.7759C4.03192 21.6377 4.95756 20.7121 6.09577 20.7121H63.349C79.3799 20.7121 92.3749 33.7081 92.3749 49.738C92.3749 65.7679 79.3799 78.764 63.349 78.764H6.09577C4.95756 78.764 4.03192 77.8383 4.03192 76.7012Z" fill="white"/>
</mask>
<g mask="url(#mask82_790_5049)">
<path d="M75.5729 205.552L19.8119 108.97L116.393 53.2086L172.155 149.79L75.5729 205.552Z" fill="#F5951F"/>
</g>
<mask id="mask83_790_5049" style="mask-type:luminance" maskUnits="userSpaceOnUse" x="3" y="19" width="94" height="61">
<path d="M6.09577 19.6801C4.38691 19.6801 3 21.066 3 22.7759V76.7012C3 78.409 4.38691 79.7959 6.09577 79.7959H93.9042C95.6141 79.7959 97 78.409 97 76.7012V22.7759C97 21.066 95.6141 19.6801 93.9042 19.6801H6.09577ZM4.03192 76.7012V22.7759C4.03192 21.6377 4.95756 20.7121 6.09577 20.7121H63.349C79.3799 20.7121 92.3749 33.7081 92.3749 49.738C92.3749 65.7679 79.3799 78.764 63.349 78.764H6.09577C4.95756 78.764 4.03192 77.8383 4.03192 76.7012Z" fill="white"/>
</mask>
<g mask="url(#mask83_790_5049)">
<path d="M75.9476 206.199L20.1866 109.618L116.767 53.8566L172.53 150.438L75.9476 206.199Z" fill="#F69620"/>
</g>
<mask id="mask84_790_5049" style="mask-type:luminance" maskUnits="userSpaceOnUse" x="3" y="19" width="94" height="61">
<path d="M6.09577 19.6801C4.38691 19.6801 3 21.066 3 22.7759V76.7012C3 78.409 4.38691 79.7959 6.09577 79.7959H93.9042C95.6141 79.7959 97 78.409 97 76.7012V22.7759C97 21.066 95.6141 19.6801 93.9042 19.6801H6.09577ZM4.03192 76.7012V22.7759C4.03192 21.6377 4.95756 20.7121 6.09577 20.7121H63.349C79.3799 20.7121 92.3749 33.7081 92.3749 49.738C92.3749 65.7679 79.3799 78.764 63.349 78.764H6.09577C4.95756 78.764 4.03192 77.8383 4.03192 76.7012Z" fill="white"/>
</mask>
<g mask="url(#mask84_790_5049)">
<path d="M76.3223 206.849L20.5612 110.267L117.142 54.5057L172.904 151.088L76.3223 206.849Z" fill="#F69720"/>
</g>
<mask id="mask85_790_5049" style="mask-type:luminance" maskUnits="userSpaceOnUse" x="3" y="19" width="94" height="61">
<path d="M6.09577 19.6801C4.38691 19.6801 3 21.066 3 22.7759V76.7012C3 78.409 4.38691 79.7959 6.09577 79.7959H93.9042C95.6141 79.7959 97 78.409 97 76.7012V22.7759C97 21.066 95.6141 19.6801 93.9042 19.6801H6.09577ZM4.03192 76.7012V22.7759C4.03192 21.6377 4.95756 20.7121 6.09577 20.7121H63.349C79.3799 20.7121 92.3749 33.7081 92.3749 49.738C92.3749 65.7679 79.3799 78.764 63.349 78.764H6.09577C4.95756 78.764 4.03192 77.8383 4.03192 76.7012Z" fill="white"/>
</mask>
<g mask="url(#mask85_790_5049)">
<path d="M76.6968 207.497L20.9357 110.915L117.517 55.1542L173.279 151.736L76.6968 207.497Z" fill="#F7971F"/>
</g>
<mask id="mask86_790_5049" style="mask-type:luminance" maskUnits="userSpaceOnUse" x="3" y="19" width="94" height="61">
<path d="M6.09577 19.6801C4.38691 19.6801 3 21.066 3 22.7759V76.7012C3 78.409 4.38691 79.7959 6.09577 79.7959H93.9042C95.6141 79.7959 97 78.409 97 76.7012V22.7759C97 21.066 95.6141 19.6801 93.9042 19.6801H6.09577ZM4.03192 76.7012V22.7759C4.03192 21.6377 4.95756 20.7121 6.09577 20.7121H63.349C79.3799 20.7121 92.3749 33.7081 92.3749 49.738C92.3749 65.7679 79.3799 78.764 63.349 78.764H6.09577C4.95756 78.764 4.03192 77.8383 4.03192 76.7012Z" fill="white"/>
</mask>
<g mask="url(#mask86_790_5049)">
<path d="M77.0715 208.146L21.3105 111.565L117.891 55.8036L173.653 152.385L77.0715 208.146Z" fill="#F7981F"/>
</g>
<mask id="mask87_790_5049" style="mask-type:luminance" maskUnits="userSpaceOnUse" x="3" y="19" width="94" height="61">
<path d="M6.09577 19.6801C4.38691 19.6801 3 21.066 3 22.7759V76.7012C3 78.409 4.38691 79.7959 6.09577 79.7959H93.9042C95.6141 79.7959 97 78.409 97 76.7012V22.7759C97 21.066 95.6141 19.6801 93.9042 19.6801H6.09577ZM4.03192 76.7012V22.7759C4.03192 21.6377 4.95756 20.7121 6.09577 20.7121H63.349C79.3799 20.7121 92.3749 33.7081 92.3749 49.738C92.3749 65.7679 79.3799 78.764 63.349 78.764H6.09577C4.95756 78.764 4.03192 77.8383 4.03192 76.7012Z" fill="white"/>
</mask>
<g mask="url(#mask87_790_5049)">
<path d="M77.4461 208.795L21.6851 112.214L118.266 56.4525L174.028 153.034L77.4461 208.795Z" fill="#F79920"/>
</g>
<mask id="mask88_790_5049" style="mask-type:luminance" maskUnits="userSpaceOnUse" x="3" y="19" width="94" height="61">
<path d="M6.09577 19.6801C4.38691 19.6801 3 21.066 3 22.7759V76.7012C3 78.409 4.38691 79.7959 6.09577 79.7959H93.9042C95.6141 79.7959 97 78.409 97 76.7012V22.7759C97 21.066 95.6141 19.6801 93.9042 19.6801H6.09577ZM4.03192 76.7012V22.7759C4.03192 21.6377 4.95756 20.7121 6.09577 20.7121H63.349C79.3799 20.7121 92.3749 33.7081 92.3749 49.738C92.3749 65.7679 79.3799 78.764 63.349 78.764H6.09577C4.95756 78.764 4.03192 77.8383 4.03192 76.7012Z" fill="white"/>
</mask>
<g mask="url(#mask88_790_5049)">
<path d="M77.8207 209.444L22.0596 112.862L118.64 57.1012L174.403 153.683L77.8207 209.444Z" fill="#F79A20"/>
</g>
<mask id="mask89_790_5049" style="mask-type:luminance" maskUnits="userSpaceOnUse" x="3" y="19" width="94" height="61">
<path d="M6.09577 19.6801C4.38691 19.6801 3 21.066 3 22.7759V76.7012C3 78.409 4.38691 79.7959 6.09577 79.7959H93.9042C95.6141 79.7959 97 78.409 97 76.7012V22.7759C97 21.066 95.6141 19.6801 93.9042 19.6801H6.09577ZM4.03192 76.7012V22.7759C4.03192 21.6377 4.95756 20.7121 6.09577 20.7121H63.349C79.3799 20.7121 92.3749 33.7081 92.3749 49.738C92.3749 65.7679 79.3799 78.764 63.349 78.764H6.09577C4.95756 78.764 4.03192 77.8383 4.03192 76.7012Z" fill="white"/>
</mask>
<g mask="url(#mask89_790_5049)">
<path d="M78.1953 210.093L22.4343 113.511L119.015 57.7499L174.777 154.332L78.1953 210.093Z" fill="#F79A20"/>
</g>
<mask id="mask90_790_5049" style="mask-type:luminance" maskUnits="userSpaceOnUse" x="3" y="19" width="94" height="61">
<path d="M6.09577 19.6801C4.38691 19.6801 3 21.066 3 22.7759V76.7012C3 78.409 4.38691 79.7959 6.09577 79.7959H93.9042C95.6141 79.7959 97 78.409 97 76.7012V22.7759C97 21.066 95.6141 19.6801 93.9042 19.6801H6.09577ZM4.03192 76.7012V22.7759C4.03192 21.6377 4.95756 20.7121 6.09577 20.7121H63.349C79.3799 20.7121 92.3749 33.7081 92.3749 49.738C92.3749 65.7679 79.3799 78.764 63.349 78.764H6.09577C4.95756 78.764 4.03192 77.8383 4.03192 76.7012Z" fill="white"/>
</mask>
<g mask="url(#mask90_790_5049)">
<path d="M78.57 210.742L22.8089 114.16L119.39 58.3988L175.152 154.981L78.57 210.742Z" fill="#F79B20"/>
</g>
<mask id="mask91_790_5049" style="mask-type:luminance" maskUnits="userSpaceOnUse" x="3" y="19" width="94" height="61">
<path d="M6.09577 19.6801C4.38691 19.6801 3 21.066 3 22.7759V76.7012C3 78.409 4.38691 79.7959 6.09577 79.7959H93.9042C95.6141 79.7959 97 78.409 97 76.7012V22.7759C97 21.066 95.6141 19.6801 93.9042 19.6801H6.09577ZM4.03192 76.7012V22.7759C4.03192 21.6377 4.95756 20.7121 6.09577 20.7121H63.349C79.3799 20.7121 92.3749 33.7081 92.3749 49.738C92.3749 65.7679 79.3799 78.764 63.349 78.764H6.09577C4.95756 78.764 4.03192 77.8383 4.03192 76.7012Z" fill="white"/>
</mask>
<g mask="url(#mask91_790_5049)">
<path d="M78.9446 211.391L23.1835 114.809L119.764 59.0477L175.526 155.63L78.9446 211.391Z" fill="#F79C20"/>
</g>
<mask id="mask92_790_5049" style="mask-type:luminance" maskUnits="userSpaceOnUse" x="3" y="19" width="94" height="61">
<path d="M6.09577 19.6801C4.38691 19.6801 3 21.066 3 22.7759V76.7012C3 78.409 4.38691 79.7959 6.09577 79.7959H93.9042C95.6141 79.7959 97 78.409 97 76.7012V22.7759C97 21.066 95.6141 19.6801 93.9042 19.6801H6.09577ZM4.03192 76.7012V22.7759C4.03192 21.6377 4.95756 20.7121 6.09577 20.7121H63.349C79.3799 20.7121 92.3749 33.7081 92.3749 49.738C92.3749 65.7679 79.3799 78.764 63.349 78.764H6.09577C4.95756 78.764 4.03192 77.8383 4.03192 76.7012Z" fill="white"/>
</mask>
<g mask="url(#mask92_790_5049)">
<path d="M79.3192 212.039L23.5582 115.457L120.139 59.6964L175.901 156.278L79.3192 212.039Z" fill="#F79C20"/>
</g>
<mask id="mask93_790_5049" style="mask-type:luminance" maskUnits="userSpaceOnUse" x="3" y="19" width="94" height="61">
<path d="M6.09577 19.6801C4.38691 19.6801 3 21.066 3 22.7759V76.7012C3 78.409 4.38691 79.7959 6.09577 79.7959H93.9042C95.6141 79.7959 97 78.409 97 76.7012V22.7759C97 21.066 95.6141 19.6801 93.9042 19.6801H6.09577ZM4.03192 76.7012V22.7759C4.03192 21.6377 4.95756 20.7121 6.09577 20.7121H63.349C79.3799 20.7121 92.3749 33.7081 92.3749 49.738C92.3749 65.7679 79.3799 78.764 63.349 78.764H6.09577C4.95756 78.764 4.03192 77.8383 4.03192 76.7012Z" fill="white"/>
</mask>
<g mask="url(#mask93_790_5049)">
<path d="M79.6939 212.689L23.9328 116.107L120.514 60.3458L176.276 156.928L79.6939 212.689Z" fill="#F99E20"/>
</g>
<mask id="mask94_790_5049" style="mask-type:luminance" maskUnits="userSpaceOnUse" x="3" y="19" width="94" height="61">
<path d="M6.09577 19.6801C4.38691 19.6801 3 21.066 3 22.7759V76.7012C3 78.409 4.38691 79.7959 6.09577 79.7959H93.9042C95.6141 79.7959 97 78.409 97 76.7012V22.7759C97 21.066 95.6141 19.6801 93.9042 19.6801H6.09577ZM4.03192 76.7012V22.7759C4.03192 21.6377 4.95756 20.7121 6.09577 20.7121H63.349C79.3799 20.7121 92.3749 33.7081 92.3749 49.738C92.3749 65.7679 79.3799 78.764 63.349 78.764H6.09577C4.95756 78.764 4.03192 77.8383 4.03192 76.7012Z" fill="white"/>
</mask>
<g mask="url(#mask94_790_5049)">
<path d="M80.0685 213.337L24.3074 116.755L120.888 60.9942L176.65 157.576L80.0685 213.337Z" fill="#F99F1F"/>
</g>
<mask id="mask95_790_5049" style="mask-type:luminance" maskUnits="userSpaceOnUse" x="3" y="19" width="94" height="61">
<path d="M6.09577 19.6801C4.38691 19.6801 3 21.066 3 22.7759V76.7012C3 78.409 4.38691 79.7959 6.09577 79.7959H93.9042C95.6141 79.7959 97 78.409 97 76.7012V22.7759C97 21.066 95.6141 19.6801 93.9042 19.6801H6.09577ZM4.03192 76.7012V22.7759C4.03192 21.6377 4.95756 20.7121 6.09577 20.7121H63.349C79.3799 20.7121 92.3749 33.7081 92.3749 49.738C92.3749 65.7679 79.3799 78.764 63.349 78.764H6.09577C4.95756 78.764 4.03192 77.8383 4.03192 76.7012Z" fill="white"/>
</mask>
<g mask="url(#mask95_790_5049)">
<path d="M80.4431 213.986L24.682 117.404L121.263 61.6432L177.025 158.225L80.4431 213.986Z" fill="#F99F1F"/>
</g>
<mask id="mask96_790_5049" style="mask-type:luminance" maskUnits="userSpaceOnUse" x="3" y="19" width="94" height="61">
<path d="M6.09577 19.6801C4.38691 19.6801 3 21.066 3 22.7759V76.7012C3 78.409 4.38691 79.7959 6.09577 79.7959H93.9042C95.6141 79.7959 97 78.409 97 76.7012V22.7759C97 21.066 95.6141 19.6801 93.9042 19.6801H6.09577ZM4.03192 76.7012V22.7759C4.03192 21.6377 4.95756 20.7121 6.09577 20.7121H63.349C79.3799 20.7121 92.3749 33.7081 92.3749 49.738C92.3749 65.7679 79.3799 78.764 63.349 78.764H6.09577C4.95756 78.764 4.03192 77.8383 4.03192 76.7012Z" fill="white"/>
</mask>
<g mask="url(#mask96_790_5049)">
<path d="M80.8176 214.635L25.0565 118.053L121.637 62.2921L177.399 158.874L80.8176 214.635Z" fill="#F9A01F"/>
</g>
<path d="M13.9195 52.812C13.1363 53.5188 12.1199 53.8274 10.5101 53.8274H9.84138V45.38H10.5101C12.1199 45.38 13.0961 45.6669 13.9195 46.413C14.7812 47.1797 15.2992 48.3695 15.2992 49.5924C15.2992 50.8193 14.7812 52.0452 13.9195 52.812ZM11.0095 43.2151H7.35135V55.9893H10.9899C12.9237 55.9893 14.321 55.5342 15.5479 54.5146C17.005 53.3083 17.8667 51.4911 17.8667 49.612C17.8667 45.8413 15.0495 43.2151 11.0095 43.2151Z" fill="#231F20"/>
<path d="M19.0134 55.9902H21.5045V43.216H19.0134V55.9902Z" fill="#231F20"/>
<path d="M27.5974 48.1176C26.1021 47.5645 25.6625 47.1992 25.6625 46.5099C25.6625 45.705 26.4458 45.093 27.519 45.093C28.2661 45.093 28.879 45.4005 29.5281 46.1281L30.8325 44.4213C29.7613 43.4832 28.4787 43.0044 27.0794 43.0044C24.8184 43.0044 23.0941 44.574 23.0941 46.6647C23.0941 48.4251 23.8979 49.325 26.2373 50.168C27.2125 50.5117 27.7088 50.7418 27.9596 50.8955C28.457 51.2196 28.7077 51.6798 28.7077 52.2174C28.7077 53.2525 27.8843 54.0192 26.7719 54.0192C25.5841 54.0192 24.6265 53.4248 24.0527 52.3155L22.4429 53.8654C23.5915 55.5505 24.9701 56.2966 26.8658 56.2966C29.4559 56.2966 31.2721 54.5754 31.2721 52.1029C31.2721 50.0731 30.4321 49.1547 27.5974 48.1176Z" fill="#231F20"/>
<path d="M32.0578 49.6121C32.0578 53.3663 35.0061 56.2773 38.8004 56.2773C39.8726 56.2773 40.791 56.0668 41.9241 55.5344V52.6006C40.9272 53.5974 40.046 53.9999 38.916 53.9999C36.4064 53.9999 34.6253 52.1806 34.6253 49.5936C34.6253 47.1407 36.4631 45.2069 38.8004 45.2069C39.9882 45.2069 40.889 45.63 41.9241 46.6433V43.7116C40.8302 43.1575 39.9314 42.9273 38.8593 42.9273C35.0845 42.9273 32.0578 45.8972 32.0578 49.6121Z" fill="#231F20"/>
<path d="M61.6811 51.7959L58.2737 43.2155H55.5526L60.9732 56.3188H62.3137L67.8324 43.2155H65.1319L61.6811 51.7959Z" fill="#231F20"/>
<path d="M68.9588 55.99H76.0254V53.8271H71.4488V50.3794H75.8562V48.2155H71.4488V45.3808H76.0254V43.2158H68.9588V55.99Z" fill="#231F20"/>
<path d="M80.8931 49.0967H80.1645V45.2281H80.9313C82.4843 45.2281 83.3274 45.8782 83.3274 47.1216C83.3274 48.4053 82.4843 49.0967 80.8931 49.0967ZM85.8927 46.9865C85.8927 44.5955 84.2437 43.2158 81.3709 43.2158H77.6755V55.99H80.1645V50.8582H80.4896L83.9383 55.99H87.0031L82.9807 50.6085C84.8588 50.2267 85.8927 48.943 85.8927 46.9865Z" fill="#231F20"/>
<path d="M87.404 44.0394H87.3576V43.7443H87.4061C87.5392 43.7443 87.6083 43.7928 87.6083 43.8898C87.6083 43.9889 87.5382 44.0394 87.404 44.0394ZM87.8777 43.8857C87.8777 43.6607 87.7229 43.5379 87.4505 43.5379H87.0893V44.6648H87.3576V44.2283L87.6733 44.6648H88.0015L87.631 44.2004C87.7889 44.1571 87.8777 44.0415 87.8777 43.8857Z" fill="#231F20"/>
<path d="M87.5011 44.9059C87.0708 44.9059 86.7189 44.5478 86.7189 44.0999C86.7189 43.6521 87.0677 43.293 87.5011 43.293C87.9304 43.293 88.2781 43.6603 88.2781 44.0999C88.2781 44.5437 87.9304 44.9059 87.5011 44.9059ZM87.5052 43.1165C86.9583 43.1165 86.5239 43.553 86.5239 44.0989C86.5239 44.6438 86.9635 45.0813 87.5052 45.0813C88.0377 45.0813 88.4752 44.6396 88.4752 44.0989C88.4752 43.5613 88.0377 43.1165 87.5052 43.1165Z" fill="#231F20"/>
<path d="M42.7332 49.5893C42.7332 53.3249 45.7619 56.3525 49.4964 56.3525C53.233 56.3525 56.2617 53.3249 56.2617 49.5893C56.2617 45.8527 53.233 42.824 49.4964 42.824C45.7619 42.824 42.7332 45.8527 42.7332 49.5893Z" fill="url(#paint0_linear_790_5049)"/>
<g opacity="0.649994">
<mask id="mask97_790_5049" style="mask-type:luminance" maskUnits="userSpaceOnUse" x="42" y="42" width="15" height="15">
<path d="M42.7324 42.8235H56.2614V56.3525H42.7324V42.8235Z" fill="white"/>
</mask>
<g mask="url(#mask97_790_5049)">
<path d="M56.2615 49.5888C56.2615 53.3243 53.2329 56.353 49.4973 56.353C45.7607 56.353 42.732 53.3243 42.732 49.5888C42.732 45.8522 45.7607 42.8235 49.4973 42.8235C53.2329 42.8235 56.2615 45.8522 56.2615 49.5888Z" fill="url(#paint1_linear_790_5049)"/>
</g>
</g>
<defs>
<linearGradient id="paint0_linear_790_5049" x1="52.9596" y1="55.0101" x2="48.2759" y2="47.6768" gradientUnits="userSpaceOnUse">
<stop stop-color="#F9A01F"/>
<stop offset="0.276733" stop-color="#F9A01F"/>
<stop offset="0.619632" stop-color="#F6881F"/>
<stop offset="0.923304" stop-color="#F47520"/>
<stop offset="1" stop-color="#F47520"/>
</linearGradient>
<linearGradient id="paint1_linear_790_5049" x1="52.2195" y1="54.9099" x2="45.3741" y2="41.5301" gradientUnits="userSpaceOnUse">
<stop stop-color="#F6881F"/>
<stop offset="0.583075" stop-color="#D05B2E"/>
<stop offset="0.981595" stop-color="#D05B2E"/>
<stop offset="1" stop-color="#D05B2E"/>
</linearGradient>
</defs>
</svg>
