<svg width="100" height="100" viewBox="0 0 100 100" fill="none" xmlns="http://www.w3.org/2000/svg">
<path d="M86.3738 23.4155L54.6557 5.103C53.2136 4.37773 51.6217 4 50.0074 4C48.3931 4 46.8012 4.37773 45.359 5.103L13.641 23.4155C12.2926 24.3031 11.1707 25.4938 10.3648 26.8925C9.55894 28.2912 9.09155 29.8591 9 31.4707V68.0958C9.0938 69.7049 9.56226 71.2698 10.368 72.6658C11.1738 74.0617 12.2945 75.2501 13.641 76.1362L17.1734 78.1758L43.9245 94.2723C47.6722 96.5273 52.3586 96.5293 56.1082 94.2775L82.8709 78.2054L86.3591 76.1953C87.7055 75.3092 88.8262 74.1208 89.632 72.7249C90.4377 71.3289 90.9062 69.764 91 68.1549V31.4559C90.9079 29.8481 90.4417 28.2841 89.6385 26.8882C88.8354 25.4924 87.7175 24.3032 86.3738 23.4155ZM31.1406 69.5295C30.0298 69.5231 28.9668 69.0766 28.1846 68.2879L12.5029 52.5915C11.7301 51.8016 11.2974 50.7405 11.2974 49.6355C11.2974 48.5304 11.7301 47.4693 12.5029 46.6794L28.1846 30.9091C28.5461 30.4201 29.0088 30.015 29.5412 29.7212C30.0736 29.4274 30.6631 29.2519 31.2695 29.2068C31.8758 29.1616 32.4848 29.2478 33.0549 29.4594C33.6249 29.6711 34.1426 30.0032 34.5725 30.4332C35.0025 30.8631 35.3346 31.3808 35.5463 31.9508C35.7579 32.5209 35.8441 33.1298 35.7989 33.7362C35.7538 34.3426 35.5783 34.9321 35.2845 35.4645C34.9907 35.9969 34.5855 36.4596 34.0966 36.8211L21.3562 49.5616L34.0523 62.2577C34.6581 62.8411 35.0761 63.592 35.2528 64.4143C35.4295 65.2366 35.3569 66.0929 35.0443 66.8737C34.7316 67.6545 34.1932 68.3243 33.4978 68.7974C32.8024 69.2705 31.9817 69.5254 31.1406 69.5295ZM43.2898 73.2393C42.9468 73.9655 42.4054 74.5799 41.728 75.0114C41.0506 75.443 40.265 75.674 39.4618 75.678C38.7491 75.6788 38.0477 75.4994 37.4229 75.1564C36.7981 74.8135 36.2702 74.3181 35.8882 73.7164C35.5062 73.1146 35.2826 72.4261 35.2381 71.7147C35.1936 71.0034 35.3297 70.2924 35.6337 69.6477L57.1831 23.8294C57.419 23.3267 57.7515 22.8754 58.1618 22.5012C58.572 22.127 59.0519 21.8372 59.5742 21.6485C60.0964 21.4598 60.6507 21.3758 61.2053 21.4013C61.76 21.4268 62.3043 21.5613 62.807 21.7971C63.3097 22.033 63.761 22.3655 64.1352 22.7758C64.5094 23.186 64.7991 23.6659 64.9878 24.1882C65.1765 24.7104 65.2605 25.2647 65.2351 25.8193C65.2096 26.374 65.0751 26.9183 64.8392 27.421L43.2898 73.2393ZM87.5415 52.5471L71.8154 68.2732C71.4539 68.7621 70.9912 69.1673 70.4588 69.4611C69.9264 69.7548 69.3369 69.9303 68.7306 69.9755C68.1242 70.0207 67.5152 69.9345 66.9451 69.7228C66.3751 69.5112 65.8575 69.179 65.4275 68.7491C64.9975 68.3191 64.6654 67.8014 64.4537 67.2314C64.2421 66.6614 64.1559 66.0524 64.2011 65.446C64.2463 64.8396 64.4217 64.2501 64.7155 63.7178C65.0093 63.1854 65.4145 62.7226 65.9034 62.3611L78.6438 49.6207L65.8738 36.8211C65.1011 36.0312 64.6684 34.9701 64.6684 33.8651C64.6684 32.7601 65.1011 31.699 65.8738 30.9091C66.6759 30.1599 67.7324 29.7433 68.8299 29.7433C69.9273 29.7433 70.9838 30.1599 71.7859 30.9091L87.4823 46.5908C88.2809 47.3754 88.7355 48.4447 88.7466 49.5641C88.7577 50.6836 88.3243 51.7617 87.5415 52.5619V52.5471Z" fill="#4367B1"/>
</svg>
