<svg width="100" height="100" viewBox="0 0 100 100" fill="none" xmlns="http://www.w3.org/2000/svg">
<path d="M75.887 14.1886C73.7451 16.6819 72.748 22.2946 74.9193 27.9842C77.0907 33.6738 80.4194 32.4379 82.4942 38.2393C85.2325 45.8946 83.9581 56.1792 83.9581 56.1792C83.9581 56.1792 87.2492 65.7125 89.5449 55.5863C94.6246 36.5643 75.887 18.8748 75.887 14.1886Z" fill="url(#paint0_radial_188_303)"/>
<path d="M49.7543 93.1629C71.6864 93.1629 89.4528 75.3 89.4528 53.2767C89.4528 31.2534 71.6864 13.3904 49.7758 13.3904C27.8652 13.3904 10.0988 31.248 10.0988 53.2731C10.0567 75.3205 27.8437 93.162 49.7543 93.162V93.1629Z" fill="url(#paint1_radial_188_303)"/>
<path d="M79.4991 77.8707C78.641 78.476 77.7409 79.0193 76.8055 79.4965C78.0448 77.6796 79.1881 75.7989 80.2307 73.8624C81.0767 72.926 81.852 72.0156 82.4843 71.0319C82.792 70.5489 83.1372 69.9515 83.5056 69.2593C85.7342 65.2439 88.1918 58.7458 88.2616 52.0707V51.5645C88.2732 49.8889 88.102 48.2171 87.7509 46.5787L87.801 46.9633L87.7438 46.6681C87.7769 46.847 87.8028 47.0259 87.8332 47.2047C88.2893 51.0699 87.9647 54.8395 86.3415 57.619L86.2637 57.737C87.1043 53.5132 87.3869 48.8476 86.4515 44.1793C86.4515 44.1793 86.0759 41.9095 83.2874 35.018C81.6777 31.0517 78.8311 27.7991 76.3118 25.4309C74.1028 22.6988 72.0996 20.87 70.9933 19.702C68.6842 17.2695 67.7166 15.4478 67.3177 14.2583C66.9734 14.0857 62.5653 9.80465 62.2157 9.64099C60.2929 12.6235 54.242 21.953 57.1181 30.6707C58.422 34.6209 61.7211 38.7195 65.1731 41.0215C65.3252 41.195 67.2301 43.2572 68.1333 47.922C69.0679 52.7378 68.5805 56.4948 66.6541 62.0521C64.3915 66.9261 58.5991 71.7464 53.1751 72.2383C41.5785 73.2918 37.3324 66.4163 37.3324 66.4163C41.4766 68.0726 46.0581 67.7265 48.8439 66.0085C51.6521 64.2709 53.3513 62.9831 54.7285 63.491C56.0852 63.9901 57.1709 62.5207 56.1961 61.0004C55.4461 59.8454 54.3731 58.9365 53.1105 58.3868C51.8479 57.8371 50.4516 57.6708 49.0952 57.9087C46.2844 58.3648 43.7088 60.5917 40.0269 58.4364C39.7885 58.2981 39.5577 58.147 39.3356 57.9839C39.0941 57.8229 40.1253 58.2271 39.8838 58.0465C39.1684 57.6574 37.8985 56.8087 37.5693 56.5065C37.5157 56.4564 38.1256 56.7014 38.0702 56.6513C34.6271 53.8164 35.0563 51.8999 35.1637 50.6979C35.2531 49.7365 35.8791 48.5051 36.9299 48.006C37.4397 48.2833 37.7563 48.4961 37.7563 48.4961L37.4218 47.8182C37.4629 47.8003 37.5023 47.8048 37.5434 47.7878C37.9602 47.989 38.8849 48.5122 39.3678 48.8315C40.0001 49.2786 40.2022 49.6757 40.2022 49.6757C40.2022 49.6757 40.3685 49.5863 40.2451 49.1955C40.2004 49.0363 40.0081 48.5292 39.3821 48.0177H39.4215C39.7965 48.2313 40.1518 48.4779 40.483 48.7546C40.6619 48.1125 40.9776 47.4417 40.9078 46.2416C40.8649 45.3982 40.8846 45.18 40.7361 44.8554C40.602 44.5755 40.8103 44.4664 41.042 44.757C41.0023 44.5294 40.936 44.3073 40.8443 44.0952V44.0738C41.1332 43.0685 46.948 40.4554 47.3728 40.1495C48.0682 39.6574 48.6513 39.0234 49.0836 38.2893C49.4073 37.7742 49.6506 37.0507 49.7096 35.9552C49.7418 35.1646 49.3734 34.6379 43.4942 34.0217C41.8844 33.8634 40.9427 32.6981 40.4061 31.6232C40.3077 31.3906 40.2094 31.1814 40.1083 30.9721C40.013 30.727 39.9364 30.4749 39.8794 30.2182C40.8407 27.4575 42.455 25.1206 44.8312 23.3588C44.9608 23.2408 44.3142 23.3892 44.443 23.2694C44.5951 23.1317 45.5788 22.7328 45.7666 22.6434C45.9938 22.5361 44.7936 22.0263 43.7338 22.1515C42.6544 22.2731 42.4255 22.4019 41.8495 22.6461C42.0883 22.4082 42.8485 22.0961 42.6705 22.0978C41.5079 22.2767 40.0609 22.9528 38.825 23.7183C38.8224 23.5849 38.8477 23.4524 38.8992 23.3293C38.3233 23.5735 36.9085 24.5635 36.4962 25.3988C36.514 25.2384 36.5221 25.0771 36.5203 24.9158C36.0817 25.2819 35.6859 25.6965 35.3407 26.1518L35.3193 26.1714C31.9781 24.83 29.0385 24.7405 26.5505 25.3415C26.005 24.796 25.7403 25.1948 24.5026 22.4735C24.4185 22.3098 24.567 22.6344 24.5026 22.4735C24.2987 21.9458 24.6278 23.1773 24.5026 22.4735C22.4206 24.1163 19.6804 25.9792 18.3649 27.2938C18.3488 27.3475 19.8996 26.8556 18.3649 27.2938C17.8283 27.4476 17.8641 27.766 17.7836 30.6475C17.7639 30.8657 17.7836 31.1107 17.7639 31.3075C16.7131 32.6489 15.9977 33.7793 15.7267 34.366C14.3673 36.7073 12.8712 40.3579 11.4206 46.1307C12.061 44.5682 12.8325 43.0627 13.727 41.6305C12.5197 44.6953 11.3544 49.5076 11.1219 56.9178C11.4136 55.3886 11.7877 53.8762 12.2425 52.3873C11.9572 58.5358 13.0172 64.6726 15.3484 70.3692C16.1828 72.41 17.5627 75.5079 19.9094 78.9009C27.2919 86.6671 37.7017 91.4964 49.2294 91.4964C61.265 91.4964 72.0728 86.2316 79.4982 77.8707H79.4991Z" fill="url(#paint2_linear_188_303)"/>
<path d="M70.5944 83.5097C85.1601 81.823 91.6107 66.8129 83.3276 66.5178C75.8485 66.2763 63.6993 84.3056 70.5944 83.5097Z" fill="url(#paint3_radial_188_303)"/>
<path d="M84.3758 63.4524C94.3974 57.6197 91.7807 45.0225 91.7807 45.0225C91.7807 45.0225 87.9128 49.5155 85.2862 56.6771C82.6945 63.7726 78.3517 66.9742 84.3758 63.4524Z" fill="url(#paint4_radial_188_303)"/>
<path d="M52.5624 90.965C66.5343 95.4223 78.5449 84.4169 71.14 80.7413C64.4148 77.427 45.9293 88.858 52.5616 90.965H52.5624Z" fill="url(#paint5_radial_188_303)"/>
<path d="M85.4176 68.8009C85.7575 68.3215 86.2172 66.786 86.6232 66.1C89.0897 62.1186 89.1076 58.9456 89.1076 58.8704C90.5975 51.428 90.4625 48.3891 89.5458 42.7728C88.808 38.2476 85.5822 31.7639 82.7875 28.6427C79.9078 25.4232 81.9379 26.474 79.1476 24.1247C76.7035 21.4149 74.3345 18.732 73.044 17.6534C63.719 9.85415 63.9291 8.19789 64.1107 7.9135L63.9792 8.06017C63.8666 7.62195 63.7887 7.25171 63.7887 7.25171C63.7887 7.25171 58.6912 12.3493 57.618 20.8452C56.9178 26.39 58.9935 32.1744 62.0001 35.8697C63.5656 37.7849 65.3349 39.5241 67.2766 41.0567C69.5481 44.3191 70.7984 48.3453 70.7984 52.6738C70.7984 63.5164 62.0037 72.3066 51.1548 72.3066C49.6764 72.3073 48.2025 72.1417 46.7611 71.8129C41.642 70.8363 38.6854 68.2535 37.2116 66.5007C36.3665 65.4964 36.0079 64.7639 36.0079 64.7639C40.5939 66.4068 45.6664 66.0634 48.7491 64.3597C51.8568 62.6373 53.7367 61.3593 55.2633 61.8628C56.7675 62.3636 57.9641 60.9086 56.8909 59.3999C55.8383 57.893 53.099 55.7332 49.0317 56.3324C45.9195 56.7858 43.0702 58.9939 38.994 56.8547C38.7316 56.7188 38.4764 56.5696 38.2293 56.4075C37.961 56.2492 39.1031 56.649 38.8375 56.4683C38.0442 56.082 36.6401 55.2404 36.2762 54.9417C36.2153 54.8916 36.8914 55.1349 36.8306 55.0848C33.0191 52.2722 33.4949 50.3718 33.6111 49.1824C33.7068 48.229 34.3981 47.0074 35.5661 46.512C35.8771 46.6622 36.1823 46.8242 36.481 46.9976L36.1107 46.3268C36.1554 46.3089 36.2001 46.3134 36.2449 46.2964C36.9345 46.6092 37.609 46.9545 38.266 47.3311C38.9662 47.7738 39.1889 48.1682 39.1889 48.1682C39.1889 48.1682 39.3732 48.0788 39.2372 47.6916C39.1871 47.5333 38.9752 47.0298 38.2821 46.5227H38.325C38.7365 46.7324 39.1293 46.9769 39.4993 47.2533C39.696 46.6166 40.0466 45.9512 39.9688 44.7618C39.9214 43.9256 39.9437 43.7083 39.7792 43.3845C39.6316 43.1073 39.8615 43 40.1172 43.2862C40.0731 43.0589 39.9998 42.8382 39.899 42.6298V42.6083C40.2183 41.612 46.6537 39.0203 47.1224 38.718C47.8771 38.2442 48.5224 37.6153 49.0156 36.8731C49.3733 36.3615 49.6416 35.6452 49.7087 34.5568C49.7311 34.0667 49.5799 33.6786 47.8754 33.3048C46.8523 33.0812 45.2694 32.8666 42.8288 32.6367C41.0491 32.4793 40.0045 31.3239 39.4125 30.2579C39.3052 30.028 39.1934 29.8196 39.0834 29.6122C38.9784 29.3704 38.8938 29.1203 38.8303 28.8645C39.8953 26.0767 41.8132 23.6962 44.3107 22.0624C44.4537 21.9461 43.7383 22.0919 43.8814 21.973C44.0486 21.837 45.1388 21.4426 45.3454 21.3541C45.5958 21.2468 44.2722 20.7424 43.0953 20.8649C41.9005 20.9856 41.6465 21.1135 41.0098 21.3568C41.278 21.1207 42.116 20.8112 41.9184 20.813C40.6306 20.9919 39.0297 21.6608 37.6615 22.4228C37.6589 22.2897 37.687 22.1578 37.7437 22.0374C37.1061 22.2788 35.5401 23.2599 35.0849 24.0943C35.1044 23.9356 35.1131 23.7757 35.1109 23.6158C34.6308 23.9736 34.1928 24.3846 33.8052 24.841L33.781 24.8607C30.0875 23.5282 26.834 23.4387 24.084 24.0379C23.4813 23.496 22.5127 22.6759 21.1417 19.9778C21.0523 19.815 20.9986 20.3131 20.9271 20.1566C20.3905 18.9225 20.073 16.8977 20.1222 15.5062C20.1222 15.5062 19.0204 16.007 18.11 18.1051C17.9898 18.3736 17.861 18.6381 17.7237 18.8983C17.6736 18.9591 17.8373 18.2097 17.8131 18.2508C17.6548 18.5191 17.2443 18.8947 17.0646 19.3795C16.9412 19.7372 16.7677 19.9402 16.6568 20.39L16.6299 20.4312C16.621 20.2988 16.663 19.8874 16.6299 19.9715C16.2019 20.8328 15.8332 21.7223 15.5264 22.6339C15.0345 24.2436 14.4639 26.4436 14.3727 29.3027C14.3512 29.5192 14.3727 29.7624 14.3503 29.9574C13.1877 31.2836 12.3954 32.4078 12.0967 32.9891C10.5942 35.3143 8.93708 38.9309 7.33 44.6563C8.04433 43.0919 8.8986 41.5953 9.88236 40.1847C8.54895 43.2254 7.25935 47.9983 7 55.3477C7.32402 53.8268 7.73823 52.3265 8.24041 50.8547C8.01057 55.7556 8.58114 61.8315 11.679 68.6909C13.5186 72.7153 17.7532 80.9072 28.1004 87.297C28.1004 87.297 31.6204 89.9173 37.6695 91.8812L39.0315 92.3579C38.8898 92.3007 38.7496 92.2395 38.6112 92.1746C42.6385 93.3815 46.82 93.9964 51.0242 93.9999C66.6908 94.0133 71.3117 87.7218 71.3117 87.7218L71.267 87.7558C71.4876 87.5471 71.7004 87.3307 71.9055 87.1065C69.4318 89.4389 63.7887 89.5963 61.6826 89.4272C65.2796 88.372 67.6477 87.4777 72.2507 85.7141C72.7873 85.5137 73.3382 85.286 73.9034 85.0308L74.4221 84.7911C76.6654 83.7336 78.7747 82.4127 80.7055 80.8562C85.3291 77.1627 86.3352 73.5622 86.8611 71.1887C86.7877 71.4158 86.5597 71.9462 86.3987 72.2905C85.2093 74.8375 82.5675 76.4043 79.7003 77.7413C81.0648 75.9506 82.33 74.0864 83.4904 72.1572C84.4277 71.2298 84.7156 69.7783 85.4185 68.8009H85.4176Z" fill="url(#paint6_radial_188_303)"/>
<path d="M79.7897 77.6343C81.6749 75.5559 83.367 73.1788 84.6503 70.4798C87.9503 63.5418 93.0568 52.0051 89.0324 39.957C85.8576 30.4344 81.4961 25.2277 75.9603 20.1408C66.9689 11.881 64.4577 8.19285 64.4577 6C64.4577 6 54.0747 17.5724 58.5785 29.6438C63.0822 41.7152 72.3026 41.2698 78.4035 53.868C85.5822 68.6903 72.595 84.8648 61.8588 89.3936C62.5161 89.2478 85.7369 83.9938 86.9532 70.7132C86.9219 70.9574 86.3987 74.6303 79.7897 77.6352V77.6343Z" fill="url(#paint7_radial_188_303)"/>
<path d="M49.7123 34.5618C49.748 33.7775 49.3402 33.2507 42.8547 32.6426C40.1861 32.3958 39.1648 29.9301 38.8527 28.8918C37.9047 31.3566 37.5112 33.9447 37.7222 37.073C37.8653 39.1228 39.2426 41.3228 39.9017 42.6177C39.9017 42.6177 40.0484 42.4272 40.1163 42.3584C41.3558 41.0679 46.55 39.1013 47.0383 38.8223C47.5767 38.4789 49.6228 36.9836 49.7141 34.5627L49.7123 34.5618Z" fill="url(#paint8_linear_188_303)"/>
<path d="M21.1569 19.9933C21.0675 19.8305 21.0138 20.3286 20.9423 20.1721C20.4057 18.938 20.0855 16.9347 20.1625 15.5217C20.1625 15.5217 19.0607 16.0225 18.1503 18.1206C17.9803 18.4962 17.873 18.7055 17.7639 18.913C17.7138 18.9738 17.8775 18.2243 17.8533 18.2655C17.6951 18.5338 17.2846 18.9094 17.1066 19.3726C16.959 19.7518 16.807 19.9557 16.6952 20.4252C16.6594 20.5531 16.731 19.86 16.6997 19.9441C14.5766 24.0365 14.1724 30.2358 14.3959 29.9675C18.9104 25.1508 24.0813 24.0078 24.0813 24.0078C23.5313 23.6027 22.3347 22.4312 21.1569 19.9924V19.9933Z" fill="url(#paint9_linear_188_303)"/>
<path d="M38.2866 70.3994C32.0514 67.737 24.9614 63.9827 25.2296 55.4519C25.5945 44.2184 35.7074 46.439 35.7074 46.439C35.3255 46.5284 34.3051 47.2582 33.9438 48.0327C33.5619 49.0012 32.8644 51.1878 34.9767 53.479C38.2946 57.0742 28.1621 62.0072 43.8 71.3268C44.1935 71.5414 40.1333 71.1989 38.2875 70.4003L38.2866 70.3994Z" fill="url(#paint10_linear_188_303)"/>
<path d="M36.0713 64.8011C40.4928 66.3393 45.6405 66.071 48.7276 64.3665C50.7935 63.2173 53.4406 61.3768 55.0701 61.8311C53.6589 61.273 52.5902 61.0128 51.305 60.9493C51.0859 60.9493 50.8239 60.9448 50.5896 60.9207C50.1187 60.9191 49.6481 60.9447 49.1801 60.9976C48.3842 61.0709 47.5015 61.5726 46.6993 61.4921C46.6564 61.4921 47.4774 61.155 47.4148 61.1702C46.99 61.2596 46.5276 61.2775 46.0402 61.3383C45.7299 61.3741 45.4634 61.4117 45.1549 61.4278C35.9435 62.2085 28.1629 56.4375 28.1629 56.4375C27.5012 58.6733 31.1294 63.0822 36.0794 64.8056L36.0713 64.8011Z" fill="url(#paint11_linear_188_303)"/>
<path d="M79.7736 77.6923C89.0888 68.5462 93.8018 57.429 91.8093 44.9605C91.8093 44.9605 92.6052 51.3549 89.5869 57.895C91.0357 51.5096 91.2056 43.577 87.3511 35.3583C82.2115 24.3905 73.7558 18.6186 70.5274 16.2129C65.6355 12.5641 63.6099 8.85094 63.5714 8.08362C62.1101 11.0778 57.6895 21.3373 63.0974 30.1731C68.1628 38.4508 76.1418 40.9048 81.7286 48.502C92.0203 62.4908 79.7745 77.6923 79.7745 77.6923H79.7736Z" fill="url(#paint12_linear_188_303)"/>
<path d="M78.4376 53.8947C75.1823 47.1695 71.1221 44.2362 67.2766 41.0569C67.7237 41.6829 67.8337 41.9038 68.0815 42.3089C71.4646 45.9148 76.4522 54.7094 72.8302 65.7488C66.0138 86.5308 38.7481 76.7453 35.8863 73.9961C37.0426 86.0246 57.1709 91.7786 70.2815 83.9793C77.74 76.9188 83.7739 64.9171 78.4376 53.8947Z" fill="url(#paint13_linear_188_303)"/>
<defs>
<radialGradient id="paint0_radial_188_303" cx="0" cy="0" r="1" gradientTransform="matrix(30.6452 1.20968 -2.01613 45.1614 90.7428 33.2489)" gradientUnits="userSpaceOnUse">
<stop offset="0.1" stop-color="#FFEA00"/>
<stop offset="0.17" stop-color="#FFDE00"/>
<stop offset="0.28" stop-color="#FFBF00"/>
<stop offset="0.43" stop-color="#FF8E00"/>
<stop offset="0.77" stop-color="#FF272D"/>
<stop offset="0.87" stop-color="#E0255A"/>
<stop offset="0.95" stop-color="#CC2477"/>
<stop offset="1" stop-color="#C42482"/>
</radialGradient>
<radialGradient id="paint1_radial_188_303" cx="0" cy="0" r="1" gradientUnits="userSpaceOnUse" gradientTransform="translate(62.914 19.716) scale(87.0355 87.0355)">
<stop stop-color="#00CCDA"/>
<stop offset="0.22" stop-color="#0083FF"/>
<stop offset="0.26" stop-color="#007AF9"/>
<stop offset="0.33" stop-color="#005FE7"/>
<stop offset="0.44" stop-color="#2639AD"/>
<stop offset="0.52" stop-color="#401E84"/>
<stop offset="0.57" stop-color="#4A1475"/>
</radialGradient>
<linearGradient id="paint2_linear_188_303" x1="55.3527" y1="71.2125" x2="38.232" y2="15.2081" gradientUnits="userSpaceOnUse">
<stop stop-color="#000F43" stop-opacity="0.4"/>
<stop offset="0.48" stop-color="#001962" stop-opacity="0.17"/>
<stop offset="1" stop-color="#002079" stop-opacity="0"/>
</linearGradient>
<radialGradient id="paint3_radial_188_303" cx="0" cy="0" r="1" gradientUnits="userSpaceOnUse" gradientTransform="translate(93.3219 64.4698) rotate(5.61758) scale(29.2598 29.2598)">
<stop stop-color="#FFEA00"/>
<stop offset="0.5" stop-color="#FF272D"/>
<stop offset="1" stop-color="#C42482"/>
</radialGradient>
<radialGradient id="paint4_radial_188_303" cx="0" cy="0" r="1" gradientUnits="userSpaceOnUse" gradientTransform="translate(93.4278 36.2902) rotate(5.61758) scale(48.861 48.861)">
<stop stop-color="#FFE900"/>
<stop offset="0.16" stop-color="#FFAF0E"/>
<stop offset="0.32" stop-color="#FF7A1B"/>
<stop offset="0.47" stop-color="#FF4E26"/>
<stop offset="0.62" stop-color="#FF2C2E"/>
<stop offset="0.76" stop-color="#FF1434"/>
<stop offset="0.89" stop-color="#FF0538"/>
<stop offset="1" stop-color="#FF0039"/>
</radialGradient>
<radialGradient id="paint5_radial_188_303" cx="0" cy="0" r="1" gradientUnits="userSpaceOnUse" gradientTransform="translate(95.878 82.05) rotate(5.61758) scale(44.8353 44.8353)">
<stop stop-color="#FF272D"/>
<stop offset="0.5" stop-color="#C42482"/>
<stop offset="0.99" stop-color="#620700"/>
</radialGradient>
<radialGradient id="paint6_radial_188_303" cx="0" cy="0" r="1" gradientUnits="userSpaceOnUse" gradientTransform="translate(70.9602 41.2391) scale(69.9512 69.9512)">
<stop offset="0.16" stop-color="#FFEA00"/>
<stop offset="0.23" stop-color="#FFDE00"/>
<stop offset="0.37" stop-color="#FFBF00"/>
<stop offset="0.54" stop-color="#FF8E00"/>
<stop offset="0.76" stop-color="#FF272D"/>
<stop offset="0.8" stop-color="#F92433"/>
<stop offset="0.84" stop-color="#E91C45"/>
<stop offset="0.89" stop-color="#CF0E62"/>
<stop offset="0.94" stop-color="#B5007F"/>
</radialGradient>
<radialGradient id="paint7_radial_188_303" cx="0" cy="0" r="1" gradientUnits="userSpaceOnUse" gradientTransform="translate(66.9492 8.7983) scale(79.7234 79.7234)">
<stop offset="0.28" stop-color="#FFEA00"/>
<stop offset="0.4" stop-color="#FFDD00"/>
<stop offset="0.63" stop-color="#FFBA00"/>
<stop offset="0.86" stop-color="#FF9100"/>
<stop offset="0.93" stop-color="#FF6711"/>
<stop offset="0.99" stop-color="#FF4A1D"/>
</radialGradient>
<linearGradient id="paint8_linear_188_303" x1="20.4549" y1="39.5556" x2="54.7911" y2="34.3078" gradientUnits="userSpaceOnUse">
<stop stop-color="#C42482" stop-opacity="0.5"/>
<stop offset="0.47" stop-color="#FF272D" stop-opacity="0.5"/>
<stop offset="0.49" stop-color="#FF2C2C" stop-opacity="0.5"/>
<stop offset="0.68" stop-color="#FF7A1A" stop-opacity="0.72"/>
<stop offset="0.83" stop-color="#FFB20D" stop-opacity="0.87"/>
<stop offset="0.94" stop-color="#FFD605" stop-opacity="0.96"/>
<stop offset="1" stop-color="#FFE302"/>
</linearGradient>
<linearGradient id="paint9_linear_188_303" x1="19.7511" y1="29.7234" x2="16.1703" y2="16.8498" gradientUnits="userSpaceOnUse">
<stop stop-color="#891551" stop-opacity="0.6"/>
<stop offset="1" stop-color="#C42482" stop-opacity="0"/>
</linearGradient>
<linearGradient id="paint10_linear_188_303" x1="26.724" y1="47.6204" x2="34.1003" y2="57.9246" gradientUnits="userSpaceOnUse">
<stop offset="0.01" stop-color="#891551" stop-opacity="0.5"/>
<stop offset="0.48" stop-color="#FF272D" stop-opacity="0.5"/>
<stop offset="1" stop-color="#FF272D" stop-opacity="0"/>
</linearGradient>
<linearGradient id="paint11_linear_188_303" x1="40.8273" y1="65.6614" x2="41.5016" y2="59.0417" gradientUnits="userSpaceOnUse">
<stop stop-color="#C42482"/>
<stop offset="0.08" stop-color="#C42482" stop-opacity="0.8"/>
<stop offset="0.21" stop-color="#C42482" stop-opacity="0.57"/>
<stop offset="0.33" stop-color="#C42482" stop-opacity="0.36"/>
<stop offset="0.45" stop-color="#C42482" stop-opacity="0.2"/>
<stop offset="0.56" stop-color="#C42482" stop-opacity="0.1"/>
<stop offset="0.67" stop-color="#C42482" stop-opacity="0.02"/>
<stop offset="0.77" stop-color="#C42482" stop-opacity="0"/>
</linearGradient>
<linearGradient id="paint12_linear_188_303" x1="62.4947" y1="9.23013" x2="89.8302" y2="70.3554" gradientUnits="userSpaceOnUse">
<stop stop-color="#FFF14F"/>
<stop offset="0.27" stop-color="#FFEE4C"/>
<stop offset="0.45" stop-color="#FFE643"/>
<stop offset="0.61" stop-color="#FFD834"/>
<stop offset="0.76" stop-color="#FFC41E"/>
<stop offset="0.89" stop-color="#FFAB02"/>
<stop offset="0.9" stop-color="#FFA900"/>
<stop offset="0.95" stop-color="#FFA000"/>
<stop offset="1" stop-color="#FF9100"/>
</linearGradient>
<linearGradient id="paint13_linear_188_303" x1="67.8919" y1="44.3846" x2="54.944" y2="79.151" gradientUnits="userSpaceOnUse">
<stop stop-color="#FF8E00"/>
<stop offset="0.04" stop-color="#FF8E00" stop-opacity="0.86"/>
<stop offset="0.08" stop-color="#FF8E00" stop-opacity="0.73"/>
<stop offset="0.13" stop-color="#FF8E00" stop-opacity="0.63"/>
<stop offset="0.18" stop-color="#FF8E00" stop-opacity="0.56"/>
<stop offset="0.23" stop-color="#FF8E00" stop-opacity="0.5"/>
<stop offset="0.28" stop-color="#FF8E00" stop-opacity="0.5"/>
<stop offset="0.39" stop-color="#FF8E00" stop-opacity="0.48"/>
<stop offset="0.52" stop-color="#FF8E00" stop-opacity="0.42"/>
<stop offset="0.68" stop-color="#FF8E00" stop-opacity="0.3"/>
<stop offset="0.84" stop-color="#FF8E00" stop-opacity="0.17"/>
<stop offset="1" stop-color="#FF8E00" stop-opacity="0"/>
</linearGradient>
</defs>
</svg>
