<svg width="100" height="100" viewBox="0 0 100 100" fill="none" xmlns="http://www.w3.org/2000/svg">
<g clip-path="url(#clip0_188_319)">
<path fill-rule="evenodd" clip-rule="evenodd" d="M50 6C74.3012 6 94 26.1957 94 51.1129C94 71.0405 81.4072 87.9454 63.9348 93.9162C61.704 94.3606 60.912 92.9518 60.912 91.7506C60.912 90.2634 60.9648 85.4059 60.9648 79.3691C60.9648 75.1627 59.5568 72.4174 57.9772 71.0182C67.776 69.9006 78.072 66.0854 78.072 48.7582C78.072 43.8302 76.3648 39.8088 73.54 36.6496C73.9976 35.51 75.5068 30.9214 73.1088 24.7086C73.1088 24.7086 69.4216 23.4998 61.022 29.3342C57.5064 28.3354 53.74 27.8328 50 27.8152C46.26 27.8328 42.498 28.3354 38.9868 29.3342C30.5784 23.4998 26.8824 24.7086 26.8824 24.7086C24.4932 30.9214 26.0024 35.51 26.4556 36.6496C23.644 39.8088 21.9236 43.8302 21.9236 48.7582C21.9236 66.0414 32.1976 69.9151 41.97 71.0547C40.7116 72.1811 39.572 74.1682 39.176 77.0854C36.668 78.2382 30.2968 80.2333 26.372 73.3385C26.372 73.3385 24.0444 69.0039 19.6268 68.6871C19.6268 68.6871 15.3368 68.6301 19.3276 71.4285C19.3276 71.4285 22.2096 72.8145 24.2116 78.0285C24.2116 78.0285 26.7944 86.0803 39.0352 83.3523C39.0572 87.1231 39.0968 90.677 39.0968 91.7506C39.0968 92.943 38.2872 94.3385 36.0916 93.9205C18.606 87.9585 6 71.0449 6 51.1129C6 26.1957 25.7032 6 50 6Z" fill="black"/>
</g>
<defs>
<clipPath id="clip0_188_319">
<rect width="88" height="88" fill="white" transform="translate(6 6)"/>
</clipPath>
</defs>
</svg>
