<svg width="100" height="100" viewBox="0 0 100 100" fill="none" xmlns="http://www.w3.org/2000/svg">
<path d="M12.8636 82.5157H26.5454V49.2885L7 34.6294V76.6521C7 79.8917 9.62398 82.5157 12.8636 82.5157Z" fill="#4285F4"/>
<path d="M73.4545 82.5157H87.1363C90.376 82.5157 93 79.8917 93 76.6521V34.6294L73.4545 49.2885V82.5157Z" fill="#34A853"/>
<path d="M73.4545 23.8794V49.2885L93 34.6294V26.8112C93 19.5648 84.7274 15.426 78.9272 19.7749L73.4545 23.8794Z" fill="#FBBC04"/>
<path d="M26.5453 49.2885V23.8794L49.9999 41.4703L73.4544 23.8794V49.2885L49.9999 66.8794L26.5453 49.2885Z" fill="#EA4335"/>
<path d="M7 26.8112V34.6294L26.5454 49.2885V23.8794L21.0727 19.7749C15.2726 15.426 7 19.5648 7 26.8112Z" fill="#C5221F"/>
</svg>
