<svg width="100" height="100" viewBox="0 0 100 100" fill="none" xmlns="http://www.w3.org/2000/svg">
<path d="M93.6354 44.6936L55.3063 6.3644C52.3813 3.4394 47.6208 3.4394 44.6938 6.3644L6.36459 44.6936C3.43959 47.6186 3.43959 52.379 6.36459 55.3061L44.6938 93.6352C46.1563 95.0977 48.0792 95.829 50 95.829C51.9208 95.829 53.8438 95.0977 55.3063 93.6352L93.6354 55.3061C96.5604 52.3811 96.5604 47.6186 93.6354 44.6936ZM50 60.4165L39.5833 49.9998L50 39.5832L60.4167 49.9998L50 60.4165Z" fill="#4FC3F7"/>
<path d="M69.2625 20.3206L50 39.5831L60.4167 49.9997L50 60.4164L69.2625 79.6789L93.6354 55.306C96.5604 52.381 96.5604 47.6206 93.6354 44.6935L69.2625 20.3206Z" fill="#2979FF"/>
<path d="M30.7375 79.6792L44.6937 93.6355C46.1562 95.098 48.0792 95.8293 50 95.8293C51.9208 95.8293 53.8437 95.098 55.3062 93.6355L69.2625 79.6792L50 60.4167L30.7375 79.6792Z" fill="#2962FF"/>
</svg>
