<svg width="100" height="100" viewBox="0 0 100 100" fill="none" xmlns="http://www.w3.org/2000/svg">
<g clip-path="url(#clip0_790_6031)">
<path d="M83.1514 90.742C83.1514 92.1536 82.5907 93.5074 81.5925 94.5056C80.5943 95.5038 79.2405 96.0645 77.8289 96.0645H22.321C20.9094 96.0645 19.5556 95.5038 18.5574 94.5056C17.5593 93.5074 16.9985 92.1536 16.9985 90.742V9.34228C16.9985 7.93066 17.5593 6.57686 18.5574 5.5787C19.5556 4.58054 20.9094 4.01978 22.321 4.01978H58.012L83.1514 29.7692V90.742Z" fill="#23A566"/>
<path d="M60.7826 29.1177L83.1515 50.4868L83.0853 29.7377H63.2885C62.4193 29.7393 61.5631 29.5269 60.7956 29.1191L60.7826 29.1177Z" fill="#1C8F5A"/>
<path d="M83.1514 29.7364H63.2884C61.8768 29.7364 60.523 29.1757 59.5249 28.1775C58.5267 27.1794 57.9659 25.8256 57.9659 24.4139V4L83.1514 29.7364Z" fill="#8ED1B1"/>
<path fill-rule="evenodd" clip-rule="evenodd" d="M67.2775 79.0399H32.874V49.2454H67.2775V79.0399ZM52.2033 53.5019V58.8244H63.0223V53.5019H52.2033ZM52.2033 62.0136V66.9808H63.0223V62.0136H52.2033ZM52.2033 70.1729V74.7761H63.0223V70.1714L52.2033 70.1729ZM47.9467 74.7761V70.1714H37.1291V74.7747L47.9467 74.7761ZM47.9467 66.9736V62.0136H37.1291V66.9808L47.9467 66.9736ZM47.9467 58.8144V53.4919H37.1291V58.8144H47.9467Z" fill="white"/>
</g>
<defs>
<clipPath id="clip0_790_6031">
<rect width="66.1501" height="92.0649" fill="white" transform="translate(17 4)"/>
</clipPath>
</defs>
</svg>
