<svg width="100" height="100" viewBox="0 0 100 100" fill="none" xmlns="http://www.w3.org/2000/svg">
<path d="M93.6354 44.6938L55.3063 6.36465C52.3813 3.43965 47.6208 3.43965 44.6938 6.36465L6.36459 44.6938C3.43959 47.6188 3.43959 52.3792 6.36459 55.3063L44.6938 93.6355C46.1563 95.098 48.0792 95.8292 50 95.8292C51.9208 95.8292 53.8438 95.098 55.3063 93.6355L93.6354 55.3063C96.5604 52.3813 96.5604 47.6188 93.6354 44.6938ZM50 60.4167L39.5833 50.0001L50 39.5834L60.4167 50.0001L50 60.4167Z" fill="#4FC3F7"/>
<path d="M69.2625 20.3208L50 39.5833L60.4167 50L50 60.4166L69.2625 79.6791L93.6354 55.3062C96.5604 52.3812 96.5604 47.6208 93.6354 44.6937L69.2625 20.3208Z" fill="#2979FF"/>
<path d="M30.7375 79.679L44.6937 93.6353C46.1562 95.0978 48.0792 95.829 50 95.829C51.9208 95.829 53.8437 95.0978 55.3062 93.6353L69.2625 79.679L50 60.4165L30.7375 79.679Z" fill="#2962FF"/>
</svg>
