<svg width="100" height="100" viewBox="0 0 100 100" fill="none" xmlns="http://www.w3.org/2000/svg">
<g clip-path="url(#clip0_790_6014)">
<path d="M56.0455 49.9359L65.0143 60.1878L77.0757 67.8947L79.1736 50.0006L77.0757 32.5103L64.7834 39.2803L56.0455 49.9359Z" fill="#00832D"/>
<path d="M4.00024 66.2293V81.4776C4.00024 84.9594 6.82611 87.786 10.3086 87.786H25.5569L28.7144 76.265L25.5569 66.2293L15.0955 63.0718L4.00024 66.2293Z" fill="#0066DA"/>
<path d="M25.5567 12.0859L4 33.6426L15.096 36.7928L25.5567 33.6426L28.6568 23.7437L25.5567 12.0859Z" fill="#E94235"/>
<path d="M4.00024 66.2363H25.5569V33.6423H4.00024V66.2363Z" fill="#2684FC"/>
<path d="M90.846 21.2131L77.0757 32.5105V67.8943L90.9034 79.2358C92.9733 80.8573 96.0013 79.3793 96.0013 76.7482V23.6499C96.0013 20.9895 92.9012 19.5189 90.846 21.2131Z" fill="#00AC47"/>
<path d="M56.0456 49.936V66.2293H25.5569V87.786H70.7675C74.2499 87.786 77.0758 84.9595 77.0758 81.4777V67.8948L56.0456 49.936Z" fill="#00AC47"/>
<path d="M70.7675 12.0859H25.5569V33.6426H56.0456V49.9359L77.0758 32.5103V18.3943C77.0758 14.9118 74.2499 12.0859 70.7675 12.0859Z" fill="#FFBA00"/>
</g>
<defs>
<clipPath id="clip0_790_6014">
<rect width="92" height="92" fill="white" transform="translate(4 4)"/>
</clipPath>
</defs>
</svg>
