<svg width="100" height="100" viewBox="0 0 100 100" fill="none" xmlns="http://www.w3.org/2000/svg">
<g clip-path="url(#clip0_790_5969)">
<path fill-rule="evenodd" clip-rule="evenodd" d="M92.0904 85.4068C92.1254 91.874 86.9098 97.1399 80.4463 97.1747C79.9659 97.1786 79.4812 97.1515 79.0048 97.0933C73.0064 96.206 68.6125 90.9864 68.7594 84.9261V15.2477C68.6162 9.17952 73.0219 3.9602 79.024 3.08052C85.4446 2.32885 91.261 6.92422 92.0127 13.3451C92.0669 13.8179 92.0941 14.2906 92.0901 14.7671V85.4065L92.0904 85.4068Z" fill="#F9AB00"/>
<path fill-rule="evenodd" clip-rule="evenodd" d="M18.6673 73.8586C25.1114 73.8586 30.3346 79.0819 30.3346 85.5259C30.3346 91.9699 25.1114 97.1932 18.6673 97.1932C12.2233 97.1932 7 91.9699 7 85.5259C7 79.0819 12.2233 73.8586 18.6673 73.8586ZM49.3644 38.5C42.8895 38.8563 37.8675 44.2851 38.0187 50.7678V82.1041C38.0187 90.6096 41.7618 95.771 47.2447 96.8714C53.5726 98.154 59.7375 94.0659 61.0201 87.7383C61.1789 86.9631 61.2564 86.1767 61.2524 85.3863V50.2255C61.264 43.7583 56.0331 38.5076 49.5659 38.4963C49.5 38.4963 49.4302 38.4963 49.3644 38.5003V38.5Z" fill="#E37400"/>
</g>
<defs>
<clipPath id="clip0_790_5969">
<rect width="100" height="100" fill="white"/>
</clipPath>
</defs>
</svg>
