<svg width="100" height="100" viewBox="0 0 100 100" fill="none" xmlns="http://www.w3.org/2000/svg">
<g clip-path="url(#clip0_790_5950)">
<mask id="mask0_790_5950" style="mask-type:luminance" maskUnits="userSpaceOnUse" x="4" y="2" width="92" height="95">
<path d="M95.1163 41.2659H50.98V59.3295H76.3411C75.9333 61.886 75.018 64.4009 73.6774 66.6938C72.1413 69.3213 70.2427 71.3214 68.2964 72.8445C62.4661 77.4072 55.6696 78.3402 50.9492 78.3402C39.0247 78.3402 28.8365 70.4689 24.892 59.773C24.7329 59.3846 24.6274 58.9837 24.4986 58.5875C23.6064 55.8123 23.1514 52.9083 23.1508 49.9854C23.1508 46.8667 23.6665 43.8816 24.6067 41.0621C28.3156 29.942 38.7338 21.6366 50.9577 21.6366C53.4163 21.6366 55.784 21.9354 58.0293 22.5317C62.132 23.6185 65.9072 25.7386 69.0145 28.7007L82.4346 15.2769C74.2713 7.6321 63.6295 2.99976 50.9354 2.99976C40.7872 2.99976 31.418 6.22894 23.7401 11.6871C17.5138 16.1129 12.4072 22.0392 8.96061 28.9215C5.75527 35.3031 3.99994 42.375 3.99994 49.9786C3.99994 57.5826 5.75822 64.7278 8.96357 71.0503V71.0929C12.3493 77.8051 17.3008 83.5844 23.3184 87.9902C28.5759 91.839 38.0026 96.9652 50.9354 96.9652C58.3727 96.9652 64.9645 95.5959 70.7777 93.0292C74.9713 91.1775 78.6867 88.7626 82.0508 85.6589C86.4958 81.5579 89.9769 76.4851 92.353 70.649C94.7292 64.813 96.0001 58.213 96.0001 51.0579C96.0001 47.7256 95.6721 44.3413 95.1163 41.2659Z" fill="white"/>
</mask>
<g mask="url(#mask0_790_5950)">
<g filter="url(#filter0_f_790_5950)">
<path d="M3.3233 50.2976C3.37194 57.7816 5.45987 65.5031 8.62019 71.7367V71.7797C10.904 76.3065 14.0249 79.8822 17.5792 83.4254L39.0491 75.4243C34.9869 73.3167 34.3671 72.0254 31.4556 69.669C28.48 66.6044 26.2622 63.0866 24.8812 58.9613H24.8254L24.8812 58.9183C23.9725 56.1945 23.8831 53.3027 23.8493 50.2976H3.3233Z" fill="url(#paint0_radial_790_5950)"/>
</g>
<g filter="url(#filter1_f_790_5950)">
<path d="M50.98 2.65796C48.8582 10.2724 49.6694 17.6735 50.98 21.98C53.4308 21.982 55.7915 22.2802 58.0296 22.8748C62.1322 23.9616 65.9074 26.0816 69.0145 29.0438L82.7784 15.2772C74.6245 7.64117 64.812 2.66979 50.98 2.65796Z" fill="url(#paint1_radial_790_5950)"/>
</g>
<g filter="url(#filter2_f_790_5950)">
<path d="M50.9341 2.5979C40.5257 2.5979 30.9159 5.9099 23.0411 11.508C20.1263 13.5791 17.4443 15.9769 15.0444 18.6573C14.4186 24.6553 19.7299 32.0267 30.2484 31.9655C35.3518 25.9026 42.8999 21.9794 51.3006 21.9794L51.3236 21.9801L50.9805 2.59925C50.9647 2.59925 50.9499 2.5979 50.9345 2.5979H50.9341Z" fill="url(#paint2_radial_790_5950)"/>
</g>
<g filter="url(#filter3_f_790_5950)">
<path d="M85.2887 52.468L75.9984 58.9869C75.5908 61.5431 74.6746 64.058 73.334 66.3512C71.7979 68.9783 69.8996 70.9788 67.953 72.502C62.1352 77.0552 55.3564 77.9929 50.6373 77.9966C45.7594 86.4818 44.9043 90.7318 50.9801 97.5799C58.4986 97.5745 65.1637 96.1883 71.0429 93.5926C75.2927 91.7162 79.0581 89.2685 82.4672 86.1231C86.9717 81.9671 90.5001 76.8263 92.9082 70.9119C95.3162 64.9974 96.6038 58.3095 96.6038 51.0581L85.2887 52.468Z" fill="url(#paint3_radial_790_5950)"/>
</g>
<g filter="url(#filter4_f_790_5950)">
<path d="M50.2942 40.5803V60.0163H94.9928C95.3858 57.3546 96.686 53.9101 96.686 51.0585C96.686 47.7262 96.3587 43.656 95.8029 40.5803H50.2942Z" fill="#3086FF"/>
</g>
<g filter="url(#filter5_f_790_5950)">
<path d="M15.258 17.9714C12.4993 21.0539 10.1428 24.5042 8.27445 28.2353C5.06911 34.617 3.31378 42.3751 3.31378 49.9787C3.31378 50.0858 3.32233 50.1906 3.32331 50.2978C4.74309 53.0777 22.9327 52.5453 23.8496 50.2978C23.8483 50.193 23.8368 50.0906 23.8368 49.9854C23.8368 46.8668 24.3528 44.5682 25.2927 41.7487C26.4528 38.2707 28.269 35.0682 30.5916 32.3089C31.1181 31.6224 32.5224 30.1465 32.9319 29.2612C33.088 28.9242 32.6486 28.7349 32.6239 28.6163C32.5967 28.4834 32.0074 28.5903 31.8756 28.4912C31.4566 28.1772 30.6267 28.0132 30.1226 27.8676C29.0456 27.5562 27.2607 26.8694 26.2691 26.1571C23.1351 23.9065 18.2448 21.2179 15.258 17.9714Z" fill="url(#paint4_radial_790_5950)"/>
</g>
<g filter="url(#filter6_f_790_5950)">
<path d="M26.3364 28.6297C33.6035 33.1258 35.6934 26.3602 40.5253 24.2431L32.1203 6.44116C29.054 7.75757 26.1302 9.4008 23.3969 11.3439C19.3492 14.2212 15.7748 17.7327 12.8222 21.7282L26.3364 28.6297Z" fill="url(#paint5_radial_790_5950)"/>
</g>
<g filter="url(#filter7_f_790_5950)">
<path d="M29.2943 74.0491C19.539 77.646 18.0117 77.7751 17.1138 83.9499C18.835 85.6663 20.6798 87.2465 22.6325 88.6769C27.8897 92.5257 38.0023 97.6519 50.9354 97.6519C50.9505 97.6519 50.965 97.6505 50.9804 97.6505V77.6538L50.9495 77.6545C46.1065 77.6545 42.2363 76.3554 38.2685 74.096C37.2901 73.539 35.515 75.0347 34.6129 74.3661C33.3686 73.4436 30.3733 75.1605 29.2943 74.0491Z" fill="url(#paint6_radial_790_5950)"/>
</g>
<g opacity="0.5" filter="url(#filter8_f_790_5950)">
<path d="M45.2672 77.0242V97.3045C47.0767 97.5209 48.9599 97.652 50.9354 97.652C52.9159 97.652 54.8316 97.5482 56.6934 97.3572V77.1607C54.7955 77.4896 52.8742 77.6548 50.9495 77.6546C49 77.6546 47.1043 77.4227 45.2672 77.0242Z" fill="url(#paint7_linear_790_5950)"/>
</g>
</g>
</g>
<defs>
<filter id="filter0_f_790_5950" x="3.16198" y="50.1363" width="36.0484" height="33.4503" filterUnits="userSpaceOnUse" color-interpolation-filters="sRGB">
<feFlood flood-opacity="0" result="BackgroundImageFix"/>
<feBlend mode="normal" in="SourceGraphic" in2="BackgroundImageFix" result="shape"/>
<feGaussianBlur stdDeviation="0.0806603" result="effect1_foregroundBlur_790_5950"/>
</filter>
<filter id="filter1_f_790_5950" x="49.514" y="2.49664" width="33.4257" height="26.7084" filterUnits="userSpaceOnUse" color-interpolation-filters="sRGB">
<feFlood flood-opacity="0" result="BackgroundImageFix"/>
<feBlend mode="normal" in="SourceGraphic" in2="BackgroundImageFix" result="shape"/>
<feGaussianBlur stdDeviation="0.0806603" result="effect1_foregroundBlur_790_5950"/>
</filter>
<filter id="filter2_f_790_5950" x="14.8335" y="2.43658" width="36.6514" height="29.6906" filterUnits="userSpaceOnUse" color-interpolation-filters="sRGB">
<feFlood flood-opacity="0" result="BackgroundImageFix"/>
<feBlend mode="normal" in="SourceGraphic" in2="BackgroundImageFix" result="shape"/>
<feGaussianBlur stdDeviation="0.0806603" result="effect1_foregroundBlur_790_5950"/>
</filter>
<filter id="filter3_f_790_5950" x="46.5375" y="50.8968" width="50.2277" height="46.8444" filterUnits="userSpaceOnUse" color-interpolation-filters="sRGB">
<feFlood flood-opacity="0" result="BackgroundImageFix"/>
<feBlend mode="normal" in="SourceGraphic" in2="BackgroundImageFix" result="shape"/>
<feGaussianBlur stdDeviation="0.0806603" result="effect1_foregroundBlur_790_5950"/>
</filter>
<filter id="filter4_f_790_5950" x="50.1328" y="40.419" width="46.7145" height="19.7587" filterUnits="userSpaceOnUse" color-interpolation-filters="sRGB">
<feFlood flood-opacity="0" result="BackgroundImageFix"/>
<feBlend mode="normal" in="SourceGraphic" in2="BackgroundImageFix" result="shape"/>
<feGaussianBlur stdDeviation="0.0806603" result="effect1_foregroundBlur_790_5950"/>
</filter>
<filter id="filter5_f_790_5950" x="3.15246" y="17.8101" width="29.9742" height="34.5394" filterUnits="userSpaceOnUse" color-interpolation-filters="sRGB">
<feFlood flood-opacity="0" result="BackgroundImageFix"/>
<feBlend mode="normal" in="SourceGraphic" in2="BackgroundImageFix" result="shape"/>
<feGaussianBlur stdDeviation="0.0806603" result="effect1_foregroundBlur_790_5950"/>
</filter>
<filter id="filter6_f_790_5950" x="11.6883" y="5.30725" width="29.9709" height="25.9675" filterUnits="userSpaceOnUse" color-interpolation-filters="sRGB">
<feFlood flood-opacity="0" result="BackgroundImageFix"/>
<feBlend mode="normal" in="SourceGraphic" in2="BackgroundImageFix" result="shape"/>
<feGaussianBlur stdDeviation="0.566956" result="effect1_foregroundBlur_790_5950"/>
</filter>
<filter id="filter7_f_790_5950" x="16.9525" y="73.8077" width="34.1892" height="24.0055" filterUnits="userSpaceOnUse" color-interpolation-filters="sRGB">
<feFlood flood-opacity="0" result="BackgroundImageFix"/>
<feBlend mode="normal" in="SourceGraphic" in2="BackgroundImageFix" result="shape"/>
<feGaussianBlur stdDeviation="0.0806603" result="effect1_foregroundBlur_790_5950"/>
</filter>
<filter id="filter8_f_790_5950" x="45.1058" y="76.8628" width="11.7489" height="20.9506" filterUnits="userSpaceOnUse" color-interpolation-filters="sRGB">
<feFlood flood-opacity="0" result="BackgroundImageFix"/>
<feBlend mode="normal" in="SourceGraphic" in2="BackgroundImageFix" result="shape"/>
<feGaussianBlur stdDeviation="0.0806603" result="effect1_foregroundBlur_790_5950"/>
</filter>
<radialGradient id="paint0_radial_790_5950" cx="0" cy="0" r="1" gradientUnits="userSpaceOnUse" gradientTransform="translate(38.6192 82.7199) rotate(-92.3394) scale(46.8336 68.7932)">
<stop offset="0.142" stop-color="#1ABD4D"/>
<stop offset="0.248" stop-color="#6EC30D"/>
<stop offset="0.312" stop-color="#8AC502"/>
<stop offset="0.366" stop-color="#A2C600"/>
<stop offset="0.446" stop-color="#C8C903"/>
<stop offset="0.54" stop-color="#EBCB03"/>
<stop offset="0.616" stop-color="#F7CD07"/>
<stop offset="0.699" stop-color="#FDCD04"/>
<stop offset="0.771" stop-color="#FDCE05"/>
<stop offset="0.861" stop-color="#FFCE0A"/>
</radialGradient>
<radialGradient id="paint1_radial_790_5950" cx="0" cy="0" r="1" gradientUnits="userSpaceOnUse" gradientTransform="translate(81.4906 28.048) scale(32.4667 41.9289)">
<stop offset="0.408" stop-color="#FB4E5A"/>
<stop offset="1" stop-color="#FF4540"/>
</radialGradient>
<radialGradient id="paint2_radial_790_5950" cx="0" cy="0" r="1" gradientTransform="matrix(-45.4885 25.1942 34.1885 61.7275 63.7601 -3.47159)" gradientUnits="userSpaceOnUse">
<stop offset="0.231" stop-color="#FF4541"/>
<stop offset="0.312" stop-color="#FF4540"/>
<stop offset="0.458" stop-color="#FF4640"/>
<stop offset="0.54" stop-color="#FF473F"/>
<stop offset="0.699" stop-color="#FF5138"/>
<stop offset="0.771" stop-color="#FF5B33"/>
<stop offset="0.861" stop-color="#FF6C29"/>
<stop offset="1" stop-color="#FF8C18"/>
</radialGradient>
<radialGradient id="paint3_radial_790_5950" cx="0" cy="0" r="1" gradientTransform="matrix(-82.495 -107.687 -39.7503 30.4509 51.6555 91.4984)" gradientUnits="userSpaceOnUse">
<stop offset="0.132" stop-color="#0CBA65"/>
<stop offset="0.21" stop-color="#0BB86D"/>
<stop offset="0.297" stop-color="#09B479"/>
<stop offset="0.396" stop-color="#08AD93"/>
<stop offset="0.477" stop-color="#0AA6A9"/>
<stop offset="0.568" stop-color="#0D9CC6"/>
<stop offset="0.667" stop-color="#1893DD"/>
<stop offset="0.769" stop-color="#258BF1"/>
<stop offset="0.859" stop-color="#3086FF"/>
</radialGradient>
<radialGradient id="paint4_radial_790_5950" cx="0" cy="0" r="1" gradientUnits="userSpaceOnUse" gradientTransform="translate(46.9489 11.4727) rotate(96.6178) scale(50.6568 70.0421)">
<stop offset="0.366" stop-color="#FF4E3A"/>
<stop offset="0.458" stop-color="#FF8A1B"/>
<stop offset="0.54" stop-color="#FFA312"/>
<stop offset="0.616" stop-color="#FFB60C"/>
<stop offset="0.771" stop-color="#FFCD0A"/>
<stop offset="0.861" stop-color="#FECF0A"/>
<stop offset="0.915" stop-color="#FECF08"/>
<stop offset="1" stop-color="#FDCD01"/>
</radialGradient>
<radialGradient id="paint5_radial_790_5950" cx="0" cy="0" r="1" gradientTransform="matrix(-16.8745 18.6628 -52.6395 -47.5955 38.7397 10.9504)" gradientUnits="userSpaceOnUse">
<stop offset="0.316" stop-color="#FF4C3C"/>
<stop offset="0.604" stop-color="#FF692C"/>
<stop offset="0.727" stop-color="#FF7825"/>
<stop offset="0.885" stop-color="#FF8D1B"/>
<stop offset="1" stop-color="#FF9F13"/>
</radialGradient>
<radialGradient id="paint6_radial_790_5950" cx="0" cy="0" r="1" gradientTransform="matrix(-45.4885 -25.1942 34.1885 -61.7275 63.76 103.436)" gradientUnits="userSpaceOnUse">
<stop offset="0.231" stop-color="#0FBC5F"/>
<stop offset="0.312" stop-color="#0FBC5F"/>
<stop offset="0.366" stop-color="#0FBC5E"/>
<stop offset="0.458" stop-color="#0FBC5D"/>
<stop offset="0.54" stop-color="#12BC58"/>
<stop offset="0.699" stop-color="#28BF3C"/>
<stop offset="0.771" stop-color="#38C02B"/>
<stop offset="0.861" stop-color="#52C218"/>
<stop offset="0.915" stop-color="#67C30F"/>
<stop offset="1" stop-color="#86C504"/>
</radialGradient>
<linearGradient id="paint7_linear_790_5950" x1="45.2672" y1="87.3381" x2="56.6934" y2="87.3381" gradientUnits="userSpaceOnUse">
<stop stop-color="#0FBC5C"/>
<stop offset="1" stop-color="#0CBA65"/>
</linearGradient>
<clipPath id="clip0_790_5950">
<rect width="92" height="93.9662" fill="white" transform="translate(4 3)"/>
</clipPath>
</defs>
</svg>
