<svg width="100" height="100" viewBox="0 0 100 100" fill="none" xmlns="http://www.w3.org/2000/svg">
<path d="M50.7546 4C31.2414 4 25.5345 4.02013 24.4252 4.11215C20.4207 4.44502 17.9289 5.07552 15.2142 6.42712C13.1221 7.46597 11.4722 8.67018 9.8438 10.3582C6.87821 13.4367 5.08087 17.224 4.43024 21.726C4.11391 23.9115 4.02189 24.3573 4.0032 35.5209C3.99601 39.2421 4.0032 44.1394 4.0032 50.7083C4.0032 70.2058 4.02476 75.9069 4.11822 77.014C4.44174 80.9107 5.05284 83.3622 6.34691 86.0438C8.82004 91.177 13.5434 95.0305 19.108 96.4684C21.0347 96.9644 23.1627 97.2376 25.8947 97.367C27.0522 97.4173 38.8498 97.4533 50.6547 97.4533C62.4596 97.4533 74.2644 97.4389 75.3932 97.3814C78.5565 97.2326 80.3933 96.986 82.4243 96.4612C85.1834 95.7536 87.7549 94.4523 89.959 92.648C92.1631 90.8437 93.9467 88.5801 95.1854 86.0151C96.4543 83.3982 97.0977 80.8531 97.3889 77.16C97.4522 76.3548 97.4788 63.5168 97.4788 50.6961C97.4788 37.8732 97.45 25.059 97.3867 24.2538C97.092 20.5009 96.4485 17.9775 95.1386 15.3102C94.0638 13.1268 92.8704 11.4963 91.1378 9.8291C88.0464 6.87573 84.2648 5.0784 79.7578 4.42848C77.5744 4.11287 77.1395 4.01941 65.9672 4H50.7546Z" fill="url(#paint0_radial_790_6048)"/>
<path d="M50.7546 4C31.2414 4 25.5345 4.02013 24.4252 4.11215C20.4207 4.44502 17.9289 5.07552 15.2142 6.42712C13.1221 7.46597 11.4722 8.67018 9.8438 10.3582C6.87821 13.4367 5.08087 17.224 4.43024 21.726C4.11391 23.9115 4.02189 24.3573 4.0032 35.5209C3.99601 39.2421 4.0032 44.1394 4.0032 50.7083C4.0032 70.2058 4.02476 75.9069 4.11822 77.014C4.44174 80.9107 5.05284 83.3622 6.34691 86.0438C8.82004 91.177 13.5434 95.0305 19.108 96.4684C21.0347 96.9644 23.1627 97.2376 25.8947 97.367C27.0522 97.4173 38.8498 97.4533 50.6547 97.4533C62.4596 97.4533 74.2644 97.4389 75.3932 97.3814C78.5565 97.2326 80.3933 96.986 82.4243 96.4612C85.1834 95.7536 87.7549 94.4523 89.959 92.648C92.1631 90.8437 93.9467 88.5801 95.1854 86.0151C96.4543 83.3982 97.0977 80.8531 97.3889 77.16C97.4522 76.3548 97.4788 63.5168 97.4788 50.6961C97.4788 37.8732 97.45 25.059 97.3867 24.2538C97.092 20.5009 96.4485 17.9775 95.1386 15.3102C94.0638 13.1268 92.8704 11.4963 91.1378 9.8291C88.0464 6.87573 84.2648 5.0784 79.7578 4.42848C77.5744 4.11287 77.1395 4.01941 65.9672 4H50.7546Z" fill="url(#paint1_radial_790_6048)"/>
<path d="M50.5109 16C41.1389 16 39.9627 16.041 36.2818 16.2085C32.6081 16.3767 30.1004 16.9583 27.9062 17.8117C25.6366 18.6931 23.7113 19.8722 21.7932 21.791C19.8736 23.7091 18.6946 25.6344 17.8103 27.9034C16.9547 30.0983 16.3724 32.6066 16.2071 36.2789C16.0431 39.9599 16 41.1367 16 50.5087C16 59.8807 16.0417 61.0533 16.2085 64.7343C16.3774 68.408 16.9591 70.9156 17.8117 73.1098C18.6938 75.3795 19.8729 77.3048 21.7917 79.2229C23.7091 81.1424 25.6344 82.3244 27.9026 83.2058C30.0983 84.0592 32.6066 84.6408 36.2796 84.809C39.9606 84.9765 41.136 85.0175 50.5073 85.0175C59.88 85.0175 61.0526 84.9765 64.7335 84.809C68.4073 84.6408 70.9178 84.0592 73.1134 83.2058C75.3824 82.3244 77.3048 81.1424 79.2222 79.2229C81.1417 77.3048 82.3208 75.3795 83.2051 73.1105C84.0534 70.9156 84.6357 68.4073 84.8083 64.735C84.9736 61.054 85.0168 59.8807 85.0168 50.5087C85.0168 41.1367 84.9736 39.9606 84.8083 36.2796C84.6357 32.6059 84.0534 30.0983 83.2051 27.9041C82.3208 25.6344 81.1417 23.7091 79.2222 21.791C77.3026 19.8715 75.3831 18.6924 73.1113 17.8117C70.9113 16.9583 68.4023 16.3767 64.7285 16.2085C61.0476 16.041 59.8757 16 50.5008 16H50.5109ZM47.4152 22.2188C48.334 22.2173 49.3592 22.2188 50.5109 22.2188C59.7247 22.2188 60.8168 22.2518 64.4553 22.4172C67.8199 22.571 69.646 23.1332 70.8624 23.6056C72.4728 24.2311 73.621 24.9787 74.8281 26.1866C76.0359 27.3944 76.7836 28.5446 77.4105 30.1551C77.8828 31.3701 78.4457 33.1961 78.5989 36.5607C78.7642 40.1985 78.8002 41.2913 78.8002 50.5008C78.8002 59.7104 78.7642 60.8031 78.5989 64.4409C78.445 67.8055 77.8828 69.6316 77.4105 70.8466C76.785 72.457 76.0359 73.6037 74.8281 74.8108C73.6203 76.0186 72.4736 76.7663 70.8624 77.3918C69.6474 77.8663 67.8199 78.427 64.4553 78.5809C60.8175 78.7462 59.7247 78.7822 50.5109 78.7822C41.2963 78.7822 40.2043 78.7462 36.5665 78.5809C33.2019 78.4256 31.3758 77.8634 30.1587 77.3911C28.5482 76.7656 27.398 76.0179 26.1901 74.8101C24.9823 73.6023 24.2347 72.4549 23.6077 70.8437C23.1354 69.6287 22.5725 67.8027 22.4193 64.4381C22.254 60.8003 22.2209 59.7075 22.2209 50.4922C22.2209 41.2769 22.254 40.1899 22.4193 36.5521C22.5732 33.1875 23.1354 31.3614 23.6077 30.145C24.2332 28.5346 24.9823 27.3843 26.1901 26.1765C27.398 24.9687 28.5482 24.221 30.1587 23.5941C31.3751 23.1196 33.2019 22.5588 36.5665 22.4042C39.7499 22.2605 40.9836 22.2173 47.4152 22.2101V22.2188ZM68.9314 27.9487C68.1123 27.9487 67.3116 28.1916 66.6306 28.6466C65.9496 29.1017 65.4188 29.7486 65.1054 30.5053C64.792 31.2621 64.7101 32.0948 64.87 32.8981C65.0299 33.7014 65.4245 34.4393 66.0037 35.0184C66.583 35.5975 67.321 35.9917 68.1244 36.1514C68.9278 36.311 69.7604 36.2288 70.5171 35.9151C71.2738 35.6015 71.9204 35.0705 72.3752 34.3893C72.8301 33.7081 73.0727 32.9073 73.0724 32.0883C73.0724 29.8021 71.2176 27.9472 68.9314 27.9472V27.9487ZM50.5109 32.7871C40.7241 32.7871 32.7892 40.7219 32.7892 50.5087C32.7892 60.2956 40.7241 68.2268 50.5109 68.2268C60.2977 68.2268 68.2304 60.2956 68.2304 50.5087C68.2304 40.7219 60.2977 32.7871 50.5109 32.7871ZM50.5109 39.0058C56.8634 39.0058 62.0138 44.1555 62.0138 50.5087C62.0138 56.8612 56.8634 62.0117 50.5109 62.0117C44.1577 62.0117 39.008 56.8612 39.008 50.5087C39.008 44.1555 44.1577 39.0058 50.5109 39.0058Z" fill="white"/>
<defs>
<radialGradient id="paint0_radial_790_6048" cx="0" cy="0" r="1" gradientUnits="userSpaceOnUse" gradientTransform="translate(28.8304 104.651) rotate(-90) scale(92.6191 86.1665)">
<stop stop-color="#FFDD55"/>
<stop offset="0.1" stop-color="#FFDD55"/>
<stop offset="0.5" stop-color="#FF543E"/>
<stop offset="1" stop-color="#C837AB"/>
</radialGradient>
<radialGradient id="paint1_radial_790_6048" cx="0" cy="0" r="1" gradientTransform="matrix(8.12832 40.5958 -167.38 33.5142 -11.6582 10.7322)" gradientUnits="userSpaceOnUse">
<stop stop-color="#3771C8"/>
<stop offset="0.128" stop-color="#3771C8"/>
<stop offset="1" stop-color="#6600FF" stop-opacity="0"/>
</radialGradient>
</defs>
</svg>
