<svg width="100" height="100" viewBox="0 0 100 100" fill="none" xmlns="http://www.w3.org/2000/svg">
<g clip-path="url(#clip0_790_6061)">
<path d="M98 72.0668C98 80.2737 91.3194 86.9805 83.0863 86.9805H2V27.933C2 19.7262 8.68062 13.0193 16.9137 13.0193H98V72.0668Z" fill="white"/>
<path d="M71.5925 56.9168H77.7463C77.93 56.9168 78.3257 56.8643 78.5094 56.8643C79.6925 56.6281 80.6919 55.5762 80.6919 54.1025C80.6919 52.6831 79.6925 51.6293 78.5094 51.3406C78.3257 51.2881 77.9825 51.2881 77.7463 51.2881H71.5925V56.9168Z" fill="url(#paint0_linear_790_6061)"/>
<path d="M77.0638 18.0183C71.1988 18.0183 66.3856 22.7789 66.3856 28.6964V39.7964H81.4569C81.7981 39.7964 82.22 39.7964 82.5088 39.8489C85.9025 40.0327 88.4263 41.7952 88.4263 44.8458C88.4263 47.2383 86.7163 49.3177 83.5606 49.7114V49.8164C87.0331 50.0527 89.6619 51.9989 89.6619 54.9708C89.6619 58.2052 86.7163 60.3108 82.85 60.3108H66.3069V82.0102H81.9819C87.8469 82.0102 92.66 77.2496 92.66 71.3321V18.0183H77.0638Z" fill="url(#paint1_linear_790_6061)"/>
<path d="M79.9307 45.5281C79.9307 44.1087 78.9313 43.1881 77.7482 43.0025C77.6432 43.0025 77.3282 42.95 77.1688 42.95H71.5925V48.1043H77.1688C77.3525 48.1043 77.6957 48.1043 77.7482 48.0518C78.9313 47.8962 79.9307 46.9493 79.9307 45.5281Z" fill="url(#paint2_linear_790_6061)"/>
<path d="M18.0181 18.0183C12.1531 18.0183 7.34 22.7789 7.34 28.6964V55.0496C10.3381 56.5233 13.4412 57.4421 16.5462 57.4421C20.255 57.4421 22.2275 55.2071 22.2275 52.1546V39.7402H31.3812V52.1021C31.3812 56.9152 28.3831 60.8339 18.23 60.8339C12.0762 60.8339 7.26312 59.4933 7.26312 59.4933V81.9539H22.9381C28.8031 81.9539 33.6162 77.1933 33.6162 71.2758V18.0183H18.0181Z" fill="url(#paint3_linear_790_6061)"/>
<path d="M47.5269 18.0183C41.6619 18.0183 36.8488 22.7789 36.8488 28.6964V42.6633C39.5581 40.3758 44.24 38.9021 51.815 39.2696C55.865 39.4533 60.2056 40.5577 60.2056 40.5577V45.0821C58.0231 43.9777 55.445 42.9783 52.1056 42.7421C46.3456 42.3221 42.8994 45.1346 42.8994 50.0808C42.8994 55.0777 46.3719 57.8921 52.1056 57.4196C55.445 57.1833 58.0231 56.1314 60.2056 55.0796V59.6039C60.2056 59.6039 55.9194 60.7083 51.815 60.8921C44.24 61.2333 39.5581 59.7877 36.8488 57.4983V82.0908H52.5238C58.3888 82.0908 63.2019 77.3302 63.2019 71.4127V18.0183H47.5269Z" fill="url(#paint4_linear_790_6061)"/>
</g>
<defs>
<linearGradient id="paint0_linear_790_6061" x1="66.3616" y1="54.1024" x2="92.7307" y2="54.1024" gradientUnits="userSpaceOnUse">
<stop stop-color="#007940"/>
<stop offset="0.2285" stop-color="#00873F"/>
<stop offset="0.7433" stop-color="#40A737"/>
<stop offset="1" stop-color="#5CB531"/>
</linearGradient>
<linearGradient id="paint1_linear_790_6061" x1="66.3615" y1="50.0129" x2="92.7153" y2="50.0129" gradientUnits="userSpaceOnUse">
<stop stop-color="#007940"/>
<stop offset="0.2285" stop-color="#00873F"/>
<stop offset="0.7433" stop-color="#40A737"/>
<stop offset="1" stop-color="#5CB531"/>
</linearGradient>
<linearGradient id="paint2_linear_790_6061" x1="66.3621" y1="45.5288" x2="92.7309" y2="45.5288" gradientUnits="userSpaceOnUse">
<stop stop-color="#007940"/>
<stop offset="0.2285" stop-color="#00873F"/>
<stop offset="0.7433" stop-color="#40A737"/>
<stop offset="1" stop-color="#5CB531"/>
</linearGradient>
<linearGradient id="paint3_linear_790_6061" x1="7.32732" y1="49.9857" x2="34.1046" y2="49.9857" gradientUnits="userSpaceOnUse">
<stop stop-color="#1F286F"/>
<stop offset="0.4751" stop-color="#004E94"/>
<stop offset="0.8261" stop-color="#0066B1"/>
<stop offset="1" stop-color="#006FBC"/>
</linearGradient>
<linearGradient id="paint4_linear_790_6061" x1="36.7053" y1="50.0537" x2="62.7123" y2="50.0537" gradientUnits="userSpaceOnUse">
<stop stop-color="#6C2C2F"/>
<stop offset="0.1735" stop-color="#882730"/>
<stop offset="0.5731" stop-color="#BE1833"/>
<stop offset="0.8585" stop-color="#DC0436"/>
<stop offset="1" stop-color="#E60039"/>
</linearGradient>
<clipPath id="clip0_790_6061">
<rect width="96" height="96" fill="white" transform="translate(2 2)"/>
</clipPath>
</defs>
</svg>
