<svg width="100" height="100" viewBox="0 0 100 100" fill="none" xmlns="http://www.w3.org/2000/svg">
<g clip-path="url(#clip0_8535_42)">
<path d="M20.665 95.2243C20.4219 94.6896 20.2231 94.2087 20.2231 94.155C20.2231 94.1009 19.3774 89.6524 19.2811 88.5092C18.8603 83.518 18.1964 83.0399 18.3818 78.5897C18.494 75.8943 18.12 74.9747 18.9156 72.7699C20.5544 68.2299 21.7562 66.444 23.8857 65.3812C25.6136 64.5193 27.2345 64.6364 28.7562 65.7329C29.1571 66.0219 30.5024 66.9322 31.746 67.7563C32.9892 68.58 34.4663 69.5789 35.0277 69.9761C35.5892 70.3729 36.5258 70.9453 37.1093 71.2486C38.1378 71.7832 38.176 71.7913 38.3846 71.521C38.8432 70.9282 39.9498 69.2634 40.5479 68.4686C43.5454 64.4884 40.7227 64.9308 40.0173 64.723C38.9082 64.3965 38.4411 63.918 37.4044 62.7037C34.9968 59.8822 33.856 56.7428 33.6873 52.8635C33.4917 48.3589 33.9446 44.7263 35.9225 42.659C36.7706 41.7727 38.5651 40.4856 40.2056 39.5871C41.5952 38.8268 50.1173 37.2364 50.865 37.5665C51.2386 37.732 49.3859 32.835 50.4519 26.4684C50.6637 25.2036 52.1025 21.2897 52.2546 21.0235C52.6298 20.3657 58.8143 18.2491 60.5735 17.2161C62.5391 16.0615 66.7897 13.2807 67.11 11.2129C67.8138 6.66808 67.9386 4.72597 68.2321 4.55563C68.6687 4.30153 71.587 10.3185 69.6115 15.992C69.2221 17.112 67.3625 19.7119 66.5299 20.799C65.9306 21.5821 67.2324 21.948 67.9813 23.0786C68.6626 24.1067 69.1103 26.6197 69.1977 27.9222C69.2871 29.2521 68.8663 31.9805 68.4894 32.5159C68.3366 32.7326 68.274 32.9456 68.3496 32.992C68.4244 33.0383 68.9326 32.9777 69.4786 32.8578C70.0246 32.7379 71.2081 32.546 72.1082 32.4321C73.7112 32.2301 73.7685 32.2329 74.8565 32.5675C76.4884 33.0692 84.4259 34.9869 79.3611 57.1668C77.6828 64.5153 69.8518 74.2116 68.8675 73.4606L66.4429 71.6121L63.6486 75.7548C62.2224 77.2196 60.6844 78.6332 59.7774 79.3134C58.3464 80.3867 55.4822 82.0771 55.0956 82.0771C54.996 82.0771 54.4321 82.3089 53.8422 82.5914C52.1367 83.4094 49.5819 84.0798 46.8759 84.2575C36.3986 84.9364 40.3954 83.6712 31.7204 79.4703C31.0362 79.139 29.4608 80.8107 27.5626 82.5382C25.5355 84.3823 24.4716 85.7857 23.6678 87.6762C23.3573 88.4047 23.0435 89.1317 22.7262 89.8573C22.0574 91.3811 21.5074 93.4891 21.4257 94.8409C21.3858 95.5023 21.2976 96.0776 21.2301 96.1195C21.1622 96.1613 20.9077 95.7585 20.665 95.2243ZM32.1835 76.5594C33.5263 76.2199 33.6735 76.1451 35.1176 75.0645C36.1526 74.29 36.7942 72.8915 37.069 72.7691C38.8713 71.9698 35.7245 71.2502 34.548 70.4566C33.3714 69.663 31.8411 69.0764 30.7991 68.2803C29.7567 67.4851 28.8542 66.8647 28.7936 66.9022C28.733 66.9396 28.6818 67.4733 28.6802 68.0885C28.6761 69.883 28.4354 71.6832 28.0992 72.4365C27.9281 72.8199 27.7553 73.5586 27.715 74.079C27.6223 75.2832 27.9029 75.8622 28.8993 76.5265C29.7393 77.0863 30.0881 77.0896 32.1835 76.5598M80.8503 42.5785C80.4128 39.6411 80.7751 35.602 78.4862 34.1315C73.2059 30.7389 72.6265 34.1031 72.3025 34.8467C71.7699 36.0696 71.4414 37.0701 71.8459 38.4146C73.0888 42.5451 74.6784 46.2033 75.433 49.1394C76.2989 52.5093 77.2535 54.6401 77.349 57.2827C77.4165 59.1585 77.3991 59.3557 77.123 59.7891C76.7303 60.405 70.7999 61.9141 67.8138 62.7939C66.7884 63.096 67.6967 65.2828 67.5792 66.0028C67.4617 66.7228 65.8566 70.7461 66.3729 71.5552C71.4666 79.537 82.7306 55.2089 80.8503 42.5785ZM69.8778 62.2036C70.6747 62.0121 71.4195 61.7784 71.5333 61.684C71.6471 61.5897 71.9358 61.5279 72.1757 61.5458C72.6042 61.5783 74.2824 61.0502 74.4117 60.8425C74.4479 60.7835 75.9452 60.0025 75.6456 59.8041C75.346 59.6057 69.4936 55.3036 68.6545 54.8657C58.9907 49.8273 53.9105 49.4805 50.7198 50.1233C45.2537 51.2247 40.5328 53.9961 39.9649 54.6795C39.7933 54.8861 48.5228 51.9719 54.7187 55.0337C55.8635 55.5996 58.2272 56.5716 60.0039 58.4743C61.6272 60.2123 63.1075 62.0512 64.2727 62.3618C65.5354 62.6984 68.1236 62.6252 69.8778 62.2032M58.2272 41.4296C61.287 40.8941 66.0274 34.5377 65.6586 33.9425C65.6086 33.862 66.5754 32.2573 66.4185 32.226C60.6926 31.0844 60.8304 25.3829 60.7479 25.3321C60.6653 25.2813 52.3058 29.2797 50.3791 30.1124C48.7448 30.8194 50.6129 35.0329 51.5988 37.6478C52.0371 38.8114 54.4516 40.3628 55.4232 40.9954C56.573 41.7434 57.9658 41.4751 58.2272 41.4296ZM64.8215 22.0301C66.4738 20.7279 70.8743 14.2105 70.4076 11.5654C68.5049 0.789731 67.6853 7.46085 67.5629 8.42235C67.5125 8.82077 67.3686 9.703 67.243 10.3828C67.1101 11.1074 66.9915 11.8346 66.8872 12.5639C66.8173 13.0839 66.6238 13.9999 66.4571 14.5999C66.2543 15.3364 66.0593 16.075 65.8721 16.8156C65.7172 17.4348 65.1951 18.9594 64.7126 20.2038C64.2296 21.4483 63.8344 22.496 63.8344 22.5326C63.8344 22.7143 64.1698 22.5436 64.8215 22.0301Z" fill="url(#paint0_linear_8535_42)"/>
<path fill-rule="evenodd" clip-rule="evenodd" d="M21.0983 94.8828C23.6807 84.1824 26.0176 82.983 32.1675 79.0167C30.8145 78.2479 27.4849 75.6992 27.4938 74.343C27.517 70.3823 28.1715 63.479 23.8039 66.3481C15.5163 71.7927 18.5151 89.1021 21.0979 94.8828" fill="url(#paint1_linear_8535_42)"/>
<path fill-rule="evenodd" clip-rule="evenodd" d="M30.186 77.6464C33.8373 80.4053 37.0649 82.8442 39.3554 84.1378C61.6919 85.2672 67.2694 72.9194 67.6751 62.7966C65.6871 62.8877 62.2992 62.401 60.4734 59.6499C55.9143 61.146 42.111 65.3429 41.8708 66.2857C40.6247 71.1789 36.921 75.1306 30.186 77.6464Z" fill="url(#paint2_linear_8535_42)"/>
<path fill-rule="evenodd" clip-rule="evenodd" d="M68.9475 73.5228C82.439 63.4809 80.7026 43.3732 80.9205 42.3438C81.4747 39.726 78.217 30.8579 74.3043 32.4849C67.7897 35.1942 78.889 50.5542 77.3998 58.9783C77.0896 60.7347 71.7121 62.0287 68.0572 62.5963C67.6356 62.6613 68.01 68.3266 66.1761 70.9347C65.9139 71.3075 68.7008 73.7065 68.9475 73.5228Z" fill="url(#paint3_linear_8535_42)"/>
<path fill-rule="evenodd" clip-rule="evenodd" d="M70.8296 72.1449C88.1048 55.1717 79.3599 24.8718 73.3283 33.7216C81.6126 32.0466 82.9302 59.8495 70.8296 72.1449Z" fill="url(#paint4_linear_8535_42)"/>
<path fill-rule="evenodd" clip-rule="evenodd" d="M38.0261 72.3826C38.3457 71.9517 32.3828 69.9096 28.7787 66.6645C28.379 66.3047 28.3144 71.9139 27.9371 74.2528C27.7021 75.7062 30.1699 77.1694 30.7342 77.3515C31.2017 77.5028 36.7146 74.1524 38.0261 72.3826Z" fill="url(#paint5_linear_8535_42)"/>
<path fill-rule="evenodd" clip-rule="evenodd" d="M33.297 56.2167C31.224 45.7101 34.9964 39.5318 50.1112 37.3616C50.1844 37.5933 66.91 31.9723 72.7936 31.9341C71.1987 34.4685 72.8111 40.7254 74.7491 45.8695C74.7491 45.8695 60.5897 49.5639 33.297 56.2167Z" fill="url(#paint6_linear_8535_42)"/>
<path fill-rule="evenodd" clip-rule="evenodd" d="M40.6435 54.5424C42.4372 53.9001 47.5581 52.3511 53.6755 54.4806C57.865 55.9394 60.2698 59.6166 62.0781 61.031C66.3384 64.3627 74.2028 60.6619 75.6249 60.6842C76.2095 60.6932 65.0683 50.6822 56.6681 50.1757C45.3761 49.4947 38.3281 55.3726 40.6435 54.5424Z" fill="url(#paint7_linear_8535_42)"/>
<path fill-rule="evenodd" clip-rule="evenodd" d="M68.1963 4.75608C68.1341 8.17275 67.0592 16.3282 63.5994 21.9016C62.0167 24.4507 69.5026 18.5366 70.3084 13.4535C70.7515 10.6572 68.2475 2.0334 68.1963 4.75608Z" fill="url(#paint8_linear_8535_42)"/>
<path fill-rule="evenodd" clip-rule="evenodd" d="M56.9605 42.0258C60.717 40.1077 64.139 37.5854 66.3079 32.9016C66.6751 32.1088 64.5191 32.878 62.862 30.5257C61.2216 28.1965 61.6086 25.8328 60.2031 26.0219C55.8124 26.6126 49.958 30.7533 49.958 30.7533C49.958 30.7533 50.2946 35.2839 51.4814 37.1252C53.9284 40.9224 56.9609 42.0258 56.9609 42.0258" fill="url(#paint9_linear_8535_42)"/>
<path opacity="0.552" fill-rule="evenodd" clip-rule="evenodd" d="M62.7749 30.1032C63.8828 34.1236 70.0412 33.3951 68.7537 25.5693C68.1987 26.3808 66.812 30.837 62.7749 30.1032Z" fill="url(#paint10_linear_8535_42)"/>
<path fill-rule="evenodd" clip-rule="evenodd" d="M56.43 41.6905C54.3566 40.2801 52.5661 38.5258 51.4192 36.6695C50.2723 34.8132 49.7686 25.3482 51.6985 22.9959C52.7588 20.4086 56.5125 17.9079 60.6821 16.8037C52.7564 25.9938 55.3246 39.9232 62.3384 38.5685C62.6889 38.501 57.124 41.7112 56.43 41.6905Z" fill="url(#paint11_linear_8535_42)"/>
<path fill-rule="evenodd" clip-rule="evenodd" d="M28.7181 66.3876C30.2671 67.5333 36.9467 72.7034 38.4184 71.885C34.9993 80.2438 25.997 73.1628 28.7181 66.3872" fill="url(#paint12_linear_8535_42)"/>
<path d="M56.2559 19.4428C54.6513 20.3783 52.7218 21.4244 52.3388 22.37C51.0533 25.0711 50.5715 29.9181 50.9626 29.64C54.7777 26.9271 59.1953 26.1749 60.8024 24.7219C65.5648 20.4165 67.4138 11.5155 66.4128 12.8351C63.1734 17.106 57.9118 18.4777 56.2559 19.4428ZM31.2907 79.2114C31.2907 79.2114 26.7857 76.0956 26.8687 75.0959C27.5586 66.7888 26.084 66.3041 25.3412 66.3924C24.4436 66.4989 19.7788 69.4436 18.8689 77.7588C18.2083 83.7928 20.5927 93.22 20.9558 93.7298C22.8353 88.6792 22.1022 84.6137 31.2903 79.2118M80.5068 42.4098C80.2824 36.1822 76.5332 31.9004 73.9865 32.9034C72.9063 33.3286 72.181 36.2286 72.5603 38.0264C72.8966 39.6213 75.1891 45.7923 75.3542 46.314C75.7436 47.5474 78.3749 55.1077 77.9073 58.7402C77.4971 61.9239 68.268 63.0253 68.268 63.0253C68.268 63.0253 68.1131 65.6171 67.7947 67.3685C67.4036 69.5212 66.6279 71.2104 66.6279 71.2104C66.6279 71.2104 68.6375 73.0822 68.7188 73.0806C68.8001 73.0781 81.3663 66.285 80.5068 42.4098ZM70.8727 61.6999C71.5224 61.5182 75.3578 60.5039 75.1521 60.3689C73.7292 59.4354 72.1091 58.2601 69.3965 56.1501C54.3354 44.4365 40.6553 54.3023 40.9248 54.2129C43.4259 53.381 46.0669 52.9111 49.7356 53.1558C52.6913 53.3534 57.337 54.8511 61.4062 59.7025C62.9202 61.5068 64.6374 62.7314 70.8727 61.6999ZM64.1544 36.2741C64.6098 35.8798 66.1941 32.894 65.9087 32.8245C61.9123 31.8528 61.5228 30.0843 61.1317 28.1605C60.765 26.3583 60.8219 26.1013 60.0645 26.3514C53.9471 28.3719 52.2551 29.4822 51.3192 30.2592C49.8527 31.476 50.8813 34.7463 51.4545 36.0456C52.2538 37.8572 55.1916 41.1349 56.5584 41.3987C58.5521 41.7837 63.2641 37.6991 64.1544 36.2737M68.6005 25.2391C68.2692 23.8832 67.204 22.1371 66.9202 22.1371C66.6527 22.1371 63.8223 24.3267 63.0917 25.0898C61.4326 26.8218 62.2412 29.9604 64.0817 31.0365C67.1967 32.8583 69.484 28.8529 68.6005 25.2391ZM66.2519 20.053C67.6146 18.6915 69.4262 16.4571 69.908 13.0612C70.097 11.7301 70.2068 10.5592 69.3787 7.92763C69.1868 7.3178 68.6038 5.56351 68.5818 5.79484C68.1513 10.3576 67.5207 15.4245 64.5423 20.8093C63.6072 22.4997 64.1101 22.1923 66.2519 20.053ZM34.2887 47.2303C32.6653 54.0405 36.9678 62.9842 40.4532 63.4945C43.8223 63.9872 53.4812 61.071 58.5469 59.6623C59.8739 59.2931 60.5878 59.4858 57.652 57.0258C53.0486 53.8966 49.3336 53.4937 45.627 53.914C41.5387 54.3783 38.4753 55.5882 38.762 55.3484C40.6362 53.7791 43.9748 50.9722 50.4252 49.7013C53.2287 49.1488 57.5553 49.1004 62.7787 51.1405C69.2579 53.6709 72.6327 57.4238 75.3717 58.6959C76.3474 59.1488 76.6958 58.9382 77.0812 57.806C77.7268 55.9098 73.8015 44.069 72.3794 40.6161C70.2092 35.3472 72.7413 32.8286 72.1883 32.9505C69.5035 33.5421 67.1365 35.2675 65.1521 37.0441C60.302 41.3869 57.3451 42.3118 56.9064 42.2748C55.5213 42.1569 52.9295 39.7054 51.9875 38.4601C51.3871 37.6657 40.6329 39.7416 37.4614 42.4968C37.389 42.5598 34.942 44.1291 34.2887 47.2303ZM30.8435 76.8806C34.3903 75.3927 37.8631 72.2296 37.5626 72.1776C35.721 71.8572 28.9299 67.2038 28.9348 67.2522C29.1677 69.6537 28.6445 71.8117 28.4058 74.1921C28.3062 75.1841 29.6296 76.7225 30.8435 76.8806ZM42.2888 66.4708C41.6099 67.9832 40.9017 73.9315 31.0964 77.7486C30.8118 77.8592 39.3133 83.6721 39.7763 83.6924C67.8504 84.9251 67.6122 63.5461 67.2398 63.007C67.1857 62.929 64.7846 63.0127 62.9246 62.1301C62.7827 62.063 61.5212 61.4125 60.7691 60.4331C60.5142 60.101 60.4743 59.9204 59.5291 60.1949C55.1534 61.4666 42.0896 66.1537 42.2888 66.4708ZM33.5426 56.0428C28.5298 38.526 46.123 37.7133 48.9124 37.0388C51.0695 36.5172 50.5996 36.3144 50.1442 34.2743C49.5059 31.4097 49.7052 28.9127 50.2524 26.2359C50.7699 23.7047 51.037 22.4249 52.1306 21.1556C53.0121 20.1327 57.9785 17.7934 59.2095 17.2027C64.4561 14.6861 66.4608 11.9204 67.0454 9.74491C67.4577 8.21098 68.061 4.43085 67.7898 1.72849C67.7232 1.06337 68.1521 2.10577 70.2869 8.73828C71.3777 12.1273 70.8406 16.1965 67.4004 19.8705C66.9328 20.3694 67.1597 20.4682 67.7882 21.5061C69.0933 23.6633 69.8149 26.3603 69.6116 28.3227C69.4449 29.9303 68.7578 31.4504 69.7409 31.3325C69.8832 31.3154 74.2244 30.658 77.1963 32.5468C79.2087 33.8263 82.0761 36.2786 81.3317 46.5217C79.7022 68.952 68.7428 73.8335 68.666 73.836C68.4806 73.8425 66.4299 71.7137 66.3088 71.9642C60.0251 84.9458 47.0585 84.4795 39.8267 84.6161C38.381 84.6433 32.3689 79.5809 31.8624 79.9273C25.4616 84.3014 23.685 85.3939 21.2172 96.5732C21.1224 96.396 17.7948 90.4928 17.9326 78.6211C18.0461 68.8943 23.3601 64.3039 25.7222 64.5686C28.59 64.8898 30.0296 66.3859 34.0687 69.0399C34.7895 69.5135 37.3366 71.0539 37.9163 71.0401C39.3604 71.0055 40.3455 68.3528 40.5813 66.6347C40.8191 64.9024 41.0488 65.3211 39.6966 64.8556C37.992 64.269 35.0514 61.0759 33.5426 56.0428Z" fill="#2C3B54"/>
<path fill-rule="evenodd" clip-rule="evenodd" d="M42.456 66.3076C45.0888 64.8713 60.0329 60.1992 60.167 59.906C60.2646 59.6918 42.6381 66.9426 38.6458 64.2549C38.4051 64.0931 39.5784 64.9546 40.6387 65.1725C40.7135 65.1876 40.7082 67.9745 39.7036 69.5511C39.4219 69.9934 41.8449 66.6414 42.456 66.3076Z" fill="url(#paint13_linear_8535_42)"/>
<path fill-rule="evenodd" clip-rule="evenodd" d="M66.8063 22.1366C65.1679 23.2802 62.9095 24.878 62.4477 26.1102C62.1753 26.8367 61.9911 24.0807 63.8511 22.439C64.8988 21.5137 67.1413 21.9028 66.8063 22.1366Z" fill="url(#paint14_linear_8535_42)"/>
<path fill-rule="evenodd" clip-rule="evenodd" d="M64.6037 31.3417C66.4617 31.8959 67.8968 30.7612 68.6835 28.3161C68.7762 28.0275 68.4534 30.4575 67.2988 31.3608C66.1978 32.2219 64.2122 31.225 64.6037 31.3417Z" fill="url(#paint15_linear_8535_42)"/>
<path fill-rule="evenodd" clip-rule="evenodd" d="M69.3196 33.8657C71.952 32.4293 74.6471 32.6492 76.9445 32.7525C78.4695 32.8216 74.0718 31.043 69.0761 31.321C68.5423 31.7752 66.9567 34.4255 64.7219 37.1091C64.3865 37.5116 68.7081 34.1995 69.3192 33.8657" fill="url(#paint16_linear_8535_42)"/>
<path fill-rule="evenodd" clip-rule="evenodd" d="M44.2634 39.5472C45.8091 39.2289 47.7475 38.7036 49.031 38.5743C50.1007 38.4666 51.4415 37.8641 52.4713 38.9719C51.898 38.1857 50.8012 36.5977 50.4597 35.5581C50.7707 36.7798 49.3803 36.9526 49.0347 37.0071C41.2622 38.2349 36.5868 40.3282 34.228 44.2201C38.696 40.7636 43.9715 39.6074 44.2634 39.5472Z" fill="url(#paint17_linear_8535_42)"/>
</g>
<defs>
<linearGradient id="paint0_linear_8535_42" x1="57.3198" y1="19.0521" x2="69.4404" y2="60.5241" gradientUnits="userSpaceOnUse">
<stop stop-color="#0F3060"/>
<stop offset="0.271" stop-color="#0575CE"/>
<stop offset="0.733" stop-color="#0575CE"/>
<stop offset="1" stop-color="#0F3060"/>
</linearGradient>
<linearGradient id="paint1_linear_8535_42" x1="34.1048" y1="71.6955" x2="19.7295" y2="96.0065" gradientUnits="userSpaceOnUse">
<stop stop-color="#092D61"/>
<stop offset="1" stop-color="#0575CE"/>
</linearGradient>
<linearGradient id="paint2_linear_8535_42" x1="47.5259" y1="85.873" x2="55.8773" y2="31.5302" gradientUnits="userSpaceOnUse">
<stop stop-color="#0F3060"/>
<stop offset="0.457" stop-color="#0575CE"/>
<stop offset="0.738" stop-color="#0575CE"/>
<stop offset="1" stop-color="#0F3060"/>
</linearGradient>
<linearGradient id="paint3_linear_8535_42" x1="52.2023" y1="73.533" x2="44.1495" y2="39.238" gradientUnits="userSpaceOnUse">
<stop stop-color="#FF8000"/>
<stop offset="0.663" stop-color="#FFF4E1"/>
<stop offset="0.75" stop-color="#FFF4E1"/>
<stop offset="1" stop-color="#FF8400"/>
</linearGradient>
<linearGradient id="paint4_linear_8535_42" x1="93.4689" y1="41.8108" x2="64.8675" y2="48.0672" gradientUnits="userSpaceOnUse">
<stop stop-color="white"/>
<stop offset="1" stop-color="white" stop-opacity="0"/>
</linearGradient>
<linearGradient id="paint5_linear_8535_42" x1="32.9798" y1="67.5891" x2="27.9212" y2="75.7913" gradientUnits="userSpaceOnUse">
<stop stop-color="#FFC768"/>
<stop offset="0.378" stop-color="#FF8400"/>
<stop offset="0.774" stop-color="#FF8400"/>
<stop offset="1" stop-color="#FFC768"/>
</linearGradient>
<linearGradient id="paint6_linear_8535_42" x1="47.1004" y1="30.7962" x2="51.1052" y2="54.4115" gradientUnits="userSpaceOnUse">
<stop stop-color="white"/>
<stop offset="1" stop-color="white" stop-opacity="0"/>
</linearGradient>
<linearGradient id="paint7_linear_8535_42" x1="54.2108" y1="53.1596" x2="60.0241" y2="64.8152" gradientUnits="userSpaceOnUse">
<stop stop-color="#FF8000"/>
<stop offset="0.341" stop-color="#FFC768"/>
<stop offset="0.712" stop-color="#FFC768"/>
<stop offset="1" stop-color="#FF8400"/>
</linearGradient>
<linearGradient id="paint8_linear_8535_42" x1="65.4937" y1="14.1297" x2="71.8172" y2="13.3727" gradientUnits="userSpaceOnUse">
<stop stop-color="#FF8000"/>
<stop offset="0.5" stop-color="#FFF4E1"/>
<stop offset="0.75" stop-color="#FFF4E1"/>
<stop offset="1" stop-color="#FF8400"/>
</linearGradient>
<linearGradient id="paint9_linear_8535_42" x1="61.3832" y1="38.9869" x2="53.7827" y2="28.9258" gradientUnits="userSpaceOnUse">
<stop stop-color="#FF8000"/>
<stop offset="0.341" stop-color="#FFC768"/>
<stop offset="0.712" stop-color="#FFC768"/>
<stop offset="1" stop-color="#FF8400"/>
</linearGradient>
<linearGradient id="paint10_linear_8535_42" x1="70.8125" y1="36.8776" x2="64.5507" y2="27.9399" gradientUnits="userSpaceOnUse">
<stop stop-color="white"/>
<stop offset="1" stop-color="white" stop-opacity="0"/>
</linearGradient>
<linearGradient id="paint11_linear_8535_42" x1="38.7962" y1="37.779" x2="59.9255" y2="31.1018" gradientUnits="userSpaceOnUse">
<stop stop-color="white"/>
<stop offset="1" stop-color="white" stop-opacity="0"/>
</linearGradient>
<linearGradient id="paint12_linear_8535_42" x1="39.3946" y1="73.9345" x2="28.7185" y2="66.3872" gradientUnits="userSpaceOnUse">
<stop stop-color="white"/>
<stop offset="1" stop-color="white" stop-opacity="0"/>
</linearGradient>
<linearGradient id="paint13_linear_8535_42" x1="42.9576" y1="63.9284" x2="44.2965" y2="68.5942" gradientUnits="userSpaceOnUse">
<stop stop-color="#212A3A"/>
<stop offset="1" stop-color="#404E67" stop-opacity="0"/>
</linearGradient>
<linearGradient id="paint14_linear_8535_42" x1="62.2773" y1="26.2287" x2="67.585" y2="24.9543" gradientUnits="userSpaceOnUse">
<stop stop-color="#212A3A"/>
<stop offset="1" stop-color="#404E67" stop-opacity="0"/>
</linearGradient>
<linearGradient id="paint15_linear_8535_42" x1="67.3504" y1="31.7223" x2="64.8063" y2="31.3597" gradientUnits="userSpaceOnUse">
<stop stop-color="#212A3A"/>
<stop offset="1" stop-color="#404E67" stop-opacity="0"/>
</linearGradient>
<linearGradient id="paint16_linear_8535_42" x1="67.2378" y1="33.3546" x2="77.9243" y2="31.2877" gradientUnits="userSpaceOnUse">
<stop stop-color="#212A3A"/>
<stop offset="1" stop-color="#404E67" stop-opacity="0"/>
</linearGradient>
<linearGradient id="paint17_linear_8535_42" x1="43.4841" y1="38.7262" x2="36.2982" y2="42.182" gradientUnits="userSpaceOnUse">
<stop stop-color="#212A3A"/>
<stop offset="1" stop-color="#404E67" stop-opacity="0"/>
</linearGradient>
<clipPath id="clip0_8535_42">
<rect width="100" height="100" fill="white"/>
</clipPath>
</defs>
</svg>
