<svg width="100" height="100" viewBox="0 0 100 100" fill="none" xmlns="http://www.w3.org/2000/svg">
<path d="M21.6498 94.6946C21.4144 94.1769 21.2219 93.7113 21.2219 93.6593C21.2219 93.6069 20.4031 89.2997 20.3098 88.1927C19.9024 83.36 19.2595 82.8971 19.439 78.5882C19.5477 75.9784 19.1855 75.0879 19.9559 72.9532C21.5427 68.5574 22.7063 66.8281 24.7682 65.7991C26.4412 64.9646 28.0107 65.0779 29.4841 66.1396C29.8722 66.4195 31.1748 67.3008 32.3789 68.0988C33.5827 68.8963 35.0128 69.8635 35.5564 70.2481C36.1001 70.6323 37.007 71.1865 37.5719 71.4802C38.5678 71.9978 38.6048 72.0057 38.8068 71.7439C39.2508 71.17 40.3223 69.558 40.9013 68.7884C43.8037 64.9346 41.0706 65.3629 40.3876 65.1618C39.3138 64.8457 38.8615 64.3824 37.8577 63.2066C35.5265 60.4747 34.4219 57.4349 34.2586 53.6788C34.0692 49.3172 34.5078 45.8 36.4228 43.7983C37.244 42.9401 38.9815 41.6939 40.5699 40.8239C41.9154 40.0878 50.1669 38.5479 50.8909 38.8675C51.2526 39.0277 49.4588 34.2863 50.4909 28.1218C50.696 26.8972 52.0891 23.1075 52.2363 22.8497C52.5997 22.2128 58.5878 20.1635 60.2911 19.1632C62.1944 18.0453 66.3099 15.3528 66.6201 13.3507C67.3015 8.95012 67.4224 7.06968 67.7066 6.90475C68.1293 6.65872 70.9549 12.4847 69.0422 17.978C68.6651 19.0625 66.8646 21.5798 66.0584 22.6324C65.4781 23.3906 66.7386 23.7449 67.4637 24.8396C68.1234 25.8351 68.5568 28.2682 68.6415 29.5295C68.7281 30.8171 68.3207 33.4588 67.9557 33.9773C67.8077 34.1871 67.7471 34.3933 67.8203 34.4382C67.8928 34.4831 68.3848 34.4244 68.9135 34.3083C69.4421 34.1918 70.588 34.0064 71.4596 33.8962C73.0117 33.7005 73.0672 33.7033 74.1206 34.0273C75.7007 34.513 83.3862 36.3698 78.4822 57.8455C76.8572 64.9606 69.2748 74.3491 68.3218 73.622L65.9741 71.8321L63.2686 75.8433C61.8877 77.2616 60.3986 78.6303 59.5203 79.2889C58.1347 80.3281 55.3615 81.9649 54.9871 81.9649C54.8907 81.9649 54.3447 82.1893 53.7735 82.4629C52.1222 83.2549 49.6485 83.904 47.0284 84.076C36.8838 84.7334 40.7537 83.5084 32.3541 79.4409C31.6916 79.12 30.1663 80.7387 28.3283 82.4113C26.3656 84.1969 25.3354 85.5557 24.5572 87.3862C24.2566 88.0916 23.9527 88.7955 23.6455 89.4981C22.998 90.9734 22.4654 93.0145 22.3863 94.3234C22.3477 94.9638 22.2623 95.5208 22.1969 95.5614C22.1312 95.6019 21.8848 95.2118 21.6498 94.6946ZM32.8025 76.6224C34.1027 76.2937 34.2452 76.2212 35.6434 75.1749C36.6456 74.425 37.2668 73.0709 37.5329 72.9524C39.2779 72.1785 36.2311 71.4818 35.0919 70.7134C33.9527 69.945 32.471 69.3769 31.4621 68.6062C30.4528 67.8362 29.5789 67.2355 29.5203 67.2717C29.4612 67.3079 29.412 67.8248 29.4105 68.4204C29.4065 70.1579 29.1735 71.901 28.8479 72.6304C28.6822 73.0016 28.5149 73.7169 28.4759 74.2207C28.3862 75.3867 28.6578 75.9473 29.6226 76.5905C30.4359 77.1325 30.7736 77.1357 32.8025 76.6228V76.6224ZM79.9241 43.72C79.5006 40.8759 79.8513 36.965 77.6351 35.5412C72.5224 32.2563 71.9615 35.5136 71.6477 36.2336C71.1321 37.4177 70.814 38.3865 71.2057 39.6883C72.409 43.6877 73.9482 47.2297 74.6788 50.0726C75.5173 53.3355 76.4415 55.3986 76.534 57.9573C76.5994 59.7736 76.5825 59.9645 76.3152 60.3841C75.9349 60.9805 70.1928 62.4417 67.3015 63.2935C66.3087 63.586 67.1881 65.7034 67.0744 66.4006C66.9606 67.0973 65.4065 70.9932 65.9064 71.7766C70.8384 79.505 81.7447 55.9493 79.9241 43.72ZM69.3 62.722C70.0716 62.5366 70.7927 62.3102 70.903 62.2189C71.0132 62.128 71.2927 62.0677 71.5249 62.0851C71.9398 62.1166 73.5648 61.6052 73.69 61.4041C73.725 61.347 75.1748 60.5908 74.8847 60.3987C74.5946 60.2066 68.928 56.041 68.1156 55.6171C58.7586 50.7387 53.8396 50.4029 50.7503 51.0252C45.4578 52.0916 40.8868 54.7751 40.3369 55.4368C40.1707 55.6368 48.6231 52.8151 54.6222 55.7797C55.7307 56.3276 58.0194 57.2688 59.7396 59.1111C61.3114 60.7939 62.7447 62.5744 63.8729 62.8751C65.0955 63.201 67.6015 63.1306 69.3 62.722ZM58.0194 42.6079C60.9819 42.0895 65.5718 35.9348 65.2148 35.3585C65.1664 35.2806 66.1025 33.7269 65.9505 33.6966C60.4064 32.5912 60.5399 27.0708 60.46 27.0216C60.3801 26.9724 52.2859 30.8439 50.4205 31.65C48.838 32.3346 50.6468 36.4143 51.6014 38.9462C52.0257 40.0728 54.3636 41.575 55.3044 42.1875C56.4176 42.9118 57.7663 42.652 58.0194 42.6079ZM64.4043 23.8244C66.0041 22.5635 70.2649 16.253 69.813 13.692C67.9707 3.25842 67.1771 9.71773 67.0586 10.6487C67.0098 11.0345 66.8705 11.8887 66.7488 12.5469C66.6201 13.2485 66.5053 13.9526 66.4044 14.6588C66.3367 15.1622 66.1493 16.0491 65.9879 16.6301C65.7916 17.3432 65.6027 18.0584 65.4215 18.7755C65.2715 19.375 64.766 20.8512 64.2988 22.0561C63.8311 23.2611 63.4485 24.2755 63.4485 24.3109C63.4485 24.4869 63.7733 24.3216 64.4043 23.8244Z" fill="url(#paint0_linear_790_6078)"/>
<path fill-rule="evenodd" clip-rule="evenodd" d="M22.0693 94.364C24.5698 84.0032 26.8324 82.842 32.7871 79.0016C31.4771 78.2572 28.2531 75.7895 28.2618 74.4763C28.2842 70.6414 28.918 63.9573 24.689 66.7352C16.6646 72.0069 19.5681 88.7667 22.0689 94.364H22.0693Z" fill="url(#paint1_linear_790_6078)"/>
<path fill-rule="evenodd" clip-rule="evenodd" d="M30.8685 77.6749C34.4039 80.3461 37.529 82.7076 39.7468 83.9602C61.374 85.0537 66.7744 73.0979 67.1673 63.2966C65.2424 63.3848 61.9621 62.9135 60.1943 60.2498C55.7799 61.6984 42.4149 65.762 42.1823 66.6748C40.9758 71.4127 37.3896 75.239 30.8685 77.6749Z" fill="url(#paint2_linear_790_6078)"/>
<path fill-rule="evenodd" clip-rule="evenodd" d="M68.3993 73.6823C81.4624 63.9592 79.7812 44.49 79.9922 43.4933C80.5287 40.9586 77.3744 32.372 73.586 33.9474C67.2783 36.5706 78.0251 51.4429 76.5832 59.5996C76.2829 61.3002 71.0761 62.5531 67.5373 63.1027C67.1291 63.1657 67.4916 68.6511 65.7159 71.1763C65.462 71.5373 68.1604 73.8602 68.3993 73.6823Z" fill="url(#paint3_linear_790_6078)"/>
<path fill-rule="evenodd" clip-rule="evenodd" d="M70.2216 72.3477C86.9484 55.9135 78.4811 26.5755 72.641 35.1444C80.6623 33.5226 81.9381 60.4427 70.2216 72.3477Z" fill="url(#paint4_linear_790_6078)"/>
<path fill-rule="evenodd" clip-rule="evenodd" d="M38.4596 72.5783C38.769 72.161 32.9954 70.1837 29.5057 67.0416C29.1188 66.6933 29.0562 72.1244 28.6909 74.389C28.4634 75.7963 30.8528 77.213 31.3992 77.3894C31.8518 77.5358 37.1897 74.2918 38.4596 72.5783Z" fill="url(#paint5_linear_790_6078)"/>
<path fill-rule="evenodd" clip-rule="evenodd" d="M33.8807 56.9254C31.8735 46.7525 35.5261 40.7703 50.1611 38.669C50.2319 38.8934 66.4265 33.4508 72.1233 33.4138C70.579 35.8678 72.1402 41.926 74.0167 46.9068C74.0167 46.9068 60.3069 50.4838 33.8807 56.9254Z" fill="url(#paint6_linear_790_6078)"/>
<path fill-rule="evenodd" clip-rule="evenodd" d="M40.9939 55.3041C42.7306 54.6822 47.689 53.1824 53.6122 55.2443C57.6687 56.6567 59.9971 60.2172 61.748 61.5867C65.873 64.8126 73.4877 61.2293 74.8646 61.2509C75.4307 61.2596 64.6433 51.5665 56.5098 51.076C45.5763 50.4167 38.7521 56.108 40.9939 55.3041Z" fill="url(#paint7_linear_790_6078)"/>
<path fill-rule="evenodd" clip-rule="evenodd" d="M67.672 7.0988C67.6118 10.407 66.571 18.3035 63.2211 23.7C61.6886 26.1681 68.9368 20.4418 69.717 15.52C70.1461 12.8126 67.7216 4.46256 67.672 7.0988Z" fill="url(#paint8_linear_790_6078)"/>
<path fill-rule="evenodd" clip-rule="evenodd" d="M56.7928 43.1851C60.43 41.3279 63.7434 38.8857 65.8434 34.3505C66.1989 33.5829 64.1114 34.3277 62.5069 32.05C60.9186 29.7949 61.2933 27.5062 59.9325 27.6893C55.6811 28.2612 50.0126 32.2705 50.0126 32.2705C50.0126 32.2705 50.3386 36.6573 51.4876 38.4401C53.857 42.1167 56.7932 43.1851 56.7932 43.1851H56.7928Z" fill="url(#paint9_linear_790_6078)"/>
<path opacity="0.552" fill-rule="evenodd" clip-rule="evenodd" d="M62.4227 31.6409C63.4954 35.5336 69.4583 34.8282 68.2116 27.251C67.6743 28.0367 66.3316 32.3514 62.4227 31.6409Z" fill="url(#paint10_linear_790_6078)"/>
<path fill-rule="evenodd" clip-rule="evenodd" d="M56.2791 42.8607C54.2715 41.4952 52.5379 39.7966 51.4274 37.9992C50.3173 36.2022 49.8292 27.0374 51.6978 24.7598C52.7245 22.2546 56.359 19.8333 60.3962 18.7642C52.7221 27.6625 55.2088 41.1496 61.9999 39.8379C62.3392 39.7726 56.951 42.8808 56.2791 42.8607Z" fill="url(#paint11_linear_790_6078)"/>
<path fill-rule="evenodd" clip-rule="evenodd" d="M29.4471 66.7738C30.9469 67.8831 37.4145 72.8891 38.8395 72.0967C35.5289 80.19 26.8125 73.3339 29.4471 66.7734V66.7738Z" fill="url(#paint12_linear_790_6078)"/>
<path d="M56.1107 21.3194C54.5568 22.2249 52.6887 23.2378 52.3178 24.1535C51.073 26.7687 50.6065 31.4618 50.9854 31.1923C54.6795 28.5656 58.9562 27.8374 60.5125 26.4305C65.1239 22.2617 66.9142 13.6436 65.9452 14.921C62.8082 19.0565 57.7137 20.385 56.1107 21.3193V21.3194ZM31.9375 79.1897C31.9375 79.1897 27.5756 76.1726 27.656 75.2046C28.324 67.1615 26.8965 66.6922 26.1771 66.7774C25.3078 66.8805 20.7911 69.732 19.91 77.7831C19.2707 83.6254 21.5791 92.7532 21.9308 93.2472C23.7505 88.3566 23.0405 84.4203 31.9375 79.1896V79.1897ZM79.5913 43.5561C79.3742 37.5264 75.7438 33.3805 73.2782 34.3514C72.2321 34.7633 71.5298 37.571 71.8972 39.3118C72.2229 40.856 74.4426 46.8311 74.6022 47.3361C74.9796 48.5305 77.5273 55.8506 77.0744 59.3678C76.6774 62.4507 67.7412 63.5173 67.7412 63.5173C67.7412 63.5173 67.591 66.0266 67.283 67.7222C66.9043 69.8065 66.1534 71.4422 66.1534 71.4422C66.1534 71.4422 68.0991 73.2546 68.1777 73.2526C68.2563 73.2507 80.4233 66.6738 79.5913 43.5561ZM70.2632 62.2344C70.8922 62.0583 74.606 61.0763 74.4068 60.9458C73.0288 60.0419 71.4604 58.9039 68.8337 56.861C54.2509 45.5192 41.0052 55.0718 41.2663 54.9849C43.6878 54.1796 46.2449 53.7246 49.7975 53.9618C52.6589 54.1529 57.1571 55.6034 61.0974 60.3004C62.5631 62.0475 64.2261 63.233 70.2633 62.2343L70.2632 62.2344ZM63.7582 37.6156C64.1995 37.234 65.733 34.3431 65.4568 34.276C61.587 33.3349 61.2101 31.6227 60.8313 29.7598C60.4766 28.0149 60.5314 27.7661 59.7983 28.0082C53.8751 29.9647 52.2366 31.0398 51.3304 31.7921C49.9106 32.9704 50.9065 36.1364 51.4616 37.3948C52.2354 39.1486 55.0801 42.3222 56.4035 42.5779C58.3339 42.9506 62.8962 38.9957 63.7582 37.6156ZM68.0632 26.9318C67.7421 25.6189 66.7108 23.928 66.436 23.928C66.1772 23.928 63.4369 26.0484 62.7292 26.7872C61.1227 28.4641 61.9056 31.5027 63.6876 32.545C66.7037 34.3091 68.9186 30.4307 68.0632 26.9318ZM65.789 21.9103C67.1086 20.5921 68.8627 18.4284 69.3292 15.1403C69.5121 13.8516 69.6182 12.7179 68.8167 10.17C68.6309 9.57936 68.0663 7.88092 68.0451 8.10464C67.6283 12.5229 67.0175 17.4287 64.1338 22.6426C63.2286 24.2792 63.7154 23.9817 65.789 21.9103ZM34.841 48.2247C33.2691 54.8186 37.4349 63.4787 40.8096 63.9723C44.0717 64.4494 53.4239 61.6258 58.3287 60.2619C59.6137 59.9045 60.305 60.091 57.4621 57.7093C53.0051 54.6792 49.4078 54.2891 45.819 54.6964C41.8606 55.1457 38.8945 56.3173 39.172 56.085C40.9869 54.5653 44.2195 51.8477 50.4649 50.6172C53.1793 50.0823 57.3686 50.0353 62.4262 52.0107C68.6996 54.4608 71.9671 58.0946 74.6194 59.3261C75.5639 59.7646 75.9013 59.5607 76.2745 58.4647C76.8998 56.6285 73.0991 45.1637 71.7222 41.8205C69.6209 36.7186 72.0725 34.2799 71.5367 34.3981C68.9375 34.971 66.6456 36.6417 64.7243 38.3619C60.0278 42.5668 57.1653 43.4626 56.7404 43.4264C55.3992 43.3124 52.8896 40.9385 51.9778 39.733C51.396 38.9639 40.9835 40.9738 37.913 43.6414C37.8428 43.7024 35.4735 45.2217 34.841 48.2247ZM31.5049 76.9327C34.9392 75.4918 38.3015 72.4297 38.0106 72.3791C36.2277 72.069 29.6521 67.5633 29.6566 67.61C29.8825 69.9353 29.3757 72.0247 29.1445 74.3293C29.0482 75.2904 30.3293 76.7795 31.5049 76.9327ZM42.5866 66.8535C41.9297 68.3181 41.2438 74.0773 31.7496 77.7733C31.4745 77.8803 39.7059 83.5088 40.1538 83.5285C67.3368 84.7216 67.1064 64.0216 66.7456 63.4995C66.6934 63.424 64.3685 63.505 62.5677 62.6505C62.4303 62.5854 61.2088 61.9557 60.4805 61.0074C60.2334 60.6857 60.195 60.5109 59.2795 60.7769C55.0429 62.0082 42.3941 66.5466 42.5867 66.8534L42.5866 66.8535ZM34.1185 56.7568C29.2644 39.796 46.2991 39.0092 49 38.3561C51.0887 37.8511 50.6336 37.6547 50.1931 35.6791C49.5747 32.9054 49.7674 30.4877 50.2975 27.896C50.7988 25.4452 51.0573 24.206 52.1161 22.9772C52.9694 21.9867 57.7782 19.7215 58.9703 19.1497C64.0504 16.7132 65.9913 14.035 66.5575 11.9285C66.9566 10.4435 67.5408 6.78319 67.2782 4.16685C67.2136 3.52292 67.6291 4.53195 69.696 10.954C70.7521 14.2354 70.2321 18.1754 66.9011 21.7326C66.4487 22.2157 66.6682 22.3114 67.2764 23.3166C68.5404 25.4051 69.2391 28.0166 69.0422 29.9167C68.8809 31.4733 68.2156 32.9451 69.1673 32.8308C69.3048 32.8142 73.5085 32.1779 76.386 34.0068C78.3348 35.2455 81.1108 37.6197 80.3902 47.5377C78.8124 69.2558 68.2011 73.9823 68.1267 73.9849C67.947 73.991 65.9618 71.9298 65.8443 72.1725C59.7598 84.742 47.205 84.2904 40.203 84.4225C38.803 84.4489 32.9818 79.5474 32.4912 79.8826C26.294 84.1179 24.5735 85.1756 22.1841 96C22.0925 95.8284 18.8704 90.1127 19.0041 78.618C19.1136 69.1999 24.2589 64.7552 26.5464 65.0116C29.3232 65.3228 30.7168 66.7716 34.6275 69.341C35.3256 69.7995 37.792 71.2909 38.3533 71.2773C39.7514 71.2444 40.7054 68.6755 40.9336 67.0123C41.1637 65.3347 41.3863 65.7401 40.077 65.2896C38.4263 64.7214 35.5789 61.6302 34.1185 56.7568Z" fill="#2C3B54"/>
<path fill-rule="evenodd" clip-rule="evenodd" d="M42.7487 66.6962C45.298 65.3055 59.7676 60.7817 59.8975 60.4979C59.992 60.2905 42.9251 67.3111 39.0595 64.7087C38.8265 64.5521 39.9625 65.3862 40.9892 65.5972C41.0616 65.6118 41.0565 68.3102 40.0838 69.8368C39.811 70.265 42.1571 67.0194 42.7487 66.6962Z" fill="url(#paint13_linear_790_6078)"/>
<path fill-rule="evenodd" clip-rule="evenodd" d="M66.326 23.9276C64.7396 25.0349 62.5529 26.5819 62.1057 27.7751C61.842 28.4785 61.6636 25.81 63.4646 24.2205C64.479 23.3245 66.6503 23.7012 66.326 23.9276Z" fill="url(#paint14_linear_790_6078)"/>
<path fill-rule="evenodd" clip-rule="evenodd" d="M64.1933 32.8404C65.9923 33.3769 67.3818 32.2782 68.1435 29.9109C68.2333 29.6314 67.9207 31.9842 66.8028 32.8589C65.7368 33.6926 63.8142 32.7274 64.1933 32.8404Z" fill="url(#paint15_linear_790_6078)"/>
<path fill-rule="evenodd" clip-rule="evenodd" d="M68.7595 35.2842C71.3084 33.8934 73.9178 34.1064 76.1423 34.2064C77.6189 34.2733 73.3608 32.5511 68.5237 32.8203C68.0069 33.26 66.4717 35.8262 64.3078 38.4247C63.983 38.8144 68.1675 35.6074 68.7591 35.2842H68.7595Z" fill="url(#paint16_linear_790_6078)"/>
<path fill-rule="evenodd" clip-rule="evenodd" d="M44.4989 40.7855C45.9955 40.4773 47.8724 39.9687 49.1152 39.8435C50.1508 39.7392 51.4491 39.1559 52.4462 40.2285C51.8911 39.4672 50.8291 37.9296 50.4984 36.9231C50.7996 38.106 49.4533 38.2733 49.1187 38.3261C41.593 39.5149 37.0661 41.5417 34.7822 45.3101C39.1083 41.9633 44.2163 40.8438 44.4989 40.7855Z" fill="url(#paint17_linear_790_6078)"/>
<defs>
<linearGradient id="paint0_linear_790_6078" x1="57.1408" y1="20.9409" x2="68.8765" y2="61.0962" gradientUnits="userSpaceOnUse">
<stop stop-color="#0F3060"/>
<stop offset="0.271" stop-color="#0575CE"/>
<stop offset="0.733" stop-color="#0575CE"/>
<stop offset="1" stop-color="#0F3060"/>
</linearGradient>
<linearGradient id="paint1_linear_790_6078" x1="34.6628" y1="71.9128" x2="20.7439" y2="95.452" gradientUnits="userSpaceOnUse">
<stop stop-color="#092D61"/>
<stop offset="1" stop-color="#0575CE"/>
</linearGradient>
<linearGradient id="paint2_linear_790_6078" x1="47.6579" y1="85.6402" x2="55.7441" y2="33.0229" gradientUnits="userSpaceOnUse">
<stop stop-color="#0F3060"/>
<stop offset="0.457" stop-color="#0575CE"/>
<stop offset="0.738" stop-color="#0575CE"/>
<stop offset="1" stop-color="#0F3060"/>
</linearGradient>
<linearGradient id="paint3_linear_790_6078" x1="52.1858" y1="73.6922" x2="44.3886" y2="40.486" gradientUnits="userSpaceOnUse">
<stop stop-color="#FF8000"/>
<stop offset="0.663" stop-color="#FFF4E1"/>
<stop offset="0.75" stop-color="#FFF4E1"/>
<stop offset="1" stop-color="#FF8400"/>
</linearGradient>
<linearGradient id="paint4_linear_790_6078" x1="92.1421" y1="42.9767" x2="64.4488" y2="49.0345" gradientUnits="userSpaceOnUse">
<stop stop-color="white"/>
<stop offset="1" stop-color="white" stop-opacity="0"/>
</linearGradient>
<linearGradient id="paint5_linear_790_6078" x1="33.5735" y1="67.9369" x2="28.6754" y2="75.8786" gradientUnits="userSpaceOnUse">
<stop stop-color="#FFC768"/>
<stop offset="0.378" stop-color="#FF8400"/>
<stop offset="0.774" stop-color="#FF8400"/>
<stop offset="1" stop-color="#FFC768"/>
</linearGradient>
<linearGradient id="paint6_linear_790_6078" x1="47.2459" y1="32.312" x2="51.1235" y2="55.1776" gradientUnits="userSpaceOnUse">
<stop stop-color="white"/>
<stop offset="1" stop-color="white" stop-opacity="0"/>
</linearGradient>
<linearGradient id="paint7_linear_790_6078" x1="54.1304" y1="53.9652" x2="59.7592" y2="65.2508" gradientUnits="userSpaceOnUse">
<stop stop-color="#FF8000"/>
<stop offset="0.341" stop-color="#FFC768"/>
<stop offset="0.712" stop-color="#FFC768"/>
<stop offset="1" stop-color="#FF8400"/>
</linearGradient>
<linearGradient id="paint8_linear_790_6078" x1="65.0552" y1="16.1748" x2="71.1779" y2="15.4418" gradientUnits="userSpaceOnUse">
<stop stop-color="#FF8000"/>
<stop offset="0.5" stop-color="#FFF4E1"/>
<stop offset="0.75" stop-color="#FFF4E1"/>
<stop offset="1" stop-color="#FF8400"/>
</linearGradient>
<linearGradient id="paint9_linear_790_6078" x1="61.075" y1="40.2427" x2="53.7159" y2="30.501" gradientUnits="userSpaceOnUse">
<stop stop-color="#FF8000"/>
<stop offset="0.341" stop-color="#FFC768"/>
<stop offset="0.712" stop-color="#FFC768"/>
<stop offset="1" stop-color="#FF8400"/>
</linearGradient>
<linearGradient id="paint10_linear_790_6078" x1="70.205" y1="38.2002" x2="64.1421" y2="29.5463" gradientUnits="userSpaceOnUse">
<stop stop-color="white"/>
<stop offset="1" stop-color="white" stop-opacity="0"/>
</linearGradient>
<linearGradient id="paint11_linear_790_6078" x1="39.2051" y1="39.0735" x2="59.6636" y2="32.6083" gradientUnits="userSpaceOnUse">
<stop stop-color="white"/>
<stop offset="1" stop-color="white" stop-opacity="0"/>
</linearGradient>
<linearGradient id="paint12_linear_790_6078" x1="39.7846" y1="74.0811" x2="29.4475" y2="66.7734" gradientUnits="userSpaceOnUse">
<stop stop-color="white"/>
<stop offset="1" stop-color="white" stop-opacity="0"/>
</linearGradient>
<linearGradient id="paint13_linear_790_6078" x1="43.2344" y1="64.3925" x2="44.5308" y2="68.9102" gradientUnits="userSpaceOnUse">
<stop stop-color="#212A3A"/>
<stop offset="1" stop-color="#404E67" stop-opacity="0"/>
</linearGradient>
<linearGradient id="paint14_linear_790_6078" x1="61.9407" y1="27.8898" x2="67.08" y2="26.6559" gradientUnits="userSpaceOnUse">
<stop stop-color="#212A3A"/>
<stop offset="1" stop-color="#404E67" stop-opacity="0"/>
</linearGradient>
<linearGradient id="paint15_linear_790_6078" x1="66.8532" y1="33.2078" x2="64.39" y2="32.8567" gradientUnits="userSpaceOnUse">
<stop stop-color="#212A3A"/>
<stop offset="1" stop-color="#404E67" stop-opacity="0"/>
</linearGradient>
<linearGradient id="paint16_linear_790_6078" x1="66.7438" y1="34.7893" x2="77.091" y2="32.788" gradientUnits="userSpaceOnUse">
<stop stop-color="#212A3A"/>
<stop offset="1" stop-color="#404E67" stop-opacity="0"/>
</linearGradient>
<linearGradient id="paint17_linear_790_6078" x1="43.7443" y1="39.9906" x2="36.7866" y2="43.3367" gradientUnits="userSpaceOnUse">
<stop stop-color="#212A3A"/>
<stop offset="1" stop-color="#404E67" stop-opacity="0"/>
</linearGradient>
</defs>
</svg>
