<svg width="100" height="100" viewBox="0 0 100 100" fill="none" xmlns="http://www.w3.org/2000/svg">
<g clip-path="url(#clip0_790_6108)">
<path d="M5.12738 60.601C4.92268 59.7283 5.96226 59.1787 6.59605 59.8125L40.1875 93.4039C40.8213 94.0377 40.2716 95.0773 39.399 94.8726C22.4474 90.896 9.10397 77.5526 5.12738 60.601ZM4.00174 47.138C3.98551 47.3986 4.0835 47.6531 4.26815 47.8377L52.1623 95.7318C52.3469 95.9164 52.6014 96.0147 52.862 95.9982C55.0417 95.8624 57.1803 95.575 59.2674 95.1464C59.9708 95.0019 60.2151 94.1378 59.7074 93.6301L6.36987 40.2926C5.86216 39.7849 4.998 40.0292 4.85355 40.7326C4.42491 42.8197 4.1375 44.9583 4.00174 47.138ZM7.87406 31.329C7.72088 31.6729 7.7989 32.0747 8.06509 32.341L67.659 91.9349C67.9253 92.2011 68.3271 92.2791 68.671 92.1259C70.3142 91.394 71.9068 90.5687 73.4417 89.6567C73.9496 89.3549 74.028 88.6569 73.6102 88.2392L11.7608 26.3898C11.343 25.972 10.6451 26.0504 10.3433 26.5583C9.43131 28.0932 8.60597 29.6857 7.87406 31.329ZM15.646 20.6281C15.3055 20.2876 15.2844 19.7415 15.6052 19.3823C24.0371 9.94256 36.3025 4 49.9557 4C75.3853 4 96 24.6147 96 50.0442C96 63.6975 90.0574 75.9628 80.6177 84.3947C80.2586 84.7155 79.7124 84.6945 79.3718 84.354L15.646 20.6281Z" fill="#5D6AD3"/>
</g>
<defs>
<clipPath id="clip0_790_6108">
<rect width="92" height="92" fill="white" transform="translate(4 4)"/>
</clipPath>
</defs>
</svg>
