<svg width="100" height="100" viewBox="0 0 100 100" fill="none" xmlns="http://www.w3.org/2000/svg">
<g clip-path="url(#clip0_983_42)">
<path d="M29.117 16.8123L0.254476 74.2373C-0.0308224 74.807 -0.0782931 75.4667 0.122493 76.0714C0.32328 76.6761 0.7559 77.1764 1.32531 77.4623L16.8795 85.279C17.1615 85.421 17.4688 85.5061 17.7838 85.5294C18.0987 85.5527 18.4152 85.5137 18.715 85.4146C19.0149 85.3156 19.2923 85.1584 19.5315 84.9521C19.7706 84.7458 19.9667 84.4944 20.1086 84.2123L48.967 26.7873C49.1089 26.505 49.1938 26.1975 49.2168 25.8823C49.2397 25.5672 49.2004 25.2506 49.1009 24.9507C49.0015 24.6508 48.8439 24.3735 48.6371 24.1345C48.4304 23.8956 48.1786 23.6997 47.8961 23.5581L32.342 15.7456C32.0601 15.6032 31.7528 15.518 31.4379 15.4948C31.1229 15.4715 30.8065 15.5108 30.5068 15.6103C30.2071 15.7099 29.93 15.8677 29.6915 16.0746C29.4529 16.2816 29.2577 16.5337 29.117 16.8165V16.8123Z" fill="url(#paint0_linear_983_42)"/>
<path d="M80.1971 15.957H97.6096C98.9346 15.957 100.014 17.0404 100.014 18.3612V82.632C100.014 83.27 99.7606 83.882 99.3099 84.3335C98.8591 84.785 98.2476 85.0393 97.6096 85.0404H80.1971C79.5591 85.0393 78.9476 84.785 78.4969 84.3335C78.0461 83.882 77.793 83.27 77.793 82.632V18.3654C77.793 17.0404 78.8721 15.957 80.1971 15.957Z" fill="url(#paint1_linear_983_42)"/>
<path d="M53.4156 17.0366L41.0614 79.6325C40.9377 80.2568 41.067 80.9048 41.421 81.4338C41.775 81.9628 42.3246 82.3295 42.9489 82.4533L60.0114 85.895C61.3198 86.1575 62.5948 85.3116 62.8489 84.0033L75.1989 21.4116C75.3215 20.7874 75.1917 20.14 74.838 19.6113C74.4842 19.0825 73.9353 18.7156 73.3114 18.5908L56.2448 15.145C55.9345 15.0825 55.6149 15.0819 55.3044 15.1432C54.9938 15.2045 54.6985 15.3266 54.4352 15.5023C54.172 15.6781 53.946 15.9041 53.7703 16.1674C53.5947 16.4307 53.4768 16.7261 53.4156 17.0366Z" fill="url(#paint2_linear_983_42)"/>
</g>
<defs>
<linearGradient id="paint0_linear_983_42" x1="6.24614" y1="81.2456" x2="49.9961" y2="-0.00438142" gradientUnits="userSpaceOnUse">
<stop stop-color="#FF00FF"/>
<stop offset="0.17" stop-color="#E90CF9"/>
<stop offset="0.54" stop-color="#C023ED"/>
<stop offset="0.73" stop-color="#B02DE9"/>
<stop offset="1" stop-color="#B02DE9"/>
</linearGradient>
<linearGradient id="paint1_linear_983_42" x1="0.00963053" y1="99.9904" x2="100.01" y2="-0.00963611" gradientUnits="userSpaceOnUse">
<stop stop-color="#B02DE9"/>
<stop offset="0.02" stop-color="#B02DE9"/>
<stop offset="0.8" stop-color="#6D00CC"/>
<stop offset="1" stop-color="#6D00CC"/>
</linearGradient>
<linearGradient id="paint2_linear_983_42" x1="0.0197733" y1="100.016" x2="100.02" y2="0.0158052" gradientUnits="userSpaceOnUse">
<stop stop-color="#FF00FF"/>
<stop offset="0.02" stop-color="#FF00FF"/>
<stop offset="0.09" stop-color="#E90CF9"/>
<stop offset="0.23" stop-color="#C023ED"/>
<stop offset="0.3" stop-color="#B02DE9"/>
<stop offset="0.42" stop-color="#A42BE3"/>
<stop offset="0.63" stop-color="#8626D5"/>
<stop offset="0.85" stop-color="#6021C3"/>
<stop offset="1" stop-color="#6021C3"/>
</linearGradient>
<clipPath id="clip0_983_42">
<rect width="100" height="100" fill="white"/>
</clipPath>
</defs>
</svg>
