<svg width="100" height="100" viewBox="0 0 100 100" fill="none" xmlns="http://www.w3.org/2000/svg">
<g clip-path="url(#clip0_188_359)">
<g clip-path="url(#clip1_188_359)">
<path d="M62.9331 27.0476H37.3858V72.9515H62.9331V27.0476Z" fill="#FF5F00"/>
<path d="M39.0078 49.9997C39.0078 41.0785 43.1441 32.5627 50.1189 27.0478C37.4669 17.0722 19.0567 19.2619 9.08107 31.995C-0.813417 44.647 1.37635 62.9761 14.1094 72.9517C24.7338 81.3053 39.5756 81.3053 50.2 72.9517C43.1441 67.4368 39.0078 58.921 39.0078 49.9997Z" fill="#EB001B"/>
<path d="M97.4016 49.9997C97.4016 66.1391 84.3441 79.1966 68.2047 79.1966C61.6355 79.1966 55.3095 77.0068 50.2 72.9517C62.852 62.9761 65.0417 44.647 55.0662 31.9139C53.6063 30.1297 51.9843 28.4265 50.2 27.0478C62.852 17.0722 81.2622 19.2619 91.1567 31.995C95.2118 37.1045 97.4016 43.4305 97.4016 49.9997Z" fill="#F79E1B"/>
</g>
</g>
<defs>
<clipPath id="clip0_188_359">
<rect width="100" height="100" fill="white"/>
</clipPath>
<clipPath id="clip1_188_359">
<rect width="99.6" height="70.5827" fill="white" transform="translate(0.399994 14.7085)"/>
</clipPath>
</defs>
</svg>
