<svg width="100" height="100" viewBox="0 0 100 100" xmlns="http://www.w3.org/2000/svg">
  <g fill="#EA4B71">
    <path d="M89.47 43.56c-4.9 0-9.02-3.36-10.19-7.9H67.21c-2.57 0-4.77 1.86-5.19 2.4l-.43 2.6c-.41 2.46-1.66 4.6-3.42 6.16 1.76 1.55 3.01 3.7 3.42 6.16l.43 2.6c.42 2.54 2.62 4.4 5.19 4.4h1.54c1.17-4.54 5.29-7.9 10.19-7.9 5.81 0 10.53 4.71 10.53 10.53s-4.72 10.53-10.53 10.53c-4.9 0-9.03-3.36-10.2-7.9h-1.54c-5.15 0-9.54-3.72-10.38-8.8l-.43-2.6c-.42-2.54-2.62-4.4-5.19-4.4h-4.17c-1.17 4.54-5.29 7.9-10.19 7.9s-9.03-3.36-10.2-7.9h-5.92c-1.17 4.54-5.29 7.9-10.2 7.9C4.71 59.35 0 54.64 0 48.82s4.71-10.53 10.53-10.53c4.9 0 9.02 3.36 10.19 7.9h5.93c1.17-4.54 5.29-7.9 10.19-7.9s9.03 3.36 10.2 7.9h4.17c2.57 0 4.77-1.86 5.19-4.4l.43-2.6c.85-5.07 5.24-8.79 10.38-8.79h12.07c1.17-4.54 5.3-7.9 10.2-7.9 5.81 0 10.53 4.72 10.53 10.53s-4.72 10.53-10.53 10.53zM89.47 38.3a5.26 5.26 0 100-10.53 5.26 5.26 0 000 10.53zm-78.95 15.79a5.26 5.26 0 100-10.53 5.26 5.26 0 000 10.53zm26.32 0a5.26 5.26 0 100-10.53 5.26 5.26 0 000 10.53zm42.1 10.53a5.26 5.26 0 100-10.53 5.26 5.26 0 000 10.53z"/>
  </g>
</svg>