<svg width="100" height="100" viewBox="0 0 100 100" fill="none" xmlns="http://www.w3.org/2000/svg">
<g clip-path="url(#clip0_790_6146)">
<path d="M69.1798 15.0197L13.6677 50.2069L8.89368 42.6752V36.1854C8.89372 35.0224 9.18459 33.8779 9.73982 32.856C10.2951 31.8342 11.097 30.9674 12.0727 30.3346L44.3416 9.39554C49.2578 6.2052 55.5903 6.20472 60.5072 9.39425L69.1798 15.0197Z" fill="url(#paint0_linear_790_6146)"/>
<path d="M60.0098 9.08634C60.1775 9.18589 60.3431 9.28877 60.5067 9.3949L85.6899 25.7306L23.2476 65.3108L13.6658 50.1942L59.4928 21.09C63.8334 18.333 64.0236 12.1318 60.0098 9.08634Z" fill="url(#paint1_linear_790_6146)"/>
<path d="M60.0098 9.08634C60.1775 9.18589 60.3431 9.28877 60.5067 9.3949L85.6899 25.7306L23.2476 65.3108L13.6658 50.1942L59.4928 21.09C63.8334 18.333 64.0236 12.1318 60.0098 9.08634Z" fill="url(#paint2_linear_790_6146)"/>
<path d="M48.161 72.8685L23.2483 65.3114L76.216 31.7356C80.677 28.908 80.6655 22.3954 76.1945 19.5838L75.9559 19.4338L76.6429 19.8609L92.7632 30.3181C93.7391 30.951 94.5412 31.8179 95.0966 32.84C95.6519 33.8621 95.9428 35.0068 95.9427 36.17V42.451L48.161 72.8685Z" fill="url(#paint3_linear_790_6146)"/>
<path d="M48.161 72.8685L23.2483 65.3114L76.216 31.7356C80.677 28.908 80.6655 22.3954 76.1945 19.5838L75.9559 19.4338L76.6429 19.8609L92.7632 30.3181C93.7391 30.951 94.5412 31.8179 95.0966 32.84C95.6519 33.8621 95.9428 35.0068 95.9427 36.17V42.451L48.161 72.8685Z" fill="url(#paint4_linear_790_6146)"/>
<path d="M60.5074 9.39419C55.5905 6.20465 49.2578 6.2053 44.3409 9.39548L12.0726 30.3345C11.0969 30.9673 10.295 31.8341 9.73979 32.8559C9.18459 33.8778 8.89373 35.0222 8.89368 36.1851V36.5027C8.9323 37.6735 9.25717 38.817 9.83989 39.8332C10.4226 40.8494 11.2454 41.7074 12.2364 42.3321L52.3593 67.6275L92.5836 42.3704C93.6113 41.7252 94.4584 40.8297 95.0456 39.7677C95.6327 38.7057 95.9407 37.5121 95.9406 36.2986V42.4517L95.9419 36.1701C95.9419 33.8068 94.7447 31.6047 92.7625 30.3181L60.5074 9.39419Z" fill="url(#paint5_radial_790_6146)"/>
<path d="M45.2862 93.9969H80.8247C89.1717 93.9969 95.9381 87.2306 95.9381 78.8835V36.2983C95.9381 38.765 94.6704 41.0585 92.5817 42.3703L39.72 75.5618C38.3173 76.4427 37.1611 77.6652 36.3598 79.1149C35.5584 80.5645 35.138 82.1938 35.1381 83.8502C35.1387 89.4542 39.6816 93.997 45.2862 93.997V93.9969Z" fill="url(#paint6_linear_790_6146)"/>
<path d="M45.2862 93.9969H80.8247C89.1717 93.9969 95.9381 87.2306 95.9381 78.8835V36.2983C95.9381 38.765 94.6704 41.0585 92.5817 42.3703L39.72 75.5618C38.3173 76.4427 37.1611 77.6652 36.3598 79.1149C35.5584 80.5645 35.138 82.1938 35.1381 83.8502C35.1387 89.4542 39.6816 93.997 45.2862 93.997V93.9969Z" fill="url(#paint7_radial_790_6146)"/>
<path d="M45.2862 93.9969H80.8247C89.1717 93.9969 95.9381 87.2306 95.9381 78.8835V36.2983C95.9381 38.765 94.6704 41.0585 92.5817 42.3703L39.72 75.5618C38.3173 76.4427 37.1611 77.6652 36.3598 79.1149C35.5584 80.5645 35.138 82.1938 35.1381 83.8502C35.1387 89.4542 39.6816 93.997 45.2862 93.997V93.9969Z" fill="url(#paint8_radial_790_6146)"/>
<path d="M59.7358 93.9944H24.0014C15.6545 93.9944 8.888 87.2281 8.888 78.881V36.2668C8.88797 37.4781 9.19481 38.6696 9.77987 39.7301C10.3649 40.7907 11.2092 41.6857 12.2337 42.3317L65.0431 75.6247C66.4654 76.5215 67.6373 77.764 68.4495 79.2363C69.2616 80.7086 69.6875 82.3626 69.6874 84.0441C69.6868 89.5397 65.2316 93.9944 59.7359 93.9944H59.7358Z" fill="url(#paint9_radial_790_6146)"/>
<path d="M59.7358 93.9944H24.0014C15.6545 93.9944 8.888 87.2281 8.888 78.881V36.2668C8.88797 37.4781 9.19481 38.6696 9.77987 39.7301C10.3649 40.7907 11.2092 41.6857 12.2337 42.3317L65.0431 75.6247C66.4654 76.5215 67.6373 77.764 68.4495 79.2363C69.2616 80.7086 69.6875 82.3626 69.6874 84.0441C69.6868 89.5397 65.2316 93.9944 59.7359 93.9944H59.7358Z" fill="url(#paint10_linear_790_6146)"/>
<path d="M11.9126 48.0439H34.885C39.2257 48.0439 42.744 51.5622 42.744 55.9029V78.8753C42.744 83.216 39.2257 86.7343 34.885 86.7343H11.9126C7.57189 86.7343 4.05365 83.216 4.05365 78.8753V55.9029C4.05365 51.5622 7.57189 48.0439 11.9126 48.0439Z" fill="url(#paint11_radial_790_6146)"/>
<path d="M11.9126 48.0439H34.885C39.2257 48.0439 42.744 51.5622 42.744 55.9029V78.8753C42.744 83.216 39.2257 86.7343 34.885 86.7343H11.9126C7.57189 86.7343 4.05365 83.216 4.05365 78.8753V55.9029C4.05365 51.5622 7.57189 48.0439 11.9126 48.0439Z" fill="url(#paint12_radial_790_6146)"/>
<path d="M23.2999 78.5126C20.1002 78.5126 17.4743 77.5114 15.4208 75.51C13.3672 73.5088 12.3401 70.8967 12.3401 67.6744C12.3401 64.2713 13.3823 61.5194 15.4667 59.4173C17.5517 57.3162 20.281 56.2656 23.6557 56.2656C26.8446 56.2656 29.4398 57.2713 31.4417 59.2827C33.4542 61.2939 34.4605 63.9465 34.4605 67.2385C34.4605 70.6215 33.4176 73.3482 31.3333 75.4199C29.259 77.4818 26.5813 78.5126 23.2999 78.5126ZM23.3925 74.2644C25.1361 74.2644 26.5398 73.6687 27.6028 72.4778C28.6658 71.2871 29.1971 69.6302 29.1971 67.5087C29.1971 65.2971 28.6809 63.5762 27.6495 62.345C26.6173 61.1138 25.2394 60.4987 23.5164 60.4987C21.7413 60.4987 20.3119 61.134 19.2287 62.4048C18.1449 63.6661 17.6034 65.3374 17.6034 67.4188C17.6034 69.5308 18.1451 71.202 19.2287 72.4325C20.3119 73.6535 21.6998 74.2644 23.3925 74.2644Z" fill="white"/>
<path d="M23.2911 78.8104C20.104 78.8104 17.4876 77.7827 15.4417 75.7265C13.3962 73.6706 12.3729 70.9873 12.3729 67.6775C12.3729 64.1818 13.4114 61.355 15.4882 59.1962C17.5649 57.037 20.2842 55.9575 23.6456 55.9575C26.8219 55.9575 29.4076 56.991 31.4021 59.0571C33.407 61.1238 34.4089 63.8482 34.4089 67.2304C34.4089 70.7045 33.3704 73.5063 31.2944 75.6341C29.2277 77.7518 26.56 78.8104 23.2911 78.8104ZM23.383 74.447C25.1205 74.447 26.519 73.8349 27.5777 72.6119C28.6368 71.3883 29.1657 69.6869 29.1657 67.5074C29.1657 65.2355 28.652 63.4678 27.6243 62.2033C26.5959 60.9387 25.2239 60.3065 23.507 60.3065C21.7382 60.3065 20.3144 60.9589 19.2349 62.265C18.1558 63.5597 17.616 65.2769 17.616 67.4149C17.616 69.5842 18.1558 71.301 19.2351 72.5655C20.3144 73.8197 21.6972 74.447 23.383 74.447Z" fill="white"/>
</g>
<defs>
<linearGradient id="paint0_linear_790_6146" x1="18.5359" y1="46.5087" x2="69.1791" y2="15.097" gradientUnits="userSpaceOnUse">
<stop stop-color="#20A7FA"/>
<stop offset="0.4" stop-color="#3BD5FF"/>
<stop offset="1" stop-color="#C4B0FF"/>
</linearGradient>
<linearGradient id="paint1_linear_790_6146" x1="35.9659" y1="57.2187" x2="64.159" y2="12.0768" gradientUnits="userSpaceOnUse">
<stop stop-color="#165AD9"/>
<stop offset="0.501" stop-color="#1880E5"/>
<stop offset="1" stop-color="#8587FF"/>
</linearGradient>
<linearGradient id="paint2_linear_790_6146" x1="56.5298" y1="57.8329" x2="25.2269" y2="32.3287" gradientUnits="userSpaceOnUse">
<stop offset="0.237" stop-color="#448AFF" stop-opacity="0"/>
<stop offset="0.792" stop-color="#0032B1" stop-opacity="0.2"/>
</linearGradient>
<linearGradient id="paint3_linear_790_6146" x1="52.5448" y1="67.6553" x2="102.013" y2="35.997" gradientUnits="userSpaceOnUse">
<stop stop-color="#1A43A6"/>
<stop offset="0.492" stop-color="#2052CB"/>
<stop offset="1" stop-color="#5F20CB"/>
</linearGradient>
<linearGradient id="paint4_linear_790_6146" x1="66.5095" y1="65.7619" x2="36.4496" y2="39.7524" gradientUnits="userSpaceOnUse">
<stop stop-color="#0045B9" stop-opacity="0"/>
<stop offset="0.67" stop-color="#0D1F69" stop-opacity="0.2"/>
</linearGradient>
<radialGradient id="paint5_radial_790_6146" cx="0" cy="0" r="1" gradientUnits="userSpaceOnUse" gradientTransform="translate(52.4209 8.91346) rotate(-90) scale(65.2964 70.6732)">
<stop offset="0.568" stop-color="#275FF0" stop-opacity="0"/>
<stop offset="0.992" stop-color="#002177"/>
</radialGradient>
<linearGradient id="paint6_linear_790_6146" x1="95.9383" y1="64.8333" x2="52.0586" y2="64.8333" gradientUnits="userSpaceOnUse">
<stop stop-color="#4DC4FF"/>
<stop offset="0.196" stop-color="#0FAFFF"/>
</linearGradient>
<radialGradient id="paint7_radial_790_6146" cx="0" cy="0" r="1" gradientUnits="userSpaceOnUse" gradientTransform="translate(62.3023 84.0958) rotate(-45) scale(27.9828)">
<stop offset="0.259" stop-color="#0060D1" stop-opacity="0.4"/>
<stop offset="0.908" stop-color="#0383F1" stop-opacity="0"/>
</radialGradient>
<radialGradient id="paint8_radial_790_6146" cx="0" cy="0" r="1" gradientUnits="userSpaceOnUse" gradientTransform="translate(20.0893 104.803) rotate(-52.6577) scale(94.9881 85.8935)">
<stop offset="0.732" stop-color="#F4A7F7" stop-opacity="0"/>
<stop offset="1" stop-color="#F4A7F7" stop-opacity="0.501961"/>
</radialGradient>
<radialGradient id="paint9_radial_790_6146" cx="0" cy="0" r="1" gradientUnits="userSpaceOnUse" gradientTransform="translate(39.288 59.0029) rotate(123.339) scale(50.118 130.062)">
<stop stop-color="#49DEFF"/>
<stop offset="0.724" stop-color="#29C3FF"/>
</radialGradient>
<linearGradient id="paint10_linear_790_6146" x1="2.74301" y1="84.0067" x2="44.9904" y2="83.9776" gradientUnits="userSpaceOnUse">
<stop offset="0.206" stop-color="#6CE0FF"/>
<stop offset="0.535" stop-color="#50D5FF" stop-opacity="0"/>
</linearGradient>
<radialGradient id="paint11_radial_790_6146" cx="0" cy="0" r="1" gradientUnits="userSpaceOnUse" gradientTransform="translate(3.91574 49.5319) rotate(46.924) scale(50.9305)">
<stop offset="0.039" stop-color="#0091FF"/>
<stop offset="0.919" stop-color="#183DAD"/>
</radialGradient>
<radialGradient id="paint12_radial_790_6146" cx="0" cy="0" r="1" gradientUnits="userSpaceOnUse" gradientTransform="translate(23.3988 71.6062) rotate(90) scale(27.0832 31.2395)">
<stop offset="0.558" stop-color="#0FA5F7" stop-opacity="0"/>
<stop offset="1" stop-color="#74C6FF" stop-opacity="0.501961"/>
</radialGradient>
<clipPath id="clip0_790_6146">
<rect width="91.8927" height="87" fill="white" transform="translate(4.05365 7)"/>
</clipPath>
</defs>
</svg>
