<svg width="100" height="100" viewBox="0 0 100 100" fill="none" xmlns="http://www.w3.org/2000/svg">
<path d="M78.8633 23.2804C78.8028 22.8404 78.4173 22.5969 78.0988 22.5701C77.7808 22.5436 71.0518 22.0448 71.0518 22.0448C71.0518 22.0448 66.3785 17.4052 65.8656 16.8917C65.3523 16.3784 64.35 16.5345 63.9609 16.6491C63.9036 16.6659 62.9399 16.9634 61.3456 17.4567C59.7845 12.9645 57.0294 8.83635 52.1825 8.83635C52.0486 8.83635 51.9109 8.84177 51.7732 8.84961C50.3947 7.02662 48.6872 6.23462 47.2123 6.23462C35.9214 6.23462 30.5272 20.3493 28.8359 27.5219C24.4486 28.8814 21.3318 29.8479 20.9337 29.9729C18.4848 30.7411 18.4073 30.8183 18.0858 33.1259C17.8438 34.8729 11.436 84.4268 11.436 84.4268L61.3664 93.782L88.4204 87.9294C88.4204 87.9294 78.923 23.7204 78.8633 23.2804ZM58.586 18.3102L54.3611 19.6179C54.3626 19.3201 54.3641 19.0272 54.3641 18.7068C54.3641 15.9149 53.9765 13.667 53.3548 11.885C55.8522 12.1984 57.5155 15.04 58.586 18.3102ZM50.2567 12.4386C50.9511 14.1784 51.4025 16.6753 51.4025 20.0446C51.4025 20.217 51.401 20.3746 51.3995 20.534C48.6519 21.3851 45.6662 22.3091 42.6739 23.2361C44.3541 16.7518 47.5034 13.62 50.2567 12.4386ZM46.9021 9.26309C47.3895 9.26309 47.8804 9.42854 48.3502 9.75191C44.7317 11.4546 40.8531 15.7431 39.2151 24.3072L32.318 26.4433C34.2365 19.9111 38.7923 9.26309 46.9021 9.26309Z" fill="#95BF46"/>
<path d="M78.0989 22.5707C77.781 22.5441 71.052 22.0454 71.052 22.0454C71.052 22.0454 66.3786 17.4058 65.8657 16.8922C65.6737 16.7012 65.4149 16.6032 65.1442 16.561L61.369 93.7819L88.4205 87.9299C88.4205 87.9299 78.9231 23.721 78.8635 23.281C78.8029 22.841 78.4174 22.5975 78.0989 22.5707Z" fill="#5E8E3E"/>
<path d="M52.1826 37.5188L48.8468 47.4417C48.8468 47.4417 45.9241 45.8818 42.3414 45.8818C37.0891 45.8818 36.8248 49.1779 36.8248 50.0084C36.8248 54.5404 48.6385 56.2769 48.6385 66.8924C48.6385 75.2443 43.3414 80.6222 36.1989 80.6222C27.6279 80.6222 23.2448 75.2879 23.2448 75.2879L25.5397 67.7055C25.5397 67.7055 30.0452 71.5736 33.847 71.5736C36.3312 71.5736 37.3417 69.6177 37.3417 68.1886C37.3417 62.2769 27.6496 62.0132 27.6496 52.2992C27.6496 44.1233 33.5179 36.2114 45.3636 36.2114C49.9278 36.2114 52.1826 37.5188 52.1826 37.5188Z" fill="white"/>
</svg>
