<svg width="100" height="100" viewBox="0 0 100 100" fill="none" xmlns="http://www.w3.org/2000/svg">
<path d="M25.145 61.3661C25.145 66.3645 21.1052 70.4043 16.1068 70.4043C11.1084 70.4043 7.06854 66.3645 7.06854 61.3661C7.06854 56.3677 11.1084 52.3279 16.1068 52.3279H25.145V61.3661ZM29.6641 61.3661C29.6641 56.3677 33.7039 52.3279 38.7023 52.3279C43.7007 52.3279 47.7406 56.3677 47.7406 61.3661V83.9617C47.7406 88.9601 43.7007 92.9999 38.7023 92.9999C33.7039 92.9999 29.6641 88.9601 29.6641 83.9617V61.3661Z" fill="#E01E5A"/>
<path d="M38.7023 25.0765C33.7038 25.0765 29.664 21.0366 29.664 16.0382C29.664 11.0398 33.7038 7 38.7023 7C43.7007 7 47.7405 11.0398 47.7405 16.0382V25.0765H38.7023ZM38.7023 29.664C43.7007 29.664 47.7405 33.7038 47.7405 38.7023C47.7405 43.7007 43.7007 47.7405 38.7023 47.7405H16.0382C11.0398 47.7405 7 43.7007 7 38.7023C7 33.7038 11.0398 29.664 16.0382 29.664H38.7023Z" fill="#36C5F0"/>
<path d="M74.9237 38.7023C74.9237 33.7038 78.9635 29.664 83.9619 29.664C88.9603 29.664 93.0001 33.7038 93.0001 38.7023C93.0001 43.7007 88.9603 47.7405 83.9619 47.7405H74.9237V38.7023ZM70.4046 38.7023C70.4046 43.7007 66.3648 47.7405 61.3664 47.7405C56.3679 47.7405 52.3281 43.7007 52.3281 38.7023V16.0382C52.3281 11.0398 56.3679 7 61.3664 7C66.3648 7 70.4046 11.0398 70.4046 16.0382V38.7023Z" fill="#2EB67D"/>
<path d="M61.3664 74.9234C66.3648 74.9234 70.4046 78.9633 70.4046 83.9617C70.4046 88.9601 66.3648 92.9999 61.3664 92.9999C56.3679 92.9999 52.3281 88.9601 52.3281 83.9617V74.9234H61.3664ZM61.3664 70.4043C56.3679 70.4043 52.3281 66.3645 52.3281 61.3661C52.3281 56.3677 56.3679 52.3279 61.3664 52.3279H84.0304C89.0288 52.3279 93.0686 56.3677 93.0686 61.3661C93.0686 66.3645 89.0288 70.4043 84.0304 70.4043H61.3664Z" fill="#ECB22E"/>
</svg>
