<svg width="100" height="100" viewBox="0 0 100 100" fill="none" xmlns="http://www.w3.org/2000/svg">
<path d="M67.381 39.7673H90.1116C92.2591 39.7673 94 41.5082 94 43.6557V64.3603C94 72.2528 87.6018 78.651 79.7092 78.651H79.6416C71.7491 78.6521 65.35 72.2549 65.3488 64.3623V41.7995C65.3489 40.6772 66.2587 39.7673 67.381 39.7673Z" fill="#5059C9"/>
<path d="M82.7442 35.6742C87.8303 35.6742 91.9535 31.5511 91.9535 26.4649C91.9535 21.3788 87.8303 17.2556 82.7442 17.2556C77.658 17.2556 73.5349 21.3788 73.5349 26.4649C73.5349 31.5511 77.658 35.6742 82.7442 35.6742Z" fill="#5059C9"/>
<path d="M54.093 35.6745C61.4397 35.6745 67.3953 29.7188 67.3953 22.3722C67.3953 15.0255 61.4397 9.06982 54.093 9.06982C46.7463 9.06982 40.7906 15.0255 40.7906 22.3722C40.7906 29.7188 46.7463 35.6745 54.093 35.6745Z" fill="#7B83EB"/>
<path d="M71.8301 39.7673H34.3094C32.1875 39.8198 30.5089 41.5808 30.5581 43.7028V67.3175C30.2618 80.0514 40.3363 90.6185 53.0698 90.9301C65.8033 90.6185 75.8777 80.0514 75.5814 67.3175V43.7028C75.6306 41.5808 73.952 39.8198 71.8301 39.7673Z" fill="#7B83EB"/>
<path opacity="0.1" d="M55.1162 39.7673V72.8594C55.106 74.3769 54.1865 75.7402 52.7832 76.318C52.3364 76.507 51.8562 76.6044 51.3711 76.6045H32.359C32.093 75.9292 31.8474 75.2538 31.6427 74.558C30.9263 72.2098 30.5608 69.7685 30.5581 67.3134V43.6966C30.5089 41.578 32.1847 39.8198 34.3032 39.7673H55.1162Z" fill="black"/>
<path opacity="0.2" d="M53.0697 39.7673V74.9059C53.0697 75.391 52.9723 75.8712 52.7832 76.318C52.2054 77.7213 50.8421 78.6409 49.3246 78.651H33.3209C32.973 77.9757 32.6455 77.3003 32.359 76.6045C32.0725 75.9087 31.8474 75.2538 31.6427 74.558C30.9263 72.2098 30.5608 69.7685 30.5581 67.3134V43.6966C30.5089 41.578 32.1847 39.8198 34.3032 39.7673H53.0697Z" fill="black"/>
<path opacity="0.2" d="M53.0698 39.7673V70.8129C53.0542 72.8748 51.3865 74.5424 49.3246 74.558H31.6428C30.9264 72.2098 30.5609 69.7685 30.5581 67.3134V43.6966C30.5089 41.578 32.1847 39.8198 34.3032 39.7673H53.0698Z" fill="black"/>
<path opacity="0.2" d="M51.0232 39.7673V70.8129C51.0076 72.8748 49.34 74.5424 47.2781 74.558H31.6428C30.9264 72.2098 30.5609 69.7685 30.5581 67.3134V43.6966C30.5089 41.578 32.1847 39.8198 34.3032 39.7673H51.0232Z" fill="black"/>
<path opacity="0.1" d="M55.1163 29.187V35.6335C54.7684 35.6539 54.4409 35.6744 54.093 35.6744C53.7451 35.6744 53.4177 35.654 53.0698 35.6335C52.379 35.5876 51.6939 35.478 51.0233 35.3061C46.8791 34.3246 43.4553 31.4182 41.814 27.4884C41.5316 26.8284 41.3123 26.1432 41.1591 25.4419H51.3711C53.4363 25.4497 55.1084 27.1218 55.1163 29.187Z" fill="black"/>
<path opacity="0.2" d="M53.0698 31.2334V35.6334C52.379 35.5875 51.6939 35.4779 51.0233 35.3059C46.8791 34.3245 43.4553 31.4181 41.814 27.4883H49.3246C51.3897 27.4961 53.0619 29.1683 53.0698 31.2334Z" fill="black"/>
<path opacity="0.2" d="M53.0698 31.2334V35.6334C52.379 35.5875 51.6939 35.4779 51.0233 35.3059C46.8791 34.3245 43.4553 31.4181 41.814 27.4883H49.3246C51.3897 27.4961 53.0619 29.1683 53.0698 31.2334Z" fill="black"/>
<path opacity="0.2" d="M51.0232 31.2334V35.3059C46.879 34.3245 43.4552 31.4181 41.8139 27.4883H47.2781C49.3432 27.4961 51.0153 29.1683 51.0232 31.2334Z" fill="black"/>
<path d="M9.75124 27.4883H47.272C49.3437 27.4883 51.0232 29.1678 51.0232 31.2395V68.7602C51.0232 70.832 49.3437 72.5115 47.272 72.5115H9.75124C7.67947 72.5115 6 70.832 6 68.7602V31.2395C6 29.1678 7.67951 27.4883 9.75124 27.4883Z" fill="url(#paint0_linear_789_874)"/>
<path d="M38.384 41.7689H30.8835V62.1931H26.1049V41.7689H18.6393V37.8069H38.384V41.7689Z" fill="white"/>
<defs>
<linearGradient id="paint0_linear_789_874" x1="13.8214" y1="24.5571" x2="43.2018" y2="75.4427" gradientUnits="userSpaceOnUse">
<stop stop-color="#5A62C3"/>
<stop offset="0.5" stop-color="#4D55BD"/>
<stop offset="1" stop-color="#3940AB"/>
</linearGradient>
</defs>
</svg>
