<svg width="100" height="100" viewBox="0 0 100 100" fill="none" xmlns="http://www.w3.org/2000/svg">
<path d="M92.5157 82.8832C93.9566 80.2881 94.3667 77.2541 93.6657 74.3755C93.4647 73.5799 93.187 72.8049 92.8361 72.062C92.7255 71.8183 92.5994 71.5813 92.459 71.353L81.0339 49.9905H69.3446L81.2976 72.3792C81.673 73.0299 81.8705 73.7661 81.8705 74.5153C81.8705 75.2645 81.673 76.001 81.2976 76.6515C80.932 77.2596 80.4133 77.7631 79.792 78.1132C79.1707 78.463 78.4682 78.6473 77.7532 78.6478H64.122C63.9712 80.7323 63.3172 82.7504 62.2149 84.5327C61.1126 86.315 59.5942 87.8096 57.7872 88.8907H82.8437C84.5166 88.7808 86.1446 88.3093 87.6138 87.5102C89.687 86.4996 91.3977 84.8848 92.5157 82.8832Z" fill="black"/>
<path d="M28.4325 36.0162H40.1219L45.9475 25.2882C46.4405 24.3624 47.1795 23.5873 48.085 23.0466C48.9902 22.5059 50.0276 22.2201 51.0852 22.2201C52.1428 22.2201 53.1802 22.5059 54.0855 23.0466C54.991 23.5873 55.7299 24.3624 56.2229 25.2882L61.879 36.0162H73.5683L65.2726 20.4933C63.897 17.9286 61.842 15.7829 59.3275 14.2865C56.8132 12.7901 53.9344 11.9995 51.0003 11.9995C48.0662 11.9995 45.1876 12.7901 42.6731 14.2865C40.1588 15.7829 38.1036 17.9286 36.7281 20.4933L28.4325 36.0162Z" fill="black"/>
<path d="M37.8591 48.125C37.9817 46.0492 38.6098 44.0336 39.6898 42.2501C40.7699 40.4665 42.27 38.9679 44.0621 37.8821H21.4376V48.125H37.8591Z" fill="black"/>
<path d="M39.7253 48.8714V76.8572H45.0421C46.1509 76.845 47.2249 76.4734 48.1 75.7994C48.9753 75.1256 49.6031 74.1864 49.8873 73.1258C50.0017 72.7187 50.0589 72.2982 50.0571 71.8756V55.0841C50.0619 53.2614 50.7933 51.5138 52.0924 50.2214C53.3912 48.9288 55.1531 48.1956 56.9951 48.1809H80.6566V37.8821H50.8113C47.8692 37.8871 45.0496 39.0471 42.9711 41.1073C40.8926 43.1678 39.7253 45.9601 39.7253 48.8714Z" fill="black"/>
<path d="M9.16345 72.0624C8.81266 72.8056 8.53486 73.5803 8.33388 74.3759C7.6335 77.2608 8.04348 80.3002 9.48396 82.9024C10.605 84.897 12.3154 86.505 14.3859 87.5106C15.855 88.31 17.4831 88.7813 19.1559 88.8914H50.9998C54 88.8914 56.8771 87.7119 58.9986 85.6124C61.12 83.5132 62.312 80.6658 62.312 77.697V49.9722H56.9198C55.5943 50.0061 54.3339 50.5485 53.4049 51.485C52.4762 52.4218 51.9517 53.6789 51.9425 54.991V71.7825C51.9375 73.6052 51.2023 75.3516 49.898 76.6387C48.5939 77.9258 46.8273 78.6485 44.9853 78.6485H24.3406C23.6257 78.6478 22.9233 78.4635 22.3019 78.1136C21.6806 77.7637 21.1618 77.26 20.7961 76.6522C20.421 75.9979 20.2238 75.2587 20.2238 74.5065C20.2238 73.7543 20.421 73.0151 20.7961 72.3608L32.7494 49.9722H20.9658L9.54052 71.3347C9.40854 71.5959 9.27657 71.8199 9.16345 72.0624Z" fill="black"/>
</svg>
