<svg width="100" height="100" viewBox="0 0 100 100" fill="none" xmlns="http://www.w3.org/2000/svg">
<path d="M83.75 5H16.25C10.0368 5 5 10.0368 5 16.25V83.75C5 89.9632 10.0368 95 16.25 95H83.75C89.9632 95 95 89.9632 95 83.75V16.25C95 10.0368 89.9632 5 83.75 5Z" fill="url(#paint0_linear_789_876)"/>
<path d="M77.9 16.7002H61.25C58.2677 16.7002 55.85 19.1179 55.85 22.1002V50.6752C55.85 53.6575 58.2677 56.0752 61.25 56.0752H77.9C80.8824 56.0752 83.3 53.6575 83.3 50.6752V22.1002C83.3 19.1179 80.8824 16.7002 77.9 16.7002Z" fill="white"/>
<path d="M38.75 16.7002H22.1C19.1177 16.7002 16.7 19.1179 16.7 22.1002V73.1752C16.7 76.1575 19.1177 78.5752 22.1 78.5752H38.75C41.7323 78.5752 44.15 76.1575 44.15 73.1752V22.1002C44.15 19.1179 41.7323 16.7002 38.75 16.7002Z" fill="white"/>
<defs>
<linearGradient id="paint0_linear_789_876" x1="50" y1="5" x2="50" y2="95" gradientUnits="userSpaceOnUse">
<stop stop-color="#0079BF"/>
<stop offset="1" stop-color="#0079BF"/>
</linearGradient>
</defs>
</svg>
