<svg width="100" height="100" viewBox="0 0 100 100" fill="none" xmlns="http://www.w3.org/2000/svg">
<path d="M48.24 39.1467C48.24 44.1333 44.1333 48.24 39.1467 48.24C34.16 48.24 30.0533 44.1333 30.0533 39.1467C30.0533 34.16 34.16 30.0533 39.1467 30.0533C44.1333 30.0533 48.24 34.16 48.24 39.1467ZM39.1467 51.76C34.16 51.76 30.0533 55.8667 30.0533 60.8533C30.0533 65.84 34.16 69.9467 39.1467 69.9467C44.1333 69.9467 48.24 65.84 48.24 60.8533C48.24 55.8667 44.1333 51.76 39.1467 51.76ZM94 50C94 74.3467 74.3467 94 50 94C25.6533 94 6 74.3467 6 50C6 25.6533 25.6533 6 50 6C74.3467 6 94 25.6533 94 50ZM82.2667 50C82.2667 32.1067 67.8933 17.7333 50 17.7333C32.1067 17.7333 17.7333 32.1067 17.7333 50C17.7333 67.8933 32.1067 82.2667 50 82.2667C67.8933 82.2667 82.2667 67.8933 82.2667 50ZM60.8533 51.76C55.8667 51.76 51.76 55.8667 51.76 60.8533C51.76 65.84 55.8667 69.9467 60.8533 69.9467C65.84 69.9467 69.9467 65.84 69.9467 60.8533C69.9467 55.8667 65.84 51.76 60.8533 51.76ZM60.8533 30.0533C55.8667 30.0533 51.76 34.16 51.76 39.1467C51.76 44.1333 55.8667 48.24 60.8533 48.24C65.84 48.24 69.9467 44.1333 69.9467 39.1467C69.9467 34.16 65.84 30.0533 60.8533 30.0533Z" fill="#F22F46"/>
</svg>
