<svg width="100" height="100" viewBox="0 0 100 100" fill="none" xmlns="http://www.w3.org/2000/svg">
<path d="M20.8041 20.0002H44.7519C48.0934 20.0002 50.1819 22.7595 49.3987 26.1338L38.2428 74.4818C37.4597 77.8561 34.1007 80.6153 30.7592 80.6153H6.8114C3.46985 80.6153 1.38138 77.8561 2.16456 74.4818L13.3205 26.1338C14.1036 22.7419 17.4452 20.0002 20.7867 20.0002H20.8041Z" fill="#D10429"/>
<path d="M42.6576 20.0005H70.2079C73.5495 20.0005 72.0353 22.7597 71.2522 26.1341L60.0963 74.482C59.3131 77.8563 59.5567 80.6156 56.2152 80.6156H28.6648C25.3059 80.6156 23.2348 77.8563 24.0354 74.482L35.1913 26.1341C35.9745 22.7421 39.316 20.0005 42.675 20.0005H42.6576Z" fill="#022E64"/>
<path d="M69.2409 20.0005H93.1886C96.5302 20.0005 98.6186 22.7597 97.8355 26.1341L86.6796 74.482C85.8964 77.8563 82.5374 80.6156 79.1959 80.6156H55.2481C51.8892 80.6156 49.8181 77.8563 50.6013 74.482L61.7572 26.1341C62.5404 22.7421 65.8819 20.0005 69.2234 20.0005H69.2409Z" fill="#076F74"/>
<path d="M65.2196 65.5797H67.4821L68.1261 63.3829H65.881L65.2196 65.5797ZM67.0296 59.534L66.2464 62.1351C66.2464 62.1351 67.0992 61.6957 67.5691 61.5551C68.039 61.4497 68.7352 61.3618 68.7352 61.3618L69.2747 59.5516H67.0122L67.0296 59.534ZM68.1609 55.8082L67.4125 58.3038C67.4125 58.3038 68.2479 57.9172 68.7178 57.7941C69.1877 57.6711 69.8839 57.636 69.8839 57.636L70.4234 55.8258H68.1783L68.1609 55.8082ZM73.1558 55.8082L70.2319 65.5621H71.0151L70.406 67.5832H69.6228L69.4314 68.1983H66.6467L66.8382 67.5832H61.1993L61.7562 65.7203H62.3306L65.2892 55.8082L65.881 53.8047H68.7178L68.4219 54.8064C68.4219 54.8064 69.1703 54.2616 69.9013 54.0683C70.6148 53.875 74.7221 53.8047 74.7221 53.8047L74.113 55.7906H73.1384L73.1558 55.8082Z" fill="#FEFEFE"/>
<path d="M74.3174 53.8047H77.3456L77.3804 54.947C77.363 55.1404 77.5197 55.2282 77.8852 55.2282H78.4943L77.9374 57.1087H76.3014C74.8917 57.2142 74.3522 56.5991 74.387 55.9137L74.3348 53.8223L74.3174 53.8047ZM74.6901 62.7519H71.801L72.2884 61.0823H75.5951L76.065 59.5533H72.8105L73.3674 57.6728H82.4174L81.8605 59.5533H78.8148L78.3449 61.0823H81.3906L80.8859 62.7519H77.5965L77.0048 63.4549H78.3449L78.6756 65.5639C78.7104 65.7748 78.7104 65.9154 78.78 66.0032C78.8496 66.0735 79.2499 66.1087 79.4762 66.1087H79.8764L79.2499 68.1649H78.2231C78.0664 68.1649 77.8228 68.1473 77.4921 68.1473C77.1788 68.1122 76.97 67.9364 76.7612 67.831C76.5697 67.7431 76.2912 67.5146 76.2216 67.1104L75.9084 65.0015L74.4116 67.0753C73.9417 67.7255 73.2978 68.2352 72.2013 68.2352H70.1129L70.6698 66.4074H71.4704C71.6966 66.4074 71.9055 66.3196 72.0621 66.2317C72.2187 66.1614 72.358 66.0911 72.4972 65.8626L74.6901 62.7519ZM43.0886 58.1774H50.7289L50.172 60.0227H47.1263L46.6564 61.5869H49.7891L49.2148 63.4849H46.0995L45.3337 66.0332C45.2467 66.3144 46.0821 66.3496 46.378 66.3496L47.9443 66.1387L47.3178 68.2477H43.8022C43.5237 68.2477 43.3149 68.2125 43.0016 68.1422C42.7057 68.0719 42.5665 67.9313 42.4447 67.738C42.3229 67.5271 42.114 67.3689 42.2532 66.912L43.2627 63.5376H41.5223L42.0966 61.6044H43.837L44.3069 60.0403H42.5665L43.1234 58.1949L43.0886 58.1774ZM48.3673 54.8416H51.5L50.9257 56.7572H46.6444L46.1745 57.1614C45.9656 57.3548 45.9134 57.2845 45.6523 57.4251C45.4087 57.5481 44.904 57.7941 44.2426 57.7941H42.8677L43.4246 55.9488H43.8423C44.1904 55.9488 44.4341 55.9136 44.5559 55.8434C44.6951 55.7555 44.8518 55.5622 45.0084 55.2458L45.7916 53.8047H48.9069L48.3673 54.8592V54.8416ZM54.2718 58.005C54.2718 58.005 55.1246 57.2142 56.5865 56.9681C56.9172 56.8978 59.0056 56.933 59.0056 56.933L59.3189 55.8785H54.9157L54.2718 58.0226V58.005ZM58.4139 58.8135H54.0455L53.7845 59.7098H57.5785C58.031 59.6571 58.118 59.7274 58.1529 59.6922L58.4313 58.8135H58.4139ZM52.7402 53.8223H55.403L55.0201 55.1755C55.0201 55.1755 55.8555 54.4901 56.4473 54.2441C57.039 54.0332 58.3617 53.8223 58.3617 53.8223L62.6779 53.8047L61.1985 58.7607C60.9549 59.6043 60.659 60.1491 60.485 60.4128C60.3283 60.6588 60.1369 60.8873 59.754 61.0982C59.3885 61.2915 59.0579 61.4145 58.7446 61.4321C58.4661 61.4497 58.0136 61.4672 57.4219 61.4672H53.2624L52.0963 65.3864C51.9919 65.773 51.9397 65.9664 52.0093 66.0718C52.0615 66.1597 52.2181 66.2651 52.4096 66.2651L54.237 66.0894L53.6104 68.2335H51.5568C50.8954 68.2335 50.4255 68.2159 50.0949 68.1984C49.7816 68.1632 49.4509 68.1984 49.2247 68.0226C49.0332 67.8469 48.7373 67.6184 48.7547 67.3899C48.7722 67.179 48.8592 66.8275 48.9984 66.3354L52.7402 53.8223Z" fill="#FEFEFE"/>
<path d="M60.4997 61.7092L60.2561 62.9043C60.1516 63.2734 60.0646 63.5546 59.7862 63.8006C59.4903 64.0467 59.1596 64.3103 58.359 64.3103L56.8797 64.3806L56.8623 65.7162C56.8449 66.0853 56.9493 66.0502 57.0015 66.1205C57.0712 66.1908 57.1234 66.2083 57.193 66.2435L57.6629 66.2083L59.0726 66.138L58.4809 68.1064H56.8623C55.7311 68.1064 54.8783 68.0713 54.6172 67.8604C54.3387 67.6846 54.3039 67.4737 54.3039 67.0871L54.4084 61.8498H57.0015L56.9667 62.9219H57.5933C57.8021 62.9219 57.9588 62.9043 58.0458 62.8516C58.1328 62.7989 58.185 62.711 58.2198 62.588L58.4809 61.7444H60.5171L60.4997 61.7092ZM23.6061 35.4731C23.5191 35.8949 21.8483 43.6454 21.8483 43.6454C21.4828 45.2095 21.2218 46.3343 20.3516 47.0549C19.8469 47.4767 19.2551 47.67 18.5764 47.67C17.4799 47.67 16.8534 47.1252 16.749 46.0883L16.7316 45.7368C16.7316 45.7368 17.0623 43.6454 17.0623 43.6278C17.0623 43.6278 18.8026 36.5628 19.1159 35.6313C19.1333 35.5786 19.1333 35.5434 19.1333 35.5259C15.7396 35.561 15.1304 35.5259 15.0956 35.4731C15.0782 35.5434 14.9912 35.9828 14.9912 35.9828L13.216 43.9441L13.0594 44.612L12.7635 46.8264C12.7635 47.4767 12.8853 48.0215 13.1464 48.4608C13.9644 49.902 16.2791 50.1129 17.5844 50.1129C19.2725 50.1129 20.8563 49.7438 21.9179 49.0935C23.7802 47.9863 24.2675 46.2464 24.6852 44.7174L24.894 43.9266C24.894 43.9266 26.6866 36.5979 26.9999 35.6489C27.0173 35.5962 27.0173 35.561 27.0347 35.5434C24.5633 35.561 23.8498 35.5434 23.6061 35.4907V35.4731ZM33.5336 50.0413C32.3327 50.0238 31.8976 50.0238 30.4879 50.0941L30.4357 49.9886C30.5575 49.4438 30.6967 48.9166 30.8011 48.3717L30.9752 47.6336C31.2362 46.4913 31.4799 45.138 31.5147 44.7338C31.5495 44.4877 31.6191 43.8726 30.923 43.8726C30.6271 43.8726 30.3312 44.0132 30.018 44.1538C29.8439 44.7689 29.5133 46.4913 29.3392 47.2645C28.9911 48.9166 28.9737 49.1099 28.8171 49.9183L28.7127 50.0238C27.477 50.0062 27.0419 50.0062 25.6148 50.0765L25.5452 49.9535C25.7888 48.9693 26.0151 47.9851 26.2413 47.0009C26.8331 44.3471 26.9897 43.3278 27.1463 41.9746L27.2681 41.9043C28.6605 41.7109 28.9911 41.6582 30.5053 41.3594L30.6271 41.5L30.4009 42.3436C30.6619 42.1855 30.9056 42.0273 31.1666 41.9043C31.8802 41.5528 32.6634 41.4473 33.0985 41.4473C33.7598 41.4473 34.4908 41.6406 34.7866 42.4139C35.0651 43.0993 34.8911 43.9429 34.5082 45.6125L34.3167 46.4561C33.9338 48.319 33.8642 48.6529 33.6554 49.9183L33.5161 50.0238L33.5336 50.0413ZM38.4208 50.046C37.6898 50.046 37.2199 50.0284 36.7674 50.046C36.3149 50.046 35.8798 50.0811 35.201 50.0987L35.1662 50.046L35.1314 49.9757C35.3229 49.2727 35.4099 49.0266 35.5143 48.7806C35.6013 48.5346 35.6883 48.2885 35.8624 47.5679C36.0712 46.6365 36.2105 45.9862 36.2975 45.4063C36.4019 44.8614 36.4541 44.3869 36.5237 43.8421L36.5759 43.807L36.6282 43.7542C37.3591 43.6488 37.8116 43.5785 38.2815 43.5082C38.7514 43.4379 39.2387 43.35 39.9871 43.2094L40.0219 43.2797L40.0393 43.35C39.9001 43.93 39.7609 44.51 39.6216 45.0899C39.4824 45.6699 39.3432 46.2498 39.2213 46.8298C38.9603 48.06 38.8385 48.517 38.7862 48.8509C38.7166 49.1672 38.6992 49.3254 38.5948 49.9581L38.5252 50.0108L38.4556 50.0635L38.4208 50.046ZM46.1471 45.728C46.0949 46.0443 45.8164 47.2218 45.4509 47.7139C45.1899 48.083 44.894 48.3115 44.5459 48.3115C44.4415 48.3115 43.8498 48.3115 43.8324 47.4151C43.8324 46.9758 43.9194 46.5188 44.0238 46.0267C44.3371 44.6032 44.72 43.4257 45.6772 43.4257C46.4256 43.4257 46.4778 44.3044 46.1471 45.728ZM49.2972 45.8686C49.7149 44.0057 49.3842 43.1269 48.9839 42.5997C48.3574 41.7912 47.2435 41.5276 46.0949 41.5276C45.3987 41.5276 43.7628 41.5979 42.4749 42.793C41.5525 43.6542 41.1174 44.8317 40.8737 45.9564C40.6127 47.0988 40.3168 49.155 42.1964 49.9283C42.7707 50.1744 43.6061 50.2447 44.1456 50.2447C45.5206 50.2447 46.9303 49.858 47.9919 48.7332C48.8099 47.8194 49.1754 46.4485 49.3146 45.8686H49.2972ZM78.6332 50.2547C77.1712 50.2371 76.7535 50.2371 75.4134 50.3074L75.3264 50.202C75.6919 48.8136 76.0574 47.4076 76.3881 46.0016C76.8058 44.1738 76.9102 43.4005 77.0494 42.3285L77.1538 42.2406C78.5984 42.0297 78.9987 41.977 80.5128 41.6958L80.5476 41.8188C80.2691 42.9788 80.0081 44.1211 79.7296 45.2635C79.1727 47.6712 78.9812 48.9014 78.7724 50.1668L78.6332 50.2723V50.2547Z" fill="#FEFEFE"/>
<path d="M76.5306 45.9632C76.461 46.2619 76.1825 47.457 75.8171 47.9491C75.5734 48.3006 74.9817 48.5291 74.651 48.5291C74.5466 48.5291 73.9723 48.5291 73.9374 47.6503C73.9374 47.211 74.0245 46.754 74.1289 46.2619C74.4422 44.8735 74.825 43.696 75.7822 43.696C76.5306 43.696 76.8613 44.5572 76.5306 45.9807V45.9632ZM79.4023 46.1038C79.82 44.2408 78.1144 45.9456 77.8533 45.3305C77.4356 44.3639 77.6967 42.4307 76.0259 41.7804C75.382 41.5168 73.8678 41.8507 72.5799 43.0458C71.6749 43.8894 71.2224 45.0669 70.9788 46.1916C70.7177 47.3164 70.4219 49.3902 72.2841 50.1108C72.8758 50.3744 73.4153 50.4447 73.9548 50.4096C75.8345 50.3041 77.2616 47.4394 78.3232 46.3147C79.1412 45.4183 79.2804 46.6486 79.4023 46.1038ZM57.5485 50.0413C56.3476 50.0238 55.93 50.0238 54.5202 50.0941L54.468 49.9886C54.5899 49.4438 54.7291 48.9166 54.8509 48.3717L55.0075 47.6336C55.2686 46.4913 55.5297 45.138 55.5471 44.7338C55.5819 44.4877 55.6515 43.8726 54.9727 43.8726C54.6769 43.8726 54.3636 44.0132 54.0677 44.1538C53.9111 44.7689 53.563 46.4913 53.389 47.2645C53.0583 48.9166 53.0235 49.1099 52.8669 49.9183L52.7624 50.0238C51.5268 50.0062 51.0917 50.0062 49.6646 50.0765L49.5949 49.9535C49.8386 48.9693 50.0648 47.9851 50.2911 47.0009C50.8828 44.3471 51.0221 43.3278 51.1961 41.9746L51.3005 41.9043C52.6928 41.7109 53.0409 41.6582 54.5376 41.3594L54.6595 41.5L54.4506 42.3436C54.6943 42.1855 54.9553 42.0273 55.199 41.9043C55.9125 41.5528 56.6957 41.4473 57.1308 41.4473C57.7922 41.4473 58.5057 41.6406 58.819 42.4139C59.0975 43.0993 58.906 43.9429 58.5231 45.6125L58.3317 46.4561C57.9314 48.319 57.8792 48.6529 57.6703 49.9183L57.5311 50.0238L57.5485 50.0413ZM67.9758 35.4907L66.9664 35.5083C64.3558 35.5434 63.3116 35.5259 62.8939 35.4731C62.8591 35.6665 62.7895 36.0004 62.7895 36.0004C62.7895 36.0004 61.8497 40.3589 61.8497 40.3765C61.8497 40.3765 59.622 49.6559 59.5176 50.0953C61.7975 50.0601 62.7199 50.0601 63.1202 50.1129C63.2072 49.6735 63.7293 47.09 63.7467 47.09C63.7467 47.09 64.1992 45.1919 64.2166 45.1216C64.2166 45.1216 64.3558 44.9283 64.4951 44.8405H64.7039C66.6706 44.8405 68.8808 44.8405 70.6212 43.5575C71.8047 42.6788 72.6053 41.3607 72.9708 39.7789C73.0578 39.3923 73.1274 38.9354 73.1274 38.4608C73.1274 37.8457 73.0056 37.2482 72.6575 36.7737C71.7699 35.5259 70.0121 35.5083 67.9758 35.4907ZM69.2811 40.0426C69.0723 41.0092 68.4458 41.8352 67.6452 42.2218C66.9838 42.5557 66.1832 42.5909 65.3479 42.5909H64.8083L64.8431 42.38C64.8431 42.38 65.8352 38.0215 65.8352 38.039L65.87 37.8106L65.8874 37.6348L66.2877 37.67C66.2877 37.67 68.3413 37.8457 68.3761 37.8457C69.1767 38.1621 69.5248 38.9705 69.2811 40.0426ZM90.6748 41.5L90.553 41.3594C89.0736 41.6582 88.7952 41.7109 87.4377 41.9043L87.3332 42.0097C87.3332 42.0273 87.3158 42.0449 87.3158 42.08V42.0624C86.3064 44.435 86.3238 43.9253 85.5058 45.7883C85.5058 45.7004 85.5058 45.6477 85.4884 45.5598L85.2796 41.5176L85.1578 41.377C83.5914 41.6758 83.5566 41.7285 82.1295 41.9218L82.0251 42.0273C82.0077 42.08 82.0077 42.1327 82.0077 42.1855L82.0251 42.203C82.1991 43.1345 82.1643 42.9236 82.3383 44.3823C82.4254 45.1028 82.5298 45.8234 82.6168 46.5264C82.756 47.7215 82.843 48.3014 83.0171 50.1116C82.0425 51.7285 81.8162 52.3436 80.8764 53.7672L80.9286 53.9078C82.3383 53.855 82.6516 53.855 83.6958 53.855L83.9221 53.5914C84.7053 51.8867 90.6922 41.5176 90.6922 41.5176L90.6748 41.5ZM39.7637 42.6642C40.5643 42.1019 40.6687 41.3286 39.99 40.9244C39.3112 40.5201 38.1104 40.6432 37.3098 41.2055C36.5092 41.7504 36.4222 42.5236 37.1009 42.9454C37.7623 43.3321 38.9632 43.2266 39.7637 42.6642Z" fill="#FEFEFE"/>
<path d="M83.6908 53.8223L82.5247 55.8434C82.1593 56.5288 81.4631 57.056 80.3841 57.056L78.5219 57.0209L79.0614 55.1931H79.4269C79.6183 55.1931 79.7575 55.1755 79.862 55.1228C79.9664 55.0876 80.0186 55.0173 80.1056 54.9119L80.8018 53.8047H83.7082L83.6908 53.8223Z" fill="#FEFEFE"/>
</svg>
