<svg width="100" height="100" viewBox="0 0 100 100" fill="none" xmlns="http://www.w3.org/2000/svg">
<g clip-path="url(#clip0_188_534)">
<mask id="mask0_188_534" style="mask-type:luminance" maskUnits="userSpaceOnUse" x="-8" y="21" width="116" height="58">
<path d="M-7.2027 21.7196H107.208V78.8691H-7.2027V21.7196Z" fill="white"/>
</mask>
<g mask="url(#mask0_188_534)">
<path d="M1.79562 62.712H2.52923L1.84753 65.5565C1.74636 65.9785 1.76543 66.2963 1.90526 66.5082C2.04457 66.7204 2.30385 66.8265 2.68283 66.8265C3.05944 66.8265 3.36824 66.7204 3.60951 66.5082C3.85104 66.2963 4.0224 65.9785 4.12356 65.5565L4.805 62.712H5.54814L4.84976 65.6269C4.698 66.2603 4.4276 66.7344 4.0404 67.0487C3.65294 67.3636 3.14498 67.5208 2.51652 67.5208C1.88752 67.5208 1.4561 67.3639 1.22118 67.0503C0.986005 66.7371 0.944954 66.2624 1.09724 65.6269L1.79562 62.712Z" fill="#696A6A"/>
<path d="M5.44965 67.3959L6.61653 62.5263L8.83377 65.3898C8.8931 65.4705 8.95295 65.557 9.01201 65.6488C9.07107 65.7406 9.13145 65.8438 9.19342 65.9592L9.97179 62.7117H10.6585L9.49243 67.5776L7.22858 64.663C7.16793 64.5844 7.11152 64.5014 7.05881 64.4138C7.00558 64.3262 6.95765 64.2344 6.91368 64.1386L6.1332 67.3959H5.44965Z" fill="#696A6A"/>
<path d="M10.5977 67.396L11.7201 62.7118H12.4627L11.3406 67.396H10.5977Z" fill="#696A6A"/>
<path d="M12.4083 67.396L13.5307 62.7118H16.0811L15.9262 63.358H14.1186L13.8387 64.5258H15.6462L15.4863 65.1944H13.6785L13.1512 67.396H12.4083Z" fill="#696A6A"/>
<path d="M15.7771 67.396L16.8995 62.7118H17.6421L16.5199 67.396H15.7771Z" fill="#696A6A"/>
<path d="M17.5877 67.396L18.7101 62.7118H21.2605L21.1056 63.358H19.298L19.0165 64.5322H20.8241L20.6641 65.201H18.8566L18.4937 66.7144H20.3013L20.1381 67.396H17.5877Z" fill="#696A6A"/>
<path d="M21.8983 66.7078H22.5228C22.8661 66.7078 23.1293 66.6843 23.3123 66.6374C23.4953 66.5906 23.6632 66.5115 23.8171 66.4006C24.0261 66.2496 24.2006 66.0612 24.3409 65.836C24.481 65.6111 24.5873 65.3489 24.6588 65.0502C24.73 64.7515 24.7496 64.4901 24.7173 64.2655C24.6847 64.04 24.6005 63.8519 24.4641 63.7003C24.3616 63.5897 24.2263 63.5104 24.0573 63.4633C23.8881 63.4167 23.6126 63.3931 23.2297 63.3931H22.9611H22.6926L21.8983 66.7078ZM20.9907 67.396L22.1131 62.7116H23.115C23.7665 62.7116 24.2167 62.7449 24.4662 62.8121C24.7152 62.8796 24.9209 62.9923 25.0828 63.15C25.2976 63.3569 25.4342 63.6225 25.493 63.9464C25.5515 64.2708 25.5309 64.6409 25.4313 65.0568C25.3317 65.4728 25.1752 65.8413 24.9617 66.1623C24.7488 66.4835 24.4848 66.7483 24.1707 66.9573C23.9331 67.1153 23.6783 67.2277 23.4077 67.2952C23.1362 67.3621 22.7315 67.396 22.1923 67.396H21.9923H20.9907Z" fill="#696A6A"/>
<path d="M29.0486 64.67H29.2392C29.6511 64.67 29.9368 64.6237 30.0963 64.5322C30.256 64.4406 30.3632 64.2784 30.4188 64.0459C30.4787 63.7964 30.4477 63.6202 30.3254 63.518C30.203 63.4156 29.9456 63.364 29.5523 63.364H29.3616L29.0486 64.67ZM28.8523 65.2934L28.3486 67.396H27.6526L28.7752 62.7118H29.899C30.2319 62.7118 30.4726 62.7304 30.6209 62.7677C30.7687 62.8047 30.8908 62.8664 30.9872 62.9518C31.1045 63.0606 31.1816 63.2071 31.2187 63.3916C31.2555 63.5762 31.2475 63.7794 31.1946 64.0009C31.1411 64.2229 31.0515 64.4277 30.9255 64.6155C30.7994 64.8031 30.6516 64.9505 30.4827 65.0568C30.3455 65.1423 30.1943 65.2031 30.0285 65.2391C29.8624 65.2756 29.6132 65.2934 29.2803 65.2934H29.1338H28.8523Z" fill="#696A6A"/>
<path d="M32.1117 65.5564H33.3853L33.1726 64.4875C33.1626 64.4195 33.153 64.3411 33.1448 64.2525C33.1371 64.1639 33.1318 64.0652 33.1284 63.9564C33.0791 64.0588 33.0296 64.1543 32.9801 64.243C32.9308 64.3314 32.8829 64.4128 32.8357 64.4875L32.1117 65.5564ZM33.7251 67.396L33.4955 66.1898H31.6847L30.8651 67.396H30.0851L33.4647 62.5264L34.5085 67.396H33.7251Z" fill="#696A6A"/>
<path d="M35.5732 67.396L36.0865 65.2521L35.1563 62.7118H35.9368L36.5142 64.302C36.5274 64.3427 36.5433 64.3959 36.5616 64.4621C36.5801 64.5282 36.5981 64.5994 36.6151 64.6764C36.6617 64.6018 36.7096 64.5308 36.7576 64.465C36.8055 64.3988 36.854 64.3382 36.903 64.2827L38.2624 62.7118H39.0055L36.8232 65.2521L36.3097 67.396H35.5732Z" fill="#696A6A"/>
<path d="M42.6614 65.0821C42.6617 65.0458 42.6723 64.9458 42.693 64.7815C42.7088 64.645 42.7213 64.5317 42.7303 64.442C42.6861 64.5489 42.6339 64.6558 42.574 64.7622C42.5139 64.8688 42.4451 64.9776 42.3664 65.0887L40.5726 67.5845L39.9873 65.0376C39.9625 64.9328 39.9434 64.8315 39.9307 64.7336C39.918 64.6354 39.9092 64.5383 39.905 64.442C39.8796 64.5405 39.8472 64.6431 39.8078 64.7511C39.7683 64.8588 39.7212 64.9715 39.6658 65.0887L38.6229 67.3956H37.9396L40.1894 62.5127L40.8298 65.4694C40.8391 65.5162 40.8526 65.5943 40.869 65.703C40.8854 65.8118 40.9048 65.9462 40.9273 66.106C41.003 65.9716 41.1121 65.8012 41.2557 65.5943C41.2938 65.5387 41.3229 65.4961 41.3425 65.4662L43.3678 62.5127L43.3029 67.3956H42.6127L42.6614 65.0821Z" fill="#696A6A"/>
<path d="M43.8959 67.396L45.0186 62.7118H47.569L47.414 63.358H45.6062L45.325 64.5322H47.1325L46.9726 65.201H45.1648L44.8022 66.7144H46.6097L46.446 67.396H43.8959Z" fill="#696A6A"/>
<path d="M47.2989 67.3959L48.4658 62.5263L50.683 65.3898C50.7424 65.4705 50.8022 65.557 50.8613 65.6488C50.9203 65.7406 50.9807 65.8438 51.0427 65.9592L51.8211 62.7117H52.5081L51.3417 67.5776L49.0779 64.663C49.0172 64.5844 48.9608 64.5014 48.9081 64.4138C48.8549 64.3262 48.8069 64.2344 48.763 64.1386L47.9825 67.3959H47.2989Z" fill="#696A6A"/>
<path d="M54.8784 63.358L53.911 67.396H53.1681L54.1353 63.358H52.921L53.0759 62.7118H56.2413L56.0866 63.358H54.8784Z" fill="#696A6A"/>
<path d="M55.6494 66.4585L56.3099 66.1772C56.3166 66.386 56.3812 66.5455 56.5046 66.6553C56.628 66.7654 56.8062 66.8201 57.0398 66.8201C57.2602 66.8201 57.4509 66.7572 57.6108 66.6312C57.7711 66.5056 57.8767 66.337 57.9273 66.1259C57.9933 65.8505 57.8288 65.6052 57.4355 65.3901C57.3804 65.3581 57.338 65.3345 57.3089 65.3194C56.8653 65.0678 56.584 64.84 56.4654 64.6363C56.347 64.4326 56.3226 64.1836 56.3931 63.8894C56.4845 63.5076 56.6852 63.1983 56.9948 62.9615C57.3044 62.7247 57.6641 62.6062 58.0743 62.6062C58.4114 62.6062 58.6776 62.6728 58.8723 62.8062C59.0672 62.9398 59.1784 63.1311 59.206 63.3806L58.5521 63.6878C58.4954 63.5407 58.4207 63.433 58.328 63.3644C58.2351 63.2962 58.1175 63.2621 57.9763 63.2621C57.7766 63.2621 57.605 63.3158 57.4617 63.4219C57.3192 63.5287 57.2258 63.6716 57.1826 63.851C57.1153 64.1325 57.3105 64.3947 57.7684 64.6379C57.8036 64.6569 57.8312 64.6723 57.851 64.6829C58.2517 64.8958 58.5123 65.1046 58.6318 65.3083C58.7515 65.5123 58.7751 65.7666 58.7017 66.0714C58.5955 66.5153 58.3749 66.8678 58.0396 67.1289C57.7043 67.39 57.3044 67.5208 56.8407 67.5208C56.4511 67.5208 56.1542 67.4292 55.9498 67.2456C55.7448 67.0622 55.6447 66.8 55.6494 66.4585Z" fill="#696A6A"/>
<path d="M61.1382 67.396L62.2606 62.7118H63.0035L61.8811 67.396H61.1382Z" fill="#696A6A"/>
<path d="M62.9489 67.3959L64.1158 62.5263L66.333 65.3898C66.3924 65.4705 66.4522 65.557 66.5113 65.6488C66.5703 65.7406 66.6307 65.8438 66.6927 65.9592L67.4711 62.7117H68.1578L66.9917 67.5776L64.7278 64.663C64.6672 64.5844 64.6105 64.5014 64.5578 64.4138C64.5048 64.3262 64.4566 64.2344 64.4127 64.1386L63.6325 67.3959H62.9489Z" fill="#696A6A"/>
<path d="M70.5284 63.358L69.5606 67.396H68.818L69.7852 63.358H68.5709L68.7259 62.7118H71.8912L71.7366 63.358H70.5284Z" fill="#696A6A"/>
<path d="M71.337 67.396L72.4594 62.7118H75.0098L74.8552 63.358H73.0476L72.7661 64.5322H74.5736L74.4134 65.201H72.6059L72.2433 66.7144H74.0509L73.8874 67.396H71.337Z" fill="#696A6A"/>
<path d="M76.127 64.7081H76.2615C76.6545 64.7081 76.927 64.6615 77.0785 64.5676C77.23 64.4737 77.3349 64.3075 77.3916 64.0684C77.4535 63.8104 77.4281 63.6284 77.3145 63.5231C77.2019 63.417 76.958 63.3643 76.5835 63.3643H76.449L76.127 64.7081ZM75.9384 65.3L75.436 67.396H74.74L75.8626 62.7118H76.899C77.2027 62.7118 77.4337 62.732 77.5913 62.7727C77.7491 62.8132 77.8762 62.8801 77.9724 62.9743C78.0868 63.087 78.1609 63.2336 78.1954 63.4127C78.229 63.5916 78.2203 63.7879 78.1694 64.0009C78.0796 64.3763 77.9207 64.6703 77.693 64.8827C77.4652 65.0947 77.1733 65.2225 76.8177 65.2648L77.8807 67.396H77.0407L76.0226 65.3H75.9384Z" fill="#696A6A"/>
<path d="M78.321 67.396L79.4434 62.7118H81.9938L81.8391 63.358H80.0313L79.7514 64.5258H81.5592L81.399 65.1944H79.5914L79.0639 67.396H78.321Z" fill="#696A6A"/>
<path d="M82.8548 65.5564H84.1287L83.916 64.4875C83.9057 64.4195 83.8964 64.3411 83.8882 64.2525C83.8805 64.1639 83.8752 64.0652 83.8718 63.9564C83.8223 64.0588 83.7727 64.1543 83.7235 64.243C83.6742 64.3314 83.626 64.4128 83.5789 64.4875L82.8548 65.5564ZM84.4685 67.396L84.2389 66.1898H82.4281L81.6085 67.396H80.8282L84.2079 62.5264L85.2519 67.396H84.4685Z" fill="#696A6A"/>
<path d="M90.0877 63.851C89.9217 63.6677 89.7326 63.5301 89.5202 63.4383C89.3083 63.347 89.0731 63.3007 88.8149 63.3007C88.3157 63.3007 87.8697 63.465 87.478 63.7933C87.0858 64.1219 86.8273 64.5474 86.702 65.0702C86.581 65.5758 86.6337 65.9925 86.8599 66.3209C87.086 66.6495 87.4314 66.8141 87.8951 66.8141C88.1661 66.8141 88.4351 66.7648 88.7032 66.6667C88.9712 66.5685 89.2416 66.4204 89.5136 66.2217L89.3073 67.0826C89.0723 67.2297 88.8284 67.3398 88.576 67.412C88.3234 67.4845 88.0599 67.5208 87.7852 67.5208C87.4356 67.5208 87.1263 67.4623 86.858 67.3448C86.5895 67.2276 86.3699 67.0551 86.2001 66.8265C86.0312 66.6027 85.9229 66.3389 85.8765 66.0346C85.8294 65.7309 85.8471 65.407 85.9292 65.0633C86.0116 64.7202 86.149 64.3976 86.341 64.0957C86.5328 63.7939 86.7698 63.5287 87.0511 63.3007C87.3334 63.0702 87.6353 62.8961 87.9568 62.7773C88.2786 62.6593 88.6105 62.5998 88.9518 62.5998C89.2204 62.5998 89.4667 62.64 89.691 62.7202C89.9153 62.7998 90.1224 62.9207 90.3128 63.0835L90.0877 63.851Z" fill="#696A6A"/>
<path d="M90.1596 67.396L91.282 62.7118H93.8324L93.6775 63.358H91.8702L91.5887 64.5322H93.3962L93.236 65.201H91.4285L91.0659 66.7144H92.8734L92.71 67.396H90.1596Z" fill="#696A6A"/>
<path d="M76.6093 58.6294H71.5024L78.6049 33.0034H83.712L76.6093 58.6294Z" fill="#66686C"/>
<path d="M73.9581 33.8139C73.604 33.3263 73.0579 33.0802 72.3161 33.0802H44.2335L42.8426 38.0994H47.9524V38.0964H68.3898L66.903 43.46H46.465L46.4669 43.4489H41.3592L37.1199 58.7383H42.2303L45.0752 48.4762H68.049C68.7664 48.4762 69.4418 48.2318 70.0769 47.7428C70.7106 47.2533 71.1277 46.6498 71.3277 45.9291L74.1724 35.6649C74.38 34.9201 74.3082 34.3021 73.9581 33.8139Z" fill="#66686C"/>
<path d="M34.144 57.0302C33.862 58.0449 32.9371 58.7468 31.8828 58.7468H5.53359C4.81561 58.7468 4.28196 58.5024 3.93105 58.0139C3.5804 57.525 3.50518 56.9202 3.70567 56.1997L10.1349 33.0787H15.2466L9.50408 53.7293H29.9513L35.6938 33.0787H40.8045L34.144 57.0302Z" fill="#66686C"/>
<path d="M92.5323 33.0512L98.9981 45.8975L85.4059 58.7402L92.5323 33.0512Z" fill="#27803B"/>
<path d="M87.9998 33.0512L94.4608 45.8975L80.8632 58.7402L87.9998 33.0512Z" fill="#E9661C"/>
</g>
</g>
<defs>
<clipPath id="clip0_188_534">
<rect width="98" height="34.6221" fill="white" transform="translate(1 33)"/>
</clipPath>
</defs>
</svg>
