<svg width="100" height="100" viewBox="0 0 100 100" fill="none" xmlns="http://www.w3.org/2000/svg">
<g clip-path="url(#clip0_188_534)">
<mask id="mask0_188_534" style="mask-type:luminance" maskUnits="userSpaceOnUse" x="-8" y="21" width="116" height="58">
<path d="M-7.20264 21.7196H107.208V78.8691H-7.20264V21.7196Z" fill="white"/>
</mask>
<g mask="url(#mask0_188_534)">
<path d="M1.79568 62.712H2.52929L1.84759 65.5565C1.74642 65.9785 1.76549 66.2963 1.90533 66.5082C2.04463 66.7204 2.30391 66.8265 2.6829 66.8265C3.0595 66.8265 3.3683 66.7204 3.60957 66.5082C3.8511 66.2963 4.02246 65.9785 4.12363 65.5565L4.80506 62.712H5.5482L4.84982 65.6269C4.69806 66.2603 4.42766 66.7344 4.04047 67.0487C3.653 67.3636 3.14504 67.5208 2.51658 67.5208C1.88758 67.5208 1.45616 67.3639 1.22124 67.0503C0.986066 66.7371 0.945015 66.2624 1.0973 65.6269L1.79568 62.712Z" fill="#696A6A"/>
<path d="M5.44971 67.3959L6.61659 62.5263L8.83383 65.3898C8.89316 65.4705 8.95301 65.557 9.01207 65.6488C9.07113 65.7406 9.13151 65.8438 9.19349 65.9592L9.97185 62.7117H10.6586L9.49249 67.5776L7.22864 64.663C7.16799 64.5844 7.11158 64.5014 7.05888 64.4138C7.00564 64.3262 6.95771 64.2344 6.91374 64.1386L6.13326 67.3959H5.44971Z" fill="#696A6A"/>
<path d="M10.5978 67.396L11.7202 62.7118H12.4628L11.3407 67.396H10.5978Z" fill="#696A6A"/>
<path d="M12.4083 67.396L13.5307 62.7118H16.0811L15.9262 63.358H14.1187L13.8387 64.5258H15.6463L15.4863 65.1944H13.6785L13.1512 67.396H12.4083Z" fill="#696A6A"/>
<path d="M15.7771 67.396L16.8995 62.7118H17.6421L16.52 67.396H15.7771Z" fill="#696A6A"/>
<path d="M17.5878 67.396L18.7102 62.7118H21.2606L21.1056 63.358H19.2981L19.0166 64.5322H20.8241L20.6642 65.201H18.8566L18.4938 66.7144H20.3013L20.1382 67.396H17.5878Z" fill="#696A6A"/>
<path d="M21.8984 66.7078H22.5229C22.8661 66.7078 23.1294 66.6843 23.3124 66.6374C23.4954 66.5906 23.6633 66.5115 23.8172 66.4006C24.0261 66.2496 24.2006 66.0612 24.341 65.836C24.4811 65.6111 24.5873 65.3489 24.6588 65.0502C24.7301 64.7515 24.7497 64.4901 24.7173 64.2655C24.6848 64.04 24.6006 63.8519 24.4642 63.7003C24.3617 63.5897 24.2263 63.5104 24.0574 63.4633C23.8881 63.4167 23.6127 63.3931 23.2297 63.3931H22.9612H22.6926L21.8984 66.7078ZM20.9908 67.396L22.1132 62.7116H23.1151C23.7666 62.7116 24.2168 62.7449 24.4663 62.8121C24.7152 62.8796 24.921 62.9923 25.0828 63.15C25.2976 63.3569 25.4343 63.6225 25.4931 63.9464C25.5516 64.2708 25.5309 64.6409 25.4314 65.0568C25.3318 65.4728 25.1753 65.8413 24.9618 66.1623C24.7489 66.4835 24.4848 66.7483 24.1707 66.9573C23.9332 67.1153 23.6784 67.2277 23.4077 67.2952C23.1363 67.3621 22.7316 67.396 22.1924 67.396H21.9924H20.9908Z" fill="#696A6A"/>
<path d="M29.0486 64.67H29.2393C29.6511 64.67 29.9369 64.6237 30.0963 64.5322C30.256 64.4406 30.3633 64.2784 30.4189 64.0459C30.4788 63.7964 30.4478 63.6202 30.3254 63.518C30.2031 63.4156 29.9456 63.364 29.5523 63.364H29.3617L29.0486 64.67ZM28.8524 65.2934L28.3486 67.396H27.6526L28.7753 62.7118H29.899C30.2319 62.7118 30.4727 62.7304 30.621 62.7677C30.7688 62.8047 30.8908 62.8664 30.9872 62.9518C31.1046 63.0606 31.1816 63.2071 31.2187 63.3916C31.2555 63.5762 31.2476 63.7794 31.1946 64.0009C31.1411 64.2229 31.0516 64.4277 30.9255 64.6155C30.7995 64.8031 30.6517 64.9505 30.4827 65.0568C30.3455 65.1423 30.1943 65.2031 30.0285 65.2391C29.8625 65.2756 29.6133 65.2934 29.2804 65.2934H29.1339H28.8524Z" fill="#696A6A"/>
<path d="M32.1118 65.5564H33.3854L33.1727 64.4875C33.1626 64.4195 33.1531 64.3411 33.1449 64.2525C33.1372 64.1639 33.1319 64.0652 33.1285 63.9564C33.0792 64.0588 33.0297 64.1543 32.9802 64.243C32.9309 64.3314 32.883 64.4128 32.8358 64.4875L32.1118 65.5564ZM33.7252 67.396L33.4956 66.1898H31.6848L30.8652 67.396H30.0852L33.4648 62.5264L34.5086 67.396H33.7252Z" fill="#696A6A"/>
<path d="M35.5732 67.396L36.0865 65.2521L35.1564 62.7118H35.9369L36.5142 64.302C36.5274 64.3427 36.5433 64.3959 36.5616 64.4621C36.5802 64.5282 36.5982 64.5994 36.6151 64.6764C36.6617 64.6018 36.7097 64.5308 36.7576 64.465C36.8055 64.3988 36.854 64.3382 36.903 64.2827L38.2624 62.7118H39.0056L36.8233 65.2521L36.3098 67.396H35.5732Z" fill="#696A6A"/>
<path d="M42.6615 65.0821C42.6618 65.0458 42.6724 64.9458 42.693 64.7815C42.7089 64.645 42.7214 64.5317 42.7304 64.442C42.6862 64.5489 42.634 64.6558 42.5741 64.7622C42.514 64.8688 42.4452 64.9776 42.3665 65.0887L40.5727 67.5845L39.9874 65.0376C39.9625 64.9328 39.9435 64.8315 39.9308 64.7336C39.9181 64.6354 39.9093 64.5383 39.9051 64.442C39.8797 64.5405 39.8473 64.6431 39.8079 64.7511C39.7684 64.8588 39.7213 64.9715 39.6659 65.0887L38.623 67.3956H37.9397L40.1895 62.5127L40.8299 65.4694C40.8392 65.5162 40.8527 65.5943 40.8691 65.703C40.8855 65.8118 40.9048 65.9462 40.9274 66.106C41.0031 65.9716 41.1122 65.8012 41.2558 65.5943C41.2939 65.5387 41.323 65.4961 41.3426 65.4662L43.3679 62.5127L43.303 67.3956H42.6128L42.6615 65.0821Z" fill="#696A6A"/>
<path d="M43.896 67.396L45.0187 62.7118H47.5691L47.4141 63.358H45.6063L45.3251 64.5322H47.1326L46.9726 65.201H45.1648L44.8023 66.7144H46.6098L46.4461 67.396H43.896Z" fill="#696A6A"/>
<path d="M47.299 67.3959L48.4658 62.5263L50.6831 65.3898C50.7424 65.4705 50.8023 65.557 50.8613 65.6488C50.9204 65.7406 50.9808 65.8438 51.0427 65.9592L51.8211 62.7117H52.5081L51.3417 67.5776L49.0779 64.663C49.0172 64.5844 48.9608 64.5014 48.9081 64.4138C48.8549 64.3262 48.8069 64.2344 48.763 64.1386L47.9825 67.3959H47.299Z" fill="#696A6A"/>
<path d="M54.8785 63.358L53.911 67.396H53.1681L54.1353 63.358H52.921L53.076 62.7118H56.2413L56.0867 63.358H54.8785Z" fill="#696A6A"/>
<path d="M55.6495 66.4585L56.31 66.1772C56.3166 66.386 56.3812 66.5455 56.5046 66.6553C56.628 66.7654 56.8063 66.8201 57.0399 66.8201C57.2602 66.8201 57.4509 66.7572 57.6109 66.6312C57.7711 66.5056 57.8768 66.337 57.9273 66.1259C57.9933 65.8505 57.8288 65.6052 57.4355 65.3901C57.3804 65.3581 57.3381 65.3345 57.3089 65.3194C56.8653 65.0678 56.5841 64.84 56.4654 64.6363C56.347 64.4326 56.3227 64.1836 56.3931 63.8894C56.4845 63.5076 56.6852 63.1983 56.9948 62.9615C57.3044 62.7247 57.6641 62.6062 58.0743 62.6062C58.4115 62.6062 58.6776 62.6728 58.8723 62.8062C59.0672 62.9398 59.1784 63.1311 59.206 63.3806L58.5521 63.6878C58.4954 63.5407 58.4207 63.433 58.328 63.3644C58.2351 63.2962 58.1175 63.2621 57.9763 63.2621C57.7766 63.2621 57.605 63.3158 57.4618 63.4219C57.3193 63.5287 57.2258 63.6716 57.1826 63.851C57.1153 64.1325 57.3105 64.3947 57.7684 64.6379C57.8037 64.6569 57.8312 64.6723 57.8511 64.6829C58.2518 64.8958 58.5124 65.1046 58.6318 65.3083C58.7515 65.5123 58.7751 65.7666 58.7017 66.0714C58.5955 66.5153 58.3749 66.8678 58.0396 67.1289C57.7043 67.39 57.3044 67.5208 56.8407 67.5208C56.4511 67.5208 56.1542 67.4292 55.9498 67.2456C55.7448 67.0622 55.6447 66.8 55.6495 66.4585Z" fill="#696A6A"/>
<path d="M61.1382 67.396L62.2606 62.7118H63.0035L61.8811 67.396H61.1382Z" fill="#696A6A"/>
<path d="M62.949 67.3959L64.1159 62.5263L66.3331 65.3898C66.3924 65.4705 66.4523 65.557 66.5113 65.6488C66.5704 65.7406 66.6308 65.8438 66.6928 65.9592L67.4711 62.7117H68.1578L66.9918 67.5776L64.7279 64.663C64.6673 64.5844 64.6106 64.5014 64.5579 64.4138C64.5049 64.3262 64.4567 64.2344 64.4127 64.1386L63.6325 67.3959H62.949Z" fill="#696A6A"/>
<path d="M70.5284 63.358L69.5607 67.396H68.8181L69.7853 63.358H68.571L68.7259 62.7118H71.8913L71.7366 63.358H70.5284Z" fill="#696A6A"/>
<path d="M71.3371 67.396L72.4595 62.7118H75.0099L74.8552 63.358H73.0477L72.7662 64.5322H74.5737L74.4135 65.201H72.6059L72.2434 66.7144H74.0509L73.8875 67.396H71.3371Z" fill="#696A6A"/>
<path d="M76.127 64.7081H76.2616C76.6546 64.7081 76.9271 64.6615 77.0786 64.5676C77.2301 64.4737 77.335 64.3075 77.3916 64.0684C77.4536 63.8104 77.4282 63.6284 77.3146 63.5231C77.202 63.417 76.9581 63.3643 76.5836 63.3643H76.4491L76.127 64.7081ZM75.9385 65.3L75.4361 67.396H74.7401L75.8627 62.7118H76.899C77.2028 62.7118 77.4337 62.732 77.5913 62.7727C77.7492 62.8132 77.8763 62.8801 77.9724 62.9743C78.0868 63.087 78.161 63.2336 78.1954 63.4127C78.2291 63.5916 78.2203 63.7879 78.1695 64.0009C78.0797 64.3763 77.9208 64.6703 77.693 64.8827C77.4653 65.0947 77.1734 65.2225 76.8177 65.2648L77.8808 67.396H77.0407L76.0227 65.3H75.9385Z" fill="#696A6A"/>
<path d="M78.321 67.396L79.4434 62.7118H81.9938L81.8392 63.358H80.0314L79.7514 64.5258H81.5592L81.399 65.1944H79.5915L79.0639 67.396H78.321Z" fill="#696A6A"/>
<path d="M82.8549 65.5564H84.1287L83.9161 64.4875C83.9057 64.4195 83.8965 64.3411 83.8883 64.2525C83.8806 64.1639 83.8753 64.0652 83.8718 63.9564C83.8223 64.0588 83.7728 64.1543 83.7235 64.243C83.6743 64.3314 83.6261 64.4128 83.5789 64.4875L82.8549 65.5564ZM84.4685 67.396L84.2389 66.1898H82.4282L81.6085 67.396H80.8283L84.2079 62.5264L85.2519 67.396H84.4685Z" fill="#696A6A"/>
<path d="M90.0878 63.851C89.9218 63.6677 89.7327 63.5301 89.5203 63.4383C89.3084 63.347 89.0732 63.3007 88.815 63.3007C88.3158 63.3007 87.8698 63.465 87.4781 63.7933C87.0859 64.1219 86.8274 64.5474 86.7021 65.0702C86.5811 65.5758 86.6338 65.9925 86.86 66.3209C87.0861 66.6495 87.4315 66.8141 87.8952 66.8141C88.1661 66.8141 88.4352 66.7648 88.7032 66.6667C88.9713 66.5685 89.2417 66.4204 89.5137 66.2217L89.3073 67.0826C89.0724 67.2297 88.8285 67.3398 88.5761 67.412C88.3235 67.4845 88.0599 67.5208 87.7853 67.5208C87.4357 67.5208 87.1264 67.4623 86.8581 67.3448C86.5896 67.2276 86.37 67.0551 86.2002 66.8265C86.0313 66.6027 85.923 66.3389 85.8766 66.0346C85.8295 65.7309 85.8472 65.407 85.9293 65.0633C86.0117 64.7202 86.1491 64.3976 86.3411 64.0957C86.5329 63.7939 86.7699 63.5287 87.0512 63.3007C87.3335 63.0702 87.6354 62.8961 87.9569 62.7773C88.2787 62.6593 88.6105 62.5998 88.9519 62.5998C89.2205 62.5998 89.4668 62.64 89.6911 62.7202C89.9154 62.7998 90.1225 62.9207 90.3129 63.0835L90.0878 63.851Z" fill="#696A6A"/>
<path d="M90.1597 67.396L91.2821 62.7118H93.8325L93.6775 63.358H91.8703L91.5887 64.5322H93.3963L93.236 65.201H91.4285L91.066 66.7144H92.8735L92.7101 67.396H90.1597Z" fill="#696A6A"/>
<path d="M76.6094 58.6294H71.5024L78.6049 33.0034H83.7121L76.6094 58.6294Z" fill="#66686C"/>
<path d="M73.9582 33.8139C73.6041 33.3263 73.058 33.0802 72.3162 33.0802H44.2336L42.8427 38.0994H47.9525V38.0964H68.3899L66.9031 43.46H46.4651L46.467 43.4489H41.3593L37.12 58.7383H42.2303L45.0753 48.4762H68.0491C68.7665 48.4762 69.4419 48.2318 70.077 47.7428C70.7107 47.2533 71.1278 46.6498 71.3278 45.9291L74.1724 35.6649C74.3801 34.9201 74.3083 34.3021 73.9582 33.8139Z" fill="#66686C"/>
<path d="M34.1441 57.0302C33.862 58.0449 32.9372 58.7468 31.8829 58.7468H5.53366C4.81567 58.7468 4.28202 58.5024 3.93111 58.0139C3.58046 57.525 3.50525 56.9202 3.70573 56.1997L10.135 33.0787H15.2467L9.50414 53.7293H29.9514L35.6939 33.0787H40.8045L34.1441 57.0302Z" fill="#66686C"/>
<path d="M92.5323 33.0512L98.9981 45.8975L85.406 58.7402L92.5323 33.0512Z" fill="#27803B"/>
<path d="M87.9999 33.0512L94.4609 45.8975L80.8632 58.7402L87.9999 33.0512Z" fill="#E9661C"/>
</g>
</g>
<defs>
<clipPath id="clip0_188_534">
<rect width="98" height="34.6221" fill="white" transform="translate(1 33)"/>
</clipPath>
</defs>
</svg>
