<svg width="100" height="100" viewBox="0 0 100 100" fill="none" xmlns="http://www.w3.org/2000/svg">
<mask id="mask0_790_6251" style="mask-type:luminance" maskUnits="userSpaceOnUse" x="4" y="35" width="92" height="30">
<path d="M51.5802 44.7886C51.5277 48.927 55.2683 51.2365 58.0861 52.6095C60.9813 54.0184 61.9538 54.9218 61.9427 56.1815C61.9206 58.1098 59.6332 58.9607 57.4921 58.9939C53.7571 59.0519 51.5857 57.9855 49.8591 57.1788L48.5137 63.4748C50.2459 64.2732 53.4532 64.9694 56.7794 64.9998C64.5865 64.9998 69.6945 61.1459 69.7222 55.1704C69.7526 47.5871 59.2326 47.1672 59.3044 43.7775C59.3293 42.7498 60.31 41.6531 62.4593 41.374C63.5229 41.2331 66.4596 41.1254 69.7885 42.6586L71.0952 36.5671C69.305 35.9151 67.0038 35.2908 64.139 35.2908C56.7905 35.2908 51.6216 39.1971 51.5802 44.7886ZM83.6512 35.8157C82.2257 35.8157 81.024 36.6472 80.488 37.9235L69.3354 64.5522H77.137L78.6896 60.2619H88.2233L89.1239 64.5522H96L89.9996 35.8157H83.6512ZM84.7424 43.5786L86.9939 54.3693H80.8278L84.7424 43.5786ZM42.1211 35.8157L35.9715 64.5522H43.4057L49.5525 35.8157H42.1211ZM31.1232 35.8157L23.3851 55.3749L20.2551 38.744C19.8877 36.8876 18.4373 35.8157 16.8268 35.8157H4.17682L4 36.65C6.59684 37.2136 9.54729 38.1225 11.3347 39.0949C12.4287 39.6889 12.7408 40.2082 13.1 41.6199L19.0285 64.5522H26.8853L38.9303 35.8157H31.1232Z" fill="white"/>
</mask>
<g mask="url(#mask0_790_6251)">
<path d="M-5.63409 38.8388L85.0131 5.45557L105.635 61.4525L14.9887 94.8357" fill="url(#paint0_linear_790_6251)"/>
</g>
<defs>
<linearGradient id="paint0_linear_790_6251" x1="12.3338" y1="64.0967" x2="89.87" y2="35.5412" gradientUnits="userSpaceOnUse">
<stop stop-color="#222357"/>
<stop offset="1" stop-color="#254AA5"/>
</linearGradient>
</defs>
</svg>
