<svg width="100" height="100" viewBox="0 0 100 100" fill="none" xmlns="http://www.w3.org/2000/svg">
<path d="M48.1144 6.75024H48.0069L46.932 6.96523C44.5671 7.25188 42.256 7.91475 39.9987 8.95385C37.7413 9.99294 35.7527 11.3724 34.0328 13.0923C31.0947 15.7438 29.0523 19.0044 27.9058 22.8742C27.2608 25.024 26.9742 27.2814 27.0458 29.6462C27.1175 32.011 27.5474 34.2684 28.3357 36.4182C29.554 39.643 31.4172 42.4378 33.9254 44.8027L35.3228 46.0926L26.4009 60.6041C24.5377 60.5325 22.9253 60.7833 21.5637 61.3566C19.4138 62.2882 17.8014 63.7214 16.7265 65.6563C16.2249 66.7312 15.9024 67.842 15.7591 68.9886C15.6158 70.1352 15.6874 71.2817 15.9741 72.4283C16.5474 74.5782 17.7298 76.2981 19.5213 77.588C20.5962 78.3046 21.7787 78.8242 23.0686 79.1466C24.3585 79.4691 25.6484 79.5408 26.9383 79.3616C28.2282 79.1825 29.4644 78.7346 30.6468 78.018C31.8292 77.3013 32.8146 76.4056 33.6029 75.3306C34.4628 74.1124 34.9824 72.715 35.1615 71.1384C35.3407 69.5619 35.1436 68.0928 34.5703 66.7312C34.4986 66.3729 34.2478 65.8713 33.8179 65.2263L33.4954 64.5814L46.1795 43.9427C46.6095 43.2978 46.8961 42.7962 47.0395 42.4378L45.9645 42.1154C45.3196 41.972 44.8538 41.8287 44.5671 41.6854C42.9189 40.9688 41.4319 39.9834 40.1062 38.7293C38.7804 37.4753 37.7593 36.0599 37.0426 34.4834C35.8244 31.9036 35.5019 29.2162 36.0752 26.4214C36.3619 24.7732 36.971 23.2325 37.9026 21.7992C38.8342 20.366 39.9449 19.1477 41.2349 18.1445C43.8863 16.2096 46.8245 15.2422 50.0493 15.2422C51.9841 15.1705 53.8653 15.5109 55.6926 16.2634C57.52 17.0158 59.1145 18.1086 60.4761 19.5419C61.6943 20.6885 62.6438 22.068 63.3246 23.6804C64.0054 25.2927 64.3816 26.9231 64.4533 28.5713C64.4533 29.7895 64.2383 31.2944 63.8083 33.086L71.3328 35.1283L72.1928 35.2358C73.196 32.1544 73.4469 29.0729 72.9452 25.9915C72.6586 23.6266 71.9599 21.3513 70.8491 19.1657C69.7384 16.98 68.323 15.063 66.6031 13.4148C63.5934 10.405 59.9028 8.39847 55.5314 7.3952C55.1014 7.25188 54.4565 7.10855 53.5965 6.96523L52.0916 6.75024H48.1144ZM50.0493 20.0793C48.831 20.0793 47.6128 20.3302 46.3945 20.8318C45.1763 21.3334 44.0834 22.068 43.116 23.0354C42.1485 24.0028 41.4498 25.1315 41.0199 26.4214C40.4466 27.8547 40.3033 29.4312 40.5899 31.1511C40.8049 32.441 41.3065 33.6593 42.0948 34.8059C42.8831 35.9524 43.8863 36.8482 45.1046 37.4932C46.8245 38.5681 48.831 39.0339 51.1242 38.8906C51.3392 39.1772 51.5183 39.4639 51.6617 39.7505L63.7008 60.2816C63.9158 60.7116 64.1308 61.0341 64.3458 61.2491C66.2807 59.3859 68.3768 58.1139 70.6341 57.4331C72.8915 56.7523 75.2205 56.6269 77.6212 57.0569C80.0218 57.4868 82.1179 58.4184 83.9095 59.8517C86.2027 61.6432 87.7613 63.8468 88.5854 66.4625C89.4095 69.0781 89.4275 71.7117 88.6392 74.3632C88.0659 76.3697 87.0447 78.1613 85.5756 79.7378C84.1066 81.3144 82.3688 82.4968 80.3622 83.2851C78.1407 84.2167 75.758 84.5213 73.214 84.1988C70.67 83.8763 68.3947 82.9985 66.3882 81.5652C66.1015 81.3502 65.6357 80.9919 64.9908 80.4903L64.4533 79.8453C64.1666 80.0603 63.7725 80.4186 63.2709 80.9203L58.2187 85.8649C59.8669 87.5131 61.7301 88.8926 63.8083 90.0034C65.8865 91.1142 68.0722 91.8845 70.3654 92.3145L72.7302 92.7445H76.9225L79.9323 92.207C84.5186 91.2754 88.46 89.1255 91.7565 85.7574C93.333 84.1809 94.6408 82.3714 95.6799 80.329C96.719 78.2867 97.4177 76.1547 97.7761 73.9332C98.1344 71.3534 98.0627 68.7915 97.5611 66.2475C97.0594 63.7035 96.1637 61.3924 94.8737 59.3142C93.5838 57.236 92.0073 55.4086 90.1441 53.8321C88.2809 52.2555 86.2385 51.0014 84.017 50.0698C81.5805 49.0666 79.0544 48.4933 76.4387 48.3499C73.8231 48.2066 71.2612 48.4574 68.753 49.1024L66.9256 49.6399L58.2187 34.9134C59.1503 33.5518 59.7236 32.226 59.9386 30.9361C60.2969 28.6429 59.8311 26.4931 58.5412 24.4866C57.3946 22.695 55.818 21.4409 53.8115 20.7243C52.5933 20.2943 51.3392 20.0793 50.0493 20.0793ZM19.7363 48.4574C15.5799 49.389 11.9968 51.2881 8.98703 54.1546C5.61892 57.3077 3.43324 61.0699 2.42997 65.4413L2 68.0211V71.9984L2.21499 73.1808C2.35831 74.1124 2.50163 74.829 2.64496 75.3306C3.14659 77.5522 4.02445 79.6662 5.27853 81.6727C6.53261 83.6792 8.05543 85.435 9.84697 86.9399C13.4301 89.878 17.5506 91.6337 22.2086 92.207C24.9318 92.4936 27.6549 92.3324 30.3781 91.7233C33.1012 91.1142 35.6094 90.093 37.9026 88.6597C41.7007 86.2232 44.4955 82.9626 46.287 78.8779C46.7887 77.6596 47.2903 76.0473 47.7919 74.0407C48.2219 73.9691 48.8668 73.9691 49.7268 74.0407L63.1634 74.2557C64.1666 74.2557 64.8833 74.2915 65.3132 74.3632C66.1015 75.7964 66.9973 76.9072 68.0006 77.6955C69.0038 78.4838 70.1325 79.0571 71.3866 79.4154C72.6407 79.7737 73.9127 79.917 75.2026 79.8453C77.2091 79.6303 79.0006 78.9137 80.5772 77.6955C82.5121 76.1906 83.6587 74.2557 84.017 71.8909C84.1603 70.6726 84.1066 69.4902 83.8557 68.3436C83.6049 67.197 83.1212 66.1221 82.4046 65.1188C81.258 63.5423 79.7889 62.3957 77.9974 61.6791C76.7791 61.1774 75.5071 60.9445 74.1814 60.9804C72.8557 61.0162 71.5836 61.2849 70.3654 61.7865C68.3589 62.6465 66.8181 63.9722 65.7432 65.7638L65.4207 66.4087C64.4175 66.4087 62.9126 66.3729 60.906 66.3012L48.7594 66.1937C47.6844 66.1221 46.1437 66.0863 44.1372 66.0863L38.7625 65.9788L39.085 67.8061C39.6583 70.8876 39.1925 73.7899 37.6876 76.5131C36.6843 78.4479 35.2511 80.0603 33.3879 81.3502C31.5247 82.6401 29.4823 83.4284 27.2608 83.7151C24.7526 84.145 22.2445 83.8763 19.7363 82.9089C17.2281 81.9414 15.1858 80.4186 13.6092 78.3404C11.6027 75.8323 10.6353 73.0016 10.7069 69.8485C10.7786 67.197 11.6027 64.7247 13.1792 62.4315C14.1109 61.0699 15.2574 59.9233 16.619 58.9917C17.9806 58.0601 19.4497 57.3793 21.0262 56.9494L21.9937 56.6269L19.7363 48.4574Z" fill="black"/>
</svg>
