<svg width="100" height="100" viewBox="0 0 100 100" fill="none" xmlns="http://www.w3.org/2000/svg">
<g filter="url(#filter0_f_790_6268)">
<path d="M9.34278 50.2167C9.34014 57.4295 11.2197 64.4702 14.7923 70.6763L8.99997 91.8821L30.6439 86.1917C36.6071 89.4526 43.3213 91.1709 50.154 91.1736H50.1716C72.6732 91.1736 90.9904 72.8129 91 50.2498C91.0036 39.3144 86.7606 29.0322 79.0526 21.2971C71.3434 13.5621 61.0927 9.30015 50.1716 9.29531C27.6663 9.29531 9.35173 27.653 9.34278 50.2167Z" fill="black" fill-opacity="0.2"/>
</g>
<path d="M10.8079 49.7907C10.8059 56.7277 12.6184 63.5013 16.0652 69.4716L10.4782 89.8716L31.3543 84.3977C37.1059 87.5325 43.5815 89.1867 50.172 89.189H50.1897C71.8925 89.189 89.5593 71.5281 89.5683 49.8214C89.5727 39.3027 85.48 29.4121 78.0444 21.971C70.6101 14.53 60.7226 10.43 50.1882 10.4253C28.4827 10.4253 10.8167 28.0847 10.8079 49.7907Z" fill="url(#paint0_linear_790_6268)"/>
<path d="M9.40191 49.7769C9.39927 56.9642 11.2772 63.9801 14.8466 70.1644L9.05939 91.2952L30.6844 85.625C36.6423 88.8742 43.3505 90.5867 50.1773 90.5891H50.1949C72.6767 90.5891 90.9778 72.2933 90.9874 49.8101C90.9912 38.913 86.7518 28.6673 79.0506 20.9593C71.3483 13.2515 61.1065 9.00487 50.1949 8.99988C27.7095 8.99988 9.41086 27.2928 9.40176 49.7769H9.40191ZM22.2797 69.0996L21.4725 67.8175C18.0784 62.4207 16.2865 56.1839 16.2895 49.7797C16.2967 31.0915 31.5057 15.8877 50.2078 15.8877C59.2645 15.8914 67.7762 19.4215 74.1784 25.8279C80.5798 32.2339 84.1024 40.7502 84.0998 49.8073C84.0919 68.4961 68.8823 83.702 50.1951 83.702H50.1819C44.0969 83.6988 38.1295 82.0651 32.9249 78.9765L31.6863 78.2425L18.8536 81.6068L22.2797 69.0996Z" fill="url(#paint1_linear_790_6268)"/>
<path fill-rule="evenodd" clip-rule="evenodd" d="M39.9995 32.73C39.236 31.0328 38.4322 30.9986 37.7058 30.9689C37.1117 30.9435 36.4315 30.9451 35.7525 30.9451C35.073 30.9451 33.9686 31.2003 33.0348 32.2203C32.1003 33.2402 29.4669 35.7058 29.4669 40.7205C29.4669 45.7359 33.1197 50.5814 33.6289 51.262C34.1385 51.9418 40.6803 62.5613 51.0401 66.6469C59.6503 70.0422 61.4024 69.3669 63.2712 69.197C65.14 69.0271 69.3016 66.7319 70.151 64.3518C71.0005 61.972 71.0005 59.9323 70.7457 59.5059C70.4907 59.0811 69.8112 58.8263 68.7919 58.3165C67.7724 57.8068 62.7614 55.3406 61.827 55.0009C60.8926 54.6611 60.213 54.4913 59.5335 55.5116C58.8539 56.5311 56.9019 58.8263 56.3069 59.506C55.7124 60.1871 55.1178 60.272 54.0983 59.7623C53.079 59.2511 49.7962 58.1758 45.9019 54.7037C42.8718 52.0022 40.8264 48.6659 40.2314 47.6455C39.6369 46.626 40.1679 46.0739 40.6791 45.5657C41.1368 45.1091 41.6986 44.3761 42.2082 43.7808C42.7168 43.1857 42.8868 42.7609 43.2265 42.0812C43.5663 41.4006 43.3964 40.8053 43.1416 40.2957C42.8868 39.786 40.9059 34.7453 39.9995 32.73Z" fill="white"/>
<defs>
<filter id="filter0_f_790_6268" x="8.41321" y="8.70865" width="83.1735" height="83.7602" filterUnits="userSpaceOnUse" color-interpolation-filters="sRGB">
<feFlood flood-opacity="0" result="BackgroundImageFix"/>
<feBlend mode="normal" in="SourceGraphic" in2="BackgroundImageFix" result="shape"/>
<feGaussianBlur stdDeviation="0.293381" result="effect1_foregroundBlur_790_6268"/>
</filter>
<linearGradient id="paint0_linear_790_6268" x1="50.023" y1="89.8716" x2="50.023" y2="10.4252" gradientUnits="userSpaceOnUse">
<stop stop-color="#20B038"/>
<stop offset="1" stop-color="#60D66A"/>
</linearGradient>
<linearGradient id="paint1_linear_790_6268" x1="50.0236" y1="91.2953" x2="50.0236" y2="8.99992" gradientUnits="userSpaceOnUse">
<stop stop-color="#F9F9F9"/>
<stop offset="1" stop-color="white"/>
</linearGradient>
</defs>
</svg>
