<svg width="100" height="100" viewBox="0 0 100 100" fill="none" xmlns="http://www.w3.org/2000/svg">
<g clip-path="url(#clip0_188_606)">
<path d="M54.4268 9.88013C57.9751 14.5689 60.7282 22.8048 62.2803 28.4797H63.1064C65.0525 21.7244 71.0051 14.2629 77.5732 11.5725C86.807 7.79036 95.8234 13.6161 96.5498 23.5198C97.1992 32.3778 93.1811 40.714 89.9736 48.7336C84.4879 62.4496 78.1735 76.0763 73.4404 90.0667H72.6133L61.6172 63.2004L56.4932 49.9739C54.0378 52.217 53.0005 56.4324 51.7812 59.4797C49.1277 66.1137 46.2386 72.6609 43.6553 79.3206C42.5075 82.2801 41.0542 88.4038 38.3066 90.0667L26.8262 61.9602L10.3486 22.6936L4 14.427H37.8936C44.1828 14.427 49.9483 15.1281 54.4268 9.88013ZM47.3955 29.3069C44.7241 22.8329 38.5677 12.5474 30.0576 18.1438C25.4702 21.1606 28.1628 27.4676 29.8018 31.3733C34.7818 43.2411 38.5588 56.5686 44.9199 67.7463C47.8764 63.294 49.3049 57.3666 51.417 52.4534C52.2871 50.4301 53.9506 47.681 53.7803 45.426C53.3974 40.3543 49.3386 34.0159 47.3955 29.3069ZM86.209 27.6594C81.9149 21.2956 66.2475 22.8082 64.2598 30.9592C63.6026 33.6546 66.9455 38.8059 68.0049 41.2932C71.6827 49.9276 75.4201 58.5835 78.8135 67.3333C80.8243 64.8442 81.6095 61.1923 82.7812 58.2395C86.1709 49.6965 92.1125 36.4097 86.209 27.6594Z" fill="#020202" data-dark-mode-color="true"/>
</g>
<defs>
<clipPath id="clip0_188_606">
<rect width="93" height="80.1867" fill="white" transform="translate(4 9.88013)"/>
</clipPath>
</defs>
</svg>
