<svg width="100" height="100" viewBox="0 0 100 100" fill="none" xmlns="http://www.w3.org/2000/svg">
<path d="M10.0049 49.999C10.0049 65.9583 19.2796 79.7503 32.7286 86.2861L13.4956 33.59C11.19 38.753 10.0005 44.3446 10.0049 49.999ZM77.5433 47.9643C77.5433 42.9813 75.7534 39.5305 74.2182 36.8445C72.1744 33.5233 70.2587 30.7107 70.2587 27.3895C70.2587 23.6831 73.0697 20.233 77.0292 20.233C77.208 20.233 77.3775 20.2553 77.5517 20.2652C70.3784 13.6934 60.8213 9.68091 50.3244 9.68091C36.2386 9.68091 23.846 16.908 16.6366 27.8544C17.5825 27.8828 18.474 27.9027 19.2312 27.9027C23.4486 27.9027 29.9767 27.391 29.9767 27.391C32.1502 27.2629 32.4064 30.4552 30.2352 30.7122C30.2352 30.7122 28.051 30.9693 25.6205 31.0966L40.3032 74.7696L49.1268 48.3065L42.845 31.0951C40.6738 30.9677 38.6169 30.7107 38.6169 30.7107C36.4442 30.5834 36.6989 27.2614 38.8716 27.3895C38.8716 27.3895 45.5302 27.9012 49.492 27.9012C53.7086 27.9012 60.2375 27.3895 60.2375 27.3895C62.4125 27.2614 62.668 30.4537 60.496 30.7107C60.496 30.7107 58.3072 30.9677 55.8813 31.0951L70.452 74.4374L74.4737 60.9983C76.2168 55.4215 77.5433 51.416 77.5433 47.9643Z" fill="#21759B"/>
<path d="M51.0313 53.5254L38.9341 88.6779C42.6326 89.7672 46.4683 90.3203 50.3239 90.3204C55.0192 90.3204 59.5219 89.5087 63.7132 88.0349C63.6013 87.8586 63.5053 87.6727 63.4262 87.4795L51.0313 53.5254ZM85.7027 30.6543C85.8761 31.9386 85.9743 33.3173 85.9743 34.8003C85.9743 38.8918 85.2102 43.4911 82.9086 49.2421L70.5927 84.8503C82.5795 77.8603 90.642 64.8738 90.642 49.9993C90.6428 42.9894 88.8521 36.3976 85.7027 30.6543Z" fill="#21759B"/>
<path d="M50.3232 3C24.4079 3 3.32286 24.0835 3.32286 49.9988C3.32286 75.9173 24.4079 97 50.3232 97C76.2378 97 97.3259 75.9173 97.3259 49.9988C97.3252 24.0835 76.2378 3 50.3232 3ZM50.3232 94.8457C25.5963 94.8457 5.47793 74.7273 5.47793 49.9988C5.47793 25.2719 25.5955 5.15507 50.3232 5.15507C75.0494 5.15507 95.1662 25.2719 95.1662 49.9988C95.1662 74.7273 75.0494 94.8457 50.3232 94.8457Z" fill="#21759B"/>
</svg>
