<svg width="100" height="100" viewBox="0 0 100 100" fill="none" xmlns="http://www.w3.org/2000/svg">
<g clip-path="url(#clip0_790_6290)">
<path d="M49.9991 96C75.4054 96 96 75.4036 96 49.9991C96 24.5945 75.4054 4 49.9991 4C24.5927 4 4 24.5945 4 49.9991C4 75.4036 24.5945 96 49.9991 96Z" fill="#2196F3"/>
<path fill-rule="evenodd" clip-rule="evenodd" d="M30.9934 63.147H59.4167C60.5213 63.147 61.4167 62.2515 61.4167 61.147V40.8383C61.4167 37.4773 58.6931 34.7537 55.332 34.7537H26.9087C25.8041 34.7537 24.9087 35.6491 24.9087 36.7537V57.0623C24.9087 60.4233 27.6324 63.147 30.9934 63.147ZM65.4715 53.9652C65.4714 54.6341 65.8057 55.2587 66.3623 55.6297L74.5315 61.0746C75.8606 61.9605 77.6407 61.0077 77.6407 59.4104V38.491C77.6407 36.8936 75.8603 35.9408 74.5312 36.827L66.3635 42.2729C65.8072 42.6438 65.4731 43.2681 65.473 43.9366L65.4715 53.9652Z" fill="white"/>
</g>
<defs>
<clipPath id="clip0_790_6290">
<rect width="92" height="92" fill="white" transform="translate(4 4)"/>
</clipPath>
</defs>
</svg>
