<svg width="24" height="24" viewBox="0 0 24 24" fill="none" xmlns="http://www.w3.org/2000/svg">
<g clip-path="url(#clip0_177_1195)">
<path d="M12 3C11.4696 3 10.9609 3.21071 10.5858 3.58579C10.2107 3.96086 10 4.46957 10 5C10 5.53043 10.2107 6.03914 10.5858 6.41421C10.9609 6.78929 11.4696 7 12 7C12.5304 7 13.0391 6.78929 13.4142 6.41421C13.7893 6.03914 14 5.53043 14 5C14 4.46957 13.7893 3.96086 13.4142 3.58579C13.0391 3.21071 12.5304 3 12 3Z" stroke="#344054" stroke-width="1.2" stroke-linecap="round" stroke-linejoin="round"/>
<path d="M8 9C7.46957 9 6.96086 9.21071 6.58579 9.58579C6.21071 9.96086 6 10.4696 6 11C6 11.5304 6.21071 12.0391 6.58579 12.4142C6.96086 12.7893 7.46957 13 8 13C8.53043 13 9.03914 12.7893 9.41421 12.4142C9.78929 12.0391 10 11.5304 10 11C10 10.4696 9.78929 9.96086 9.41421 9.58579C9.03914 9.21071 8.53043 9 8 9Z" stroke="#344054" stroke-width="1.2" stroke-linecap="round" stroke-linejoin="round"/>
<path d="M18 5L14 5" stroke="#344054" stroke-width="1.2" stroke-linecap="round" stroke-linejoin="round"/>
<path d="M10 5L2 5" stroke="#344054" stroke-width="1.2" stroke-linecap="round" stroke-linejoin="round"/>
<path d="M14 11L10 11" stroke="#344054" stroke-width="1.2" stroke-linecap="round" stroke-linejoin="round"/>
<path d="M6 11L2 11" stroke="#344054" stroke-width="1.2" stroke-linecap="round" stroke-linejoin="round"/>
<path d="M6.5 15C5.96957 15 5.46086 15.2107 5.08579 15.5858C4.71071 15.9609 4.5 16.4696 4.5 17C4.5 17.5304 4.71071 18.0391 5.08579 18.4142C5.46086 18.7893 5.96957 19 6.5 19C7.03043 19 7.53914 18.7893 7.91421 18.4142C8.28929 18.0391 8.5 17.5304 8.5 17C8.5 16.4696 8.28929 15.9609 7.91421 15.5858C7.53914 15.2107 7.03043 15 6.5 15Z" stroke="#344054" stroke-width="1.2" stroke-linecap="round" stroke-linejoin="round"/>
<path d="M10 17H9" stroke="#344054" stroke-width="1.2" stroke-linecap="round" stroke-linejoin="round"/>
<path d="M4 17H2" stroke="#344054" stroke-width="1.2" stroke-linecap="round" stroke-linejoin="round"/>
<path d="M14.8647 15.2432V9.80637C14.8647 9.55191 14.9658 9.30787 15.1457 9.12794C15.3257 8.94801 15.5697 8.84692 15.8242 8.84692C16.0786 8.84692 16.3227 8.94801 16.5026 9.12794C16.6825 9.30787 16.7836 9.55191 16.7836 9.80637V14.6036" stroke="#344054" stroke-width="1.2" stroke-linecap="round" stroke-linejoin="round"/>
<path d="M16.7836 14.2839V13.0046C16.7836 12.7502 16.8847 12.5061 17.0646 12.3262C17.2445 12.1463 17.4886 12.0452 17.743 12.0452C17.9975 12.0452 18.2415 12.1463 18.4215 12.3262C18.6014 12.5061 18.7025 12.7502 18.7025 13.0046V14.6037" stroke="#344054" stroke-width="1.2" stroke-linecap="round" stroke-linejoin="round"/>
<path d="M18.7025 13.6443C18.7025 13.3898 18.8036 13.1458 18.9835 12.9658C19.1635 12.7859 19.4075 12.6848 19.662 12.6848C19.9164 12.6848 20.1605 12.7859 20.3404 12.9658C20.5203 13.1458 20.6214 13.3898 20.6214 13.6443V14.6037" stroke="#344054" stroke-width="1.2" stroke-linecap="round" stroke-linejoin="round"/>
<path d="M20.6214 14.2839C20.6214 14.0294 20.7225 13.7854 20.9024 13.6055C21.0823 13.4255 21.3264 13.3245 21.5808 13.3245C21.8353 13.3245 22.0793 13.4255 22.2593 13.6055C22.4392 13.7854 22.5403 14.0294 22.5403 14.2839V17.1622C22.5403 18.1801 22.1359 19.1562 21.4162 19.876C20.6965 20.5957 19.7203 21 18.7025 21H17.4232H17.5563C16.9207 21.0001 16.295 20.8424 15.7355 20.541C15.1759 20.2395 14.7 19.8038 14.3505 19.273L14.2251 19.0811C14.0255 18.7748 13.3251 17.5537 12.1233 15.4173C12.0007 15.1996 11.968 14.9426 12.032 14.701C12.0961 14.4595 12.2518 14.2525 12.4661 14.124C12.6944 13.987 12.9619 13.9303 13.2261 13.9627C13.4903 13.9952 13.7361 14.115 13.9245 14.3031L14.8647 15.2434" stroke="#344054" stroke-width="1.2" stroke-linecap="round" stroke-linejoin="round"/>
</g>
<defs>
<clipPath id="clip0_177_1195">
<rect width="24" height="24" fill="white"/>
</clipPath>
</defs>
</svg>
