<svg width="24" height="24" viewBox="0 0 24 24" fill="none" xmlns="http://www.w3.org/2000/svg">
<path d="M15.2753 15H17.7843C18.6453 15 19.4093 15.551 19.6813 16.368L20.3483 18.368C20.7803 19.663 19.8163 21 18.4513 21H6.00129C4.63629 21 3.67229 19.663 4.10429 18.368L4.77129 16.368C5.04229 15.551 5.80729 15 6.66829 15H9.17829M12.2263 18C12.2263 18 6.22629 13.208 6.22629 8.833C6.22629 5.612 8.91229 3 12.2263 3C15.5403 3 18.2263 5.612 18.2263 8.833C18.2263 13.208 12.2263 18 12.2263 18ZM13.6405 7.58579C14.4215 8.36684 14.4215 9.63317 13.6405 10.4142C12.8594 11.1953 11.5931 11.1953 10.8121 10.4142C10.031 9.63317 10.031 8.36684 10.8121 7.58579C11.5931 6.80474 12.8594 6.80474 13.6405 7.58579Z" stroke="#344054" stroke-width="1.2" stroke-linecap="round" stroke-linejoin="round"/>
</svg>
