<svg width="24" height="24" viewBox="0 0 24 24" fill="none" xmlns="http://www.w3.org/2000/svg">
  <g clip-path="url(#clip0_2358_5241)">
  <path d="M2 20.5H1.4V21.1H2V20.5ZM2 17L1.57574 16.5757L1.4 16.7515V17H2ZM5.5 20.5V21.1H5.74853L5.92426 20.9243L5.5 20.5ZM9.5 16.5L9.92426 16.9243L10.3485 16.5L9.92426 16.0757L9.5 16.5ZM8.92426 15.0757C8.68995 14.8414 8.31005 14.8414 8.07574 15.0757C7.84142 15.3101 7.84142 15.6899 8.07574 15.9243L8.5 15.5L8.92426 15.0757ZM2 20.5H2.6V17H2H1.4V20.5H2ZM2 17L2.42426 17.4243L8.92426 10.9243L8.5 10.5L8.07574 10.0757L1.57574 16.5757L2 17ZM2 20.5V21.1H5.5V20.5V19.9H2V20.5ZM5.5 20.5L5.92426 20.9243L9.92426 16.9243L9.5 16.5L9.07574 16.0757L5.07574 20.0757L5.5 20.5ZM9.5 16.5L9.92426 16.0757L8.92426 15.0757L8.5 15.5L8.07574 15.9243L9.07574 16.9243L9.5 16.5Z" fill="#87929D"/>
  <path d="M6.42426 17.5757C6.18995 17.3414 5.81005 17.3414 5.57574 17.5757C5.34142 17.8101 5.34142 18.1899 5.57574 18.4243L6 18L6.42426 17.5757ZM7 19L7.42426 18.5757L6.42426 17.5757L6 18L5.57574 18.4243L6.57574 19.4243L7 19Z" fill="#87929D"/>
  <circle cx="14" cy="8" r="1.4" stroke="#87929D" stroke-width="1.2"/>
  <path d="M20 8C20 4.68629 17.3137 2 14 2C10.6863 2 8 4.68629 8 8C8 8.89221 8.19474 9.73894 8.54404 10.5" stroke="#87929D" stroke-width="1.2" stroke-linecap="round"/>
  <circle cx="19.6748" cy="15.4883" r="0.725195" transform="rotate(180 19.6748 15.4883)" fill="#87929D" stroke="#87929D" stroke-width="1.2"/>
  <circle cx="14.6748" cy="15.4689" r="0.725195" transform="rotate(180 14.6748 15.4689)" fill="#87929D" stroke="#87929D" stroke-width="1.2"/>
  <circle cx="14.6553" cy="20.4688" r="0.744727" transform="rotate(180 14.6553 20.4688)" fill="#87929D" stroke="#87929D" stroke-width="1.2"/>
  <path d="M14.666 19.9786V15.4786H19.666" stroke="#87929D" stroke-width="1.2"/>
  </g>
  <defs>
  <clipPath id="clip0_2358_5241">
  <rect width="24" height="24" fill="white"/>
  </clipPath>
  </defs>
</svg>
