<svg width="24" height="24" viewBox="0 0 24 24" fill="none" xmlns="http://www.w3.org/2000/svg">
<g clip-path="url(#clip0_149_186)">
<path d="M3 19V15.5C3 14.6716 3.67157 14 4.5 14H6.379C6.77655 14.0001 7.1578 14.158 7.439 14.439L8.415 15.415C8.7899 15.7895 9.2981 15.9999 9.828 16H14.171C14.7017 16.0002 15.2108 15.7893 15.586 15.414L16.415 14.585C16.7899 14.2105 17.2981 14.0001 17.828 14H19.5C20.3284 14 21 14.6716 21 15.5V19C21 20.1046 20.1046 21 19 21H5C3.89543 21 3 20.1046 3 19Z" stroke="#344054" stroke-width="1.2" stroke-linecap="round" stroke-linejoin="round"/>
<path d="M5 14V5C5 3.89543 5.89543 3 7 3H17C18.1046 3 19 3.89543 19 5V14" stroke="#344054" stroke-width="1.2" stroke-linecap="round" stroke-linejoin="round"/>
</g>
<defs>
<clipPath id="clip0_149_186">
<rect width="24" height="24" fill="white"/>
</clipPath>
</defs>
</svg>
