<svg width="24" height="24" viewBox="0 0 24 24" fill="none" xmlns="http://www.w3.org/2000/svg">
<path d="M9 9.75699C8.039 9.43799 7.054 9.23499 6 9.11699M12 6.13099C9.406 4.67799 7.088 4.09999 4.017 4.00099C3.459 3.98199 3 4.44199 3 5.00099V16.854C3 17.395 3.433 17.844 3.974 17.852C7.066 17.898 9.394 18.468 12 20M12 6.13099C14.594 4.67799 16.912 4.09999 19.983 3.99999C20.541 3.98199 21 4.44099 21 4.99999V16.853C21 17.395 20.567 17.844 20.026 17.852C16.934 17.898 14.606 18.468 12 20M12 6.13099V20M15 13.757C15.961 13.438 16.946 13.235 18 13.117L15 13.757ZM6 13.118C7.054 13.235 8.039 13.439 9 13.758L6 13.118ZM18 9.11799C16.946 9.23499 15.961 9.43899 15 9.75799L18 9.11799Z" stroke="#344054" stroke-width="1.2" stroke-linecap="round" stroke-linejoin="round"/>
</svg>
