<svg width="24" height="24" viewBox="0 0 24 24" fill="none" xmlns="http://www.w3.org/2000/svg">
<g clip-path="url(#clip0_535_39)">
<path d="M2.9989 7C2.9989 6.46957 3.20961 5.96086 3.58469 5.58579C3.95976 5.21071 4.46847 5 4.9989 5H18.9989C19.5293 5 20.038 5.21071 20.4131 5.58579C20.7882 5.96086 20.9989 6.46957 20.9989 7V17C20.9989 17.5304 20.7882 18.0391 20.4131 18.4142C20.038 18.7893 19.5293 19 18.9989 19H4.9989C4.46847 19 3.95976 18.7893 3.58469 18.4142C3.20961 18.0391 2.9989 17.5304 2.9989 17V7Z" stroke="#344054" stroke-width="1.2" stroke-linecap="round" stroke-linejoin="round"/>
<path d="M5.9989 12V9C5.9989 8.44772 6.44662 8 6.9989 8H9.9989" stroke="#344054" stroke-width="1.2" stroke-linecap="round" stroke-linejoin="round"/>
<path d="M17.9989 12V15C17.9989 15.5523 17.5512 16 16.9989 16H13.9989" stroke="#344054" stroke-width="1.2" stroke-linecap="round" stroke-linejoin="round"/>
</g>
<defs>
<clipPath id="clip0_535_39">
<rect width="24" height="24" fill="white" transform="translate(-0.00109863)"/>
</clipPath>
</defs>
</svg>
