<svg width="24" height="24" viewBox="0 0 24 24" fill="none" xmlns="http://www.w3.org/2000/svg">
<path d="M14.8169 7.64829L9.20177 13.2377C8.85811 13.5798 8.66504 14.0438 8.66504 14.5276C8.66504 15.0114 8.85811 15.4753 9.20177 15.8174C9.54544 16.1595 10.0115 16.3517 10.4976 16.3517C10.9836 16.3517 11.4497 16.1595 11.7933 15.8174L17.4084 10.228C18.0958 9.54383 18.4819 8.61587 18.4819 7.64829C18.4819 6.6807 18.0958 5.75275 17.4084 5.06856C16.7211 4.38437 15.7889 4 14.8169 4C13.8448 4 12.9126 4.38437 12.2253 5.06856L6.6102 10.658C5.57921 11.6843 5 13.0762 5 14.5276C5 15.9789 5.57921 17.3709 6.6102 18.3972C7.64119 19.4234 9.03952 20 10.4976 20C11.9556 20 13.3539 19.4234 14.3849 18.3972L20 12.8077" stroke="#344054" stroke-width="1.2" stroke-linecap="round" stroke-linejoin="round"/>
</svg>
