<svg width="24" height="24" viewBox="0 0 24 24" fill="none" xmlns="http://www.w3.org/2000/svg">
<g clip-path="url(#clip0_188_239)">
<path d="M5 7C5 8.06087 5.42143 9.07828 6.17157 9.82843C6.92172 10.5786 7.93913 11 9 11C10.0609 11 11.0783 10.5786 11.8284 9.82843C12.5786 9.07828 13 8.06087 13 7C13 5.93913 12.5786 4.92172 11.8284 4.17157C11.0783 3.42143 10.0609 3 9 3C7.93913 3 6.92172 3.42143 6.17157 4.17157C5.42143 4.92172 5 5.93913 5 7Z" stroke="#344054" stroke-width="1.2" stroke-linecap="round" stroke-linejoin="round"/>
<path d="M3 21V19C3 17.9391 3.42143 16.9217 4.17157 16.1716C4.92172 15.4214 5.93913 15 7 15H11" stroke="#344054" stroke-width="1.2" stroke-linecap="round" stroke-linejoin="round"/>
<path d="M19.5655 19.5782L22 22M19.5891 14.9539C20.8677 16.2258 20.8677 18.2879 19.5891 19.5598C18.3105 20.8316 16.2375 20.8316 14.9589 19.5598C13.6804 18.2879 13.6804 16.2258 14.9589 14.9539C16.2375 13.682 18.3105 13.682 19.5891 14.9539Z" stroke="#344054" stroke-width="1.2" stroke-linecap="round" stroke-linejoin="round"/>
</g>
<defs>
<clipPath id="clip0_188_239">
<rect width="24" height="24" fill="white"/>
</clipPath>
</defs>
</svg>
