<svg width="24" height="24" viewBox="0 0 24 24" fill="none" xmlns="http://www.w3.org/2000/svg">
<path d="M20.667 20.125H3.333M20.667 14.708H3.333M20.667 9.29199H16.334M20.667 3.87499H16.334M9.292 6.04199H12C12.299 6.04199 12.542 6.28499 12.542 6.58399V8.74999C12.542 9.04899 12.299 9.29199 12 9.29199H9.833C9.534 9.29199 9.291 9.04899 9.291 8.74999L9.292 6.04199ZM9.292 6.04199C9.292 3.87499 9.698 3.51499 10.917 2.79199M3.333 6.04199H6.041C6.34 6.04199 6.583 6.28499 6.583 6.58399V8.74999C6.583 9.04899 6.34 9.29199 6.041 9.29199H3.875C3.576 9.29199 3.333 9.04899 3.333 8.74999V6.04199ZM3.333 6.04199C3.333 3.87499 3.739 3.51499 4.958 2.79199" stroke="#344054" stroke-width="1.2" stroke-linecap="round" stroke-linejoin="round"/>
</svg>
