<svg width="24" height="24" viewBox="0 0 24 24" fill="none" xmlns="http://www.w3.org/2000/svg">
<g clip-path="url(#clip0_569_1285)">
<path d="M20 11V7C20 6.46957 19.7893 5.96086 19.4142 5.58579C19.0391 5.21071 18.5304 5 18 5H6C5.46957 5 4.96086 5.21071 4.58579 5.58579C4.21071 5.96086 4 6.46957 4 7V10M11 21H6C5.46957 21 4.96086 20.7893 4.58579 20.4142C4.21071 20.0391 4 19.5304 4 19V18" stroke="#344054" stroke-width="1.2" stroke-linecap="round" stroke-linejoin="round"/>
<path d="M16 3V5" stroke="#344054" stroke-width="1.2" stroke-linecap="round" stroke-linejoin="round"/>
<path d="M8 3V5" stroke="#344054" stroke-width="1.2" stroke-linecap="round" stroke-linejoin="round"/>
<path d="M4 9H20" stroke="#344054" stroke-width="1.2" stroke-linecap="round" stroke-linejoin="round"/>
<path d="M22 22V21C22 20.4696 21.7893 19.9609 21.4142 19.5858C21.0391 19.2107 20.5304 19 20 19H16C15.4696 19 14.9609 19.2107 14.5858 19.5858C14.2107 19.9609 14 20.4696 14 21V22" stroke="#344054" stroke-width="1.2" stroke-linecap="round" stroke-linejoin="round"/>
<path d="M18 17C19.1046 17 20 16.1046 20 15C20 13.8954 19.1046 13 18 13C16.8954 13 16 13.8954 16 15C16 16.1046 16.8954 17 18 17Z" stroke="#344054" stroke-width="1.2" stroke-linecap="round" stroke-linejoin="round"/>
<path d="M4 14L5.78787 15.7879C5.90503 15.905 6.09497 15.905 6.21213 15.7879L10 12" stroke="#344054" stroke-width="1.2" stroke-linecap="round"/>
</g>
<defs>
<clipPath id="clip0_569_1285">
<rect width="24" height="24" fill="white"/>
</clipPath>
</defs>
</svg>
