<svg width="24" height="24" viewBox="0 0 24 24" fill="none" xmlns="http://www.w3.org/2000/svg">
<g clip-path="url(#clip0_2358_5277)">
<path d="M11.5 21H6C5.46957 21 4.96086 20.7893 4.58579 20.4142C4.21071 20.0391 4 19.5304 4 19V7C4 6.46957 4.21071 5.96086 4.58579 5.58579C4.96086 5.21071 5.46957 5 6 5H18C18.5304 5 19.0391 5.21071 19.4142 5.58579C19.7893 5.96086 20 6.46957 20 7V11" stroke="#87929D" stroke-width="1.2" stroke-linecap="round" stroke-linejoin="round"/>
<path d="M16 3V5" stroke="#87929D" stroke-width="1.2" stroke-linecap="round" stroke-linejoin="round"/>
<path d="M8 3V5" stroke="#87929D" stroke-width="1.2" stroke-linecap="round" stroke-linejoin="round"/>
<path d="M4 11H20" stroke="#87929D" stroke-width="1.2" stroke-linecap="round" stroke-linejoin="round"/>
<path d="M14 18C14 18.5253 14.1035 19.0454 14.3045 19.5307C14.5055 20.016 14.8001 20.457 15.1716 20.8284C15.543 21.1999 15.984 21.4945 16.4693 21.6955C16.9546 21.8965 17.4747 22 18 22C18.5253 22 19.0454 21.8965 19.5307 21.6955C20.016 21.4945 20.457 21.1999 20.8284 20.8284C21.1999 20.457 21.4945 20.016 21.6955 19.5307C21.8965 19.0454 22 18.5253 22 18C22 17.4747 21.8965 16.9546 21.6955 16.4693C21.4945 15.984 21.1999 15.543 20.8284 15.1716C20.457 14.8001 20.016 14.5055 19.5307 14.3045C19.0454 14.1035 18.5253 14 18 14C17.4747 14 16.9546 14.1035 16.4693 14.3045C15.984 14.5055 15.543 14.8001 15.1716 15.1716C14.8001 15.543 14.5055 15.984 14.3045 16.4693C14.1035 16.9546 14 17.4747 14 18Z" stroke="#87929D" stroke-width="1.2" stroke-linecap="round" stroke-linejoin="round"/>
<path d="M15.2 15.2L20.8 20.8" stroke="#87929D" stroke-width="1.2" stroke-linecap="round" stroke-linejoin="round"/>
</g>
<defs>
<clipPath id="clip0_2358_5277">
<rect width="24" height="24" fill="white"/>
</clipPath>
</defs>
</svg>
