<svg width="24" height="24" viewBox="0 0 24 24" fill="none" xmlns="http://www.w3.org/2000/svg">
<path d="M14.5858 5.58579L15.7071 6.70711C15.8946 6.89464 16.149 7 16.4142 7H19C19.5304 7 20.0391 7.21071 20.4142 7.58579C20.7893 7.96086 21 8.46957 21 9V18C21 18.5304 20.7893 19.0391 20.4142 19.4142C20.0391 19.7893 19.5304 20 19 20H5C4.46957 20 3.96086 19.7893 3.58579 19.4142C3.21071 19.0391 3 18.5304 3 18V9C3 8.46957 3.21071 7.96086 3.58579 7.58579C3.96086 7.21071 4.46957 7 5 7H7.58579C7.851 7 8.10535 6.89464 8.29289 6.70711L9.41421 5.58579C9.59993 5.40007 9.82041 5.25275 10.0631 5.15224C10.3057 5.05173 10.5658 5 10.8284 5H13.1716C13.4342 5 13.6943 5.05173 13.9369 5.15224C14.1796 5.25275 14.4001 5.40007 14.5858 5.58579Z" stroke="#344054" stroke-width="1.2" stroke-linecap="round" stroke-linejoin="round"/>
<path d="M12 17C14.2091 17 16 15.2091 16 13C16 10.7909 14.2091 9 12 9C9.79086 9 8 10.7909 8 13C8 15.2091 9.79086 17 12 17Z" stroke="#344054" stroke-width="1.2" stroke-linecap="round" stroke-linejoin="round"/>
</svg>
