<svg width="24" height="24" viewBox="0 0 24 24" fill="none" xmlns="http://www.w3.org/2000/svg">
<path d="M15 12V19C15 20.105 14.105 21 13 21H5C3.895 21 3 20.105 3 19V5C3 3.895 3.895 3 5 3H13C14.105 3 15 3.895 15 5V8M11.221 12C10.672 12.61 9.885 13 9 13C7.167 13 5.718 11.356 6.047 9.461C6.258 8.249 7.255 7.258 8.467 7.046C9.566 6.855 10.564 7.27 11.221 8H20C20.552 8 21 8.448 21 9V11C21 11.552 20.552 12 20 12H11.221Z" stroke="#344054" stroke-width="1.2" stroke-linecap="round" stroke-linejoin="round"/>
</svg>
