<svg width="24" height="24" viewBox="0 0 24 24" fill="none" xmlns="http://www.w3.org/2000/svg">
<g clip-path="url(#clip0_197_791)">
<rect x="3" y="6" width="18" height="12" rx="2" stroke="#344054" stroke-width="1.2"/>
<path d="M6.93425 12.6863V11.3137H8.21838V12.6863H6.93425ZM6.93425 11.3247C6.93425 10.8745 7.03019 10.476 7.22207 10.1292C7.41395 9.78229 7.67595 9.50923 8.00805 9.30996C8.34015 9.10332 8.71285 9 9.12613 9V10.0406C8.84569 10.0406 8.62429 10.155 8.46193 10.3838C8.29956 10.6052 8.21838 10.9188 8.21838 11.3247H6.93425ZM10.056 10.9815C10.0191 10.6642 9.91211 10.428 9.73499 10.2731C9.56525 10.1181 9.3586 10.0406 9.11506 10.0406V9C9.49145 9 9.82724 9.0738 10.1224 9.2214C10.4176 9.36162 10.6575 9.56458 10.842 9.83026C11.0339 10.0886 11.1557 10.3985 11.2073 10.7601L10.056 10.9815ZM6.93425 12.6753H8.21838C8.21838 13.0738 8.29956 13.3875 8.46193 13.6162C8.62429 13.8376 8.84569 13.9483 9.12613 13.9483V15C8.71285 15 8.34015 14.9004 8.00805 14.7011C7.67595 14.4945 7.41395 14.2177 7.22207 13.8708C7.03019 13.5166 6.93425 13.1181 6.93425 12.6753ZM10.056 13.0185L11.2073 13.2399C11.1557 13.5867 11.0339 13.893 10.842 14.1587C10.6575 14.4244 10.4176 14.631 10.1224 14.7786C9.82724 14.9262 9.49145 15 9.11506 15V13.9483C9.3586 13.9483 9.56525 13.8708 9.73499 13.7159C9.91211 13.5535 10.0191 13.321 10.056 13.0185Z" fill="#344054"/>
<path d="M12.7928 12.6863V11.3137H14.0769V12.6863H12.7928ZM12.7928 11.3247C12.7928 10.8745 12.8887 10.476 13.0806 10.1292C13.2725 9.78229 13.5345 9.50923 13.8666 9.30996C14.1987 9.10332 14.5714 9 14.9846 9V10.0406C14.7042 10.0406 14.4828 10.155 14.3204 10.3838C14.1581 10.6052 14.0769 10.9188 14.0769 11.3247H12.7928ZM15.9145 10.9815C15.8776 10.6642 15.7706 10.428 15.5935 10.2731C15.4238 10.1181 15.2171 10.0406 14.9736 10.0406V9C15.35 9 15.6857 9.0738 15.981 9.2214C16.2762 9.36162 16.516 9.56458 16.7005 9.83026C16.8924 10.0886 17.0142 10.3985 17.0658 10.7601L15.9145 10.9815ZM12.7928 12.6753H14.0769C14.0769 13.0738 14.1581 13.3875 14.3204 13.6162C14.4828 13.8376 14.7042 13.9483 14.9846 13.9483V15C14.5714 15 14.1987 14.9004 13.8666 14.7011C13.5345 14.4945 13.2725 14.2177 13.0806 13.8708C12.8887 13.5166 12.7928 13.1181 12.7928 12.6753ZM15.9145 13.0185L17.0658 13.2399C17.0142 13.5867 16.8924 13.893 16.7005 14.1587C16.516 14.4244 16.2762 14.631 15.981 14.7786C15.6857 14.9262 15.35 15 14.9736 15V13.9483C15.2171 13.9483 15.4238 13.8708 15.5935 13.7159C15.7706 13.5535 15.8776 13.321 15.9145 13.0185Z" fill="#344054"/>
</g>
<defs>
<clipPath id="clip0_197_791">
<rect width="24" height="24" fill="white"/>
</clipPath>
</defs>
</svg>
