<svg width="24" height="24" viewBox="0 0 24 24" fill="none" xmlns="http://www.w3.org/2000/svg">
<g clip-path="url(#clip0_149_156)">
<circle cx="11.7906" cy="9.75" r="6.75" stroke="#344054" stroke-width="1.2"/>
<path d="M6.6897 14L3.55399 18.9138C3.51836 18.9696 3.56841 19.0363 3.63569 19.0226L6.52057 18.4357L7.37584 21.0293C7.39579 21.0898 7.48364 21.0972 7.51927 21.0414L10.655 16.1276" stroke="#344054" stroke-width="1.2"/>
<path d="M16.9653 14L20.101 18.9138C20.1366 18.9696 20.0866 19.0363 20.0193 19.0226L17.1344 18.4357L16.2792 21.0293C16.2592 21.0898 16.1714 21.0972 16.1357 21.0414L13 16.1276" stroke="#344054" stroke-width="1.2"/>
<path d="M12.8848 8.35254C12.9827 8.49539 13.1269 8.60038 13.293 8.64941L14.7939 9.0918L13.8398 10.333C13.7345 10.4702 13.6798 10.6395 13.6846 10.8125L13.7266 12.377L12.252 11.8525C12.1296 11.8091 11.9987 11.7985 11.8721 11.8203L11.748 11.8525L10.2725 12.377L10.3154 10.8125C10.3202 10.6395 10.2655 10.4702 10.1602 10.333L9.20508 9.0918L10.707 8.64941C10.8731 8.60038 11.0173 8.49538 11.1152 8.35254L12 7.06055L12.8848 8.35254Z" stroke="#344054" stroke-width="1.2"/>
</g>
<defs>
<clipPath id="clip0_149_156">
<rect width="24" height="24" fill="white"/>
</clipPath>
</defs>
</svg>
