<svg width="24" height="24" viewBox="0 0 24 24" fill="none" xmlns="http://www.w3.org/2000/svg">
<path d="M5.291 10.003C5.64181 8.82727 6.29551 7.76436 7.18658 6.92086C8.07764 6.07736 9.17477 5.48289 10.368 5.19704C12.0427 4.7917 13.808 5.01637 15.3279 5.82828C16.8477 6.64019 18.0158 7.98263 18.61 9.60004M19 6.00004V10H15M18.705 14.005C18.3532 15.179 17.6995 16.24 16.809 17.082C15.9186 17.9239 14.8227 18.5174 13.631 18.803C11.9564 19.2081 10.1913 18.9833 8.67175 18.1714C7.15216 17.3595 5.98414 16.0172 5.39 14.4M5 18V14H9" stroke="#344054" stroke-width="1.2" stroke-linecap="round" stroke-linejoin="round"/>
</svg>
