<svg width="24" height="23" viewBox="0 0 24 23" fill="none" xmlns="http://www.w3.org/2000/svg">
<g filter="url(#filter0_d_150_325)">
<path fill-rule="evenodd" clip-rule="evenodd" d="M6.88562 2.46051C7.52562 2.22318 8.78828 2.36851 9.12162 3.09118C9.40562 3.70718 9.64962 4.74584 9.66295 4.52451C9.69495 4.03251 9.63095 2.96851 9.84562 2.41251C10.0016 2.00718 10.3083 1.62584 10.7603 1.49118C11.1403 1.37651 11.5869 1.33651 11.9816 1.41784C12.3989 1.50318 12.8376 1.80051 13.0016 2.08318C13.4843 2.91384 13.4923 4.61518 13.5149 4.52451C13.6003 4.16184 13.6083 2.88584 13.8923 2.41251C14.0803 2.09918 14.5549 1.81918 14.8083 1.77384C15.2003 1.70451 15.6829 1.68318 16.0936 1.76318C16.4256 1.82851 16.8749 2.22184 16.9963 2.41251C17.2883 2.87118 17.4523 4.16718 17.5016 4.62318C17.523 4.81118 17.6003 4.09918 17.8923 3.64184C18.4336 2.78984 20.351 2.62451 20.4229 4.49384C20.4576 5.36584 20.4496 5.32584 20.4496 5.91251C20.4496 6.60051 20.4336 7.01651 20.3963 7.51518C20.3563 8.04718 20.2416 9.25384 20.0749 9.83784C19.9603 10.2392 19.5803 11.1418 19.2043 11.6832C19.2043 11.6832 17.7723 13.3498 17.6163 14.0992C17.4603 14.8498 17.5123 14.8552 17.4803 15.3858C17.4496 15.9178 17.6416 16.6165 17.6416 16.6165C17.6416 16.6165 16.5736 16.7552 15.9963 16.6618C15.4749 16.5792 14.8296 15.5418 14.6629 15.2245C14.4336 14.7872 13.9443 14.8712 13.7536 15.1938C13.4549 15.7045 12.8083 16.6205 12.3536 16.6778C11.4616 16.7898 9.61362 16.7178 8.16695 16.7045C8.16695 16.7045 8.41362 15.3565 7.86428 14.8938C7.45762 14.5472 6.75762 13.8485 6.33895 13.4805L5.22962 12.2525C4.85228 11.7725 3.89362 11.0138 3.57228 9.60584C3.28828 8.35784 3.31628 7.74584 3.62162 7.24584C3.93095 6.73784 4.51495 6.46051 4.76028 6.41251C5.03762 6.35651 5.68295 6.36051 5.92695 6.49518C6.22428 6.65918 6.34428 6.70718 6.57762 7.01651C6.88428 7.42584 6.99362 7.62451 6.86162 7.17784C6.76028 6.82851 6.43228 6.38451 6.28295 5.88451C6.13762 5.40318 5.74828 4.62718 5.77628 3.84984C5.78695 3.55518 5.91362 2.82184 6.88562 2.46051Z" fill="white"/>
<path fill-rule="evenodd" clip-rule="evenodd" d="M6.88562 2.46051C7.52562 2.22318 8.78828 2.36851 9.12162 3.09118C9.40562 3.70718 9.64962 4.74584 9.66295 4.52451C9.69495 4.03251 9.63095 2.96851 9.84562 2.41251C10.0016 2.00718 10.3083 1.62584 10.7603 1.49118C11.1403 1.37651 11.5869 1.33651 11.9816 1.41784C12.3989 1.50318 12.8376 1.80051 13.0016 2.08318C13.4843 2.91384 13.4923 4.61518 13.5149 4.52451C13.6003 4.16184 13.6083 2.88584 13.8923 2.41251C14.0803 2.09918 14.5549 1.81918 14.8083 1.77384C15.2003 1.70451 15.6829 1.68318 16.0936 1.76318C16.4256 1.82851 16.8749 2.22184 16.9963 2.41251C17.2883 2.87118 17.4523 4.16718 17.5016 4.62318C17.5229 4.81118 17.6003 4.09918 17.8923 3.64184C18.4336 2.78984 20.3509 2.62451 20.4229 4.49384C20.4576 5.36584 20.4496 5.32584 20.4496 5.91251C20.4496 6.60051 20.4336 7.01651 20.3963 7.51518C20.3563 8.04718 20.2416 9.25384 20.0749 9.83784C19.9603 10.2392 19.5803 11.1418 19.2043 11.6832C19.2043 11.6832 17.7723 13.3498 17.6163 14.0992C17.4603 14.8498 17.5123 14.8552 17.4803 15.3858C17.4496 15.9178 17.6416 16.6165 17.6416 16.6165C17.6416 16.6165 16.5736 16.7552 15.9963 16.6618C15.4749 16.5792 14.8296 15.5418 14.6629 15.2245C14.4336 14.7872 13.9443 14.8712 13.7536 15.1938C13.4549 15.7045 12.8083 16.6205 12.3536 16.6778C11.4616 16.7898 9.61362 16.7178 8.16695 16.7045C8.16695 16.7045 8.41362 15.3565 7.86428 14.8938C7.45762 14.5472 6.75762 13.8485 6.33895 13.4805L5.22962 12.2525C4.85228 11.7725 3.89362 11.0138 3.57228 9.60584C3.28828 8.35784 3.31628 7.74584 3.62162 7.24584C3.93095 6.73784 4.51495 6.46051 4.76028 6.41251C5.03762 6.35651 5.68295 6.36051 5.92695 6.49518C6.22428 6.65918 6.34428 6.70718 6.57762 7.01651C6.88428 7.42584 6.99362 7.62451 6.86162 7.17784C6.76028 6.82851 6.43228 6.38451 6.28295 5.88451C6.13762 5.40318 5.74828 4.62718 5.77628 3.84984C5.78695 3.55518 5.91362 2.82184 6.88562 2.46051V2.46051Z" stroke="#121212" stroke-width="0.75" stroke-linejoin="round"/>
<path d="M16.2099 12.7249V8.11292" stroke="#121212" stroke-width="0.75" stroke-linecap="round"/>
<path d="M13.5224 12.7405L13.5011 8.10986" stroke="#121212" stroke-width="0.75" stroke-linecap="round"/>
<path d="M10.861 8.15198L10.889 12.72" stroke="#121212" stroke-width="0.75" stroke-linecap="round"/>
</g>
<defs>
<filter id="filter0_d_150_325" x="0" y="0" width="23.8254" height="22.1146" filterUnits="userSpaceOnUse" color-interpolation-filters="sRGB">
<feFlood flood-opacity="0" result="BackgroundImageFix"/>
<feColorMatrix in="SourceAlpha" type="matrix" values="0 0 0 0 0 0 0 0 0 0 0 0 0 0 0 0 0 0 127 0" result="hardAlpha"/>
<feOffset dy="2"/>
<feGaussianBlur stdDeviation="1.5"/>
<feColorMatrix type="matrix" values="0 0 0 0 0 0 0 0 0 0 0 0 0 0 0 0 0 0 0.402655 0"/>
<feBlend mode="normal" in2="BackgroundImageFix" result="effect1_dropShadow_150_325"/>
<feBlend mode="normal" in="SourceGraphic" in2="effect1_dropShadow_150_325" result="shape"/>
</filter>
</defs>
</svg>
