<svg width="24" height="24" viewBox="0 0 24 24" fill="none" xmlns="http://www.w3.org/2000/svg">
<g clip-path="url(#clip0_149_111)">
<path d="M14.653 6.17539L17 3.8284C17.7811 3.04735 19.0474 3.04735 19.8284 3.8284C20.6095 4.60945 20.6095 5.87578 19.8284 6.65683L17.4814 9.00382M12.3963 8.43211L3.44542 17.383C2.91336 17.915 2.6042 18.63 2.58094 19.382L2.57237 19.6592C2.57213 19.6668 2.57116 19.6743 2.56945 19.6818C2.37583 20.5254 3.13141 21.281 3.97506 21.0874C3.98249 21.0857 3.99006 21.0847 3.99768 21.0845L4.27478 21.0759C5.02687 21.0526 5.74179 20.7435 6.27385 20.2114L15.2247 11.2605" stroke="#344054" stroke-width="1.2"/>
<path d="M14.7252 8.05902C14.9595 8.29333 15.3394 8.29333 15.5737 8.05902C15.808 7.8247 15.808 7.4448 15.5737 7.21049L15.1494 7.63475L14.7252 8.05902ZM17.4243 9.06105L17 8.63679L16.1515 9.48532L16.5757 9.90958L17 9.48532L17.4243 9.06105ZM15.2322 11.9602L15.6565 11.5359L12.121 8.00039L11.6967 8.42466L11.2724 8.84892L14.808 12.3845L15.2322 11.9602ZM13.818 6.30334L13.3938 6.7276L14.7252 8.05902L15.1494 7.63475L15.5737 7.21049L14.2423 5.87907L13.818 6.30334ZM17 9.48532L16.5757 9.90958L16.9293 10.2631L17.3536 9.83887L17.7778 9.41461L17.4243 9.06105L17 9.48532ZM11.6967 8.42466L12.121 8.00039C11.7695 7.64892 11.7695 7.07907 12.121 6.7276L11.6967 6.30334L11.2724 5.87907C10.4523 6.69917 10.4523 8.02882 11.2724 8.84892L11.6967 8.42466ZM17.3536 11.9602L16.9293 11.5359C16.5778 11.8874 16.008 11.8874 15.6565 11.5359L15.2322 11.9602L14.808 12.3845C15.6281 13.2046 16.9577 13.2046 17.7778 12.3845L17.3536 11.9602ZM17.3536 11.9602L17.7778 12.3845C18.5979 11.5644 18.5979 10.2347 17.7778 9.41461L17.3536 9.83887L16.9293 10.2631C17.2808 10.6146 17.2808 11.1845 16.9293 11.5359L17.3536 11.9602ZM11.6967 6.30334L12.121 6.7276C12.4724 6.37613 13.0423 6.37613 13.3938 6.7276L13.818 6.30334L14.2423 5.87907C13.4222 5.05897 12.0925 5.05897 11.2724 5.87907L11.6967 6.30334Z" fill="#344054"/>
</g>
<defs>
<clipPath id="clip0_149_111">
<rect width="24" height="24" fill="white"/>
</clipPath>
</defs>
</svg>
