<svg width="24" height="24" viewBox="0 0 24 24" fill="none" xmlns="http://www.w3.org/2000/svg">
<path d="M9 4V20M9 4H4.88889C4.65314 4 4.42705 4.09365 4.26035 4.26035C4.09365 4.42705 4 4.65314 4 4.88889V19.1111C4 19.3469 4.09365 19.573 4.26035 19.7397C4.42705 19.9064 4.65314 20 4.88889 20H9M9 4H19.1111C19.3469 4 19.573 4.09365 19.7397 4.26035C19.9064 4.42705 20 4.65314 20 4.88889V19.1111C20 19.3469 19.9064 19.573 19.7397 19.7397C19.573 19.9064 19.3469 20 19.1111 20H9M15 4V20" stroke="#344054" stroke-width="1.2" stroke-linecap="round" stroke-linejoin="round"/>
</svg>
