<svg width="21" height="22" viewBox="0 0 21 22" fill="none" xmlns="http://www.w3.org/2000/svg">
<g filter="url(#filter0_d_150_358)">
<path fill-rule="evenodd" clip-rule="evenodd" d="M9.73682 15.3687V15.815H17.3158V7.39392H9.73682V7.7535V15.3687Z" fill="white"/>
<path fill-rule="evenodd" clip-rule="evenodd" d="M3 14.4863V1L12.7608 10.7844H7.05053L6.70442 10.8888L3 14.4863Z" fill="white"/>
<path fill-rule="evenodd" clip-rule="evenodd" d="M10.6501 15.0541L7.61431 16.3468L3.67157 7.00866L6.77557 5.70087L10.6501 15.0541Z" fill="white"/>
<path fill-rule="evenodd" clip-rule="evenodd" d="M9.52714 14.4809L7.9743 15.1327L5.36377 8.92302L6.91409 8.27039L9.52714 14.4809Z" fill="#121212"/>
<path fill-rule="evenodd" clip-rule="evenodd" d="M15.6316 10.7626H11.421V9.92048H15.6316V10.7626ZM15.6316 12.4468H11.421V11.6047H15.6316V12.4468ZM15.6316 14.131H11.421V13.2889H15.6316V14.131ZM10.5789 14.9731H16.4737V8.23627H10.5789V14.9731Z" fill="#121212"/>
<path fill-rule="evenodd" clip-rule="evenodd" d="M3.8421 3.02704V12.4485L6.34231 10.035L6.70273 9.91799H10.7179L3.8421 3.02704Z" fill="#121212"/>
</g>
<defs>
<filter id="filter0_d_150_358" x="0" y="0" width="20.3157" height="21.3467" filterUnits="userSpaceOnUse" color-interpolation-filters="sRGB">
<feFlood flood-opacity="0" result="BackgroundImageFix"/>
<feColorMatrix in="SourceAlpha" type="matrix" values="0 0 0 0 0 0 0 0 0 0 0 0 0 0 0 0 0 0 127 0" result="hardAlpha"/>
<feOffset dy="2"/>
<feGaussianBlur stdDeviation="1.5"/>
<feColorMatrix type="matrix" values="0 0 0 0 0 0 0 0 0 0 0 0 0 0 0 0 0 0 0.402655 0"/>
<feBlend mode="normal" in2="BackgroundImageFix" result="effect1_dropShadow_150_358"/>
<feBlend mode="normal" in="SourceGraphic" in2="effect1_dropShadow_150_358" result="shape"/>
</filter>
</defs>
</svg>
