<svg width="24" height="24" viewBox="0 0 24 24" fill="none" xmlns="http://www.w3.org/2000/svg">
<path d="M9.27273 9H4C2.89543 9 2 9.89543 2 11V17C2 18.1046 2.89543 19 4 19H20C21.1046 19 22 18.1046 22 17V12" stroke="#344054" stroke-width="1.5" stroke-linecap="round"/>
<path d="M14.9418 11.472L18.4719 7.94189" stroke="#344054" stroke-width="1.5" stroke-linecap="round" stroke-linejoin="round"/>
<path d="M16.1184 6.17689L16.3908 5.86153C16.9426 5.30985 17.6909 4.99994 18.4712 5C19.2514 5.00006 19.9997 5.31006 20.5514 5.86183C21.1031 6.41359 21.413 7.16192 21.4129 7.94217C21.4129 8.72243 21.1029 9.47071 20.5511 10.0224L20.2369 10.2954" stroke="#344054" stroke-width="1.5" stroke-linecap="round" stroke-linejoin="round"/>
<path d="M17.2953 13.2369L17.0617 13.5511C16.5035 14.1031 15.7501 14.4127 14.9651 14.4127C14.1801 14.4127 13.4267 14.1031 12.8685 13.5511C12.5934 13.279 12.3749 12.9551 12.2258 12.598C12.0768 12.241 12 11.8579 12 11.471C12 11.084 12.0768 10.7009 12.2258 10.3439C12.3749 9.98681 12.5934 9.66287 12.8685 9.39082L13.1768 9.11841" stroke="#344054" stroke-width="1.5" stroke-linecap="round" stroke-linejoin="round"/>
</svg>
