<svg width="24" height="24" viewBox="0 0 24 24" fill="none" xmlns="http://www.w3.org/2000/svg">
<path d="M22.5 15.0556C22.5 14.4726 22.0274 14 21.4444 14H14.0556C13.4726 14 13 14.4726 13 15.0556M22.5 15.0556V20.3333C22.5 20.9163 22.0274 21.3889 21.4444 21.3889H14.0556C13.4726 21.3889 13 20.9163 13 20.3333V15.0556M22.5 15.0556L17.75 18.2222L13 15.0556" stroke="#344054" stroke-width="1.2" stroke-linecap="round" stroke-linejoin="round"/>
<path d="M10 16.0039H6.657C4.085 15.9999 2 13.9929 2 11.5169C2 9.04188 4.085 7.03488 6.657 7.03488C7.05 5.27288 8.451 3.83488 10.332 3.26188C12.212 2.68988 14.288 3.06888 15.776 4.26188C17.264 5.45188 17.938 7.26888 17.546 9.03088H18.536C19.2758 9.03224 19.9958 9.27016 20.5908 9.70987C21.1858 10.1496 21.6246 10.768 21.843 11.4749" stroke="#344054" stroke-width="1.2" stroke-linecap="round" stroke-linejoin="round"/>
</svg>
