<svg width="24" height="24" viewBox="0 0 24 24" fill="none" xmlns="http://www.w3.org/2000/svg">
<g clip-path="url(#clip0_569_1291)">
<path d="M15 6.42137C14.4246 5.83596 13.7483 5.35382 13 5C13 4.46957 12.7893 3.96086 12.4142 3.58579C12.0391 3.21071 11.5304 3 11 3C10.4696 3 9.96086 3.21071 9.58579 3.58579C9.21071 3.96086 9 4.46957 9 5C7.85159 5.54303 6.8726 6.38833 6.16795 7.4453C5.4633 8.50227 5.05956 9.73107 5 11V14C4.92474 14.6217 4.70457 15.2171 4.35719 15.7381C4.00981 16.2592 3.54494 16.6914 3 17H19C18.4551 16.6914 17.9902 16.2592 17.6428 15.7381C17.4227 15.408 17.2537 15.0481 17.1403 14.6706" stroke="#344054" stroke-width="1.2" stroke-linecap="round" stroke-linejoin="round"/>
<path d="M8 17V18C8 18.7956 8.31607 19.5587 8.87868 20.1213C9.44129 20.6839 10.2044 21 11 21C11.7956 21 12.5587 20.6839 13.1213 20.1213C13.6839 19.5587 14 18.7956 14 18V17" stroke="#344054" stroke-width="1.2" stroke-linecap="round" stroke-linejoin="round"/>
<path d="M15.8748 13.1241C16.2063 13.1241 16.5242 12.9925 16.7586 12.7581C16.993 12.5237 17.1247 12.2058 17.1247 11.8743C17.1247 11.5428 16.993 11.2249 16.7586 10.9905C16.5242 10.7561 16.2063 10.6244 15.8748 10.6244C15.5433 10.6244 15.2254 10.7561 14.991 10.9905C14.7566 11.2249 14.6249 11.5428 14.6249 11.8743C14.6249 12.2058 14.7566 12.5237 14.991 12.7581C15.2254 12.9925 15.5433 13.1241 15.8748 13.1241Z" stroke="#344054" stroke-width="1.2" stroke-linecap="round" stroke-linejoin="round"/>
<path d="M12.1252 11.8743L14.6249 11.8743" stroke="#344054" stroke-width="1.2" stroke-linecap="round" stroke-linejoin="round"/>
<path d="M17.1247 11.8743L22.1241 11.8743" stroke="#344054" stroke-width="1.2" stroke-linecap="round" stroke-linejoin="round"/>
<path d="M19.6244 9.37451C19.9559 9.37451 20.2738 9.24283 20.5082 9.00844C20.7426 8.77404 20.8743 8.45613 20.8743 8.12465C20.8743 7.79316 20.7426 7.47526 20.5082 7.24086C20.2738 7.00647 19.9559 6.87479 19.6244 6.87479C19.293 6.87479 18.975 7.00647 18.7406 7.24086C18.5063 7.47526 18.3746 7.79316 18.3746 8.12465C18.3746 8.45613 18.5063 8.77404 18.7406 9.00844C18.975 9.24283 19.293 9.37451 19.6244 9.37451Z" stroke="#344054" stroke-width="1.2" stroke-linecap="round" stroke-linejoin="round"/>
<path d="M12.1252 8.12463L18.3745 8.12463" stroke="#344054" stroke-width="1.2" stroke-linecap="round" stroke-linejoin="round"/>
</g>
<defs>
<clipPath id="clip0_569_1291">
<rect width="24" height="24" fill="white"/>
</clipPath>
</defs>
</svg>
