<svg width="24" height="24" viewBox="0 0 24 24" fill="none" xmlns="http://www.w3.org/2000/svg">
<path d="M3 20V18.2222C3 17.2792 3.37707 16.3749 4.04825 15.7081C4.71943 15.0413 5.62975 14.6667 6.57895 14.6667H10.1579C11.1071 14.6667 12.0174 15.0413 12.6886 15.7081C13.3598 16.3749 13.7368 17.2792 13.7368 18.2222V20M14 4H21M16 7L21 7M18 10L21 10M11.9474 7.55556C11.9474 9.51923 10.345 11.1111 8.36842 11.1111C6.39182 11.1111 4.78947 9.51923 4.78947 7.55556C4.78947 5.59188 6.39182 4 8.36842 4C10.345 4 11.9474 5.59188 11.9474 7.55556Z" stroke="#344054" stroke-width="1.2" stroke-linecap="round"/>
</svg>
