<svg width="24" height="24" viewBox="0 0 24 24" fill="none" xmlns="http://www.w3.org/2000/svg">
<path d="M20.88 6.92C19.001 8.79685 16.8986 10.4358 14.62 11.8M12.2 9.38C13.5663 7.10248 15.2014 4.99739 17.07 3.11M8 3H16C18.7614 3 21 5.23858 21 8V16C21 18.7614 18.7614 21 16 21H8C5.23858 21 3 18.7614 3 16V8C3 5.23858 5.23858 3 8 3ZM12.4063 15.2097L9.38178 15.9658C9.19561 16.0124 9.00057 16.0099 8.81563 15.9587C8.6307 15.9074 8.46218 15.8092 8.32649 15.6735C8.1908 15.5378 8.09256 15.3693 8.04133 15.1844C7.99011 14.9994 7.98765 14.8044 8.03419 14.6182L8.79219 11.5862C8.95334 10.9416 9.32568 10.3695 9.84982 9.96117C10.374 9.55281 11.0197 9.33171 11.6842 9.3331H11.692C12.4818 9.33477 13.2387 9.64979 13.7965 10.209C14.3542 10.7682 14.6673 11.5259 14.6669 12.3157C14.6666 12.9811 14.444 13.6272 14.0344 14.1516C13.6248 14.6759 13.0518 15.0483 12.4063 15.2097Z" stroke="#344054" stroke-width="1.2" stroke-linecap="round" stroke-linejoin="round"/>
</svg>
