<svg width="24" height="24" viewBox="0 0 24 24" fill="none" xmlns="http://www.w3.org/2000/svg">
<path d="M16.4444 20H12V20C7.58172 20 4 16.4183 4 12C4 7.58172 7.58172 4 12 4C16.4183 4 20 7.58172 20 12V13.3333C20 14.5606 19.0051 15.5556 17.7778 15.5556C16.5505 15.5556 15.5556 14.5606 15.5556 13.3333V12C15.5556 10.0363 13.9637 8.44444 12 8.44444V8.44444C10.0363 8.44444 8.44444 10.0363 8.44444 12C8.44444 13.9637 10.0363 15.5556 12 15.5556C13.9637 15.5556 15.5556 13.9637 15.5556 12" stroke="#344054" stroke-width="1.2" stroke-linecap="round" stroke-linejoin="round"/>
</svg>
