<svg width="16" height="16" viewBox="0 0 16 16" fill="none" xmlns="http://www.w3.org/2000/svg">
<path d="M2.19937 7.24039L1.60938 9.00539V4.00039C1.60938 3.11789 2.32687 2.40039 3.20937 2.40039H6.67688C7.02188 2.40039 7.35938 2.51289 7.63688 2.72039L8.59688 3.44039C8.73438 3.54539 8.90438 3.60039 9.07688 3.60039H12.0094C12.8919 3.60039 13.6094 4.31789 13.6094 5.20039V5.60039H4.47438C3.44187 5.60039 2.52438 6.26039 2.19688 7.24039H2.19937ZM12.7444 12.8004H3.27437C2.45437 12.8004 1.87687 11.9979 2.13687 11.2204L3.33687 7.62039C3.49937 7.13039 3.95937 6.80039 4.47438 6.80039H13.9444C14.7644 6.80039 15.3419 7.60289 15.0819 8.38039L13.8819 11.9804C13.7194 12.4704 13.2594 12.8004 12.7444 12.8004Z" fill="#1D2939"/>
</svg>
