<svg width="24" height="24" viewBox="0 0 24 24" fill="none" xmlns="http://www.w3.org/2000/svg">
<circle cx="12" cy="12" r="10" stroke="#344054" stroke-width="1.2"/>
<path d="M8 9.41247C8.09584 8.3662 8.5074 7.53722 9.23467 6.92555C9.96758 6.30852 10.895 6 12.0169 6C13.2065 6 14.1677 6.30315 14.9006 6.90946C15.6335 7.5104 16 8.27767 16 9.21127C16 9.73709 15.8732 10.2254 15.6195 10.6761C15.3714 11.1268 14.9006 11.6258 14.2072 12.173C13.5137 12.7203 13.0881 13.1576 12.9302 13.4849C12.7724 13.8068 12.6934 14.3461 12.6934 15.1026H11.2051C11.2051 14.1046 11.3263 13.3749 11.5687 12.9135C11.8111 12.4467 12.2565 11.9504 12.9049 11.4245C13.5588 10.8987 13.9648 10.4963 14.1226 10.2173C14.2805 9.93293 14.3594 9.63246 14.3594 9.3159C14.3594 8.69886 14.1452 8.19182 13.7167 7.79477C13.2882 7.39235 12.7273 7.19115 12.0338 7.19115C10.6808 7.19115 9.88584 7.93159 9.64905 9.41247H8ZM12.871 18H11.1374V16.3501H12.871V18Z" fill="#344054"/>
</svg>
