<svg width="10" height="16" viewBox="0 0 10 16" fill="none" xmlns="http://www.w3.org/2000/svg">
<path fill-rule="evenodd" clip-rule="evenodd" d="M4.03198 2L4.03198 13.993H5.01798V2H4.03198Z" fill="#121212"/>
<path fill-rule="evenodd" clip-rule="evenodd" d="M3.01801 8V8.984H6.01801V8H3.01801Z" fill="#121212"/>
<path d="M5.01801 2.5C5.21057 2.04209 5.86782 1.33692 6.29445 1.10339C6.69803 0.880845 7.11313 0.691271 7.50979 0.591448C7.99523 0.467813 9.01801 0.505362 9.01801 0.505362" stroke="#121212"/>
<path d="M4.01801 2.5C3.83942 2.01964 3.10292 1.28308 2.77494 1.08271C2.38276 0.844812 1.94739 0.691096 1.54587 0.591364C1.05331 0.467843 0.0180054 0.505357 0.0180054 0.505357" stroke="#121212"/>
<path d="M5.01801 13.5C5.21057 13.9579 5.86782 14.6631 6.29445 14.8966C6.69803 15.1192 7.11313 15.3087 7.50979 15.4086C7.99523 15.5322 9.01801 15.4946 9.01801 15.4946" stroke="#121212"/>
<path d="M4.01801 13.5C3.83942 13.9804 3.10292 14.7169 2.77494 14.9173C2.38276 15.1552 1.94739 15.3089 1.54587 15.4086C1.05331 15.5322 0.0180054 15.4946 0.0180054 15.4946" stroke="#121212"/>
</svg>
