<svg width="24" height="24" viewBox="0 0 24 24" fill="none" xmlns="http://www.w3.org/2000/svg">
<path d="M21 14.5L18.781 12.625C18.35 12.28 17.72 12.35 17.375 12.781L14.039 16.951C13.694 17.382 13.065 17.452 12.633 17.107L10.765 15.612C10.34 15.272 9.72099 15.334 9.37199 15.753L4.99999 21M19.1935 21H4.80253C3.80828 21 3.00299 20.105 3.00299 19V5C3.00299 3.895 3.80828 3 4.80253 3H19.1935C20.1877 3 20.993 3.895 20.993 5V19C20.993 20.105 20.1868 21 19.1935 21ZM10.4142 7.58579C11.1952 8.36684 11.1952 9.63317 10.4142 10.4142C9.63315 11.1953 8.36682 11.1953 7.58577 10.4142C6.80472 9.63317 6.80472 8.36684 7.58577 7.58579C8.36682 6.80474 9.63315 6.80474 10.4142 7.58579Z" stroke="#344054" stroke-width="1.2" stroke-linecap="round" stroke-linejoin="round"/>
</svg>
