<svg width="24" height="24" viewBox="0 0 24 24" fill="none" xmlns="http://www.w3.org/2000/svg">
<path d="M20.9999 10V17C20.9999 19.2 19.1999 21 16.9999 21H6.99991L6.98991 20.999C4.77991 20.989 2.98991 19.199 2.98991 16.989V6.989C2.97991 4.779 4.77991 2.979 6.97991 2.979H12.9799M2.99999 13L4.28999 11.7H4.27999C5.21999 10.75 6.73999 10.75 7.67999 11.69L11.97 15.98M7.00291 21L13.2929 14.7V14.69C14.2329 13.74 15.7529 13.74 16.6929 14.69L20.6229 18.62M17.9998 3.00001L15.4998 5.50001M17.9998 3.00001L20.5 5.50001M17.9998 3.00001L18 8.00001" stroke="#344054" stroke-width="1.2" stroke-linecap="round" stroke-linejoin="round"/>
</svg>
