<svg width="24" height="24" viewBox="0 0 24 24" fill="none" xmlns="http://www.w3.org/2000/svg">
<path d="M14.2909 8.87879C14.1823 8.57929 13.9841 8.31824 13.7216 8.12922C13.4591 7.94021 13.1445 7.83188 12.8182 7.81818H10.6364C10.2024 7.81818 9.78616 7.9858 9.47928 8.28415C9.1724 8.5825 9 8.98716 9 9.40909C9 9.83103 9.1724 10.2357 9.47928 10.534C9.78616 10.8324 10.2024 11 10.6364 11H12.8182C13.2522 11 13.6684 11.1676 13.9753 11.466C14.2821 11.7643 14.4545 12.169 14.4545 12.5909C14.4545 13.0128 14.2821 13.4175 13.9753 13.7159C13.6684 14.0142 13.2522 14.1818 12.8182 14.1818H10.6364C10.31 14.1681 9.99541 14.0598 9.73294 13.8708C9.47048 13.6818 9.27221 13.4207 9.16364 13.1212M11.7273 6V7.66667M11.7273 14.3333V16M4 3H20C20.5523 3 21 3.44772 21 4V17.3962C21 17.6368 20.9133 17.8693 20.7557 18.0511L18.8995 20.1929C18.5208 20.6298 17.8517 20.6555 17.4406 20.249L16.1032 18.9262C15.7136 18.5409 15.0864 18.5409 14.6968 18.9262L13.2208 20.386C12.8652 20.7377 12.3044 20.7726 11.9079 20.4676L9.74764 18.8059C9.32785 18.483 8.7291 18.5433 8.38224 18.9436L7.26636 20.2311C6.90022 20.6536 6.25884 20.6938 5.84277 20.3204L3.33209 18.0673C3.12074 17.8776 3 17.607 3 17.323V4C3 3.44772 3.44772 3 4 3Z" stroke="#344054" stroke-width="1.2" stroke-linecap="round" stroke-linejoin="round"/>
</svg>
