<svg width="24" height="24" viewBox="0 0 24 24" fill="none" xmlns="http://www.w3.org/2000/svg">
<path d="M10.2577 13.7423C10.5416 14.032 10.8805 14.2622 11.2544 14.4193C11.6284 14.5765 12.0299 14.6574 12.4356 14.6574C12.8412 14.6574 13.2428 14.5765 13.6167 14.4193C13.9907 14.2622 14.3295 14.032 14.6134 13.7423L18.0979 10.2577C18.6755 9.68014 19 8.89676 19 8.07991C19 7.26307 18.6755 6.47968 18.0979 5.90209C17.5203 5.32449 16.7369 5 15.9201 5C15.1032 5 14.3199 5.32449 13.7423 5.90209L13.3067 6.33765M13.7423 10.2577C13.4584 9.968 13.1195 9.73782 12.7456 9.58069C12.3716 9.42355 11.9701 9.34261 11.5644 9.34261C11.1588 9.34261 10.7572 9.42355 10.3833 9.58069C10.0093 9.73782 9.67049 9.968 9.38661 10.2577L5.90209 13.7423C5.32449 14.3199 5 15.1032 5 15.9201C5 16.7369 5.32449 17.5203 5.90209 18.0979C6.47968 18.6755 7.26307 19 8.07991 19C8.89676 19 9.68014 18.6755 10.2577 18.0979L10.6933 17.6623" stroke="#344054" stroke-width="1.2" stroke-linecap="round" stroke-linejoin="round"/>
</svg>
