<svg width="24" height="24" viewBox="0 0 24 24" fill="none" xmlns="http://www.w3.org/2000/svg">
<path d="M11.125 5H19M11.2562 9.33333H19M6.09375 9.33333V5L5 6.08333M11.125 13.6667H19M11.2562 18H19M5 14.5333C5 14.3035 5.09219 14.083 5.25628 13.9205C5.42038 13.758 5.64294 13.6667 5.875 13.6667H6.41267C6.63829 13.6667 6.8582 13.737 7.04123 13.8677C7.22427 13.9983 7.36115 14.1827 7.4325 14.3947C7.4912 14.5692 7.5033 14.7557 7.46761 14.9361C7.43193 15.1166 7.34967 15.2848 7.22886 15.4244L5 18H7.625M5 9.33333H7.1875" stroke="#344054" stroke-width="1.2" stroke-linecap="round" stroke-linejoin="round"/>
</svg>
