<svg width="24" height="24" viewBox="0 0 24 24" fill="none" xmlns="http://www.w3.org/2000/svg">
<path d="M12 5.77778H19M12 12H19M12 18.2222H19M8.5 5.77778C8.5 6.75962 7.7165 7.55556 6.75 7.55556C5.7835 7.55556 5 6.75962 5 5.77778C5 4.79594 5.7835 4 6.75 4C7.7165 4 8.5 4.79594 8.5 5.77778ZM8.5 12C8.5 12.9818 7.7165 13.7778 6.75 13.7778C5.7835 13.7778 5 12.9818 5 12C5 11.0182 5.7835 10.2222 6.75 10.2222C7.7165 10.2222 8.5 11.0182 8.5 12ZM8.5 18.2222C8.5 19.2041 7.7165 20 6.75 20C5.7835 20 5 19.2041 5 18.2222C5 17.2404 5.7835 16.4444 6.75 16.4444C7.7165 16.4444 8.5 17.2404 8.5 18.2222Z" stroke="#344054" stroke-width="1.2" stroke-linecap="round" stroke-linejoin="round"/>
</svg>
