<svg width="24" height="24" viewBox="0 0 24 24" fill="none" xmlns="http://www.w3.org/2000/svg">
<g clip-path="url(#clip0_177_1045)">
<path d="M13 19H5C4.46957 19 3.96086 18.7893 3.58579 18.4142C3.21071 18.0391 3 17.5304 3 17V7C3 6.46957 3.21071 5.96086 3.58579 5.58579C3.96086 5.21071 4.46957 5 5 5H19C19.5304 5 20.0391 5.21071 20.4142 5.58579C20.7893 5.96086 21 6.46957 21 7V10.5" stroke="#344054" stroke-width="1.2" stroke-linecap="round" stroke-linejoin="round"/>
<path d="M3 7L12 13L21 7" stroke="#344054" stroke-width="1.2" stroke-linecap="round" stroke-linejoin="round"/>
<path d="M16 17.4286C16 17.2012 16.0903 16.9832 16.2511 16.8225C16.4118 16.6617 16.6298 16.5714 16.8571 16.5714H21.1429C21.3702 16.5714 21.5882 16.6617 21.7489 16.8225C21.9097 16.9832 22 17.2012 22 17.4286V20C22 20.2273 21.9097 20.4453 21.7489 20.6061C21.5882 20.7668 21.3702 20.8571 21.1429 20.8571H16.8571C16.6298 20.8571 16.4118 20.7668 16.2511 20.6061C16.0903 20.4453 16 20.2273 16 20V17.4286Z" stroke="#344054" stroke-width="1.2" stroke-linecap="round" stroke-linejoin="round"/>
<path d="M17.2857 16.5714V14.8571C17.2857 14.4025 17.4663 13.9664 17.7878 13.6449C18.1093 13.3234 18.5453 13.1428 19 13.1428C19.4547 13.1428 19.8907 13.3234 20.2122 13.6449C20.5337 13.9664 20.7143 14.4025 20.7143 14.8571V16.5714" stroke="#344054" stroke-width="1.2" stroke-linecap="round" stroke-linejoin="round"/>
</g>
<defs>
<clipPath id="clip0_177_1045">
<rect width="24" height="24" fill="white"/>
</clipPath>
</defs>
</svg>
