<svg width="24" height="24" viewBox="0 0 24 24" fill="none" xmlns="http://www.w3.org/2000/svg">
<g clip-path="url(#clip0_177_433)">
<path d="M15.0918 20.6582C15.0554 21.0244 14.8944 21.3693 14.6318 21.6318C14.3318 21.9319 13.9243 22.0996 13.5 22.0996C13.0757 22.0996 12.6682 21.9319 12.3682 21.6318C12.0681 21.3318 11.9004 20.9243 11.9004 20.5C11.9004 20.0757 12.0681 19.6682 12.3682 19.3682C12.6682 19.0681 13.0757 18.9004 13.5 18.9004L13.6582 18.9082C14.0244 18.9446 14.3693 19.1056 14.6318 19.3682C14.9319 19.6682 15.0996 20.0757 15.0996 20.5L15.0918 20.6582Z" stroke="#344054" stroke-width="1.2" stroke-linecap="round" stroke-linejoin="round"/>
<path d="M20.5 17L20.5 19.5C20.5 19.7652 20.3946 20.0196 20.2071 20.2071C20.0196 20.3946 19.7652 20.5 19.5 20.5L15.5 20.5" stroke="#344054" stroke-width="1.2" stroke-linecap="round" stroke-linejoin="round"/>
<path d="M19 17.5L20.5 16L22 17.5" stroke="#344054" stroke-width="1.2" stroke-linecap="round" stroke-linejoin="round"/>
<path d="M18.4082 11.8418C18.4446 11.4756 18.6056 11.1307 18.8682 10.8682C19.1682 10.5681 19.5757 10.4004 20 10.4004C20.4243 10.4004 20.8318 10.5681 21.1318 10.8682C21.4319 11.1682 21.5996 11.5757 21.5996 12C21.5996 12.4243 21.4319 12.8318 21.1318 13.1318C20.8318 13.4319 20.4243 13.5996 20 13.5996L19.8418 13.5918C19.4756 13.5554 19.1307 13.3944 18.8682 13.1318C18.5681 12.8318 18.4004 12.4243 18.4004 12L18.4082 11.8418Z" stroke="#344054" stroke-width="1.2" stroke-linecap="round" stroke-linejoin="round"/>
<path d="M13 15.5L13 13C13 12.7348 13.1054 12.4804 13.2929 12.2929C13.4804 12.1054 13.7348 12 14 12L18 12" stroke="#344054" stroke-width="1.2" stroke-linecap="round" stroke-linejoin="round"/>
<path d="M14.5 15L13 16.5L11.5 15" stroke="#344054" stroke-width="1.2" stroke-linecap="round" stroke-linejoin="round"/>
<path d="M20 8V7C20 5.89543 19.1046 5 18 5H6C4.89543 5 4 5.89543 4 7V11C4 12.1046 4.89543 13 6 13H10" stroke="#344054" stroke-width="1.2" stroke-linecap="round"/>
<path d="M7 7V11" stroke="#344054" stroke-width="1.2" stroke-linecap="round"/>
</g>
<defs>
<clipPath id="clip0_177_433">
<rect width="24" height="24" fill="white"/>
</clipPath>
</defs>
</svg>
