<svg width="24" height="24" viewBox="0 0 24 24" fill="none" xmlns="http://www.w3.org/2000/svg">
<path d="M3 16.5996H7C7.22091 16.5996 7.40039 16.7791 7.40039 17V21C7.40039 21.2209 7.22091 21.4004 7 21.4004H3C2.77909 21.4004 2.59961 21.2209 2.59961 21V17C2.59961 16.7791 2.77909 16.5996 3 16.5996ZM10 16.5996H14C14.2209 16.5996 14.4004 16.7791 14.4004 17V21C14.4004 21.2209 14.2209 21.4004 14 21.4004H10C9.77909 21.4004 9.59961 21.2209 9.59961 21V17C9.59961 16.7791 9.77909 16.5996 10 16.5996ZM17 16.5996H21C21.2209 16.5996 21.4004 16.7791 21.4004 17V21C21.4004 21.2209 21.2209 21.4004 21 21.4004H17C16.7791 21.4004 16.5996 21.2209 16.5996 21V17C16.5996 16.7791 16.7791 16.5996 17 16.5996ZM3 9.59961H7C7.22091 9.59961 7.40039 9.77909 7.40039 10V14C7.40039 14.2209 7.22091 14.4004 7 14.4004H3C2.77909 14.4004 2.59961 14.2209 2.59961 14V10C2.59961 9.77909 2.77909 9.59961 3 9.59961ZM10 9.59961H14C14.2209 9.59961 14.4004 9.77909 14.4004 10V14C14.4004 14.2209 14.2209 14.4004 14 14.4004H10C9.77909 14.4004 9.59961 14.2209 9.59961 14V10C9.59961 9.77909 9.77909 9.59961 10 9.59961ZM17 9.59961H21C21.2209 9.59961 21.4004 9.77909 21.4004 10V14C21.4004 14.2209 21.2209 14.4004 21 14.4004H17C16.7791 14.4004 16.5996 14.2209 16.5996 14V10C16.5996 9.77909 16.7791 9.59961 17 9.59961ZM3 2.59961H7C7.22091 2.59961 7.40039 2.77909 7.40039 3V7C7.40039 7.22091 7.22091 7.40039 7 7.40039H3C2.77909 7.40039 2.59961 7.22091 2.59961 7V3C2.59961 2.77909 2.77909 2.59961 3 2.59961ZM10 2.59961H14C14.2209 2.59961 14.4004 2.77909 14.4004 3V7C14.4004 7.22091 14.2209 7.40039 14 7.40039H10C9.77909 7.40039 9.59961 7.22091 9.59961 7V3C9.59961 2.77909 9.77909 2.59961 10 2.59961ZM17 2.59961H21C21.2209 2.59961 21.4004 2.77909 21.4004 3V7C21.4004 7.22091 21.2209 7.40039 21 7.40039H17C16.7791 7.40039 16.5996 7.22091 16.5996 7V3C16.5996 2.77909 16.7791 2.59961 17 2.59961Z" stroke="#344054" stroke-width="1.2"/>
</svg>
