<svg width="24" height="24" viewBox="0 0 24 24" fill="none" xmlns="http://www.w3.org/2000/svg">
<path d="M15 4H9C6.23858 4 4 6.23858 4 9V15C4 17.7614 6.23858 20 9 20H15C17.7614 20 20 17.7614 20 15V9C20 6.23858 17.7614 4 15 4Z" stroke="#344054" stroke-width="1.2" stroke-linecap="round" stroke-linejoin="round"/>
<path d="M9.58463 10.0015C9.58464 9.82456 9.6316 9.65078 9.72073 9.4979C9.80985 9.34503 9.93795 9.21854 10.0919 9.13136C10.2459 9.04417 10.4203 8.99941 10.5972 9.00164C10.7742 9.00387 10.9474 9.05301 11.0991 9.14405L14.4299 11.1425C14.5779 11.2314 14.7005 11.3571 14.7856 11.5073C14.8706 11.6576 14.9153 11.8273 14.9153 12C14.9153 12.1727 14.8706 12.3424 14.7856 12.4927C14.7005 12.6429 14.5779 12.7686 14.4299 12.8575L11.0991 14.856C10.9474 14.947 10.7742 14.9962 10.5972 14.9984C10.4203 15.0006 10.2459 14.9559 10.0919 14.8687C9.93795 14.7815 9.80985 14.655 9.72073 14.5021C9.6316 14.3493 9.58464 14.1755 9.58463 13.9985V10.0015Z" stroke="#344054" stroke-width="1.2" stroke-linecap="round" stroke-linejoin="round"/>
</svg>
