<svg width="24" height="24" viewBox="0 0 24 24" fill="none" xmlns="http://www.w3.org/2000/svg">
<path d="M3 4.125C3 3.50368 3.50368 3 4.125 3H8.625C9.24632 3 9.75 3.50368 9.75 4.125V8.625C9.75 9.24632 9.24632 9.75 8.625 9.75H4.125C3.50368 9.75 3 9.24632 3 8.625V4.125Z" stroke="#344054" stroke-width="1.2"/>
<path d="M3 15.375C3 14.7537 3.50368 14.25 4.125 14.25H8.625C9.24632 14.25 9.75 14.7537 9.75 15.375V19.875C9.75 20.4963 9.24632 21 8.625 21H4.125C3.50368 21 3 20.4963 3 19.875V15.375Z" stroke="#344054" stroke-width="1.2"/>
<path d="M14.25 4.125C14.25 3.50368 14.7537 3 15.375 3H19.875C20.4963 3 21 3.50368 21 4.125V8.625C21 9.24632 20.4963 9.75 19.875 9.75H15.375C14.7537 9.75 14.25 9.24632 14.25 8.625V4.125Z" stroke="#344054" stroke-width="1.2"/>
<path d="M14.25 15.375C14.25 14.7537 14.7537 14.25 15.375 14.25H19.875C20.4963 14.25 21 14.7537 21 15.375V19.875C21 20.4963 20.4963 21 19.875 21H15.375C14.7537 21 14.25 20.4963 14.25 19.875V15.375Z" stroke="#344054" stroke-width="1.2"/>
</svg>
