<svg width="24" height="24" viewBox="0 0 24 24" fill="none" xmlns="http://www.w3.org/2000/svg">
<path d="M8.99991 5.8421C8.99991 5.08833 9.31598 4.36543 9.87859 3.83243C10.4412 3.29944 11.2043 3 11.9999 3C12.7956 3 13.5586 3.29944 14.1212 3.83243C14.6838 4.36543 14.9999 5.08833 14.9999 5.8421V10.5789C14.9999 11.3327 14.6838 12.0556 14.1212 12.5886C13.5586 13.1216 12.7956 13.4211 11.9999 13.4211C11.2043 13.4211 10.4412 13.1216 9.87859 12.5886C9.31598 12.0556 8.99991 11.3327 8.99991 10.5789V5.8421Z" stroke="#344054" stroke-width="1.2" stroke-linecap="round" stroke-linejoin="round"/>
<path d="M4.99997 10.579C4.99997 12.3378 5.73747 14.0246 7.05022 15.2682C8.36298 16.5119 10.1435 17.2106 12 17.2106C13.8565 17.2106 15.637 16.5119 16.9497 15.2682C18.2625 14.0246 19 12.3378 19 10.579" stroke="#344054" stroke-width="1.2" stroke-linecap="round" stroke-linejoin="round"/>
<path d="M7.99991 21H15.9999" stroke="#344054" stroke-width="1.2" stroke-linecap="round" stroke-linejoin="round"/>
<path d="M11.9999 17.2106V21" stroke="#344054" stroke-width="1.2" stroke-linecap="round" stroke-linejoin="round"/>
</svg>
