<svg width="24" height="24" viewBox="0 0 24 24" fill="none" xmlns="http://www.w3.org/2000/svg">
<g clip-path="url(#clip0_177_1058)">
<path d="M13.0339 16.2034H3.05085C2.77215 16.2034 2.50486 16.0927 2.30779 15.8956C2.11071 15.6986 2 15.4313 2 15.1526V4.64411C2 4.36541 2.11071 4.09812 2.30779 3.90105C2.50486 3.70398 2.77215 3.59326 3.05085 3.59326H19.8644C20.1431 3.59326 20.4104 3.70398 20.6075 3.90105C20.8045 4.09812 20.9153 4.36541 20.9153 4.64411V5.16953" stroke="#344054" stroke-width="1.2" stroke-linecap="round" stroke-linejoin="round"/>
<path d="M9 20L13 20" stroke="#344054" stroke-width="1.2" stroke-linecap="round" stroke-linejoin="round"/>
<path d="M11 16.2034V19.4068" stroke="#344054" stroke-width="1.2" stroke-linecap="round" stroke-linejoin="round"/>
<path d="M14.9604 9.081C14.9604 8.74036 15.0958 8.41368 15.3366 8.17281C15.5775 7.93195 15.9042 7.79663 16.2448 7.79663H21.3823C21.7229 7.79663 22.0496 7.93195 22.2905 8.17281C22.5313 8.41368 22.6667 8.74036 22.6667 9.081V18.0716C22.6667 18.4122 22.5313 18.7389 22.2905 18.9798C22.0496 19.2206 21.7229 19.356 21.3823 19.356H16.2448C15.9042 19.356 15.5775 19.2206 15.3366 18.9798C15.0958 18.7389 14.9604 18.4122 14.9604 18.0716V9.081Z" stroke="#344054" stroke-width="1.2" stroke-linecap="round" stroke-linejoin="round"/>
<path d="M18.043 8.56726H19.5842" stroke="#344054" stroke-width="1.2" stroke-linecap="round" stroke-linejoin="round"/>
</g>
<defs>
<clipPath id="clip0_177_1058">
<rect width="24" height="24" fill="white"/>
</clipPath>
</defs>
</svg>
