<svg width="24" height="24" viewBox="0 0 24 24" fill="none" xmlns="http://www.w3.org/2000/svg">
<path d="M4 5.59961H8C8.22091 5.59961 8.40039 5.77909 8.40039 6V10C8.40039 10.2209 8.22091 10.4004 8 10.4004H4C3.77909 10.4004 3.59961 10.2209 3.59961 10V6C3.59961 5.77909 3.77909 5.59961 4 5.59961Z" stroke="#344054" stroke-width="1.2"/>
<path d="M4 13.5996H8C8.22091 13.5996 8.40039 13.7791 8.40039 14V18C8.40039 18.2209 8.22091 18.4004 8 18.4004H4C3.77909 18.4004 3.59961 18.2209 3.59961 18V14C3.59961 13.7791 3.77909 13.5996 4 13.5996Z" stroke="#344054" stroke-width="1.2"/>
<line x1="11" y1="8.4" x2="21" y2="8.4" stroke="#344054" stroke-width="1.2"/>
<line x1="11" y1="16.4" x2="21" y2="16.4" stroke="#344054" stroke-width="1.2"/>
</svg>
