<svg width="22" height="22" viewBox="0 0 22 22" fill="none" xmlns="http://www.w3.org/2000/svg">
<g filter="url(#filter0_d_150_352)">
<path fill-rule="evenodd" clip-rule="evenodd" d="M7.37934 9.27835C7.28134 8.90335 7.18334 8.43135 6.97334 7.72635C6.80634 7.16935 6.63134 6.86735 6.50334 6.49335C6.34834 6.03835 6.20034 5.77235 6.00734 5.31235C5.86834 4.98335 5.64334 4.26435 5.55034 3.87235C5.43134 3.36335 5.58334 2.94835 5.79434 2.66635C6.04734 2.32735 6.75634 2.17635 7.15134 2.31535C7.52234 2.44535 7.89534 2.82735 8.06734 3.10335C8.35534 3.56335 8.42434 3.73535 8.78434 4.64535C9.17734 5.63735 9.34834 6.56335 9.39534 6.87635L9.48034 7.32835C9.47934 7.28835 9.43734 6.20635 9.43634 6.16635C9.40134 5.13735 9.37634 4.34335 9.39834 3.22735C9.40034 3.10135 9.46234 2.64035 9.48234 2.51235C9.56034 2.01235 9.78734 1.71235 10.1553 1.53335C10.5673 1.33235 11.0813 1.31835 11.5563 1.51635C11.9793 1.68935 12.1823 2.06635 12.2433 2.53835C12.2573 2.64735 12.3373 3.52535 12.3363 3.64535C12.3233 4.67035 12.3423 5.28635 12.3513 5.81935C12.3553 6.05035 12.3543 7.44435 12.3683 7.28835C12.4293 6.63235 12.4623 4.09935 12.7123 3.34635C12.8563 2.91335 13.1173 2.60035 13.5063 2.41735C13.9373 2.21435 14.6193 2.34735 14.9103 2.66035C15.1953 2.96535 15.3563 3.35235 15.3923 3.81335C15.4243 4.21835 15.3733 4.71035 15.3723 5.05835C15.3723 5.92535 15.3513 6.38235 15.3353 7.17935C15.3343 7.21735 15.3203 7.47735 15.3583 7.36135C15.4523 7.08135 15.5463 6.81935 15.6243 6.61635C15.6733 6.49135 15.8653 6.00235 15.9833 5.75735C16.0973 5.52335 16.1943 5.38835 16.3983 5.06935C16.5983 4.75635 16.8133 4.62135 17.0663 4.50835C17.6063 4.27335 18.1753 4.62035 18.3673 5.09935C18.4533 5.31435 18.3763 5.81235 18.3393 6.20435C18.2783 6.85135 18.0853 7.51035 17.9873 7.85235C17.8593 8.29935 17.7133 9.08735 17.6473 9.45335C17.5753 9.84735 17.4133 10.8354 17.2883 11.2734C17.2023 11.5744 16.9173 12.2514 16.6363 12.6574C16.6363 12.6574 15.5623 13.9074 15.4443 14.4694C15.3273 15.0324 15.3663 15.0364 15.3433 15.4344C15.3193 15.8334 15.4643 16.3574 15.4643 16.3574C15.4643 16.3574 14.6623 16.4614 14.2303 16.3914C13.8393 16.3294 13.3553 15.5504 13.2303 15.3134C13.0583 14.9854 12.6913 15.0484 12.5483 15.2904C12.3233 15.6734 11.8393 16.3604 11.4973 16.4034C10.8293 16.4874 9.44334 16.4334 8.35834 16.4234C8.35834 16.4234 8.54334 15.4124 8.13134 15.0654C7.82634 14.8054 7.30134 14.2814 6.98734 14.0054L6.15534 13.0844C5.87134 12.7244 5.52634 11.9914 4.91234 11.0994C4.56434 10.5954 3.88534 10.0144 3.62834 9.52035C3.40534 9.09535 3.29734 8.56635 3.43834 8.19535C3.66334 7.60135 4.11334 7.29835 4.80034 7.36335C5.31934 7.41335 5.64834 7.56935 6.03834 7.90035C6.26334 8.09035 6.61134 8.43435 6.78834 8.64835C6.95134 8.84335 6.99134 8.92435 7.16534 9.15735C7.39534 9.46435 7.46734 9.61635 7.37934 9.27835Z" fill="white"/>
<path d="M7.37934 9.27835C7.28134 8.90335 7.18334 8.43135 6.97334 7.72635C6.80634 7.16935 6.63134 6.86735 6.50334 6.49335C6.34834 6.03835 6.20034 5.77235 6.00734 5.31235C5.86834 4.98335 5.64334 4.26435 5.55034 3.87235C5.43134 3.36335 5.58334 2.94835 5.79434 2.66635C6.04734 2.32735 6.75634 2.17635 7.15134 2.31535C7.52234 2.44535 7.89534 2.82735 8.06734 3.10335C8.35534 3.56335 8.42434 3.73535 8.78434 4.64535C9.17734 5.63735 9.34834 6.56335 9.39534 6.87635L9.48034 7.32835C9.47934 7.28835 9.43734 6.20635 9.43634 6.16635C9.40134 5.13735 9.37634 4.34335 9.39834 3.22735C9.40034 3.10135 9.46234 2.64035 9.48234 2.51235C9.56034 2.01235 9.78734 1.71235 10.1553 1.53335C10.5673 1.33235 11.0813 1.31835 11.5563 1.51635C11.9793 1.68935 12.1823 2.06635 12.2433 2.53835C12.2573 2.64735 12.3373 3.52535 12.3363 3.64535C12.3233 4.67035 12.3423 5.28635 12.3513 5.81935C12.3553 6.05035 12.3543 7.44435 12.3683 7.28835C12.4293 6.63235 12.4623 4.09935 12.7123 3.34635C12.8563 2.91335 13.1173 2.60035 13.5063 2.41735C13.9373 2.21435 14.6193 2.34735 14.9103 2.66035C15.1953 2.96535 15.3563 3.35235 15.3923 3.81335C15.4243 4.21835 15.3733 4.71035 15.3723 5.05835C15.3723 5.92535 15.3513 6.38235 15.3353 7.17935C15.3343 7.21735 15.3203 7.47735 15.3583 7.36135C15.4523 7.08135 15.5463 6.81935 15.6243 6.61635C15.6733 6.49135 15.8653 6.00235 15.9833 5.75735C16.0973 5.52335 16.1943 5.38835 16.3983 5.06935C16.5983 4.75635 16.8133 4.62135 17.0663 4.50835C17.6063 4.27335 18.1753 4.62035 18.3673 5.09935C18.4533 5.31435 18.3763 5.81235 18.3393 6.20435C18.2783 6.85135 18.0853 7.51035 17.9873 7.85235C17.8593 8.29935 17.7133 9.08735 17.6473 9.45335C17.5753 9.84735 17.4133 10.8354 17.2883 11.2734C17.2023 11.5744 16.9173 12.2514 16.6363 12.6574C16.6363 12.6574 15.5623 13.9074 15.4443 14.4694C15.3273 15.0324 15.3663 15.0364 15.3433 15.4344C15.3193 15.8334 15.4643 16.3574 15.4643 16.3574C15.4643 16.3574 14.6623 16.4614 14.2303 16.3914C13.8393 16.3294 13.3553 15.5504 13.2303 15.3134C13.0583 14.9854 12.6913 15.0484 12.5483 15.2904C12.3233 15.6734 11.8393 16.3604 11.4973 16.4034C10.8293 16.4874 9.44334 16.4334 8.35834 16.4234C8.35834 16.4234 8.54334 15.4124 8.13134 15.0654C7.82634 14.8054 7.30134 14.2814 6.98734 14.0054L6.15534 13.0844C5.87134 12.7244 5.52634 11.9914 4.91234 11.0994C4.56434 10.5954 3.88534 10.0144 3.62834 9.52035C3.40534 9.09535 3.29734 8.56635 3.43834 8.19535C3.66334 7.60135 4.11334 7.29835 4.80034 7.36335C5.31934 7.41335 5.64834 7.56935 6.03834 7.90035C6.26334 8.09035 6.61134 8.43435 6.78834 8.64835C6.95134 8.84335 6.99134 8.92435 7.16534 9.15735C7.39534 9.46435 7.46734 9.61635 7.37934 9.27835" stroke="#121212" stroke-width="0.75" stroke-linecap="round" stroke-linejoin="round"/>
<path d="M14.39 13.4386V9.97955" stroke="#121212" stroke-width="0.75" stroke-linecap="round"/>
<path d="M12.3745 13.4502L12.3585 9.97723" stroke="#121212" stroke-width="0.75" stroke-linecap="round"/>
<path d="M10.3784 10.0089L10.3994 13.4349" stroke="#121212" stroke-width="0.75" stroke-linecap="round"/>
</g>
<defs>
<filter id="filter0_d_150_352" x="0" y="0" width="21.7815" height="21.8246" filterUnits="userSpaceOnUse" color-interpolation-filters="sRGB">
<feFlood flood-opacity="0" result="BackgroundImageFix"/>
<feColorMatrix in="SourceAlpha" type="matrix" values="0 0 0 0 0 0 0 0 0 0 0 0 0 0 0 0 0 0 127 0" result="hardAlpha"/>
<feOffset dy="2"/>
<feGaussianBlur stdDeviation="1.5"/>
<feColorMatrix type="matrix" values="0 0 0 0 0 0 0 0 0 0 0 0 0 0 0 0 0 0 0.402655 0"/>
<feBlend mode="normal" in2="BackgroundImageFix" result="effect1_dropShadow_150_352"/>
<feBlend mode="normal" in="SourceGraphic" in2="effect1_dropShadow_150_352" result="shape"/>
</filter>
</defs>
</svg>
