<svg width="22" height="23" viewBox="0 0 22 23" fill="none" xmlns="http://www.w3.org/2000/svg">
<g filter="url(#filter0_d_150_351)">
<path fill-rule="evenodd" clip-rule="evenodd" d="M6.26781 13.2775C5.98381 12.9185 5.63881 12.1845 5.02481 11.2935C4.67681 10.7895 3.81381 9.84047 3.55681 9.35847C3.33381 8.93247 3.35781 8.74147 3.41081 8.38847C3.50481 7.76047 4.14881 7.27147 4.83581 7.33747C5.35481 7.38647 5.79481 7.72947 6.19081 8.05347C6.42981 8.24847 6.72381 8.62747 6.90081 8.84147C7.06381 9.03747 7.10381 9.11847 7.27781 9.35047C7.50781 9.65747 7.57981 9.80947 7.49181 9.47147C7.42081 8.97547 7.30481 8.12847 7.13681 7.37947C7.00881 6.81147 6.97781 6.72247 6.85581 6.28647C6.72681 5.82247 6.66081 5.49747 6.53981 5.00547C6.45581 4.65747 6.30481 3.94647 6.26381 3.54647C6.20681 2.99947 6.17681 2.10747 6.52781 1.69747C6.80281 1.37647 7.43381 1.27947 7.82481 1.47747C8.33681 1.73647 8.62781 2.48047 8.76081 2.77747C8.9998 3.31147 9.14781 3.92847 9.27681 4.73847C9.44081 5.76947 9.74281 7.20047 9.75281 7.50147C9.77681 7.13247 9.68481 6.35547 9.74881 6.00147C9.80681 5.68047 10.0768 5.30747 10.4148 5.20647C10.7008 5.12147 11.0358 5.09047 11.3308 5.15147C11.6438 5.21547 11.9738 5.43947 12.0968 5.65047C12.4588 6.27447 12.4658 7.54947 12.4808 7.48147C12.5668 7.10547 12.5518 6.25247 12.7648 5.89747C12.9048 5.66347 13.2618 5.45247 13.4518 5.41847C13.7458 5.36647 14.1068 5.35047 14.4158 5.41047C14.6648 5.45947 15.0018 5.75547 15.0928 5.89747C15.3108 6.24147 15.4348 7.21447 15.4718 7.55547C15.4868 7.69647 15.5458 7.16347 15.7648 6.81947C16.1708 6.18047 17.6078 6.05647 17.6628 7.45847C17.6878 8.11247 17.6828 8.08247 17.6828 8.52247C17.6828 9.03947 17.6708 9.35047 17.6428 9.72447C17.6118 10.1245 17.5258 11.0285 17.4008 11.4665C17.3148 11.7675 17.0298 12.4445 16.7488 12.8505C16.7488 12.8505 15.6748 14.1005 15.5578 14.6635C15.4398 15.2255 15.4788 15.2295 15.4558 15.6285C15.4328 16.0265 15.5768 16.5505 15.5768 16.5505C15.5768 16.5505 14.7748 16.6545 14.3428 16.5855C13.9518 16.5225 13.4678 15.7445 13.3428 15.5065C13.1708 15.1785 12.8038 15.2415 12.6608 15.4835C12.4358 15.8665 11.9518 16.5535 11.6098 16.5965C10.9418 16.6805 9.55581 16.6275 8.47081 16.6165C8.47081 16.6165 8.65581 15.6055 8.24381 15.2585C7.93881 14.9995 7.41381 14.4745 7.09981 14.1985L6.26781 13.2775Z" fill="white"/>
<path fill-rule="evenodd" clip-rule="evenodd" d="M6.26781 13.2775C5.98381 12.9185 5.63881 12.1845 5.02481 11.2935C4.67681 10.7895 3.81381 9.84047 3.55681 9.35847C3.33381 8.93247 3.35781 8.74147 3.41081 8.38847C3.50481 7.76047 4.14881 7.27147 4.83581 7.33747C5.35481 7.38647 5.79481 7.72947 6.19081 8.05347C6.42981 8.24847 6.72381 8.62747 6.90081 8.84147C7.06381 9.03747 7.10381 9.11847 7.27781 9.35047C7.50781 9.65747 7.57981 9.80947 7.49181 9.47147C7.42081 8.97547 7.30481 8.12847 7.13681 7.37947C7.00881 6.81147 6.97781 6.72247 6.85581 6.28647C6.72681 5.82247 6.66081 5.49747 6.53981 5.00547C6.45581 4.65747 6.30481 3.94647 6.26381 3.54647C6.20681 2.99947 6.17681 2.10747 6.52781 1.69747C6.80281 1.37647 7.43381 1.27947 7.82481 1.47747C8.33681 1.73647 8.62781 2.48047 8.76081 2.77747C8.99981 3.31147 9.14781 3.92847 9.27681 4.73847C9.44081 5.76947 9.74281 7.20047 9.75281 7.50147C9.77681 7.13247 9.68481 6.35547 9.74881 6.00147C9.80681 5.68047 10.0768 5.30747 10.4148 5.20647C10.7008 5.12147 11.0358 5.09047 11.3308 5.15147C11.6438 5.21547 11.9738 5.43947 12.0968 5.65047C12.4588 6.27447 12.4658 7.54947 12.4808 7.48147C12.5668 7.10547 12.5518 6.25247 12.7648 5.89747C12.9048 5.66347 13.2618 5.45247 13.4518 5.41847C13.7458 5.36647 14.1068 5.35047 14.4158 5.41047C14.6648 5.45947 15.0018 5.75547 15.0928 5.89747C15.3108 6.24147 15.4348 7.21447 15.4718 7.55547C15.4868 7.69647 15.5458 7.16347 15.7648 6.81947C16.1708 6.18047 17.6078 6.05647 17.6628 7.45847C17.6878 8.11247 17.6828 8.08247 17.6828 8.52247C17.6828 9.03947 17.6708 9.35047 17.6428 9.72447C17.6118 10.1245 17.5258 11.0285 17.4008 11.4665C17.3148 11.7675 17.0298 12.4445 16.7488 12.8505C16.7488 12.8505 15.6748 14.1005 15.5578 14.6635C15.4398 15.2255 15.4788 15.2295 15.4558 15.6285C15.4328 16.0265 15.5768 16.5505 15.5768 16.5505C15.5768 16.5505 14.7748 16.6545 14.3428 16.5855C13.9518 16.5225 13.4678 15.7445 13.3428 15.5065C13.1708 15.1785 12.8038 15.2415 12.6608 15.4835C12.4358 15.8665 11.9518 16.5535 11.6098 16.5965C10.9418 16.6805 9.55581 16.6275 8.47081 16.6165C8.47081 16.6165 8.65581 15.6055 8.24381 15.2585C7.93881 14.9995 7.41381 14.4745 7.09981 14.1985L6.26781 13.2775V13.2775Z" stroke="#121212" stroke-width="0.75" stroke-linecap="round" stroke-linejoin="round"/>
<path d="M14.5027 13.632V10.173" stroke="#121212" stroke-width="0.75" stroke-linecap="round"/>
<path d="M12.4871 13.6437L12.4711 10.1707" stroke="#121212" stroke-width="0.75" stroke-linecap="round"/>
<path d="M10.491 10.2023L10.512 13.6283" stroke="#121212" stroke-width="0.75" stroke-linecap="round"/>
</g>
<defs>
<filter id="filter0_d_150_351" x="0" y="0" width="21.0582" height="22.0181" filterUnits="userSpaceOnUse" color-interpolation-filters="sRGB">
<feFlood flood-opacity="0" result="BackgroundImageFix"/>
<feColorMatrix in="SourceAlpha" type="matrix" values="0 0 0 0 0 0 0 0 0 0 0 0 0 0 0 0 0 0 127 0" result="hardAlpha"/>
<feOffset dy="2"/>
<feGaussianBlur stdDeviation="1.5"/>
<feColorMatrix type="matrix" values="0 0 0 0 0 0 0 0 0 0 0 0 0 0 0 0 0 0 0.402655 0"/>
<feBlend mode="normal" in2="BackgroundImageFix" result="effect1_dropShadow_150_351"/>
<feBlend mode="normal" in="SourceGraphic" in2="effect1_dropShadow_150_351" result="shape"/>
</filter>
</defs>
</svg>
