<svg width="24" height="24" viewBox="0 0 24 24" fill="none" xmlns="http://www.w3.org/2000/svg">
<g clip-path="url(#clip0_149_302)">
<path d="M16.814 8V4C16.814 3.448 16.366 3 15.814 3H8.18597C7.63397 3 7.18597 3.448 7.18597 4V8" stroke="#344054" stroke-width="1.2" stroke-linecap="round" stroke-linejoin="round"/>
<path d="M7 17H4C3.448 17 3 16.552 3 16V9C3 8.448 3.448 8 4 8H20C20.552 8 21 8.448 21 9V16C21 16.552 20.552 17 20 17H17" stroke="#344054" stroke-width="1.2" stroke-linecap="round" stroke-linejoin="round"/>
<path d="M16 21H8C7.448 21 7 20.552 7 20V14H17V20C17 20.552 16.552 21 16 21Z" stroke="#344054" stroke-width="1.2" stroke-linecap="round" stroke-linejoin="round"/>
</g>
<defs>
<clipPath id="clip0_149_302">
<rect width="24" height="24" fill="white"/>
</clipPath>
</defs>
</svg>
