<svg width="24" height="24" viewBox="0 0 24 24" fill="none" xmlns="http://www.w3.org/2000/svg">
<path d="M6 19.5C6 19.775 5.77344 20 5.5 20H4.5C4.22656 20 4 19.775 4 19.5V5C4 4.44531 4.44531 4 5 4C5.55469 4 6 4.44531 6 5V19.5ZM18.8844 4C18.6855 4 18.4778 4.04219 18.28 4.13228C16.8522 4.78416 15.7937 5.00541 14.9113 5.00541C13.0375 5.00541 11.9484 4.00978 9.78937 4.00947C9.02812 4.00955 8.1125 4.15209 7 4.49219V15.4453C8 15.1333 8.87094 15.0047 9.65156 15.0047C11.9525 15.0047 13.5547 15.9978 15.8578 15.9978C16.855 15.9978 17.9834 15.8112 19.3297 15.2762C19.7531 15.1219 20 14.7625 20 14.3781V4.96031C20 4.34688 19.4781 4 18.8844 4Z" fill="#0A84FF"/>
</svg>
