<svg width="24" height="24" viewBox="0 0 24 24" fill="none" xmlns="http://www.w3.org/2000/svg">
<path d="M6.33301 19.8333C6.33301 20.1083 6.10645 20.3333 5.83301 20.3333H4.83301C4.55957 20.3333 4.33301 20.1083 4.33301 19.8333V5.33325C4.33301 4.77856 4.77832 4.33325 5.33301 4.33325C5.8877 4.33325 6.33301 4.77856 6.33301 5.33325V19.8333ZM19.2174 4.33325C19.0185 4.33325 18.8108 4.37544 18.613 4.46553C17.1852 5.11741 16.1268 5.33866 15.2443 5.33866C13.3705 5.33866 12.2814 4.34303 10.1224 4.34272C9.36113 4.3428 8.44551 4.48535 7.33301 4.82544V15.7786C8.33301 15.4666 9.20395 15.3379 9.98457 15.3379C12.2855 15.3379 13.8877 16.3311 16.1908 16.3311C17.188 16.3311 18.3164 16.1445 19.6627 15.6095C20.0861 15.4551 20.333 15.0958 20.333 14.7114V5.29356C20.333 4.68013 19.8111 4.33325 19.2174 4.33325Z" fill="#FF9F0A"/>
</svg>
