<svg width="24" height="24" viewBox="0 0 24 24" fill="none" xmlns="http://www.w3.org/2000/svg">
<path d="M13.75 13.4H18.125C18.608 13.4 19 13.8181 19 14.3333V18.0667C19 18.5819 18.608 19 18.125 19H14.625C14.142 19 13.75 18.5819 13.75 18.0667V13.4ZM13.75 13.4C13.75 7.8 14.625 6.86667 17.25 5M5 13.4H9.375C9.858 13.4 10.25 13.8181 10.25 14.3333V18.0667C10.25 18.5819 9.858 19 9.375 19H5.875C5.392 19 5 18.5819 5 18.0667V13.4ZM5 13.4C5 7.8 5.875 6.86667 8.5 5" stroke="#344054" stroke-width="1.2" stroke-linecap="round" stroke-linejoin="round"/>
</svg>
