<svg width="24" height="24" viewBox="0 0 24 24" fill="none" xmlns="http://www.w3.org/2000/svg">
<path d="M7.73298 20.829C7.48453 20.9587 7.20471 21.0162 6.92525 20.995C6.64579 20.9737 6.37786 20.8746 6.15185 20.7089C5.92584 20.5432 5.75079 20.3174 5.64653 20.0573C5.54227 19.7971 5.51298 19.513 5.56198 19.237L6.37098 14.6L2.96498 11.336C2.76095 11.1414 2.61589 10.8933 2.54643 10.6201C2.47696 10.3468 2.48591 10.0596 2.57224 9.79117C2.65857 9.52279 2.81879 9.28416 3.03452 9.10267C3.25026 8.92117 3.51278 8.80415 3.79198 8.76501L8.52098 8.08901L10.656 3.83001C10.7801 3.57961 10.9717 3.36886 11.2091 3.22151C11.4466 3.07417 11.7205 2.99609 12 2.99609C12.2794 2.99609 12.5534 3.07417 12.7908 3.22151C13.0283 3.36886 13.2199 3.57961 13.344 3.83001L15.479 8.08901L20.208 8.76501C20.4872 8.80415 20.7497 8.92117 20.9654 9.10267C21.1812 9.28416 21.3414 9.52279 21.4277 9.79117C21.514 10.0596 21.523 10.3468 21.4535 10.6201C21.3841 10.8933 21.239 11.1414 21.035 11.336L17.629 14.6L18.438 19.238C18.487 19.514 18.4577 19.7981 18.3534 20.0583C18.2492 20.3184 18.0741 20.5442 17.8481 20.7099C17.6221 20.8756 17.3542 20.9747 17.0747 20.996C16.7953 21.0172 16.5154 20.9597 16.267 20.83L12 18.625L7.73298 20.829Z" stroke="#344054" stroke-width="1.2" stroke-linecap="round" stroke-linejoin="round"/>
</svg>
