<svg width="24" height="24" viewBox="0 0 24 24" fill="none" xmlns="http://www.w3.org/2000/svg">
<g clip-path="url(#clip0_259_90)">
<path d="M15 16V18C15 18.2652 14.8946 18.5196 14.7071 18.7071C14.5196 18.8946 14.2652 19 14 19H7L4 22V12C4 11.7348 4.10536 11.4804 4.29289 11.2929C4.48043 11.1054 4.73478 11 5 11H7" stroke="#344054" stroke-width="1.2" stroke-linecap="round" stroke-linejoin="round"/>
<path d="M12.5882 6.94158V12.1181C12.5882 12.2897 12.5201 12.4542 12.3987 12.5756C12.2774 12.6969 12.1128 12.7651 11.9412 12.7651H10.6471C10.4754 12.7651 10.3109 12.6969 10.1895 12.5756C10.0682 12.4542 10 12.2897 10 12.1181V7.58864C10 7.41703 10.0682 7.25245 10.1895 7.1311C10.3109 7.00975 10.4754 6.94158 10.6471 6.94158H12.5882ZM12.5882 6.94158C13.2747 6.94158 13.933 6.66889 14.4184 6.18351C14.9038 5.69812 15.1765 5.03979 15.1765 4.35335V3.70629C15.1765 3.36307 15.3128 3.0339 15.5555 2.79121C15.7982 2.54851 16.1274 2.41217 16.4706 2.41217C16.8138 2.41217 17.143 2.54851 17.3857 2.79121C17.6284 3.0339 17.7647 3.36307 17.7647 3.70629V6.94158H19.7059C20.0491 6.94158 20.3783 7.07793 20.621 7.32062C20.8637 7.56332 21 7.89248 21 8.2357L20.3529 11.471C20.2599 11.8679 20.0834 12.2088 19.85 12.4422C19.6165 12.6756 19.3389 12.7889 19.0588 12.7651H14.5294C14.0146 12.7651 13.5208 12.5606 13.1568 12.1966C12.7928 11.8325 12.5882 11.3388 12.5882 10.8239" stroke="#344054" stroke-width="1.2" stroke-linecap="round" stroke-linejoin="round"/>
</g>
<defs>
<clipPath id="clip0_259_90">
<rect width="24" height="24" fill="white"/>
</clipPath>
</defs>
</svg>
