<svg width="24" height="24" viewBox="0 0 24 24" fill="none" xmlns="http://www.w3.org/2000/svg">
<g clip-path="url(#clip0_569_1289)">
<path d="M19.657 17.2222V17.6667C19.657 18.0203 19.5166 18.3594 19.2665 18.6095C19.0165 18.8595 18.6773 19 18.3237 19C17.9701 19 17.6309 18.8595 17.3809 18.6095C17.1308 18.3594 16.9903 18.0203 16.9903 17.6667V17.2222" stroke="#344054" stroke-width="1.2" stroke-linecap="round" stroke-linejoin="round"/>
<path d="M19.2126 11.8889C19.2126 11.6531 19.1189 11.4271 18.9522 11.2604C18.7855 11.0937 18.5594 11 18.3237 11C18.0879 11 17.8618 11.0937 17.6951 11.2604C17.5284 11.4271 17.4348 11.6531 17.4348 11.8889C16.9244 12.1302 16.4893 12.5059 16.1761 12.9757C15.8629 13.4455 15.6835 13.9916 15.657 14.5556V15.8889C15.6235 16.1652 15.5257 16.4298 15.3713 16.6614C15.2169 16.893 15.0103 17.0851 14.7681 17.2223H21.8792C21.637 17.0851 21.4304 16.893 21.276 16.6614C21.1217 16.4298 21.0238 16.1652 20.9903 15.8889V14.5556C20.9639 13.9916 20.7844 13.4455 20.4713 12.9757C20.1581 12.5059 19.723 12.1302 19.2126 11.8889Z" stroke="#344054" stroke-width="1.2" stroke-linecap="round" stroke-linejoin="round"/>
<path d="M8 8H16" stroke="#344054" stroke-width="1.2" stroke-linecap="round" stroke-linejoin="round"/>
<path d="M8 11H13" stroke="#344054" stroke-width="1.2" stroke-linecap="round" stroke-linejoin="round"/>
<path d="M20 9V5.82353C20 5.07468 19.7015 4.35651 19.1701 3.82699C18.6388 3.29748 17.9181 3 17.1667 3H5.83333C5.08189 3 4.36122 3.29748 3.82986 3.82699C3.29851 4.35651 3 5.07468 3 5.82353V7V8.58824M13 16.1765H12.4444L7.72222 19V16.1765H5.83333C5.08189 16.1765 4.36122 15.879 3.82986 15.3495C3.29851 14.82 3 14.1018 3 13.3529V11.5" stroke="#344054" stroke-width="1.2" stroke-linecap="round" stroke-linejoin="round"/>
<circle cx="1.91304" cy="1.91304" r="1.31304" transform="matrix(-1 0 0 1 4.82608 8.17383)" stroke="#344054" stroke-width="1.2"/>
</g>
<defs>
<clipPath id="clip0_569_1289">
<rect width="24" height="24" fill="white"/>
</clipPath>
</defs>
</svg>
