<svg width="24" height="24" viewBox="0 0 24 24" fill="none" xmlns="http://www.w3.org/2000/svg">
<g clip-path="url(#clip0_569_1287)">
<path d="M20.6812 5.30428C20.6812 4.24773 19.8247 3.39124 18.7681 3.39124H5.37685C4.3203 3.39124 3.46381 4.24773 3.46381 5.30428M20.6812 5.30428L12.0725 11.0434L3.46381 5.30428M20.6812 5.30428V8.63519M3.46381 5.30428V8.17384M12.0725 16.7825H18.7681C19.8247 16.7825 20.6812 15.926 20.6812 14.8695V11.5" stroke="#344054" stroke-width="1.2" stroke-linecap="round" stroke-linejoin="round"/>
<path d="M4.20292 12.0676C4.20292 11.7845 4.3154 11.5129 4.51562 11.3127C4.71585 11.1125 4.9874 11 5.27056 11C5.55372 11 5.82527 11.1125 6.0255 11.3127C6.22572 11.5129 6.3382 11.7845 6.3382 12.0676C6.95124 12.3575 7.47385 12.8088 7.85 13.373C8.22616 13.9372 8.44169 14.5932 8.47348 15.2706V16.872C8.51365 17.2039 8.63119 17.5217 8.81663 17.7999C9.00206 18.078 9.25022 18.3088 9.54112 18.4735H1C1.2909 18.3088 1.53906 18.078 1.72449 17.7999C1.90993 17.5217 2.02747 17.2039 2.06764 16.872V15.2706C2.09943 14.5932 2.31496 13.9372 2.69111 13.373C3.06727 12.8088 3.58988 12.3575 4.20292 12.0676Z" stroke="#344054" stroke-width="1.2" stroke-linecap="round" stroke-linejoin="round"/>
<path d="M3.6691 18.4734V19.0072C3.6691 19.4319 3.83782 19.8393 4.13815 20.1396C4.43849 20.4399 4.84582 20.6087 5.27056 20.6087C5.69529 20.6087 6.10263 20.4399 6.40296 20.1396C6.70329 19.8393 6.87202 19.4319 6.87202 19.0072V18.4734" stroke="#344054" stroke-width="1.2" stroke-linecap="round" stroke-linejoin="round"/>
<circle cx="20.6812" cy="10.0869" r="1.31304" stroke="#344054" stroke-width="1.2"/>
</g>
<defs>
<clipPath id="clip0_569_1287">
<rect width="24" height="24" fill="white"/>
</clipPath>
</defs>
</svg>
