<svg width="24" height="24" viewBox="0 0 24 24" fill="none" xmlns="http://www.w3.org/2000/svg">
<g clip-path="url(#clip0_569_1288)">
<path d="M2.91305 5.30428C2.91305 4.24773 3.76955 3.39124 4.82609 3.39124H18.2174C19.2739 3.39124 20.1304 4.24773 20.1304 5.30428M2.91305 5.30428L11.5217 11.0434L20.1304 5.30428M2.91305 5.30428V8.63519M20.1304 5.30428V8.17384M11.5217 16.7825H4.82609C3.76955 16.7825 2.91305 15.926 2.91305 14.8695V11.5" stroke="#344054" stroke-width="1.2" stroke-linecap="round" stroke-linejoin="round"/>
<path d="M19.3913 12.0676C19.3913 11.7845 19.2788 11.5129 19.0786 11.3127C18.8784 11.1125 18.6068 11 18.3237 11C18.0405 11 17.769 11.1125 17.5687 11.3127C17.3685 11.5129 17.256 11.7845 17.256 12.0676C16.643 12.3575 16.1204 12.8088 15.7442 13.373C15.3681 13.9372 15.1526 14.5932 15.1208 15.2706V16.872C15.0806 17.2039 14.963 17.5217 14.7776 17.7999C14.5922 18.078 14.344 18.3088 14.0531 18.4735H22.5942C22.3033 18.3088 22.0552 18.078 21.8697 17.7999C21.6843 17.5217 21.5668 17.2039 21.5266 16.872V15.2706C21.4948 14.5932 21.2793 13.9372 20.9031 13.373C20.527 12.8088 20.0044 12.3575 19.3913 12.0676Z" stroke="#344054" stroke-width="1.2" stroke-linecap="round" stroke-linejoin="round"/>
<path d="M19.9251 18.4734V19.0072C19.9251 19.4319 19.7564 19.8393 19.4561 20.1396C19.1558 20.4399 18.7484 20.6087 18.3237 20.6087C17.8989 20.6087 17.4916 20.4399 17.1913 20.1396C16.8909 19.8393 16.7222 19.4319 16.7222 19.0072V18.4734" stroke="#344054" stroke-width="1.2" stroke-linecap="round" stroke-linejoin="round"/>
<circle cx="1.91304" cy="1.91304" r="1.31304" transform="matrix(-1 0 0 1 4.82608 8.17383)" stroke="#344054" stroke-width="1.2"/>
</g>
<defs>
<clipPath id="clip0_569_1288">
<rect width="24" height="24" fill="white"/>
</clipPath>
</defs>
</svg>
