<svg width="24" height="24" viewBox="0 0 24 24" fill="none" xmlns="http://www.w3.org/2000/svg">
<g clip-path="url(#clip0_569_1290)">
<path d="M3.22221 17.2222V17.6667C3.22221 18.0203 3.36269 18.3594 3.61274 18.6095C3.86279 18.8595 4.20193 19 4.55555 19C4.90918 19 5.24832 18.8595 5.49837 18.6095C5.74842 18.3594 5.88889 18.0203 5.88889 17.6667V17.2222" stroke="#344054" stroke-width="1.2" stroke-linecap="round" stroke-linejoin="round"/>
<path d="M3.66668 11.8889C3.66668 11.6531 3.76033 11.4271 3.92703 11.2604C4.09373 11.0937 4.31982 11 4.55557 11C4.79132 11 5.01742 11.0937 5.18412 11.2604C5.35082 11.4271 5.44447 11.6531 5.44447 11.8889C5.95487 12.1302 6.38998 12.5059 6.70316 12.9757C7.01634 13.4455 7.19578 13.9916 7.22225 14.5556V15.8889C7.2557 16.1652 7.35356 16.4298 7.50795 16.6614C7.66234 16.893 7.86895 17.0851 8.11115 17.2223H1C1.2422 17.0851 1.44881 16.893 1.6032 16.6614C1.75759 16.4298 1.85545 16.1652 1.88889 15.8889V14.5556C1.91536 13.9916 2.09481 13.4455 2.40798 12.9757C2.72116 12.5059 3.15627 12.1302 3.66668 11.8889Z" stroke="#344054" stroke-width="1.2" stroke-linecap="round" stroke-linejoin="round"/>
<path d="M14.8792 8H6.87923" stroke="#344054" stroke-width="1.2" stroke-linecap="round" stroke-linejoin="round"/>
<path d="M14.8792 11H9.87923" stroke="#344054" stroke-width="1.2" stroke-linecap="round" stroke-linejoin="round"/>
<path d="M2.87923 9V5.82353C2.87923 5.07468 3.17775 4.35651 3.7091 3.82699C4.24045 3.29748 4.96112 3 5.71257 3H17.0459C17.7973 3 18.518 3.29748 19.0494 3.82699C19.5807 4.35651 19.8792 5.07468 19.8792 5.82353V7V8.58824M9.87923 16.1765H10.4348L15.157 19V16.1765H17.0459C17.7973 16.1765 18.518 15.879 19.0494 15.3495C19.5807 14.82 19.8792 14.1018 19.8792 13.3529V11.5" stroke="#344054" stroke-width="1.2" stroke-linecap="round" stroke-linejoin="round"/>
<circle cx="19.9662" cy="10.0869" r="1.31304" stroke="#344054" stroke-width="1.2"/>
</g>
<defs>
<clipPath id="clip0_569_1290">
<rect width="24" height="24" fill="white"/>
</clipPath>
</defs>
</svg>
