<svg width="24" height="24" viewBox="0 0 24 24" fill="none" xmlns="http://www.w3.org/2000/svg">
<g clip-path="url(#clip0_149_137)">
<g clip-path="url(#clip1_149_137)">
<path d="M20.048 11.5234C20.0479 9.87681 19.5709 8.26548 18.6746 6.88419C17.7783 5.50289 16.5011 4.41076 14.9974 3.73979C13.4937 3.06882 11.8279 2.84774 10.2012 3.10327C8.57456 3.3588 7.05673 4.08 5.83118 5.1797C4.60563 6.2794 3.72482 7.71053 3.29522 9.30011C2.86562 10.8897 2.90562 12.5697 3.41037 14.137C3.91513 15.7043 4.86304 17.0919 6.13953 18.1321C7.41602 19.1722 8.96645 19.8204 10.6034 19.9982C10.9065 20.0304 11.2134 20.0474 11.524 20.0474" stroke="#344054" stroke-width="1.2" stroke-linecap="round" stroke-linejoin="round"/>
<path d="M11.5228 6.78821V11.5238L13.417 13.418" stroke="#344054" stroke-width="1.2" stroke-linecap="round" stroke-linejoin="round"/>
<path d="M17.6084 14.943C17.7931 14.7584 18.0123 14.6118 18.2537 14.5119C18.495 14.4119 18.7536 14.3605 19.0148 14.3605C19.276 14.3605 19.5347 14.4119 19.776 14.5119C20.0173 14.6118 20.2366 14.7584 20.4213 14.943C20.606 15.1277 20.7525 15.347 20.8525 15.5883C20.9524 15.8297 21.0039 16.0883 21.0039 16.3495C21.0039 16.6107 20.9524 16.8694 20.8525 17.1107C20.7525 17.352 20.606 17.5713 20.4213 17.756L17.2106 20.9951H14.3692V18.1538L17.6084 14.943Z" stroke="#344054" stroke-width="1.2" stroke-linecap="round" stroke-linejoin="round"/>
</g>
</g>
<defs>
<clipPath id="clip0_149_137">
<rect width="24" height="24" fill="white"/>
</clipPath>
<clipPath id="clip1_149_137">
<rect width="24" height="24" fill="white"/>
</clipPath>
</defs>
</svg>
