<svg width="24" height="24" viewBox="0 0 24 24" fill="none" xmlns="http://www.w3.org/2000/svg">
<path d="M12.8 3C13.0059 3.00003 13.2068 3.06363 13.3752 3.18212C13.5437 3.3006 13.6714 3.4682 13.741 3.662L14.249 5.077C14.3296 5.29951 14.4861 5.48647 14.691 5.605L16.198 6.475C16.4026 6.59307 16.6425 6.63488 16.875 6.593L18.355 6.326C18.5578 6.28912 18.7671 6.31583 18.9542 6.40247C19.1412 6.48911 19.2969 6.63145 19.4 6.81L20.2 8.19C20.3033 8.36808 20.3492 8.57371 20.3313 8.77882C20.3134 8.98393 20.2326 9.17851 20.1 9.336L19.129 10.484C18.9761 10.6645 18.8921 10.8934 18.892 11.13V12.87C18.8921 13.1066 18.9761 13.3355 19.129 13.516L20.1 14.664C20.2326 14.8215 20.3134 15.0161 20.3313 15.2212C20.3492 15.4263 20.3033 15.6319 20.2 15.81L19.4 17.19C19.297 17.3684 19.1415 17.5106 18.9546 17.5972C18.7677 17.6838 18.5587 17.7107 18.356 17.674L16.876 17.407C16.6435 17.3651 16.4036 17.4069 16.199 17.525L14.692 18.395C14.4871 18.5135 14.3306 18.7005 14.25 18.923L13.742 20.338C13.6723 20.532 13.5445 20.6997 13.3758 20.8182C13.2072 20.9367 13.0061 21.0002 12.8 21H11.2C10.9941 21 10.7932 20.9364 10.6248 20.8179C10.4563 20.6994 10.3286 20.5318 10.259 20.338L9.751 18.923C9.67039 18.7008 9.51431 18.5139 9.31 18.395L7.802 17.525C7.59736 17.4069 7.35752 17.3651 7.125 17.407L5.645 17.674C5.44217 17.7109 5.2329 17.6842 5.04583 17.5975C4.85877 17.5109 4.70305 17.3686 4.6 17.19L3.8 15.81C3.69667 15.6319 3.65082 15.4263 3.66872 15.2212C3.68662 15.0161 3.76739 14.8215 3.9 14.664L4.871 13.516C5.02393 13.3355 5.10791 13.1066 5.108 12.87V11.13C5.10791 10.8934 5.02393 10.6645 4.871 10.484L3.91 9.336C3.77739 9.17851 3.69662 8.98393 3.67872 8.77882C3.66082 8.57371 3.70667 8.36808 3.81 8.19L4.61 6.81C4.71299 6.63163 4.86855 6.48942 5.05541 6.40279C5.24227 6.31616 5.45132 6.28934 5.654 6.326L7.134 6.593C7.36652 6.63488 7.60636 6.59307 7.811 6.475L9.319 5.605C9.52331 5.48609 9.67939 5.29923 9.76 5.077L10.268 3.662C10.3371 3.46963 10.4634 3.30305 10.6301 3.18469C10.7967 3.06633 10.9956 3.00187 11.2 3H12.8Z" stroke="#344054" stroke-width="1.2" stroke-linecap="round" stroke-linejoin="round"/>
<path d="M12 14.75C13.5188 14.75 14.75 13.5188 14.75 12C14.75 10.4812 13.5188 9.25 12 9.25C10.4812 9.25 9.25 10.4812 9.25 12C9.25 13.5188 10.4812 14.75 12 14.75Z" stroke="#344054" stroke-width="1.2" stroke-linecap="round" stroke-linejoin="round"/>
</svg>
