<svg width="24" height="24" viewBox="0 0 24 24" fill="none" xmlns="http://www.w3.org/2000/svg">
<path d="M9.06667 10.8444L14.9333 7.82222M9.06667 13.1556L14.9333 16.1778M9.33333 12C9.33333 13.4728 8.13943 14.6667 6.66667 14.6667C5.19391 14.6667 4 13.4728 4 12C4 10.5272 5.19391 9.33333 6.66667 9.33333C8.13943 9.33333 9.33333 10.5272 9.33333 12ZM20 6.66667C20 8.13943 18.8061 9.33333 17.3333 9.33333C15.8606 9.33333 14.6667 8.13943 14.6667 6.66667C14.6667 5.19391 15.8606 4 17.3333 4C18.8061 4 20 5.19391 20 6.66667ZM20 17.3333C20 18.8061 18.8061 20 17.3333 20C15.8606 20 14.6667 18.8061 14.6667 17.3333C14.6667 15.8606 15.8606 14.6667 17.3333 14.6667C18.8061 14.6667 20 15.8606 20 17.3333Z" stroke="#344054" stroke-width="1.2" stroke-linecap="round" stroke-linejoin="round"/>
</svg>
