<svg width="24" height="24" viewBox="0 0 24 24" fill="none" xmlns="http://www.w3.org/2000/svg">
<g clip-path="url(#clip0_177_164)">
<path d="M20 17.1C20.3314 17.1 20.6 16.8314 20.6 16.5C20.6 16.1686 20.3314 15.9 20 15.9V16.5V17.1ZM19 13.5V12.9H8V13.5V14.1H19V13.5ZM8 16.5V17.1H20V16.5V15.9H8V16.5ZM6.5 15H5.9C5.9 16.1598 6.8402 17.1 8 17.1V16.5V15.9C7.50294 15.9 7.1 15.4971 7.1 15H6.5ZM8 13.5V12.9C6.8402 12.9 5.9 13.8402 5.9 15H6.5H7.1C7.1 14.5029 7.50294 14.1 8 14.1V13.5Z" fill="#344054"/>
<path d="M2 3H3.77924C4.20967 3 4.59181 3.27543 4.72792 3.68377L5.5 6M5.5 6L8 13.5H18.7792C19.2097 13.5 19.5918 13.2246 19.7279 12.8162L21.7806 6.65811C21.8886 6.33435 21.6476 6 21.3063 6H5.5Z" stroke="#344054" stroke-width="1.2" stroke-linecap="round"/>
<circle cx="9.5" cy="19.5" r="1.4" stroke="#344054" stroke-width="1.2"/>
<circle cx="17.5" cy="19.5" r="1.4" stroke="#344054" stroke-width="1.2"/>
</g>
<defs>
<clipPath id="clip0_177_164">
<rect width="24" height="24" fill="white"/>
</clipPath>
</defs>
</svg>
