<svg width="24" height="24" viewBox="0 0 24 24" fill="none" xmlns="http://www.w3.org/2000/svg">
<g clip-path="url(#clip0_8422_23)">
<path d="M20 17.25C20.4142 17.25 20.75 16.9142 20.75 16.5C20.75 16.0858 20.4142 15.75 20 15.75V16.5V17.25ZM19 13.5V12.75H8V13.5V14.25H19V13.5ZM8 16.5V17.25H20V16.5V15.75H8V16.5ZM6.5 15H5.75C5.75 16.2426 6.75736 17.25 8 17.25V16.5V15.75C7.58579 15.75 7.25 15.4142 7.25 15H6.5ZM8 13.5V12.75C6.75736 12.75 5.75 13.7574 5.75 15H6.5H7.25C7.25 14.5858 7.58579 14.25 8 14.25V13.5Z" fill="#68737D"/>
<path d="M2 3H3.77924C4.20967 3 4.59181 3.27543 4.72792 3.68377L5.5 6M5.5 6L8 13.5H18.7792C19.2097 13.5 19.5918 13.2246 19.7279 12.8162L21.7806 6.65811C21.8886 6.33435 21.6476 6 21.3063 6H5.5Z" stroke="#68737D" stroke-width="1.5" stroke-linecap="round"/>
<circle cx="9.5" cy="19.5" r="1.25" stroke="#68737D" stroke-width="1.5"/>
<circle cx="17.5" cy="19.5" r="1.25" stroke="#68737D" stroke-width="1.5"/>
</g>
<defs>
<clipPath id="clip0_8422_23">
<rect width="24" height="24" fill="white"/>
</clipPath>
</defs>
</svg>
