<svg width="24" height="24" viewBox="0 0 24 24" fill="none" xmlns="http://www.w3.org/2000/svg">
<g clip-path="url(#clip0_149_277)">
<path d="M4 16.2127C4.9589 18.1071 6.57534 19.5871 8.54675 20.3756C10.5182 21.1642 12.7094 21.2072 14.7102 20.4967C16.7111 19.7861 18.3844 18.3707 19.4169 16.5154C20.4494 14.6601 20.7704 12.4921 20.3197 10.4172C19.8691 8.34236 18.6776 6.50284 16.9685 5.24305C15.2594 3.98325 13.1497 3.38954 11.0343 3.57306C8.91902 3.75657 6.94309 4.70473 5.47643 6.24004M6.19532 3L4.97045 6.03589L7.66701 7.12385" stroke="#344054" stroke-width="1.2" stroke-linecap="round" stroke-linejoin="round"/>
<path d="M9.4024 15.7107C9.80381 15.7107 10.0744 15.452 10.0744 15.0595L10.0744 10.0313C10.0744 9.58286 9.78577 9.30256 9.30318 9.30256C9.02355 9.30256 8.80706 9.34137 8.49134 9.54837L7.20143 10.4022C6.98945 10.5445 6.90826 10.6911 6.90826 10.8895C6.90826 11.1655 7.11122 11.3552 7.38634 11.3552C7.52616 11.3552 7.62087 11.325 7.74716 11.2388L8.69881 10.6049L8.72587 10.6049L8.72587 15.0595C8.72587 15.452 9.00099 15.7107 9.4024 15.7107Z" fill="#344054"/>
<path d="M14.111 15.7581C15.7618 15.7581 16.763 14.5032 16.763 12.4937C16.763 10.4841 15.7528 9.25513 14.111 9.25513C12.4693 9.25513 11.4545 10.4885 11.4545 12.498C11.4545 14.5119 12.4603 15.7581 14.111 15.7581ZM14.111 14.7145C13.3082 14.7145 12.8392 13.9254 12.8392 12.498C12.8392 11.0836 13.3173 10.2987 14.111 10.2987C14.9094 10.2987 15.3784 11.0792 15.3784 12.498C15.3784 13.9254 14.9139 14.7145 14.111 14.7145Z" fill="#344054"/>
</g>
<defs>
<clipPath id="clip0_149_277">
<rect width="24" height="24" fill="white"/>
</clipPath>
</defs>
</svg>
