<svg width="24" height="24" viewBox="0 0 24 24" fill="none" xmlns="http://www.w3.org/2000/svg">
<g clip-path="url(#clip0_149_130)">
<path d="M20.5187 16.2127C19.5598 18.1071 17.9433 19.5871 15.9719 20.3756C14.0005 21.1642 11.8093 21.2072 9.80844 20.4967C7.80759 19.7861 6.13429 18.3707 5.10176 16.5154C4.06923 14.6601 3.74826 12.4921 4.19893 10.4172C4.64961 8.34236 5.84103 6.50284 7.55018 5.24305C9.25932 3.98325 11.369 3.38954 13.4843 3.57306C15.5997 3.75657 17.5756 4.70473 19.0422 6.24004M18.3234 3L19.5482 6.03589L16.8517 7.12385" stroke="#344054" stroke-width="1.2" stroke-linecap="round" stroke-linejoin="round"/>
<path d="M9.77194 15.2113C10.1733 15.2113 10.444 14.9526 10.444 14.5601L10.444 9.53196C10.444 9.08348 10.1553 8.80317 9.67272 8.80317C9.39308 8.80317 9.17659 8.84198 8.86088 9.04898L7.57096 9.90282C7.35898 10.0451 7.2778 10.1917 7.2778 10.3901C7.2778 10.6661 7.48076 10.8558 7.75588 10.8558C7.8957 10.8558 7.99041 10.8257 8.1167 10.7394L9.06835 10.1055L9.09541 10.1055L9.09541 14.5601C9.09541 14.9526 9.37053 15.2113 9.77194 15.2113Z" fill="#344054"/>
<path d="M14.4806 15.2587C16.1313 15.2587 17.1326 14.0038 17.1326 11.9943C17.1326 9.98475 16.1223 8.75574 14.4806 8.75574C12.8389 8.75574 11.8241 9.98907 11.8241 11.9986C11.8241 14.0125 12.8299 15.2587 14.4806 15.2587ZM14.4806 14.2152C13.6778 14.2152 13.2087 13.426 13.2087 11.9986C13.2087 10.5842 13.6868 9.79932 14.4806 9.79932C15.2789 9.79932 15.748 10.5799 15.748 11.9986C15.7479 13.426 15.2834 14.2152 14.4806 14.2152Z" fill="#344054"/>
</g>
<defs>
<clipPath id="clip0_149_130">
<rect width="24" height="24" fill="white"/>
</clipPath>
</defs>
</svg>
