<svg width="24" height="24" viewBox="0 0 24 24" fill="none" xmlns="http://www.w3.org/2000/svg">
<path d="M8.65021 19.8478H8.65021C7.99758 20.1885 7.19235 19.9356 6.85169 19.2829C6.71541 19.0219 6.66943 18.723 6.72092 18.4331L7.43985 14.3123L4.41305 11.4117V11.4117C3.88028 10.9036 3.86026 10.0599 4.36834 9.52709C4.57569 9.30965 4.85043 9.16865 5.14798 9.12694L9.35048 8.5262L11.2478 4.74137V4.74137C11.5747 4.08174 12.3744 3.81201 13.0341 4.13893C13.2954 4.26843 13.507 4.48006 13.6365 4.74137L15.5338 8.5262L19.7363 9.12694V9.12694C20.4654 9.22913 20.9736 9.90299 20.8714 10.6321C20.8297 10.9296 20.6887 11.2043 20.4713 11.4117L17.4445 14.3123L18.1634 18.4339V18.4339C18.2921 19.1588 17.8088 19.8508 17.084 19.9795C16.794 20.031 16.4952 19.985 16.2341 19.8487L12.4422 17.8892L8.65021 19.8478Z" stroke="#344054" stroke-width="1.2" stroke-linecap="round" stroke-linejoin="round"/>
</svg>
