<svg width="24" height="24" viewBox="0 0 24 24" fill="none" xmlns="http://www.w3.org/2000/svg">
<path d="M8 7V5C8 4.46957 8.21071 3.96086 8.58579 3.58579C8.96086 3.21071 9.46957 3 10 3H14C14.5304 3 15.0391 3.21071 15.4142 3.58579C15.7893 3.96086 16 4.46957 16 5V7M3 13C5.79158 14.4067 8.87403 15.1394 12 15.1394C15.126 15.1394 18.2084 14.4067 21 13M5 7H19C20.1046 7 21 7.89543 21 9V18C21 19.1046 20.1046 20 19 20H5C3.89543 20 3 19.1046 3 18V9C3 7.89543 3.89543 7 5 7Z" stroke="#344054" stroke-width="1.2" stroke-linecap="round" stroke-linejoin="round"/>
</svg>
