<svg width="24" height="24" viewBox="0 0 24 24" fill="none" xmlns="http://www.w3.org/2000/svg">
<path d="M8.23524 9.1764C8.75503 9.1764 9.1764 8.75503 9.1764 8.23524C9.1764 7.71545 8.75503 7.29408 8.23524 7.29408C7.71545 7.29408 7.29408 7.71545 7.29408 8.23524C7.29408 8.75503 7.71545 9.1764 8.23524 9.1764Z" fill="black"/>
<path d="M8.23524 9.1764C8.75503 9.1764 9.1764 8.75503 9.1764 8.23524C9.1764 7.71545 8.75503 7.29408 8.23524 7.29408C7.71545 7.29408 7.29408 7.71545 7.29408 8.23524C7.29408 8.75503 7.71545 9.1764 8.23524 9.1764Z" stroke="#344054" stroke-width="1.2" stroke-linecap="round" stroke-linejoin="round"/>
<path d="M4 6.82349V10.4554C4 10.9609 4.20047 11.4456 4.55811 11.8032L12.1966 19.4417C12.3736 19.6187 12.5837 19.7591 12.8149 19.8549C13.0462 19.9507 13.294 20 13.5443 20C13.7947 20 14.0425 19.9507 14.2738 19.8549C14.505 19.7591 14.7151 19.6187 14.8921 19.4417L19.4417 14.8921C19.6187 14.7151 19.7591 14.505 19.8549 14.2738C19.9507 14.0425 20 13.7947 20 13.5443C20 13.294 19.9507 13.0462 19.8549 12.8149C19.7591 12.5837 19.6187 12.3736 19.4417 12.1966L11.8023 4.55811C11.445 4.20094 10.9606 4.0002 10.4554 4H6.82349C6.07466 4 5.35649 4.29747 4.82698 4.82698C4.29747 5.35649 4 6.07466 4 6.82349Z" stroke="#344054" stroke-width="1.2" stroke-linecap="round" stroke-linejoin="round"/>
</svg>
