<svg width="24" height="24" viewBox="0 0 24 24" fill="none" xmlns="http://www.w3.org/2000/svg">
<g clip-path="url(#clip0_2358_5230)">
<path d="M11.6384 7.08093L11.2718 6.03009C11.2216 5.88617 11.1294 5.76171 11.0078 5.67371C10.8863 5.58572 10.7413 5.53849 10.5927 5.53847L9.43799 5.53847C9.28925 5.53834 9.14411 5.5855 9.02242 5.6735C8.90072 5.7615 8.80843 5.88605 8.75816 6.03009L8.39153 7.08093C8.33334 7.24617 8.22039 7.38502 8.07255 7.47304L6.98495 8.11913C6.83726 8.20682 6.66418 8.23786 6.49637 8.20676L5.42826 8.00848C5.28199 7.98125 5.13112 8.00117 4.99626 8.0655C4.8614 8.12984 4.74914 8.23545 4.67481 8.36792L4.09746 9.39276C4.02288 9.525 3.9898 9.67771 4.00271 9.83004C4.01563 9.98236 4.07392 10.1269 4.16963 10.2438L4.87039 11.0964C4.98076 11.2304 5.04136 11.4004 5.04143 11.5761L5.04143 12.8683C5.04136 13.044 4.98076 13.214 4.87039 13.348L4.16963 14.2006C4.07392 14.3175 4.01563 14.4621 4.00271 14.6144C3.9898 14.7667 4.02288 14.9194 4.09746 15.0517L4.67481 16.0765C4.74918 16.2091 4.86156 16.3148 4.99657 16.3791C5.13157 16.4435 5.2826 16.4633 5.42898 16.4359L6.49709 16.2376C6.6649 16.2065 6.83799 16.2376 6.98567 16.3253L8.07327 16.9714C8.22111 17.0594 8.33406 17.1982 8.39226 17.3635L8.75888 18.4143C8.80911 18.5582 8.90129 18.6827 9.02284 18.7707C9.14439 18.8587 9.28937 18.9059 9.43799 18.9059L10.5927 18.9059C10.7402 18.9046 10.8837 18.8567 11.004 18.7688C11.1243 18.6809 11.2155 18.5572 11.2653 18.4143L11.6319 17.3635M8.03069 12.2222C8.03069 11.0943 8.91925 10.18 10.0153 10.18C11.1114 10.18 12 11.0943 12 12.2222C12 13.3501 11.1114 14.2645 10.0153 14.2645C8.91925 14.2645 8.03069 13.3501 8.03069 12.2222Z" stroke="#87929D" stroke-width="1.2" stroke-linecap="round" stroke-linejoin="round"/>
<path d="M16 10V15C16 15.5523 16.4477 16 17 16H19" stroke="#87929D" stroke-width="1.2"/>
<circle cx="16" cy="9" r="1.4" stroke="#87929D" stroke-width="1.2"/>
<circle cx="20" cy="16" r="1.4" stroke="#87929D" stroke-width="1.2"/>
</g>
<defs>
<clipPath id="clip0_2358_5230">
<rect width="24" height="24" fill="white"/>
</clipPath>
</defs>
</svg>
