<svg width="24" height="24" viewBox="0 0 24 24" fill="none" xmlns="http://www.w3.org/2000/svg">
<path d="M4.8 17.3529V10.5879M19.2 10.5879V17.3529M8.4 10.5879V17.3529M12 10.5879V17.3529M15.6 10.5879V17.3529M20.0748 10.5879H3.9252V10.5879C3.66325 10.5884 3.4505 10.3806 3.45 10.1238C3.45 10.1235 3.45 10.1232 3.45 10.1229V8.37941V8.3794C3.4503 7.99978 3.69824 7.66289 4.06561 7.54294L11.6994 5.04764V5.04764C11.8946 4.98412 12.1054 4.98412 12.3006 5.04764L19.9344 7.54294V7.54294C20.3018 7.6629 20.5497 7.99979 20.55 8.37941V10.1229V10.1229C20.55 10.3798 20.3377 10.5879 20.0757 10.5879C20.0754 10.5879 20.0751 10.5879 20.0748 10.5879L20.0748 10.5879ZM19.5438 17.3529H4.4562V17.3529C4.1154 17.3531 3.80394 17.542 3.6516 17.8409L3.0954 18.9315V18.9315C3.03259 19.0538 2.99992 19.1889 3 19.3259V20H21V19.3259V19.3259C21.0001 19.1889 20.9674 19.0538 20.9046 18.9315L20.3484 17.8409V17.8409C20.1961 17.542 19.8846 17.3531 19.5438 17.3529V17.3529Z" stroke="#344054" stroke-width="1.2" stroke-linecap="round" stroke-linejoin="round"/>
</svg>
