<svg width="24" height="24" viewBox="0 0 24 24" fill="none" xmlns="http://www.w3.org/2000/svg">
<g clip-path="url(#clip0_259_78)">
<path d="M7 7H6C5.46957 7 4.96086 7.21071 4.58579 7.58579C4.21071 7.96086 4 8.46957 4 9V18C4 18.5304 4.21071 19.0391 4.58579 19.4142C4.96086 19.7893 5.46957 20 6 20H15C15.5304 20 16.0391 19.7893 16.4142 19.4142C16.7893 19.0391 17 18.5304 17 18V17" stroke="#344054" stroke-width="1.2" stroke-linecap="round" stroke-linejoin="round"/>
<path d="M9 15V12.3333C9 11.8059 9.1564 11.2903 9.44941 10.8518C9.74243 10.4132 10.1589 10.0714 10.6462 9.86962C11.1334 9.66778 11.6696 9.61497 12.1869 9.71787C12.7042 9.82076 13.1793 10.0747 13.5523 10.4477C13.9252 10.8206 14.1792 11.2958 14.2821 11.8131C14.385 12.3303 14.3322 12.8665 14.1303 13.3538C13.9285 13.8411 13.5867 14.2575 13.1482 14.5505C12.7097 14.8436 12.1941 15 11.6667 15H9Z" stroke="#344054" stroke-width="1.2" stroke-linecap="round" stroke-linejoin="round"/>
<path d="M21 3C19.0972 3.26027 17.3 4.02943 15.798 5.22629C14.2961 6.42316 13.1451 8.00333 12.4667 9.8" stroke="#344054" stroke-width="1.2" stroke-linecap="round" stroke-linejoin="round"/>
<path d="M21 3C20.7397 4.90279 19.9705 6.70001 18.7737 8.20196C17.5768 9.70391 15.9966 10.8549 14.2 11.5333" stroke="#344054" stroke-width="1.2" stroke-linecap="round" stroke-linejoin="round"/>
<path d="M14.0667 7.00006C15.3621 7.59797 16.4021 8.63795 17 9.93339" stroke="#344054" stroke-width="1.2" stroke-linecap="round" stroke-linejoin="round"/>
</g>
<defs>
<clipPath id="clip0_259_78">
<rect width="24" height="24" fill="white"/>
</clipPath>
</defs>
</svg>
