<svg width="24" height="24" viewBox="0 0 24 24" fill="none" xmlns="http://www.w3.org/2000/svg">
<path d="M11 10H15.5M11 14H15.5M8.5 10V10.0104M8.5 13.99V14.0004M5 19L5 5C5 4.46957 5.21071 3.96086 5.58579 3.58579C5.96086 3.21071 6.46957 3 7 3L10 3C10 3.53043 10.2107 4.03914 10.5858 4.41421C10.9609 4.78929 11.4696 5 12 5C12.5304 5 13.0391 4.78929 13.4142 4.41421C13.7893 4.03914 14 3.53043 14 3L17 3C17.5304 3 18.0391 3.21071 18.4142 3.58579C18.7893 3.96086 19 4.46957 19 5L19 19C19 19.5304 18.7893 20.0391 18.4142 20.4142C18.0391 20.7893 17.5304 21 17 21H14C14 20.4696 13.7893 19.9609 13.4142 19.5858C13.0391 19.2107 12.5304 19 12 19C11.4696 19 10.9609 19.2107 10.5858 19.5858C10.2107 19.9609 10 20.4696 10 21H7C6.46957 21 5.96086 20.7893 5.58579 20.4142C5.21071 20.0391 5 19.5304 5 19Z" stroke="#344054" stroke-width="1.2" stroke-linecap="round" stroke-linejoin="round"/>
</svg>
