<svg width="24" height="24" viewBox="0 0 24 24" fill="none" xmlns="http://www.w3.org/2000/svg">
<g clip-path="url(#clip0_2358_5253)">
<path d="M10.9982 19C9.41605 18.9997 7.86951 18.5302 6.55415 17.6509C5.23879 16.7716 4.21369 15.5221 3.60846 14.0602C3.00323 12.5984 2.84506 10.9899 3.15394 9.43819C3.46282 7.88646 4.22489 6.46116 5.34378 5.34252C6.46267 4.22388 7.88814 3.46213 9.43993 3.15359C10.9917 2.84505 12.6002 3.00358 14.0619 3.60914C15.5236 4.21469 16.7729 5.24007 17.6519 6.55563C18.3444 7.59217 18.7826 8.77218 18.9373 10" stroke="#87929D" stroke-width="1.2" stroke-linecap="round" stroke-linejoin="round"/>
<path d="M11 6.55554V11L12.7778 12.7778" stroke="#87929D" stroke-width="1.2" stroke-linecap="round" stroke-linejoin="round"/>
<path d="M16 17.4286C16 17.2012 16.0903 16.9832 16.2511 16.8225C16.4118 16.6617 16.6298 16.5714 16.8571 16.5714H21.1429C21.3702 16.5714 21.5882 16.6617 21.7489 16.8225C21.9097 16.9832 22 17.2012 22 17.4286V20C22 20.2273 21.9097 20.4453 21.7489 20.6061C21.5882 20.7668 21.3702 20.8571 21.1429 20.8571H16.8571C16.6298 20.8571 16.4118 20.7668 16.2511 20.6061C16.0903 20.4453 16 20.2273 16 20V17.4286Z" stroke="#87929D" stroke-width="1.2" stroke-linecap="round" stroke-linejoin="round"/>
<path d="M17.2858 16.5714V14.8571C17.2858 14.4025 17.4664 13.9664 17.7879 13.6449C18.1094 13.3234 18.5454 13.1428 19.0001 13.1428C19.4547 13.1428 19.8907 13.3234 20.2122 13.6449C20.5337 13.9664 20.7143 14.4025 20.7143 14.8571V16.5714" stroke="#87929D" stroke-width="1.2" stroke-linecap="round" stroke-linejoin="round"/>
</g>
<defs>
<clipPath id="clip0_2358_5253">
<rect width="24" height="24" fill="white"/>
</clipPath>
</defs>
</svg>
