<svg width="24" height="24" viewBox="0 0 24 24" fill="none" xmlns="http://www.w3.org/2000/svg">
<g clip-path="url(#clip0_149_554)">
<path d="M12 12.5C14.3472 12.5 16.25 10.5972 16.25 8.25C16.25 5.90279 14.3472 4 12 4C9.65279 4 7.75 5.90279 7.75 8.25C7.75 10.5972 9.65279 12.5 12 12.5Z" stroke="#344054" stroke-width="1.2" stroke-linecap="round" stroke-linejoin="round"/>
<path d="M4 20C4 17.515 6.015 15.5 8.5 15.5H11.083M15.99 17L13.99 19L15.99 21" stroke="#344054" stroke-width="1.2" stroke-linecap="round" stroke-linejoin="round"/>
<path d="M18 15H19C20.105 15 21 15.895 21 17C21 18.105 20.105 19 19 19H14" stroke="#344054" stroke-width="1.2" stroke-linecap="round" stroke-linejoin="round"/>
</g>
<defs>
<clipPath id="clip0_149_554">
<rect width="24" height="24" fill="white"/>
</clipPath>
</defs>
</svg>
