<svg width="24" height="24" viewBox="0 0 24 24" fill="none" xmlns="http://www.w3.org/2000/svg">
<path d="M4 20V18.2222C4 17.2792 4.3746 16.3749 5.0414 15.7081C5.70819 15.0413 6.61256 14.6667 7.55556 14.6667H11.1111C12.0541 14.6667 12.9585 15.0413 13.6253 15.7081C14.2921 16.3749 14.6667 17.2792 14.6667 18.2222V20M15.5556 4.11556C16.3204 4.31138 16.9983 4.75618 17.4823 5.37983C17.9664 6.00348 18.2292 6.77052 18.2292 7.56C18.2292 8.34948 17.9664 9.11652 17.4823 9.74017C16.9983 10.3638 16.3204 10.8086 15.5556 11.0044M20 20V18.2222C19.9955 17.4375 19.7315 16.6763 19.2491 16.0572C18.7668 15.4382 18.0932 14.9962 17.3333 14.8M12.8889 7.55556C12.8889 9.51923 11.297 11.1111 9.33333 11.1111C7.36965 11.1111 5.77778 9.51923 5.77778 7.55556C5.77778 5.59188 7.36965 4 9.33333 4C11.297 4 12.8889 5.59188 12.8889 7.55556Z" stroke="#344054" stroke-width="1.2" stroke-linecap="round" stroke-linejoin="round"/>
</svg>
