<svg width="24" height="24" viewBox="0 0 24 24" fill="none" xmlns="http://www.w3.org/2000/svg">
<g clip-path="url(#clip0_188_254)">
<path d="M18 4H20C21.1046 4 22 4.89543 22 6V19C22 20.1046 21.1046 21 20 21H4C2.89543 21 2 20.1046 2 19V6C2 4.89543 2.89543 4 4 4H6" stroke="#344054" stroke-width="1.2" stroke-linecap="round"/>
<path d="M10 10.5C10 11.0304 10.2107 11.5391 10.5858 11.9142C10.9609 12.2893 11.4696 12.5 12 12.5C12.5304 12.5 13.0391 12.2893 13.4142 11.9142C13.7893 11.5391 14 11.0304 14 10.5C14 9.96957 13.7893 9.46086 13.4142 9.08579C13.0391 8.71071 12.5304 8.5 12 8.5C11.4696 8.5 10.9609 8.71071 10.5858 9.08579C10.2107 9.46086 10 9.96957 10 10.5Z" stroke="#344054" stroke-width="1.2" stroke-linecap="round" stroke-linejoin="round"/>
<path d="M8.40002 18.5V17.3C8.40002 16.6635 8.65288 16.0531 9.10297 15.603C9.55306 15.1529 10.1635 14.9 10.8 14.9H13.2C13.8365 14.9 14.447 15.1529 14.8971 15.603C15.3472 16.0531 15.6 16.6635 15.6 17.3V18.5" stroke="#344054" stroke-width="1.2" stroke-linecap="round" stroke-linejoin="round"/>
<rect x="8.6" y="2.6" width="6.8" height="2.8" rx="1.4" stroke="#344054" stroke-width="1.2"/>
</g>
<defs>
<clipPath id="clip0_188_254">
<rect width="24" height="24" fill="white"/>
</clipPath>
</defs>
</svg>
