<svg width="24" height="24" viewBox="0 0 24 24" fill="none" xmlns="http://www.w3.org/2000/svg">
<path d="M4 20V18.2222C4 17.2792 4.37707 16.3749 5.04825 15.7081C5.71943 15.0413 6.62975 14.6667 7.57895 14.6667H11.1579C12.1071 14.6667 13.0174 15.0413 13.6886 15.7081C14.3598 16.3749 14.7368 17.2792 14.7368 18.2222V20M15.6316 11.1111H21M18.3158 8.44444V13.7778M12.9474 7.55556C12.9474 9.51923 11.345 11.1111 9.36842 11.1111C7.39182 11.1111 5.78947 9.51923 5.78947 7.55556C5.78947 5.59188 7.39182 4 9.36842 4C11.345 4 12.9474 5.59188 12.9474 7.55556Z" stroke="#344054" stroke-width="1.2" stroke-linecap="round" stroke-linejoin="round"/>
</svg>
