<svg width="24" height="24" viewBox="0 0 24 24" fill="none" xmlns="http://www.w3.org/2000/svg">
<g clip-path="url(#clip0_8148_58)">
<path d="M3 10.25C3 10.8467 3.23705 11.419 3.65901 11.841C4.08097 12.263 4.65327 12.5 5.25 12.5C5.84674 12.5 6.41904 12.263 6.841 11.841C7.26295 11.419 7.50001 10.8467 7.50001 10.25C7.50001 9.65327 7.26295 9.08097 6.841 8.65901C6.41904 8.23705 5.84674 8 5.25 8C4.65327 8 4.08097 8.23705 3.65901 8.65901C3.23705 9.08097 3 9.65327 3 10.25Z" stroke="#344054" stroke-width="1.5" stroke-linecap="round" stroke-linejoin="round"/>
<path d="M3 17.75C3 18.3467 3.23705 18.919 3.65901 19.341C4.08097 19.763 4.65327 20 5.25 20C5.84674 20 6.41904 19.763 6.841 19.341C7.26295 18.919 7.50001 18.3467 7.50001 17.75C7.50001 17.1533 7.26295 16.581 6.841 16.159C6.41904 15.7371 5.84674 15.5 5.25 15.5C4.65327 15.5 4.08097 15.7371 3.65901 16.159C3.23705 16.581 3 17.1533 3 17.75Z" stroke="#344054" stroke-width="1.5" stroke-linecap="round" stroke-linejoin="round"/>
<path d="M7.19995 11.45L15 19.25" stroke="#344054" stroke-width="1.5" stroke-linecap="round" stroke-linejoin="round"/>
<path d="M7.19995 16.55L15 8.75" stroke="#344054" stroke-width="1.5" stroke-linecap="round" stroke-linejoin="round"/>
<path d="M22 12V3C22 2.44772 21.5523 2 21 2H10C9.44772 2 9 2.44772 9 3V8" stroke="#344054" stroke-width="1.5"/>
<path d="M20 7V8" stroke="#344054"/>
<path d="M11 7V8" stroke="#344054"/>
<path d="M20 10V11" stroke="#344054"/>
<path d="M20 4V5" stroke="#344054"/>
<path d="M11 4V5" stroke="#344054"/>
</g>
<defs>
<clipPath id="clip0_8148_58">
<rect width="24" height="24" fill="white"/>
</clipPath>
</defs>
</svg>
