<svg width="24" height="24" viewBox="0 0 24 24" fill="none" xmlns="http://www.w3.org/2000/svg">
<path d="M18.5 15.33H15.5M12 16.239C11.3449 16.3963 10.6737 16.4772 10 16.48C9.44255 16.4797 8.88639 16.4264 8.339 16.321L5.2 17.867C5.2 16.797 5.2 15.778 5.2 15.022C3.23493 13.7498 2.03448 11.5807 2 9.24C2 5.223 5.6 2 10 2C14.4 2 18 5.223 18 9.24C17.9985 10.1928 17.7918 11.1342 17.394 12M20 22H14C12.8954 22 12 21.1046 12 20V14C12 12.8954 12.8954 12 14 12H20C21.1046 12 22 12.8954 22 14V20C22 21.1046 21.1046 22 20 22Z" stroke="#344054" stroke-width="1.2" stroke-linecap="round" stroke-linejoin="round"/>
</svg>
