<svg width="33" height="33" viewBox="0 0 33 33" fill="none" xmlns="http://www.w3.org/2000/svg">
<path d="M16.3359 10.8895V16.334M16.3359 21.7784H16.3495M11.8443 4.08398H20.8276C21.2359 4.08398 21.5082 4.2201 21.7804 4.49232L28.1776 10.8895C28.4498 11.1618 28.5859 11.434 28.5859 11.8423V20.8257C28.5859 21.234 28.4498 21.5062 28.1776 21.7784L21.7804 28.1757C21.5082 28.4479 21.2359 28.584 20.8276 28.584H11.8443C11.4359 28.584 11.1637 28.4479 10.8915 28.1757L4.49427 21.7784C4.22205 21.5062 4.08594 21.234 4.08594 20.8257V11.8423C4.08594 11.434 4.22205 11.1618 4.49427 10.8895L10.8915 4.49232C11.1637 4.2201 11.4359 4.08398 11.8443 4.08398Z" stroke="#87929D" stroke-width="2.04167" stroke-linecap="round" stroke-linejoin="round"/>
</svg>
