<svg width="24" height="24" viewBox="0 0 24 24" fill="none" xmlns="http://www.w3.org/2000/svg">
<g clip-path="url(#clip0_177_610)">
<path d="M4 4H10V10H4V4Z" stroke="#344054" stroke-width="1.2" stroke-linecap="round" stroke-linejoin="round"/>
<path d="M12.7574 7L17 2.75736L21.2427 7L17 11.2426L12.7574 7Z" stroke="#344054" stroke-width="1.2" stroke-linecap="round" stroke-linejoin="round"/>
<path d="M4 14H10V20H4V14Z" stroke="#344054" stroke-width="1.2" stroke-linecap="round" stroke-linejoin="round"/>
<path d="M16.5 17C16.5 17.2652 16.6054 17.5196 16.7929 17.7071C16.9804 17.8946 17.2348 18 17.5 18C17.7652 18 18.0196 17.8946 18.2071 17.7071C18.3946 17.5196 18.5 17.2652 18.5 17C18.5 16.7348 18.3946 16.4804 18.2071 16.2929C18.0196 16.1054 17.7652 16 17.5 16C17.2348 16 16.9804 16.1054 16.7929 16.2929C16.6054 16.4804 16.5 16.7348 16.5 17Z" stroke="#344054" stroke-width="1.2" stroke-linecap="round" stroke-linejoin="round"/>
<path d="M22 17C20.8 19 19.3 20 17.5 20C15.7 20 14.2 19 13 17C14.2 15 15.7 14 17.5 14C19.3 14 20.8 15 22 17Z" stroke="#344054" stroke-width="1.2" stroke-linecap="round" stroke-linejoin="round"/>
</g>
<defs>
<clipPath id="clip0_177_610">
<rect width="24" height="24" fill="white"/>
</clipPath>
</defs>
</svg>
