<svg width="24" height="24" viewBox="0 0 24 24" fill="none" xmlns="http://www.w3.org/2000/svg">
<path d="M5.55902 15.685L7.40502 12.664C8.11602 11.501 9.90702 12.004 9.90702 13.368V14.963H11.417C11.87 14.963 12.293 15.19 12.545 15.569C12.768 15.904 12.833 16.321 12.722 16.708L11.99 19.27C11.866 19.702 11.471 20 11.022 20H7.43902C7.14802 20 6.86502 19.898 6.64102 19.712L5.55902 18.815M18.5 8.37396L16.654 11.395C15.943 12.558 14.152 12.055 14.152 10.691V9.09596H12.642C12.189 9.09596 11.766 8.86896 11.514 8.48996C11.291 8.15496 11.226 7.73796 11.337 7.35096L12.069 4.78896C12.193 4.35696 12.588 4.05896 13.037 4.05896H16.62C16.911 4.05896 17.194 4.16096 17.418 4.34696L18.5 5.24396M5.00002 20H3.61802C3.30902 20 3.05902 19.75 3.05902 19.441V15.059C3.05902 14.75 3.30902 14.5 3.61802 14.5H5.00002C5.30902 14.5 5.55902 14.75 5.55902 15.101V19.483C5.55902 19.75 5.30902 20 5.00002 20ZM19.059 4.05896H20.441C20.75 4.05896 21 4.30896 21 4.61796V8.99996C21 9.30896 20.75 9.55896 20.441 9.55896H19.059C18.75 9.55896 18.5 9.30896 18.5 8.95796V4.57596C18.5 4.30896 18.75 4.05896 19.059 4.05896Z" stroke="#344054" stroke-width="1.2" stroke-linecap="round" stroke-linejoin="round"/>
</svg>
