<svg width="757" height="168" viewBox="0 0 757 168" fill="none" xmlns="http://www.w3.org/2000/svg">
<g clip-path="url(#clip0_3393_252)">
<path d="M7.83685 59.2019V75.0552H31.7673V86.9111L9.63386 93.1953L14.0167 108.438L33.617 102.874C38.7226 118.914 53.8205 130.542 71.6513 130.542C89.4819 130.542 104.58 118.914 109.686 102.874L129.286 108.438L133.669 93.1953L111.535 86.9111V75.0552H135.466V59.2019L79.6594 59.2748H79.3954L63.6745 59.1016V59.2019H7.83685Z" fill="#5BCC5A"/>
<path d="M63.841 13.3516V26.1949C66.4232 25.6684 69.0957 25.392 71.8325 25.392C74.5694 25.392 77.2419 25.6684 79.824 26.1949V13.3516H95.807V33.416C102.412 38.399 107.429 45.39 109.961 53.4865H33.7044C36.2361 45.39 41.2534 38.399 47.8581 33.416V13.3516H63.841Z" fill="#75DC66"/>
<path d="M71.7137 87.7844C87.4577 87.7844 100.221 75.0213 100.221 59.2773H43.2067C43.2067 75.0213 55.9697 87.7844 71.7137 87.7844Z" fill="#0DA84C"/>
</g>
<g clip-path="url(#clip1_3393_252)">
<path d="M217.375 93.7852C221.889 94.6268 225.599 96.8836 228.506 100.556C231.413 104.228 232.867 108.435 232.867 113.179C232.867 117.463 231.796 121.25 229.654 124.539C227.588 127.752 224.566 130.277 220.588 132.113C216.61 133.949 211.905 134.867 206.473 134.867H171.932V54.7688H204.982C210.413 54.7688 215.08 55.6486 218.982 57.4082C222.96 59.1677 225.943 61.6158 227.932 64.7524C229.998 67.889 231.031 71.4464 231.031 75.4246C231.031 80.0912 229.769 83.9929 227.244 87.1295C224.796 90.2661 221.506 92.4847 217.375 93.7852ZM187.998 87.818H202.687C206.512 87.818 209.457 86.9765 211.523 85.2934C213.588 83.5339 214.621 81.0475 214.621 77.8344C214.621 74.6213 213.588 72.1349 211.523 70.3754C209.457 68.6158 206.512 67.736 202.687 67.736H187.998V87.818ZM204.178 121.785C208.08 121.785 211.102 120.867 213.244 119.031C215.462 117.195 216.572 114.594 216.572 111.228C216.572 107.785 215.424 105.108 213.129 103.195C210.834 101.206 207.736 100.211 203.834 100.211H187.998V121.785H204.178ZM303.392 71.2934V134.867H287.212V126.834C285.146 129.588 282.43 131.769 279.064 133.375C275.775 134.905 272.179 135.67 268.277 135.67C263.305 135.67 258.906 134.638 255.081 132.572C251.256 130.43 248.234 127.332 246.015 123.277C243.873 119.146 242.802 114.25 242.802 108.588V71.2934H258.868V106.293C258.868 111.343 260.13 115.244 262.655 117.998C265.179 120.676 268.622 122.015 272.982 122.015C277.42 122.015 280.9 120.676 283.425 117.998C285.95 115.244 287.212 111.343 287.212 106.293V71.2934H303.392ZM341.85 70.2606C346.593 70.2606 350.763 71.2169 354.358 73.1295C357.954 74.9656 360.784 77.3754 362.85 80.359V71.2934H379.03V135.326C379.03 141.217 377.845 146.457 375.473 151.048C373.101 155.714 369.544 159.386 364.801 162.064C360.058 164.818 354.32 166.195 347.588 166.195C338.56 166.195 331.14 164.091 325.325 159.884C319.588 155.676 316.336 149.938 315.571 142.67H331.522C332.364 145.578 334.162 147.873 336.916 149.556C339.746 151.315 343.151 152.195 347.129 152.195C351.795 152.195 355.582 150.78 358.489 147.949C361.397 145.195 362.85 140.987 362.85 135.326V125.457C360.784 128.441 357.916 130.927 354.244 132.916C350.648 134.905 346.517 135.9 341.85 135.9C336.495 135.9 331.599 134.523 327.162 131.769C322.724 129.015 319.205 125.151 316.604 120.179C314.08 115.129 312.817 109.354 312.817 102.851C312.817 96.4246 314.08 90.7251 316.604 85.7524C319.205 80.7798 322.686 76.9546 327.047 74.277C331.484 71.5994 336.418 70.2606 341.85 70.2606ZM362.85 103.08C362.85 99.1787 362.085 95.8508 360.555 93.0967C359.025 90.2661 356.959 88.124 354.358 86.6705C351.757 85.1404 348.965 84.3754 345.981 84.3754C342.998 84.3754 340.244 85.1022 337.719 86.5557C335.194 88.0093 333.129 90.1513 331.522 92.9819C329.992 95.736 329.227 99.0257 329.227 102.851C329.227 106.676 329.992 110.042 331.522 112.949C333.129 115.78 335.194 117.96 337.719 119.49C340.32 121.02 343.074 121.785 345.981 121.785C348.965 121.785 351.757 121.058 354.358 119.605C356.959 118.075 359.025 115.933 360.555 113.179C362.085 110.348 362.85 106.982 362.85 103.08ZM499.492 54.7688L477.115 134.867H458.18L443.147 77.8344L427.426 134.867L408.606 134.982L387.033 54.7688H404.246L418.361 116.966L434.656 54.7688H452.557L467.934 116.621L482.164 54.7688H499.492ZM503.556 102.851C503.556 96.4246 504.818 90.7251 507.343 85.7524C509.944 80.7798 513.424 76.9546 517.785 74.277C522.222 71.5994 527.157 70.2606 532.588 70.2606C537.332 70.2606 541.463 71.2169 544.982 73.1295C548.577 75.0421 551.446 77.4519 553.588 80.359V71.2934H569.769V134.867H553.588V125.572C551.523 128.556 548.654 131.042 544.982 133.031C541.386 134.944 537.217 135.9 532.474 135.9C527.118 135.9 522.222 134.523 517.785 131.769C513.424 129.015 509.944 125.151 507.343 120.179C504.818 115.129 503.556 109.354 503.556 102.851ZM553.588 103.08C553.588 99.1787 552.823 95.8508 551.293 93.0967C549.763 90.2661 547.698 88.124 545.097 86.6705C542.496 85.1404 539.703 84.3754 536.72 84.3754C533.736 84.3754 530.982 85.1022 528.457 86.5557C525.933 88.0093 523.867 90.1513 522.261 92.9819C520.73 95.736 519.965 99.0257 519.965 102.851C519.965 106.676 520.73 110.042 522.261 112.949C523.867 115.78 525.933 117.96 528.457 119.49C531.058 121.02 533.812 121.785 536.72 121.785C539.703 121.785 542.496 121.058 545.097 119.605C547.698 118.075 549.763 115.933 551.293 113.179C552.823 110.348 553.588 106.982 553.588 103.08ZM601.869 84.4901V115.244C601.869 117.386 602.367 118.955 603.361 119.949C604.432 120.867 606.192 121.326 608.64 121.326H616.099V134.867H606.001C592.46 134.867 585.689 128.288 585.689 115.129V84.4901H578.115V71.2934H585.689V55.5721H601.869V71.2934H616.099V84.4901H601.869ZM621.228 103.08C621.228 96.5011 622.567 90.7634 625.244 85.8672C627.922 80.8945 631.632 77.0694 636.375 74.3918C641.119 71.6377 646.55 70.2606 652.67 70.2606C660.55 70.2606 667.053 72.2497 672.179 76.2278C677.381 80.1295 680.862 85.6377 682.621 92.7524H665.293C664.375 89.9983 662.807 87.8563 660.589 86.3262C658.446 84.7196 655.769 83.9164 652.556 83.9164C647.966 83.9164 644.332 85.5994 641.654 88.9656C638.976 92.2552 637.638 96.9601 637.638 103.08C637.638 109.124 638.976 113.829 641.654 117.195C644.332 120.485 647.966 122.129 652.556 122.129C659.058 122.129 663.304 119.222 665.293 113.408H682.621C680.862 120.293 677.381 125.763 672.179 129.818C666.976 133.873 660.474 135.9 652.67 135.9C646.55 135.9 641.119 134.561 636.375 131.884C631.632 129.129 627.922 125.304 625.244 120.408C622.567 115.435 621.228 109.66 621.228 103.08ZM727.899 70.3754C732.719 70.3754 737.003 71.4464 740.751 73.5885C744.5 75.6541 747.407 78.7524 749.473 82.8836C751.615 86.9382 752.686 91.8344 752.686 97.5721V134.867H736.62V99.7524C736.62 94.7033 735.358 90.8399 732.833 88.1623C730.309 85.4082 726.866 84.0311 722.506 84.0311C718.068 84.0311 714.549 85.4082 711.948 88.1623C709.424 90.8399 708.161 94.7033 708.161 99.7524V134.867H692.096V49.9492H708.161V79.2115C710.227 76.4574 712.981 74.3153 716.424 72.7852C719.866 71.1787 723.691 70.3754 727.899 70.3754Z" fill="black"/>
<path d="M228.634 25.7335C228.634 26.5928 228.577 27.3661 228.462 28.0535H211.076C211.219 29.772 211.82 31.1182 212.879 32.092C213.938 33.0659 215.24 33.5528 216.786 33.5528C219.018 33.5528 220.606 32.5933 221.551 30.6742H228.033C227.346 32.9656 226.03 34.856 224.084 36.3454C222.138 37.8061 219.748 38.5365 216.915 38.5365C214.625 38.5365 212.565 38.0353 210.733 37.0328C208.93 36.0017 207.513 34.5553 206.483 32.6935C205.481 30.8318 204.981 28.6836 204.981 26.249C204.981 23.7858 205.481 21.6233 206.483 19.7616C207.485 17.8999 208.887 16.4678 210.69 15.4653C212.493 14.4628 214.568 13.9616 216.915 13.9616C219.176 13.9616 221.193 14.4485 222.968 15.4223C224.771 16.3962 226.159 17.7853 227.132 19.5898C228.133 21.3656 228.634 23.4135 228.634 25.7335ZM222.409 24.015C222.381 22.4683 221.823 21.2367 220.735 20.3201C219.648 19.3749 218.317 18.9023 216.743 18.9023C215.255 18.9023 213.996 19.3606 212.965 20.2772C211.964 21.1651 211.348 22.411 211.119 24.015H222.409Z" fill="black"/>
<path d="M255.129 25.7335C255.129 26.5928 255.072 27.3661 254.957 28.0535H237.571C237.714 29.772 238.315 31.1182 239.374 32.092C240.433 33.0659 241.735 33.5528 243.281 33.5528C245.513 33.5528 247.101 32.5933 248.046 30.6742H254.528C253.841 32.9656 252.525 34.856 250.579 36.3454C248.632 37.8061 246.243 38.5365 243.409 38.5365C241.12 38.5365 239.059 38.0353 237.228 37.0328C235.425 36.0017 234.008 34.5553 232.978 32.6935C231.976 30.8318 231.475 28.6836 231.475 26.249C231.475 23.7858 231.976 21.6233 232.978 19.7616C233.98 17.8999 235.382 16.4678 237.185 15.4653C238.988 14.4628 241.063 13.9616 243.409 13.9616C245.67 13.9616 247.688 14.4485 249.462 15.4223C251.265 16.3962 252.653 17.7853 253.626 19.5898C254.628 21.3656 255.129 23.4135 255.129 25.7335ZM248.904 24.015C248.876 22.4683 248.318 21.2367 247.23 20.3201C246.143 19.3749 244.812 18.9023 243.238 18.9023C241.75 18.9023 240.49 19.3606 239.46 20.2772C238.458 21.1651 237.843 22.411 237.614 24.015H248.904Z" fill="black"/>
<path d="M266.612 19.2428V30.8604C266.612 31.6624 266.824 32.1923 267.196 32.5646C267.597 32.9083 268.255 33.0802 269.171 33.0802H271.961V38.1498H268.184C263.118 38.1498 260.694 35.559 260.694 30.6326V19.2428H257.508V14.2313H260.694V8.30859H266.612V14.2313H271.961V19.2428H266.612Z" fill="black"/>
<path d="M286.719 38.5365C284.43 38.5365 282.369 38.0353 280.537 37.0328C278.706 36.0017 277.261 34.5553 276.202 32.6935C275.171 30.8318 274.656 28.6836 274.656 26.249C274.656 23.8145 275.186 21.6663 276.245 19.8046C277.332 17.9428 278.806 16.5107 280.666 15.5083C282.527 14.4771 284.601 13.9616 286.891 13.9616C289.18 13.9616 291.255 14.4771 293.116 15.5083C294.976 16.5107 296.435 17.9428 297.494 19.8046C298.582 21.6663 299.125 23.8145 299.125 26.249C299.125 28.6836 298.567 30.8318 297.451 32.6935C296.364 34.5553 294.876 36.0017 292.987 37.0328C291.126 38.0353 289.037 38.5365 286.719 38.5365ZM286.719 33.295C287.807 33.295 288.823 33.0372 289.767 32.5217C290.74 31.9775 291.513 31.1755 292.085 30.1157C292.658 29.056 292.944 27.7671 292.944 26.249C292.944 23.9863 292.343 22.2535 291.141 21.0505C289.967 19.8189 288.522 19.2031 286.805 19.2031C285.088 19.2031 283.643 19.8189 282.469 21.0505C281.325 22.2535 280.752 23.9863 280.752 26.249C280.752 28.5118 281.31 30.2589 282.426 31.4905C283.571 32.6935 285.002 33.295 286.719 33.295Z" fill="black"/>
<path d="M199.904 8.30859H188.367L199.904 25.6146V8.30859Z" fill="black"/>
<path d="M171.292 38.5365L171.292 8.30859H179.623L199.904 38.5365H191.33L177.983 18.923V38.5365H171.292Z" fill="black"/>
</g>
<defs>
<clipPath id="clip0_3393_252">
<rect width="127.629" height="127.629" fill="white" transform="translate(7.83685 8.30859)"/>
</clipPath>
<clipPath id="clip1_3393_252">
<rect width="593.363" height="166.813" fill="white" transform="translate(162.895 0.46875)"/>
</clipPath>
</defs>
</svg>
