<svg width="379" height="169" viewBox="0 0 379 169" fill="none" xmlns="http://www.w3.org/2000/svg">
<g clip-path="url(#clip0_3095_505)">
<path d="M46.4255 36.0753C47.0847 32.866 49.9095 30.5625 53.1857 30.5625H124.841C130.667 30.5625 135.027 35.9086 133.855 41.6157L115.781 129.608C114.902 133.887 111.135 136.958 106.767 136.958H25.7036L46.4255 36.0753Z" fill="#5BCC5A"/>
<path d="M44.4865 45.5156H70.9165C85.7194 45.5156 96.7337 59.195 93.5753 73.657C90.784 86.4385 79.4674 95.5504 66.3847 95.5504H34.2148L44.4865 45.5156Z" fill="#0DA84C"/>
<path d="M25.7035 136.958L44.4867 45.5156H32.284C29.0076 45.5156 26.1829 47.8192 25.5237 51.0285L9.01007 131.432C8.42399 134.285 10.6038 136.958 13.5169 136.958H25.7035Z" fill="#75DC66"/>
</g>
<g clip-path="url(#clip1_3095_505)">
<path d="M231.463 79.8569C231.463 84.1619 230.425 88.1978 228.35 91.9647C226.351 95.7316 223.161 98.7681 218.779 101.074C214.474 103.381 209.016 104.534 202.404 104.534H188.913V135.438H172.769V54.9494H202.404C208.631 54.9494 213.936 56.0256 218.318 58.1781C222.699 60.3306 225.967 63.2903 228.119 67.0572C230.348 70.8241 231.463 75.0906 231.463 79.8569ZM201.713 91.5034C206.171 91.5034 209.477 90.5041 211.629 88.5053C213.782 86.4297 214.858 83.5469 214.858 79.8569C214.858 72.0156 210.476 68.095 201.713 68.095H188.913V91.5034H201.713ZM236.468 103.265C236.468 96.8078 237.736 91.0806 240.273 86.0837C242.887 81.0869 246.384 77.2431 250.766 74.5525C255.225 71.8619 260.183 70.5166 265.642 70.5166C270.408 70.5166 274.559 71.4775 278.095 73.3994C281.708 75.3212 284.591 77.7428 286.744 80.6641V71.5544H303.003V135.438H286.744V126.097C284.668 129.095 281.785 131.594 278.095 133.592C274.482 135.514 270.293 136.475 265.526 136.475C260.145 136.475 255.225 135.092 250.766 132.324C246.384 129.557 242.887 125.674 240.273 120.677C237.736 115.604 236.468 109.8 236.468 103.265ZM286.744 103.496C286.744 99.5753 285.975 96.2312 284.438 93.4637C282.9 90.6194 280.824 88.4669 278.211 87.0062C275.597 85.4687 272.791 84.7 269.793 84.7C266.795 84.7 264.027 85.4303 261.49 86.8909C258.953 88.3516 256.878 90.5041 255.263 93.3484C253.726 96.1159 252.957 99.4216 252.957 103.265C252.957 107.109 253.726 110.492 255.263 113.413C256.878 116.257 258.953 118.448 261.49 119.986C264.104 121.523 266.872 122.292 269.793 122.292C272.791 122.292 275.597 121.562 278.211 120.101C280.824 118.563 282.9 116.411 284.438 113.643C285.975 110.799 286.744 107.417 286.744 103.496ZM377.579 71.5544L338.027 165.649H320.846L334.683 133.823L309.084 71.5544H327.188L343.678 116.18L360.398 71.5544H377.579Z" fill="black"/>
<path d="M229.747 25.3847C229.747 26.2481 229.689 27.0252 229.574 27.716H212.103C212.247 29.4429 212.851 30.7956 213.915 31.7742C214.979 32.7527 216.288 33.242 217.841 33.242C220.084 33.242 221.68 32.2778 222.629 30.3495H229.143C228.452 32.652 227.13 34.5516 225.174 36.0482C223.218 37.5161 220.817 38.25 217.97 38.25C215.669 38.25 213.599 37.7463 211.758 36.739C209.947 35.7028 208.523 34.2494 207.488 32.3786C206.481 30.5078 205.978 28.3492 205.978 25.9028C205.978 23.4275 206.481 21.2545 207.488 19.3837C208.494 17.513 209.903 16.0739 211.715 15.0665C213.527 14.0592 215.612 13.5555 217.97 13.5555C220.242 13.5555 222.269 14.0448 224.052 15.0234C225.864 16.0019 227.259 17.3978 228.237 19.2111C229.243 20.9955 229.747 23.0534 229.747 25.3847ZM223.492 23.6578C223.463 22.1036 222.902 20.866 221.809 19.945C220.717 18.9952 219.379 18.5203 217.798 18.5203C216.302 18.5203 215.037 18.9808 214.001 19.9018C212.995 20.794 212.377 22.046 212.147 23.6578H223.492Z" fill="black"/>
<path d="M256.37 25.3847C256.37 26.2481 256.313 27.0252 256.198 27.716H238.727C238.871 29.4429 239.475 30.7956 240.539 31.7742C241.603 32.7527 242.912 33.242 244.464 33.242C246.708 33.242 248.304 32.2778 249.253 30.3495H255.766C255.076 32.652 253.753 34.5516 251.798 36.0482C249.842 37.5161 247.441 38.25 244.594 38.25C242.293 38.25 240.223 37.7463 238.382 36.739C236.57 35.7028 235.147 34.2494 234.112 32.3786C233.105 30.5078 232.602 28.3492 232.602 25.9028C232.602 23.4275 233.105 21.2545 234.112 19.3837C235.118 17.513 236.527 16.0739 238.339 15.0665C240.151 14.0592 242.236 13.5555 244.594 13.5555C246.866 13.5555 248.893 14.0448 250.676 15.0234C252.488 16.0019 253.883 17.3978 254.861 19.2111C255.867 20.9955 256.37 23.0534 256.37 25.3847ZM250.115 23.6578C250.087 22.1036 249.526 20.866 248.433 19.945C247.34 18.9952 246.003 18.5203 244.421 18.5203C242.926 18.5203 241.661 18.9808 240.625 19.9018C239.619 20.794 239 22.046 238.77 23.6578H250.115Z" fill="black"/>
<path d="M267.91 18.8624V30.5365C267.91 31.3424 268.122 31.8749 268.496 32.249C268.899 32.5944 269.56 32.7671 270.481 32.7671H273.285V37.8614H269.488C264.398 37.8614 261.963 35.258 261.963 30.3076V18.8624H258.761V13.8265H261.963V7.875H267.91V13.8265H273.285V18.8624H267.91Z" fill="black"/>
<path d="M288.114 38.25C285.814 38.25 283.743 37.7463 281.903 36.739C280.062 35.7028 278.61 34.2494 277.546 32.3786C276.51 30.5078 275.993 28.3492 275.993 25.9028C275.993 23.4563 276.525 21.2977 277.589 19.4269C278.682 17.5561 280.163 16.1171 282.032 15.1097C283.901 14.0736 285.986 13.5555 288.287 13.5555C290.588 13.5555 292.673 14.0736 294.542 15.1097C296.411 16.1171 297.878 17.5561 298.942 19.4269C300.035 21.2977 300.581 23.4563 300.581 25.9028C300.581 28.3492 300.02 30.5078 298.899 32.3786C297.806 34.2494 296.31 35.7028 294.412 36.739C292.543 37.7463 290.444 38.25 288.114 38.25ZM288.114 32.983C289.207 32.983 290.228 32.724 291.177 32.2059C292.155 31.659 292.931 30.8532 293.507 29.7882C294.082 28.7233 294.369 27.4282 294.369 25.9028C294.369 23.629 293.765 21.8877 292.557 20.6789C291.378 19.4413 289.926 18.8225 288.201 18.8225C286.475 18.8225 285.023 19.4413 283.844 20.6789C282.693 21.8877 282.118 23.629 282.118 25.9028C282.118 28.1765 282.679 29.9322 283.801 31.1698C284.951 32.3786 286.389 32.983 288.114 32.983Z" fill="black"/>
<path d="M200.877 7.875H189.284L200.877 25.2653V7.875Z" fill="black"/>
<path d="M172.125 38.25L172.125 7.875H180.497L200.877 38.25H192.261L178.849 18.541V38.25H172.125Z" fill="black"/>
</g>
<defs>
<clipPath id="clip0_3095_505">
<rect width="128.25" height="128.25" fill="white" transform="translate(7.875 7.875)"/>
</clipPath>
<clipPath id="clip1_3095_505">
<rect width="214.875" height="168.75" fill="white" transform="translate(163.688)"/>
</clipPath>
</defs>
</svg>
