<svg width="516" height="169" viewBox="0 0 516 169" fill="none" xmlns="http://www.w3.org/2000/svg">
<path d="M63.5515 63.3321L94.1466 107.202L59.9767 131.032C47.8621 139.481 31.1928 136.509 22.7442 124.395C14.2951 112.28 17.267 95.6109 29.3811 87.1623L63.5515 63.3321Z" fill="#0DA84C"/>
<path d="M80.0927 80.5608L49.4976 36.691L83.6675 12.8605C95.7822 4.41204 112.451 7.38361 120.9 19.498C129.349 31.6125 126.377 48.282 114.263 56.7306L80.0927 80.5608Z" fill="#75DC66"/>
<path d="M49.498 36.6889L83.6679 12.8584C75.7289 25.3247 77.0159 33.4379 81.0016 39.5945L107.544 80.5973C113.682 90.0787 111.07 97.1691 94.1466 107.202L59.9767 131.032C67.9157 118.566 66.6291 110.452 62.6435 104.295L36.1007 63.2925C29.9631 53.8111 32.5744 46.7216 49.498 36.6889Z" fill="#5BCC5A"/>
<path d="M200.559 136.243C194.948 136.243 189.874 135.283 185.338 133.361C180.879 131.439 177.343 128.671 174.729 125.058C172.116 121.445 170.77 117.178 170.693 112.258H187.99C188.221 115.564 189.374 118.178 191.45 120.1C193.602 122.022 196.523 122.983 200.213 122.983C203.98 122.983 206.94 122.098 209.092 120.33C211.245 118.485 212.321 116.102 212.321 113.181C212.321 110.798 211.591 108.838 210.13 107.3C208.67 105.763 206.825 104.571 204.595 103.725C202.443 102.803 199.445 101.803 195.601 100.727C190.373 99.1897 186.107 97.6906 182.801 96.23C179.572 94.6925 176.767 92.4247 174.383 89.4266C172.077 86.3516 170.924 82.2772 170.924 77.2034C170.924 72.4372 172.116 68.2859 174.499 64.7497C176.882 61.2134 180.226 58.5228 184.531 56.6778C188.836 54.7559 193.756 53.795 199.291 53.795C207.593 53.795 214.32 55.8322 219.471 59.9066C224.698 63.9041 227.581 69.5159 228.119 76.7422H210.361C210.207 73.9747 209.016 71.7069 206.786 69.9388C204.634 68.0938 201.751 67.1713 198.138 67.1713C194.986 67.1713 192.449 67.9784 190.527 69.5928C188.682 71.2072 187.76 73.5519 187.76 76.6269C187.76 78.7794 188.452 80.5859 189.835 82.0466C191.296 83.4303 193.064 84.5834 195.14 85.5059C197.292 86.3516 200.29 87.3509 204.134 88.5041C209.362 90.0416 213.628 91.5791 216.934 93.1166C220.239 94.6541 223.084 96.9603 225.467 100.035C227.85 103.11 229.042 107.146 229.042 112.143C229.042 116.448 227.927 120.446 225.697 124.136C223.468 127.826 220.201 130.785 215.896 133.015C211.591 135.167 206.479 136.243 200.559 136.243Z" fill="black" data-dark-mode-color="true"/>
<path d="M248.919 63.9425C246.074 63.9425 243.691 63.0584 241.769 61.2903C239.924 59.4453 239.002 57.1775 239.002 54.4869C239.002 51.7963 239.924 49.5669 241.769 47.7987C243.691 45.9537 246.074 45.0312 248.919 45.0312C251.763 45.0312 254.108 45.9537 255.953 47.7987C257.874 49.5669 258.835 51.7963 258.835 54.4869C258.835 57.1775 257.874 59.4453 255.953 61.2903C254.108 63.0584 251.763 63.9425 248.919 63.9425ZM256.875 71.5531V135.436H240.731V71.5531H256.875Z" fill="black" data-dark-mode-color="true"/>
<path d="M295.542 70.5153C300.308 70.5153 304.498 71.4763 308.111 73.3981C311.724 75.2431 314.568 77.6647 316.644 80.6628V71.5531H332.903V135.898C332.903 141.817 331.711 147.083 329.328 151.695C326.945 156.385 323.37 160.075 318.604 162.765C313.838 165.533 308.072 166.917 301.307 166.917C292.236 166.917 284.779 164.803 278.937 160.574C273.171 156.346 269.904 150.581 269.135 143.278H285.164C286.009 146.199 287.816 148.505 290.583 150.196C293.428 151.964 296.849 152.848 300.846 152.848C305.535 152.848 309.341 151.426 312.262 148.582C315.183 145.814 316.644 141.586 316.644 135.898V125.981C314.568 128.979 311.685 131.477 307.995 133.476C304.382 135.475 300.231 136.474 295.542 136.474C290.16 136.474 285.24 135.09 280.782 132.323C276.323 129.555 272.787 125.673 270.173 120.676C267.636 115.603 266.368 109.798 266.368 103.264C266.368 96.8066 267.636 91.0794 270.173 86.0825C272.787 81.0856 276.285 77.2419 280.666 74.5513C285.125 71.8606 290.084 70.5153 295.542 70.5153ZM316.644 103.495C316.644 99.5741 315.875 96.23 314.338 93.4625C312.8 90.6181 310.725 88.4656 308.111 87.005C305.497 85.4675 302.691 84.6987 299.693 84.6987C296.695 84.6987 293.927 85.4291 291.39 86.8897C288.854 88.3503 286.778 90.5028 285.164 93.3472C283.626 96.1147 282.857 99.4203 282.857 103.264C282.857 107.108 283.626 110.49 285.164 113.412C286.778 116.256 288.854 118.447 291.39 119.984C294.004 121.522 296.772 122.291 299.693 122.291C302.691 122.291 305.497 121.56 308.111 120.1C310.725 118.562 312.8 116.41 314.338 113.642C315.875 110.798 316.644 107.415 316.644 103.495Z" fill="black" data-dark-mode-color="true"/>
<path d="M381.765 70.6306C389.375 70.6306 395.525 73.0522 400.215 77.8953C404.904 82.6616 407.249 89.3497 407.249 97.9597V135.436H391.105V100.151C391.105 95.0769 389.837 91.1947 387.3 88.5041C384.763 85.7366 381.304 84.3528 376.922 84.3528C372.463 84.3528 368.927 85.7366 366.313 88.5041C363.776 91.1947 362.508 95.0769 362.508 100.151V135.436H346.364V71.5531H362.508V79.5097C364.66 76.7422 367.389 74.5897 370.695 73.0522C374.077 71.4378 377.767 70.6306 381.765 70.6306Z" fill="black" data-dark-mode-color="true"/>
<path d="M229.747 25.3847C229.747 26.2481 229.689 27.0252 229.574 27.716H212.103C212.247 29.4429 212.851 30.7956 213.915 31.7742C214.979 32.7527 216.288 33.242 217.841 33.242C220.084 33.242 221.68 32.2778 222.629 30.3495H229.143C228.452 32.652 227.13 34.5516 225.174 36.0482C223.218 37.5161 220.817 38.25 217.97 38.25C215.669 38.25 213.599 37.7463 211.758 36.739C209.947 35.7028 208.523 34.2494 207.488 32.3786C206.481 30.5078 205.978 28.3492 205.978 25.9028C205.978 23.4275 206.481 21.2545 207.488 19.3837C208.494 17.513 209.903 16.0739 211.715 15.0665C213.527 14.0592 215.612 13.5555 217.97 13.5555C220.242 13.5555 222.269 14.0448 224.052 15.0234C225.864 16.0019 227.259 17.3978 228.237 19.2111C229.243 20.9955 229.747 23.0534 229.747 25.3847ZM223.492 23.6578C223.463 22.1036 222.902 20.866 221.809 19.945C220.716 18.9952 219.379 18.5203 217.798 18.5203C216.302 18.5203 215.037 18.9808 214.001 19.9018C212.995 20.794 212.377 22.046 212.147 23.6578H223.492Z" fill="black" data-dark-mode-color="true"/>
<path d="M256.37 25.3847C256.37 26.2481 256.313 27.0252 256.198 27.716H238.727C238.871 29.4429 239.475 30.7956 240.539 31.7742C241.603 32.7527 242.912 33.242 244.464 33.242C246.708 33.242 248.304 32.2778 249.253 30.3495H255.766C255.076 32.652 253.753 34.5516 251.798 36.0482C249.842 37.5161 247.441 38.25 244.594 38.25C242.293 38.25 240.223 37.7463 238.382 36.739C236.57 35.7028 235.147 34.2494 234.112 32.3786C233.105 30.5078 232.602 28.3492 232.602 25.9028C232.602 23.4275 233.105 21.2545 234.112 19.3837C235.118 17.513 236.527 16.0739 238.339 15.0665C240.151 14.0592 242.236 13.5555 244.594 13.5555C246.866 13.5555 248.893 14.0448 250.676 15.0234C252.488 16.0019 253.883 17.3978 254.861 19.2111C255.867 20.9955 256.37 23.0534 256.37 25.3847ZM250.115 23.6578C250.087 22.1036 249.526 20.866 248.433 19.945C247.34 18.9952 246.003 18.5203 244.421 18.5203C242.926 18.5203 241.661 18.9808 240.625 19.9018C239.619 20.794 239 22.046 238.77 23.6578H250.115Z" fill="black" data-dark-mode-color="true"/>
<path d="M267.91 18.8624V30.5365C267.91 31.3424 268.122 31.8749 268.496 32.249C268.899 32.5944 269.56 32.7671 270.481 32.7671H273.285V37.8614H269.488C264.398 37.8614 261.963 35.258 261.963 30.3076V18.8624H258.761V13.8265H261.963V7.875H267.91V13.8265H273.285V18.8624H267.91Z" fill="black" data-dark-mode-color="true"/>
<path d="M288.114 38.25C285.814 38.25 283.743 37.7463 281.903 36.739C280.062 35.7028 278.61 34.2494 277.546 32.3786C276.51 30.5078 275.993 28.3492 275.993 25.9028C275.993 23.4563 276.525 21.2977 277.589 19.4269C278.682 17.5561 280.163 16.1171 282.032 15.1097C283.901 14.0736 285.986 13.5555 288.287 13.5555C290.588 13.5555 292.672 14.0736 294.542 15.1097C296.411 16.1171 297.878 17.5561 298.942 19.4269C300.035 21.2977 300.581 23.4563 300.581 25.9028C300.581 28.3492 300.02 30.5078 298.899 32.3786C297.806 34.2494 296.31 35.7028 294.412 36.739C292.543 37.7463 290.444 38.25 288.114 38.25ZM288.114 32.983C289.207 32.983 290.228 32.724 291.177 32.2059C292.155 31.659 292.931 30.8532 293.506 29.7882C294.082 28.7233 294.369 27.4282 294.369 25.9028C294.369 23.629 293.765 21.8877 292.557 20.6789C291.378 19.4413 289.926 18.8225 288.201 18.8225C286.475 18.8225 285.023 19.4413 283.844 20.6789C282.693 21.8877 282.118 23.629 282.118 25.9028C282.118 28.1765 282.679 29.9322 283.801 31.1698C284.951 32.3786 286.389 32.983 288.114 32.983Z" fill="black" data-dark-mode-color="true"/>
<path d="M200.877 7.875H189.284L200.877 25.2653V7.875Z" fill="black" data-dark-mode-color="true"/>
<path d="M172.125 38.25L172.125 7.875H180.497L200.877 38.25H192.261L178.849 18.541V38.25H172.125Z" fill="black" data-dark-mode-color="true"/>
</svg>
