<svg width="800" height="800" viewBox="0 0 800 800" fill="none" xmlns="http://www.w3.org/2000/svg">
<rect width="800" height="800" rx="160" fill="black"/>
<g clip-path="url(#clip0_3206_10)">
<path d="M324.626 259.359C326.569 249.901 334.894 243.111 344.551 243.111H555.746C572.918 243.111 585.767 258.868 582.312 275.689L529.041 535.035C526.451 547.646 515.35 556.699 502.475 556.699H263.551L324.626 259.359Z" fill="#5BCC5A"/>
<path d="M318.907 287.184H390.127C437.189 287.184 472.206 330.673 462.165 376.651C454.77 410.514 424.788 434.654 390.128 434.654H288.633L318.907 287.184Z" fill="#0DA84C"/>
<path d="M263.547 556.699L318.908 287.184H282.942C273.286 287.184 264.96 293.973 263.017 303.432L214.345 540.411C212.618 548.821 219.043 556.699 227.629 556.699H263.547Z" fill="#75DC66"/>
</g>
<defs>
<clipPath id="clip0_3206_10">
<rect width="378" height="378" fill="white" transform="translate(211 211)"/>
</clipPath>
</defs>
</svg>
