<svg width="800" height="800" viewBox="0 0 800 800" fill="none" xmlns="http://www.w3.org/2000/svg">
<rect width="800" height="800" rx="160" fill="black"/>
<path d="M211 361.741V408.693H281.875V443.807L216.322 462.419L229.303 507.564L287.353 491.084C302.475 538.591 347.19 573.028 400 573.028C452.809 573.028 497.526 538.591 512.646 491.084L570.698 507.564L583.677 462.419L518.125 443.807V408.693H589V361.741L423.718 361.956H422.936L376.375 361.443V361.741H211Z" fill="#5BCC5A"/>
<path d="M376.865 225.932V263.97C384.513 262.411 392.428 261.592 400.534 261.592C408.64 261.592 416.555 262.411 424.202 263.97V225.932H471.539V285.357C491.101 300.115 505.96 320.82 513.458 344.8H287.609C295.108 320.82 309.968 300.115 329.529 285.357V225.932H376.865Z" fill="#75DC66"/>
<path d="M401.471 447.977C448.416 447.977 486.473 409.92 486.473 362.975H316.469C316.469 409.92 354.526 447.977 401.471 447.977Z" fill="#0DA84C"/>
</svg>
